<svg width="1512" height="982" viewBox="0 0 1512 982" fill="none" xmlns="http://www.w3.org/2000/svg">
<g clip-path="url(#clip0_18_46)">
<path d="M1197 491.5C1197 735.334 999.334 933 755.5 933C511.666 933 314 735.334 314 491.5C314 247.666 511.666 50 755.5 50C999.334 50 1197 247.666 1197 491.5ZM315.192 491.5C315.192 734.675 512.325 931.808 755.5 931.808C998.675 931.808 1195.81 734.675 1195.81 491.5C1195.81 248.325 998.675 51.192 755.5 51.192C512.325 51.192 315.192 248.325 315.192 491.5Z" fill="url(#paint0_linear_18_46)" fill-opacity="0.1"/>
<path d="M1285 491C1285 783.159 1048.16 1020 756 1020C463.841 1020 227 783.159 227 491C227 198.841 463.841 -38 756 -38C1048.16 -38 1285 198.841 1285 491ZM228.428 491C228.428 782.37 464.63 1018.57 756 1018.57C1047.37 1018.57 1283.57 782.37 1283.57 491C1283.57 199.63 1047.37 -36.5717 756 -36.5717C464.63 -36.5717 228.428 199.63 228.428 491Z" fill="url(#paint1_linear_18_46)" fill-opacity="0.1"/>
<path d="M1372 491.5C1372 831.984 1095.98 1108 755.5 1108C415.016 1108 139 831.984 139 491.5C139 151.016 415.016 -125 755.5 -125C1095.98 -125 1372 151.016 1372 491.5ZM140.665 491.5C140.665 831.064 415.936 1106.34 755.5 1106.34C1095.06 1106.34 1370.34 831.064 1370.34 491.5C1370.34 151.936 1095.06 -123.335 755.5 -123.335C415.936 -123.335 140.665 151.936 140.665 491.5Z" fill="url(#paint2_linear_18_46)" fill-opacity="0.1"/>
<path d="M1460 491C1460 879.808 1144.81 1195 756 1195C367.192 1195 52 879.808 52 491C52 102.192 367.192 -213 756 -213C1144.81 -213 1460 102.192 1460 491ZM53.9008 491C53.9008 878.759 368.241 1193.1 756 1193.1C1143.76 1193.1 1458.1 878.759 1458.1 491C1458.1 103.241 1143.76 -211.099 756 -211.099C368.241 -211.099 53.9008 103.241 53.9008 491Z" fill="url(#paint3_linear_18_46)" fill-opacity="0.1"/>
</g>
<defs>
<linearGradient id="paint0_linear_18_46" x1="509.936" y1="130.566" x2="1066.16" y2="904.641" gradientUnits="userSpaceOnUse">
<stop stop-color="#343434"/>
<stop offset="1" stop-color="#121212"/>
</linearGradient>
<linearGradient id="paint1_linear_18_46" x1="461.768" y1="58.5328" x2="1128.23" y2="986.02" gradientUnits="userSpaceOnUse">
<stop stop-color="#343434"/>
<stop offset="1" stop-color="#121212"/>
</linearGradient>
<linearGradient id="paint2_linear_18_46" x1="412.6" y1="-12.5" x2="1189.3" y2="1068.4" gradientUnits="userSpaceOnUse">
<stop stop-color="#343434"/>
<stop offset="1" stop-color="#121212"/>
</linearGradient>
<linearGradient id="paint3_linear_18_46" x1="364.432" y1="-84.5329" x2="1251.37" y2="1149.78" gradientUnits="userSpaceOnUse">
<stop stop-color="#343434"/>
<stop offset="1" stop-color="#121212"/>
</linearGradient>
<clipPath id="clip0_18_46">
<rect width="1512" height="982" fill="white"/>
</clipPath>
</defs>
</svg>
