<svg width="1435" height="280" viewBox="0 0 1435 280" fill="none" xmlns="http://www.w3.org/2000/svg">
<path d="M146.623 117.613C157.951 128.648 163.615 141.979 163.615 157.604C163.615 173.229 157.951 186.461 146.623 197.301C135.1 208.434 121.574 214 106.047 214H0.724609L0.578125 0.865234H91.9844C107.609 0.865234 121.037 5.69922 132.268 15.3672C143.205 25.0352 148.674 36.8027 148.674 50.6699C148.674 63.9512 143.498 75.4258 133.146 85.0938C122.795 94.5664 110.002 99.791 94.7676 100.768H106.047C121.574 100.865 135.1 106.48 146.623 117.613ZM37.7852 7.45703V98.7168H67.9609C80.9492 98.7168 91.2031 94.3711 98.7227 85.6797C106.242 76.9883 110.002 66.0996 110.002 53.0137C110.002 40.0254 106.242 29.1855 98.7227 20.4941C91.2031 11.8027 80.9492 7.45703 67.9609 7.45703H37.7852ZM114.543 192.76C124.113 183.092 128.898 170.934 128.898 156.285C128.898 141.734 124.113 129.576 114.543 119.811C105.07 110.143 92.1797 105.309 75.8711 105.309H37.7852V207.408H75.8711C92.1797 207.408 105.07 202.525 114.543 192.76ZM196.721 214V66.3438H234.221V214H196.721ZM215.471 42.3203C209.709 42.3203 204.777 40.2695 200.676 36.168C196.574 32.0664 194.523 27.1348 194.523 21.373C194.523 15.6113 196.574 10.7285 200.676 6.72461C204.777 2.62305 209.709 0.572266 215.471 0.572266C221.232 0.572266 226.115 2.62305 230.119 6.72461C234.221 10.7285 236.271 15.6113 236.271 21.373C236.271 27.1348 234.221 32.0664 230.119 36.168C226.115 40.2695 221.232 42.3203 215.471 42.3203ZM385.686 66.3438V73.375L314.055 206.969H385.686V214H271.574V206.969L343.205 73.375H271.574V66.3438H385.686ZM525.285 188.219C533.781 179.625 540.129 168.297 544.328 154.234H549.016C545.012 173.863 536.564 189.244 523.674 200.377C510.881 211.412 495.646 216.93 477.971 216.93C458.439 216.93 441.789 209.605 428.02 194.957C414.543 180.504 407.805 162.535 407.805 141.051C407.805 118.785 414.543 100.182 428.02 85.2402C441.691 69.9082 459.27 62.2422 480.754 62.2422C502.141 62.2422 518.889 68.7363 530.998 81.7246C543.303 94.7129 549.943 112.047 550.92 133.727H445.012C444.523 138.609 444.67 144.859 445.451 152.477C446.232 159.996 448.186 167.564 451.311 175.182C454.436 182.701 459.367 189 466.105 194.078C472.844 199.156 482.072 201.646 493.791 201.549C506.291 201.256 516.789 196.812 525.285 188.219ZM480.021 68.834C472.307 68.834 464.836 74.2539 457.609 85.0938C450.383 95.9336 446.232 109.752 445.158 126.549H513.273C513.078 107.115 509.904 92.6621 503.752 83.1895C497.697 73.6191 489.787 68.834 480.021 68.834ZM822.502 0.865234L822.648 148.229C822.648 170.201 815.031 187.242 799.797 199.352C784.758 211.363 764.543 217.369 739.152 217.369C712.98 217.369 692.424 211.363 677.482 199.352C663.42 187.828 656.389 170.787 656.389 148.229L656.242 0.865234H694.182V148.229C694.377 166.49 699.797 180.26 710.441 189.537C721.086 198.912 736.027 203.6 755.266 203.6C774.602 203.6 789.445 199.059 799.797 189.977C810.344 180.992 815.617 167.076 815.617 148.229L815.471 0.865234H822.502ZM857.805 0.865234H895.305V214H857.805V0.865234ZM1057.32 214H1019.82V194.518C1016.01 200.67 1009.95 206.09 1001.65 210.777C993.645 215.27 983.977 217.467 972.648 217.369C960.051 216.881 949.504 212.975 941.008 205.65C936.809 201.939 933.244 197.545 930.314 192.467C927.482 187.389 926.066 181.676 926.066 175.328C926.066 165.172 929.289 156.627 935.734 149.693C942.18 142.76 951.115 137.34 962.541 133.434C1000.33 120.152 1019.08 105.162 1018.79 88.4629C1018.6 75.7676 1008.78 69.4199 989.348 69.4199C982.609 69.7129 977.189 70.8359 973.088 72.7891C969.084 74.7422 966.594 76.793 965.617 78.9414C964.738 80.9922 965.617 82.3594 968.254 83.043C972.648 84.3125 975.236 87.3398 976.018 92.125C976.799 96.9102 975.773 101.842 972.941 106.92C970.109 111.998 965.422 115.562 958.879 117.613C954.191 118.785 950.432 118.297 947.6 116.148C944.768 114 942.961 110.826 942.18 106.627C941.398 102.428 941.74 97.8379 943.205 92.8574C944.67 87.7793 947.307 82.9453 951.115 78.3555C954.924 73.668 960.002 69.8105 966.35 66.7832C972.697 63.7559 980.363 62.2422 989.348 62.2422C1004.88 62.2422 1017.18 64.1465 1026.26 67.9551C1035.34 71.7637 1042.52 77.0859 1047.79 83.9219C1053.95 92.125 1057.12 103.258 1057.32 117.32V214ZM1018.79 153.062V115.123C1013.32 121.275 1001.9 128.697 984.514 137.389C977.287 140.807 971.965 145.738 968.547 152.184C965.129 158.531 963.469 165.758 963.566 173.863C963.664 175.914 964.104 178.6 964.885 181.92C965.666 185.24 966.984 188.609 968.84 192.027C970.695 195.445 973.186 198.326 976.311 200.67C979.533 203.014 983.537 204.186 988.322 204.186C994.865 204.186 1000.14 202.281 1004.14 198.473C1008.24 194.566 1011.32 189.83 1013.37 184.264C1015.52 178.6 1016.94 172.936 1017.62 167.271C1018.4 161.51 1018.79 156.773 1018.79 153.062ZM1171.28 128.893C1186.61 138.17 1193.84 151.646 1192.96 169.322C1191.89 182.994 1187.93 193.297 1181.1 200.23C1174.36 207.164 1166.5 211.754 1157.51 214C1148.53 216.148 1140.28 216.979 1132.76 216.49C1117.23 215.221 1105.9 211.119 1098.77 204.186C1091.74 197.252 1088.18 189.879 1088.08 182.066C1088.08 174.254 1090.86 168.443 1096.43 164.635C1103.46 160.729 1109.22 160.826 1113.71 164.928C1118.21 169.029 1120.84 174.254 1121.62 180.602C1122.4 186.852 1120.79 191.295 1116.79 193.932C1114.84 195.104 1114.3 196.812 1115.18 199.059C1116.15 201.305 1118.45 203.355 1122.06 205.211C1125.77 207.066 1130.75 207.994 1137 207.994C1150.09 207.506 1159.32 204.82 1164.69 199.938C1170.06 195.055 1172.79 189.732 1172.89 183.971C1173.09 178.209 1171.82 173.766 1169.08 170.641C1166.35 167.32 1161.96 164.342 1155.9 161.705C1147.79 158.189 1140.42 155.406 1133.78 153.355C1125.29 150.23 1119.04 147.838 1115.03 146.178C1097.36 137.389 1088.71 123.717 1089.1 105.162C1089.49 92.9551 1093.69 82.7988 1101.7 74.6934C1110.29 66.7832 1121.96 62.7305 1136.71 62.5352C1153.41 62.3398 1165.71 65.1719 1173.62 71.0312C1181.63 76.793 1185.78 83.3359 1186.08 90.6602C1186.47 97.9844 1183.59 103.795 1177.43 108.092C1171.48 111.51 1166.11 111.266 1161.32 107.359C1156.63 103.355 1153.75 98.5215 1152.68 92.8574C1151.6 87.0957 1153.46 83.2383 1158.24 81.2852C1161.56 80.0156 1161.27 77.9648 1157.37 75.1328C1153.46 72.2031 1146.67 70.543 1137 70.1523C1129.58 70.0547 1123.28 72.2031 1118.11 76.5977C1114.01 79.918 1111.66 84.4102 1111.08 90.0742C1110.69 95.3477 1112.44 100.035 1116.35 104.137C1119.67 107.359 1128.51 111.705 1142.86 117.174C1156.24 121.666 1165.71 125.572 1171.28 128.893ZM1166.89 229.674C1167.77 229.576 1170.11 229.723 1173.92 230.113C1177.63 230.602 1181.73 231.578 1186.22 233.043C1190.62 234.605 1194.47 236.9 1197.79 239.928C1201.02 243.053 1202.63 247.252 1202.63 252.525C1202.24 258.482 1199.65 263.561 1194.87 267.76C1190.08 272.057 1184.46 275.084 1178.02 276.842C1171.48 278.697 1165.37 278.795 1159.71 277.135C1153.95 275.572 1149.85 271.861 1147.4 266.002H1155.02C1158.24 270.104 1162.05 272.105 1166.45 272.008C1170.74 271.91 1174.55 270.104 1177.87 266.588C1181.19 263.17 1182.95 258.531 1183.15 252.672C1182.95 248.18 1181.68 244.615 1179.34 241.979C1176.99 239.439 1174.26 237.535 1171.13 236.266C1167.91 235.094 1165.03 234.361 1162.49 234.068C1159.95 233.775 1158.39 233.678 1157.8 233.775L1164.84 213.854H1172.31L1166.89 229.674ZM1227.38 214V66.3438H1264.88V214H1227.38ZM1418.99 75.7188C1423.38 79.918 1427.09 84.8496 1430.12 90.5137C1433.15 96.1777 1434.66 103.697 1434.66 113.072V214H1397.16V108.238C1397.26 99.3516 1394.62 91.6855 1389.25 85.2402C1383.98 78.6973 1376.9 75.4746 1368.01 75.5723C1360.1 75.5723 1353.36 78.8438 1347.79 85.3867C1342.42 91.832 1339.74 99.4492 1339.74 108.238V214H1302.24V66.3438H1339.74V82.8965C1351.07 69.7129 1365.52 63.1211 1383.1 63.1211C1398.04 62.7305 1410 66.9297 1418.99 75.7188Z" fill="white"/>
</svg>
