<svg width="1414" height="485" viewBox="0 0 1414 485" fill="none" xmlns="http://www.w3.org/2000/svg">
<path d="M487.18 174.145V226H462.277V222.289C454.465 226.326 445.415 228.344 435.129 228.344C421.587 228.344 409.283 225.056 398.215 218.48C387.147 211.905 378.293 203.083 371.652 192.016C365.077 180.883 361.789 168.578 361.789 155.102C361.789 141.625 365.077 129.353 371.652 118.285C378.293 107.152 387.147 98.2982 398.215 91.7227C409.283 85.1471 421.587 81.8594 435.129 81.8594C438.449 81.8594 441.704 82.0872 444.895 82.543C453.553 83.7799 461.138 86.612 467.648 91.0391C474.159 95.401 479.237 100.707 482.883 106.957C486.138 112.816 487.538 118.513 487.082 124.047C486.626 129.516 484.836 133.78 481.711 136.84C478.586 139.9 474.549 140.648 469.602 139.086C465.305 137.328 462.57 134.594 461.398 130.883C460.227 127.172 460.259 123.721 461.496 120.531C462.798 117.276 464.979 115.518 468.039 115.258C470.448 115.062 471.587 113.533 471.457 110.668C471.327 107.738 469.895 104.385 467.16 100.609C464.491 96.7682 460.487 93.4479 455.148 90.6484C449.81 87.7839 443.137 86.2865 435.129 86.1562C426.145 86.3516 418.104 89.5091 411.008 95.6289C403.977 101.749 398.378 110.017 394.211 120.434C390.109 130.785 388.059 142.276 388.059 154.906C388.059 167.602 390.109 179.19 394.211 189.672C398.378 200.154 404.009 208.52 411.105 214.77C418.202 220.954 426.21 224.047 435.129 224.047C439.426 224.047 443.82 223.396 448.312 222.094C453.13 220.727 457.785 218.676 462.277 215.941V178.539H441.77V174.145H487.18ZM574.484 127.562H599.484V226H574.484V214.965C566.932 223.754 557.297 228.148 545.578 228.148C535.617 228.409 527.642 225.609 521.652 219.75C518.723 216.951 516.249 213.663 514.23 209.887C512.212 206.111 511.203 201.098 511.203 194.848V127.562H536.203V198.07C536.138 203.995 537.896 209.105 541.477 213.402C544.992 217.764 549.712 219.913 555.637 219.848C560.91 219.848 565.402 217.667 569.113 213.305C572.694 209.008 574.484 203.93 574.484 198.07V127.562ZM549.973 88.4023C553.814 88.4023 557.102 89.7695 559.836 92.5039C562.505 95.1732 563.84 98.4284 563.84 102.27C563.84 106.176 562.505 109.496 559.836 112.23C557.102 114.9 553.814 116.234 549.973 116.234C546.066 116.234 542.779 114.9 540.109 112.23C537.375 109.496 536.008 106.176 536.008 102.27C536.008 98.4284 537.375 95.1732 540.109 92.5039C542.779 89.7695 546.066 88.4023 549.973 88.4023ZM593.82 88.4023C597.661 88.4023 600.949 89.7695 603.684 92.5039C606.418 95.1732 607.785 98.4284 607.785 102.27C607.785 106.176 606.418 109.496 603.684 112.23C600.949 114.9 597.661 116.234 593.82 116.234C589.979 116.234 586.724 114.9 584.055 112.23C581.32 109.496 579.953 106.176 579.953 102.27C579.953 98.4284 581.32 95.1732 584.055 92.5039C586.724 89.7695 589.979 88.4023 593.82 88.4023ZM622.922 83.9102H647.922V226H622.922V83.9102ZM745.871 151.781V222.094H812.766V226H720.969V83.9102H812.766V88.207H745.871V147.387H788.547V151.879L745.871 151.781ZM846.75 202.758C847.792 206.013 850.786 207.901 855.734 208.422C860.682 208.878 866.737 208.878 873.898 208.422C881.711 207.901 889.719 207.934 897.922 208.52C906.125 209.105 913.417 211.449 919.797 215.551C926.177 219.587 930.474 226.553 932.688 236.449C933.99 243.09 932.915 249.372 929.465 255.297C926.014 261.221 920.285 266.072 912.277 269.848C904.27 273.624 894.178 275.512 882.004 275.512C871.262 275.512 862.18 274.372 854.758 272.094C847.401 269.815 841.704 266.853 837.668 263.207C833.632 259.561 831.255 255.622 830.539 251.391C829.888 247.159 830.897 243.025 833.566 238.988C836.236 234.952 840.63 231.436 846.75 228.441C841.021 227.855 836.757 225.805 833.957 222.289C831.158 218.773 829.953 214.672 830.344 209.984C830.799 205.297 833.013 200.935 836.984 196.898C840.956 192.797 846.815 189.9 854.562 188.207C849.68 185.147 845.708 181.208 842.648 176.391C839.523 171.573 837.961 166.365 837.961 160.766C837.961 150.609 842.16 142.146 850.559 135.375C858.697 128.539 869.374 125.121 882.59 125.121C885.194 125.056 888.905 125.479 893.723 126.391C898.736 114.802 903.814 106.892 908.957 102.66C914.165 98.3633 918.82 96.5729 922.922 97.2891C927.089 97.9401 930.116 99.9583 932.004 103.344C933.892 106.664 934.087 110.115 932.59 113.695C930.376 117.862 927.512 120.531 923.996 121.703C920.546 122.81 917.453 122.745 914.719 121.508C912.049 120.271 910.845 118.188 911.105 115.258C911.496 111.807 911.268 110.147 910.422 110.277C909.576 110.342 908.404 111.449 906.906 113.598C905.474 115.746 904.042 118.188 902.609 120.922C901.242 123.591 900.201 125.805 899.484 127.562C908.273 129.906 914.784 133.682 919.016 138.891C923.768 144.359 926.145 151.326 926.145 159.789C926.145 169.555 921.717 178.083 912.863 185.375C904.4 191.885 893.918 195.173 881.418 195.238C872.173 195.238 864.1 193.48 857.199 189.965C857.199 189.965 856.581 190.29 855.344 190.941C854.107 191.592 852.74 192.504 851.242 193.676C849.745 194.848 848.508 196.215 847.531 197.777C846.62 199.275 846.359 200.935 846.75 202.758ZM882.004 129.027C876.665 129.027 872.108 132.087 868.332 138.207C864.621 144.262 862.766 151.586 862.766 160.18C862.766 168.773 864.621 176.098 868.332 182.152C872.108 188.207 876.665 191.234 882.004 191.234C887.277 191.234 891.77 188.207 895.48 182.152C899.257 176.098 901.145 168.773 901.145 160.18C901.145 151.586 899.257 144.262 895.48 138.207C891.77 132.087 887.277 129.027 882.004 129.027ZM881.418 271.117C889.491 271.117 896.132 270.076 901.34 267.992C906.548 265.909 910.552 263.24 913.352 259.984C916.151 256.794 917.941 253.376 918.723 249.73C919.504 246.085 919.439 242.634 918.527 239.379C917.616 236.189 916.086 233.552 913.938 231.469C911.789 229.451 909.185 228.441 906.125 228.441H860.129C857.395 228.572 854.953 229.678 852.805 231.762C850.656 233.845 849.029 236.482 847.922 239.672C846.815 242.927 846.457 246.345 846.848 249.926C847.303 253.507 848.736 256.892 851.145 260.082C853.553 263.337 857.199 265.974 862.082 267.992C867.03 270.076 873.475 271.117 881.418 271.117ZM931.613 85.1797H937.082C937.082 87.7188 936.529 90.9414 935.422 94.8477C934.25 98.6888 932.525 102.497 930.246 106.273C927.967 110.049 925.135 113.24 921.75 115.844C918.299 118.448 914.296 119.75 909.738 119.75C904.725 119.75 900.461 118.448 896.945 115.844C893.43 113.24 890.598 110.049 888.449 106.273C886.301 102.497 884.738 98.6888 883.762 94.8477C882.785 90.9414 882.297 87.7188 882.297 85.1797H887.961C888.482 91.625 890.891 96.4427 895.188 99.6328C899.484 102.823 904.4 104.418 909.934 104.418C915.467 104.353 920.383 102.725 924.68 99.5352C928.911 96.2799 931.223 91.4948 931.613 85.1797ZM1003.68 125.414C1013.19 125.609 1020.09 128.051 1024.39 132.738C1028.68 137.426 1030.41 142.374 1029.56 147.582C1028.78 152.79 1025.46 156.306 1019.6 158.129C1016.02 158.845 1013.09 157.999 1010.81 155.59C1008.53 153.116 1007.26 150.219 1007 146.898C1006.81 143.578 1007.98 141.007 1010.52 139.184C1012.08 138.012 1012.24 136.645 1011.01 135.082C1009.77 133.454 1007.65 132.283 1004.66 131.566C1001.73 130.785 998.41 131.046 994.699 132.348C991.053 133.65 987.603 136.579 984.348 141.137C982.329 144.132 980.865 147.419 979.953 151C979.042 154.516 978.586 158.292 978.586 162.328V226H953.586V127.562H978.586V139.379C984.38 130.069 992.746 125.414 1003.68 125.414ZM1047.04 226V127.562H1072.04V226H1047.04ZM1059.54 111.547C1055.7 111.547 1052.41 110.18 1049.68 107.445C1046.95 104.711 1045.58 101.423 1045.58 97.582C1045.58 93.7409 1046.95 90.4857 1049.68 87.8164C1052.41 85.082 1055.7 83.7148 1059.54 83.7148C1063.38 83.7148 1066.64 85.082 1069.31 87.8164C1072.04 90.4857 1073.41 93.7409 1073.41 97.582C1073.41 101.423 1072.04 104.711 1069.31 107.445C1066.64 110.18 1063.38 111.547 1059.54 111.547ZM1182.1 138.793C1186.14 143.09 1189.33 148.461 1191.67 154.906C1194.02 161.286 1195.19 168.513 1195.19 176.586C1195.19 184.464 1193.92 191.462 1191.38 197.582C1188.84 203.702 1185.36 209.138 1180.93 213.891C1176.63 218.708 1171.91 222.354 1166.77 224.828C1161.63 227.237 1155.67 228.441 1148.9 228.441C1143.17 228.441 1138.42 227.628 1134.64 226C1130.86 224.307 1127.93 222.419 1125.85 220.336C1123.77 218.188 1122.47 216.365 1121.95 214.867V226H1096.95V83.9102H1121.95V137.035C1125.27 133.064 1129.5 130.134 1134.64 128.246C1139.78 126.358 1144.99 125.414 1150.27 125.414C1163.35 125.414 1173.96 129.874 1182.1 138.793ZM1162.47 209.301C1167.68 200.642 1170.25 189.672 1170.19 176.391C1170.19 163.24 1167.91 152.725 1163.35 144.848C1158.6 136.84 1152.06 132.868 1143.72 132.934C1139.56 132.934 1135.42 134.105 1131.32 136.449C1127.35 138.728 1124.22 141.299 1121.95 144.164V196.508C1122.08 203.799 1124.29 209.854 1128.59 214.672C1133.08 219.099 1137.8 221.508 1142.75 221.898C1150.62 222.289 1157.2 218.09 1162.47 209.301ZM1297.04 139.086C1305.7 148.331 1310.23 160.57 1310.62 175.805C1310.62 190.453 1305.7 202.855 1295.87 213.012C1286.11 223.168 1274.45 228.246 1260.91 228.246C1247.43 228.246 1236.01 223.363 1226.63 213.598C1217.39 203.897 1212.77 191.918 1212.77 177.66C1212.77 163.012 1217.42 150.609 1226.73 140.453C1236.11 130.167 1248.12 125.056 1262.77 125.121C1277.09 125.186 1288.51 129.841 1297.04 139.086ZM1262.08 223.363C1266.57 223.363 1270.64 221.28 1274.29 217.113C1278 212.882 1280.93 207.25 1283.08 200.219C1285.29 193.122 1286.4 185.245 1286.4 176.586C1286.4 167.992 1285.29 160.18 1283.08 153.148C1280.93 146.052 1278 140.421 1274.29 136.254C1270.64 132.022 1266.57 129.906 1262.08 129.906C1257.59 129.906 1253.49 132.022 1249.78 136.254C1246.13 140.421 1243.2 146.052 1240.99 153.148C1238.84 160.18 1237.77 167.992 1237.77 176.586C1237.77 185.245 1238.84 193.122 1240.99 200.219C1243.2 207.25 1246.13 212.882 1249.78 217.113C1253.49 221.28 1257.59 223.363 1262.08 223.363ZM1401.34 127.562V132.25L1353.59 221.312H1401.34V226H1325.27V221.312L1373.02 132.25H1325.27V127.562H1401.34Z" fill="#121212"/>
<line y1="155" x2="343" y2="155" stroke="#121212" stroke-width="8"/>
<path d="M123.047 392.168C123.633 392.217 124.121 392.437 124.512 392.827C124.902 393.218 125.098 393.682 125.098 394.219C125.049 394.854 124.805 395.366 124.365 395.757C123.926 396.147 123.389 396.318 122.754 396.27C117.334 395.586 111.89 395.659 106.421 396.489C105.298 396.685 104.175 396.904 103.052 397.148C100.317 407.012 97.2412 416.094 93.8232 424.395C91.5771 429.912 88.7695 435.869 85.4004 442.266C82.0312 448.662 78.1738 454.644 73.8281 460.21C69.4824 465.825 64.6729 470.146 59.3994 473.174C56.7627 474.59 53.9795 475.371 51.0498 475.518C48.1689 475.664 45.3857 474.932 42.7002 473.32C42.1631 472.979 41.626 472.612 41.0889 472.222C40.8936 472.075 40.7227 471.904 40.5762 471.709C38.3301 469.365 37.0605 466.582 36.7676 463.359C36.5234 460.186 36.8408 456.963 37.7197 453.691C38.5986 450.469 39.6484 447.539 40.8691 444.902C43.9453 438.359 47.7783 432.305 52.3682 426.738C56.958 421.221 62.0605 416.216 67.6758 411.724C77.1973 404.106 87.8174 398.613 99.5361 395.244C100.659 391.191 101.66 387.139 102.539 383.086C103.174 380.352 103.735 376.787 104.224 372.393C104.761 367.949 104.883 363.433 104.59 358.843C104.346 354.253 103.345 350.371 101.587 347.197C99.8779 343.975 97.0947 342.192 93.2373 341.851C90.6982 342.095 88.1836 343.12 85.6934 344.927C83.252 346.733 80.7861 348.906 78.2959 351.445C80.3955 355.986 82.0312 360.674 83.2031 365.508C83.3984 366.338 83.3008 367.095 82.9102 367.778C82.5195 368.413 81.9092 368.853 81.0791 369.097C80.2002 369.292 79.3945 369.17 78.6621 368.73C77.9785 368.242 77.5635 367.559 77.417 366.68C76.7334 362.09 75.7812 358.11 74.5605 354.741C73.8281 355.474 73.1445 356.133 72.5098 356.719C72.3145 356.914 72.1191 357.109 71.9238 357.305C66.1621 363.018 60.5713 368.853 55.1514 374.81C49.292 381.304 43.2373 387.627 36.9873 393.779C36.6455 394.072 36.3037 394.365 35.9619 394.658C33.4717 397.1 30.4688 399.688 26.9531 402.422C23.4375 405.156 19.7998 407.109 16.04 408.281C12.2803 409.453 8.78906 408.867 5.56641 406.523C5.22461 406.23 4.88281 405.938 4.54102 405.645C2.24609 403.154 0.90332 400.322 0.512695 397.148C0.170898 393.975 0.415039 390.752 1.24512 387.48C2.0752 384.209 3.125 381.206 4.39453 378.472C8.44727 369.731 14.2334 361.455 21.7529 353.643C29.3213 345.781 37.5977 340.093 46.582 336.577C53.125 334.331 58.9355 334.258 64.0137 336.357C69.1406 338.408 73.3643 342.363 76.6846 348.223C79.126 346.172 81.665 344.39 84.3018 342.876C86.9873 341.313 89.5996 340.41 92.1387 340.166C92.2852 340.117 92.4316 340.093 92.5781 340.093C92.6758 340.093 92.749 340.093 92.7979 340.093C92.9443 340.093 93.0908 340.117 93.2373 340.166C93.2861 340.166 93.335 340.166 93.3838 340.166C98.2178 340.557 101.733 342.559 103.931 346.172C106.128 349.736 107.397 353.74 107.739 358.184C108.228 363.75 108.081 369.585 107.3 375.688C106.567 381.792 105.42 387.944 103.857 394.146C104.541 393.999 105.225 393.853 105.908 393.706C111.523 392.632 117.236 392.119 123.047 392.168ZM69.3604 354.595C69.6533 354.302 69.9951 353.984 70.3857 353.643C71.2158 352.861 72.1436 352.031 73.1689 351.152C69.458 344.268 64.2822 340.776 57.6416 340.679C51.001 340.532 44.0674 342.876 36.8408 347.71C29.6143 352.544 23.2666 358.892 17.7979 366.753C15.9424 369.39 13.9893 372.612 11.9385 376.421C9.93652 380.229 8.39844 384.136 7.32422 388.14C6.25 392.144 6.20117 395.732 7.17773 398.906C7.56836 399.834 8.10547 400.64 8.78906 401.323C8.88672 401.47 9.00879 401.616 9.15527 401.763C9.2041 401.763 9.25293 401.787 9.30176 401.836C9.35059 401.885 9.39941 401.934 9.44824 401.982C9.59473 402.08 9.74121 402.178 9.8877 402.275C11.4502 403.105 13.3057 403.13 15.4541 402.349C17.6514 401.567 19.7754 400.469 21.8262 399.053C23.877 397.637 25.5859 396.392 26.9531 395.317C27.002 395.269 27.0508 395.22 27.0996 395.171C35.9375 387.651 44.4092 379.644 52.5146 371.147C57.9834 365.483 63.5986 359.966 69.3604 354.595ZM73.6084 451.494C84.6924 435.088 93.042 417.314 98.6572 398.174C86.6455 401.738 75.9766 407.891 66.6504 416.631C57.373 425.322 50.2441 435.381 45.2637 446.807C44.4336 448.76 43.5303 451.445 42.5537 454.863C41.626 458.281 41.0889 461.577 40.9424 464.751C40.8447 467.925 41.6748 470.122 43.4326 471.343C46.9482 473.247 50.6592 473.027 54.5654 470.684C58.5205 468.389 62.207 465.312 65.625 461.455C69.043 457.598 71.7041 454.277 73.6084 451.494ZM194.751 390.776C195.093 391.216 195.239 391.704 195.19 392.241C195.142 392.778 194.897 393.218 194.458 393.56C194.409 393.608 194.385 393.633 194.385 393.633C193.359 394.219 192.212 394.878 190.942 395.61C187.427 397.661 183.398 399.883 178.857 402.275C174.365 404.619 169.897 406.572 165.454 408.135C161.06 409.697 157.227 410.308 153.955 409.966C153.516 409.868 153.076 409.746 152.637 409.6C151.807 409.258 151.05 408.794 150.366 408.208C150.024 407.915 149.731 407.598 149.487 407.256C147.485 404.131 146.704 400.273 147.144 395.684C147.144 395.439 147.021 395.293 146.777 395.244C146.582 395.146 146.411 395.195 146.265 395.391C144.263 398.174 142.114 400.859 139.819 403.447C138.354 405.01 136.646 406.499 134.692 407.915C132.788 409.331 130.664 409.941 128.32 409.746C128.223 409.746 128.101 409.722 127.954 409.673C127.954 409.673 127.93 409.673 127.881 409.673C125.781 409.136 124.219 407.915 123.193 406.011C121.924 403.179 121.484 400.078 121.875 396.709C122.217 393.291 122.827 390.142 123.706 387.261C124.341 385.21 125.146 383.208 126.123 381.255C126.465 380.571 126.88 379.888 127.368 379.204C127.856 378.521 128.467 378.13 129.199 378.032C129.98 377.886 130.713 378.032 131.396 378.472C132.08 379.009 132.471 379.668 132.568 380.449C132.715 381.182 132.568 381.89 132.129 382.573C130.615 385.112 129.37 388.408 128.394 392.461C127.466 396.514 127.368 399.932 128.101 402.715C128.149 402.91 128.223 403.081 128.32 403.228C128.32 403.276 128.32 403.301 128.32 403.301C128.467 403.643 128.687 403.911 128.979 404.106C129.028 404.106 129.102 404.131 129.199 404.18C129.199 404.18 129.224 404.18 129.272 404.18C129.321 404.18 129.395 404.18 129.492 404.18C132.178 403.301 135.083 400.957 138.208 397.148C141.382 393.34 143.823 390.166 145.532 387.627C147.046 385.479 148.511 383.281 149.927 381.035C150.415 380.352 151.025 380.01 151.758 380.01C152.49 380.01 153.101 380.278 153.589 380.815C154.077 381.353 154.224 382.036 154.028 382.866C153.882 383.403 153.711 383.965 153.516 384.551C152.295 388.213 151.318 391.948 150.586 395.757C150.244 397.661 150.098 399.712 150.146 401.909C150.244 404.106 151.074 405.864 152.637 407.183C152.881 407.329 153.149 407.476 153.442 407.622C153.735 407.72 154.028 407.817 154.321 407.915C154.321 407.915 154.346 407.915 154.395 407.915C158.057 408.306 162.256 407.524 166.992 405.571C171.729 403.569 176.343 401.128 180.835 398.247C185.327 395.366 189.014 392.754 191.895 390.41C192.334 390.068 192.822 389.946 193.359 390.044C193.896 390.093 194.36 390.337 194.751 390.776ZM170.068 356.719C170.947 356.719 171.875 357.354 172.852 358.623C173.779 359.844 174.243 361.333 174.243 363.091C174.243 364.849 173.853 366.021 173.071 366.606C172.29 367.144 171.46 367.412 170.581 367.412C169.751 367.412 168.945 367.144 168.164 366.606C167.383 366.021 166.992 364.849 166.992 363.091C166.992 361.333 167.31 359.844 167.944 358.623C168.53 357.354 169.238 356.719 170.068 356.719ZM185.376 356.719C186.255 356.719 187.183 357.354 188.159 358.623C189.087 359.844 189.551 361.333 189.551 363.091C189.551 364.849 189.16 366.021 188.379 366.606C187.598 367.144 186.768 367.412 185.889 367.412C185.059 367.412 184.253 367.144 183.472 366.606C182.69 366.021 182.3 364.849 182.3 363.091C182.3 361.333 182.593 359.844 183.179 358.623C183.765 357.354 184.497 356.719 185.376 356.719ZM253.711 391.509C253.857 392.192 253.735 392.778 253.345 393.267C252.954 393.755 252.441 394.023 251.807 394.072C247.949 394.268 244.141 394.829 240.381 395.757C233.838 397.368 227.515 399.59 221.411 402.422C224.536 406.377 225.83 410.625 225.293 415.166C224.756 419.658 223.022 423.809 220.093 427.617C213.647 435.967 205.518 441.948 195.703 445.562C193.652 446.245 191.553 446.733 189.404 447.026C187.256 447.368 185.083 447.271 182.886 446.733C179.614 445.806 177.441 443.73 176.367 440.508C175.928 438.506 176.099 436.553 176.88 434.648C177.612 432.744 178.516 430.986 179.59 429.375C183.789 423.809 188.989 418.804 195.19 414.36C201.392 409.868 207.593 406.06 213.794 402.935C211.89 401.665 209.595 400.615 206.909 399.785C204.224 398.955 201.733 398.687 199.438 398.979C198.755 399.321 198.096 399.297 197.461 398.906C196.729 398.418 196.313 397.832 196.216 397.148C196.118 396.465 196.24 395.854 196.582 395.317C197.656 393.706 198.73 392.07 199.805 390.41L194.458 393.926C193.628 394.365 192.871 394.39 192.188 393.999C191.553 393.608 191.162 393.047 191.016 392.314C190.869 391.533 191.162 390.825 191.895 390.19C191.895 390.19 192.432 389.8 193.506 389.019C194.58 388.237 195.898 387.261 197.461 386.089C199.072 384.917 200.659 383.77 202.222 382.646C203.784 381.475 205.103 380.498 206.177 379.717C207.251 378.887 207.788 378.472 207.788 378.472C208.716 377.886 209.595 377.764 210.425 378.105C211.255 378.447 211.816 379.033 212.109 379.863C212.402 380.693 212.256 381.548 211.67 382.427C209.814 384.966 207.91 387.676 205.957 390.557C205.127 391.68 204.346 392.778 203.613 393.853C209.326 394.292 214.404 396.294 218.848 399.858C219.238 399.907 219.604 399.956 219.946 400.005C230.005 395.708 240.43 392.363 251.221 389.971C251.807 389.873 252.319 389.971 252.759 390.264C253.247 390.557 253.564 390.972 253.711 391.509ZM217.456 406.23C217.31 406.035 217.041 405.913 216.65 405.864C216.26 405.767 215.869 405.718 215.479 405.718C215.088 405.669 214.771 405.693 214.526 405.791C213.989 406.084 213.428 406.401 212.842 406.743C207.129 409.819 201.587 413.433 196.216 417.583C190.894 421.685 186.401 426.323 182.739 431.499C181.909 432.769 181.177 434.209 180.542 435.82C179.907 437.432 179.932 438.921 180.615 440.288C181.348 441.509 182.471 442.314 183.984 442.705C188.037 443.291 192.358 442.437 196.948 440.142C201.538 437.847 205.371 435.381 208.447 432.744C210.986 430.645 213.354 428.105 215.552 425.127C217.798 422.197 219.238 419.097 219.873 415.825C220.508 412.505 219.702 409.307 217.456 406.23ZM311.06 390.996C311.499 391.68 311.597 392.388 311.353 393.12C311.157 393.853 310.718 394.39 310.034 394.731C309.009 395.171 307.886 395.684 306.665 396.27C301.831 398.564 296.045 401.079 289.307 403.813C282.568 406.548 275.977 408.599 269.531 409.966C263.135 411.284 258.008 410.991 254.15 409.087C253.809 408.892 253.491 408.696 253.198 408.501C253.149 408.501 253.125 408.501 253.125 408.501C250.049 406.157 248.56 403.13 248.657 399.419C248.755 395.659 249.878 391.973 252.026 388.359C254.224 384.697 256.934 381.816 260.156 379.717C263.379 377.617 266.626 377.056 269.897 378.032C270.142 378.13 270.386 378.228 270.63 378.325C270.679 378.374 270.752 378.423 270.85 378.472C270.996 378.521 271.118 378.569 271.216 378.618L271.289 378.691C272.266 379.229 272.949 380.034 273.34 381.108C273.73 382.134 273.828 383.159 273.633 384.185C273.193 386.431 272.266 388.53 270.85 390.483C269.482 392.388 267.92 394.023 266.162 395.391C263.77 397.393 261.011 398.662 257.886 399.199C256.372 399.443 254.81 399.346 253.198 398.906C253.052 400.127 253.271 401.689 253.857 403.594C254.492 405.449 255.542 406.841 257.007 407.769C260.034 409.185 263.745 409.429 268.14 408.501C272.534 407.573 276.953 406.133 281.396 404.18C285.889 402.178 289.746 400.347 292.969 398.687C293.506 398.394 293.994 398.125 294.434 397.881C298.975 395.635 303.345 393.12 307.544 390.337C308.13 389.946 308.74 389.824 309.375 389.971C310.059 390.068 310.62 390.41 311.06 390.996ZM260.522 386.602C258.569 388.213 256.787 390.459 255.176 393.34C257.031 393.486 258.765 393.047 260.376 392.021C262.036 390.996 263.501 389.775 264.771 388.359C266.089 386.943 267.041 385.356 267.627 383.599C266.357 383.354 265.088 383.574 263.818 384.258C262.549 384.941 261.45 385.723 260.522 386.602ZM404.443 297.759C405.762 298.979 406.25 300.786 405.908 303.179C405.566 305.522 405.103 307.646 404.517 309.551C404.419 309.941 404.321 310.283 404.224 310.576C401.782 318.096 399.048 325.493 396.021 332.769C395.239 334.722 394.458 336.699 393.677 338.701C388.696 350.859 384.131 363.188 379.98 375.688C379.785 376.177 379.614 376.714 379.468 377.3C378.003 381.743 376.196 387.529 374.048 394.658C371.899 401.787 369.971 409.16 368.262 416.777C366.553 424.346 365.601 431.084 365.405 436.992C365.259 442.9 366.382 446.88 368.774 448.931C369.312 449.37 369.824 449.59 370.312 449.59C371.436 449.639 372.192 450.029 372.583 450.762C373.022 451.543 373.071 452.324 372.729 453.105C372.437 453.936 371.729 454.424 370.605 454.57C370.117 454.619 369.678 454.521 369.287 454.277C368.896 454.033 368.53 453.74 368.188 453.398C367.31 452.52 366.65 451.641 366.211 450.762C364.258 445.781 363.477 439.824 363.867 432.891C364.258 425.957 364.893 419.683 365.771 414.067C365.82 413.677 365.869 413.311 365.918 412.969C367.529 403.105 369.653 393.364 372.29 383.745C374.927 374.126 377.832 364.58 381.006 355.107C383.447 348.076 385.986 341.094 388.623 334.16C390.625 328.74 392.603 323.296 394.556 317.827C395.874 314.165 397.021 310.479 397.998 306.768C393.164 314.385 387.061 325.127 379.688 338.994C373.828 350.029 367.627 361.26 361.084 372.686C354.541 384.062 348.071 394.048 341.675 402.642C335.278 411.187 329.37 416.704 323.95 419.194C320.288 420.562 317.139 420.391 314.502 418.682C311.914 416.924 310.01 414.312 308.789 410.845C307.373 405.718 307.056 400.542 307.837 395.317C306.958 394.78 306.47 393.999 306.372 392.974C306.274 391.948 306.641 391.094 307.471 390.41C307.91 390.117 308.35 389.751 308.789 389.312C310.596 380.864 313.184 372.661 316.553 364.702C319.922 356.694 323.706 348.931 327.905 341.411C328.149 341.069 328.418 340.654 328.711 340.166C330.176 337.529 332.178 334.233 334.717 330.278C337.256 326.323 339.941 322.832 342.773 319.805C345.654 316.777 348.315 315.361 350.757 315.557C350.952 315.605 351.123 315.63 351.27 315.63L351.489 315.703C352.905 316.338 353.735 317.363 353.979 318.779C354.224 320.195 354.126 321.709 353.687 323.32C353.296 324.932 352.856 326.372 352.368 327.642C352.271 327.935 352.197 328.203 352.148 328.447C350.781 332.012 349.268 335.454 347.607 338.774C339.404 355.425 329.834 371.27 318.896 386.309C317.188 388.652 315.308 390.898 313.257 393.047C313.257 393.193 313.232 393.34 313.184 393.486C312.793 395.488 312.402 397.979 312.012 400.957C311.67 403.936 311.646 406.914 311.938 409.893C312.28 412.822 313.257 415.264 314.868 417.217C316.968 419.414 319.287 420.049 321.826 419.121C324.365 418.193 326.953 416.362 329.59 413.628C332.227 410.894 334.668 407.915 336.914 404.692C339.209 401.47 341.138 398.638 342.7 396.196C343.53 394.878 344.214 393.853 344.751 393.12C350.952 384.038 356.763 374.712 362.183 365.142C367.603 355.571 372.852 345.928 377.93 336.211C378.955 334.16 380.298 331.548 381.958 328.374C383.96 324.419 386.011 320.439 388.11 316.436C390.21 312.432 391.919 309.233 393.237 306.841C393.335 306.743 393.408 306.621 393.457 306.475C394.092 305.352 394.995 303.911 396.167 302.153C397.339 300.347 398.657 298.931 400.122 297.905C401.587 296.831 403.027 296.782 404.443 297.759ZM318.75 373.418C317.969 375.762 317.212 378.081 316.479 380.376C324.536 369.536 331.86 358.208 338.452 346.392C342.114 340.093 345.288 333.599 347.974 326.909C348.071 326.763 348.145 326.616 348.193 326.47C349.121 324.272 349.658 322.075 349.805 319.878C349.805 319.878 349.78 319.878 349.731 319.878C348.022 320.708 346.289 322.148 344.531 324.199C342.822 326.201 341.406 328.008 340.283 329.619C335.156 337.139 330.713 345.024 326.953 353.276C323.926 359.868 321.191 366.582 318.75 373.418ZM454.395 391.069C454.688 391.655 454.712 392.241 454.468 392.827C454.272 393.413 453.882 393.853 453.296 394.146C440.796 399.126 428.052 403.398 415.063 406.963C414.331 407.158 413.55 407.354 412.72 407.549C410.083 408.232 407.397 408.745 404.663 409.087C401.978 409.38 399.609 409.014 397.559 407.988C395.557 406.914 394.238 404.692 393.604 401.323C393.164 396.636 393.799 392.119 395.508 387.773C395.654 387.383 395.825 386.919 396.021 386.382C396.509 384.917 397.168 383.623 397.998 382.5C398.828 381.328 400.024 381.035 401.587 381.621C402.368 382.012 402.856 382.622 403.052 383.452C403.296 384.233 403.198 384.99 402.759 385.723C401.294 388.408 400.22 391.875 399.536 396.123C398.853 400.322 399.268 403.838 400.781 406.67C402.148 407.842 404.517 408.11 407.886 407.476C411.304 406.792 414.966 405.718 418.872 404.253C422.827 402.788 426.294 401.421 429.272 400.151C431.03 399.419 432.422 398.857 433.447 398.467C436.523 397.344 439.575 396.099 442.603 394.731C445.63 393.364 448.584 391.875 451.465 390.264C452.002 390.02 452.539 389.971 453.076 390.117C453.662 390.264 454.102 390.581 454.395 391.069ZM402.026 374.517C400.806 374.321 399.976 373.394 399.536 371.733C399.146 370.073 399.146 368.413 399.536 366.753C399.976 365.093 400.806 364.189 402.026 364.043C403.296 364.189 404.126 365.093 404.517 366.753C404.956 368.413 404.956 370.073 404.517 371.733C404.126 373.394 403.296 374.321 402.026 374.517ZM513.794 391.875C514.819 391.924 515.503 392.363 515.845 393.193C516.235 393.975 516.235 394.805 515.845 395.684C515.454 396.416 514.917 397.002 514.233 397.441C513.55 397.881 512.866 398.247 512.183 398.54C509.058 399.956 503.589 401.396 495.776 402.861C487.964 404.277 479.834 405.376 471.387 406.157C462.939 406.938 456.201 407.036 451.172 406.45C450.635 409.38 450.122 412.31 449.634 415.239C448.657 421.147 447.925 427.08 447.437 433.037C446.948 439.043 446.948 445.024 447.437 450.981C447.437 451.86 447.144 452.471 446.558 452.812C445.923 453.203 445.288 453.276 444.653 453.032C443.97 452.788 443.555 452.202 443.408 451.274C443.311 445.073 443.604 438.945 444.287 432.891C444.922 426.885 445.728 420.854 446.704 414.8C447.192 411.772 447.705 408.77 448.242 405.791C447.852 405.645 447.51 405.498 447.217 405.352C445.605 404.326 445.068 403.057 445.605 401.543C446.143 400.029 446.899 398.613 447.876 397.295C448.022 397.1 448.145 396.929 448.242 396.782C448.975 395.708 449.731 394.683 450.513 393.706C453.931 376.909 458.228 360.332 463.403 343.975C465.649 336.65 468.384 329.497 471.606 322.515C471.704 322.319 471.802 322.124 471.899 321.929C472.974 319.585 474.414 317.168 476.221 314.678C478.027 312.188 480.273 310.82 482.959 310.576C484.473 310.723 485.474 311.333 485.962 312.407C486.499 313.481 486.499 314.556 485.962 315.63C485.474 316.704 484.473 317.314 482.959 317.461C483.057 317.412 483.105 317.388 483.105 317.388C483.105 317.388 483.081 317.412 483.032 317.461C482.983 317.461 482.886 317.485 482.739 317.534C481.372 318.56 480.176 319.902 479.15 321.562C476.025 326.494 473.364 331.719 471.167 337.236C464.478 353.838 459.106 370.903 455.054 388.433C455.054 388.384 455.054 388.359 455.054 388.359C455.103 388.311 455.127 388.286 455.127 388.286C458.35 384.624 461.743 381.157 465.308 377.886C465.503 377.739 465.698 377.593 465.894 377.446C468.481 374.907 471.411 372.783 474.683 371.074C475.708 370.586 476.831 370.366 478.052 370.415C479.321 370.464 480.396 371.001 481.274 372.026C481.909 373.052 482.031 374.004 481.641 374.883C481.299 375.713 480.688 376.299 479.81 376.641C478.931 376.934 478.027 376.738 477.1 376.055C474.023 377.129 470.093 379.937 465.308 384.478C460.571 388.97 456.421 393.511 452.856 398.101C452.368 400.493 451.88 402.886 451.392 405.278C456.226 405.767 462.842 405.4 471.24 404.18C479.688 402.959 487.793 401.372 495.557 399.419C503.369 397.417 508.691 395.513 511.523 393.706C511.621 393.169 511.89 392.729 512.329 392.388C512.769 392.046 513.257 391.875 513.794 391.875ZM651.782 387.554C652.71 387.798 653.247 388.286 653.394 389.019C653.54 389.751 653.369 390.41 652.881 390.996C652.441 391.582 651.733 391.777 650.757 391.582C642.456 389.043 633.911 387.871 625.122 388.066C617.847 402.568 609.253 414.312 599.341 423.296C596.265 426.03 592.798 428.252 588.94 429.961C585.132 431.719 581.128 432.207 576.929 431.426C574.39 430.938 572.559 429.741 571.436 427.837C570.361 425.981 570.02 423.809 570.41 421.318C571.191 417.217 572.852 413.506 575.391 410.186C581.055 402.715 587.939 397.051 596.045 393.193C604.199 389.287 612.866 386.895 622.046 386.016C626.978 375.811 630.713 365.483 633.252 355.034C635.84 344.585 636.597 335.308 635.522 327.202C634.985 323.638 633.569 320.586 631.274 318.047C629.321 316.289 627.1 315.386 624.609 315.337C622.168 315.239 619.8 315.776 617.505 316.948C612.036 320.024 607.056 324.321 602.563 329.839C598.12 335.356 594.238 340.776 590.918 346.099C578.711 366.118 568.726 387.236 560.962 409.453C560.718 410.137 560.303 410.649 559.717 410.991C558.35 411.724 557.056 411.821 555.835 411.284C554.663 410.698 553.906 409.624 553.564 408.062C553.271 405.425 553.394 402.812 553.931 400.225C553.979 399.785 554.028 399.37 554.077 398.979C554.712 395.269 555.444 391.631 556.274 388.066C558.911 376.201 561.719 364.287 564.697 352.324C565.527 349.004 566.357 345.659 567.188 342.29C566.357 343.12 565.479 343.462 564.551 343.315C563.623 343.12 562.891 342.607 562.354 341.777C561.865 340.947 561.89 339.971 562.427 338.848L571.802 323.247C572.485 322.319 573.291 321.855 574.219 321.855C575.146 321.855 575.928 322.197 576.562 322.881C577.197 323.564 577.393 324.468 577.148 325.591C572.607 339.409 568.579 353.398 565.063 367.559C562.427 377.568 560.425 387.651 559.058 397.808C562.769 388.335 567.236 378.301 572.461 367.705C577.686 357.061 583.472 347.1 589.819 337.822C596.167 328.545 602.856 321.172 609.888 315.703C613.696 312.822 617.798 311.064 622.192 310.43C626.636 309.795 630.786 311.162 634.644 314.531C637.622 317.803 639.429 321.611 640.063 325.957C640.747 330.303 640.894 334.575 640.503 338.774C638.989 353.667 634.277 369.292 626.367 385.649C635.01 385.21 643.481 385.845 651.782 387.554ZM597.583 421.245C606.03 413.481 613.818 402.495 620.947 388.286C611.523 389.019 602.661 391.68 594.36 396.27C589.526 398.857 584.961 402.373 580.664 406.816C576.367 411.211 573.657 416.143 572.534 421.611C572.241 423.516 572.485 425.151 573.267 426.519C574.048 427.935 575.415 428.838 577.368 429.229C581.177 429.814 584.79 429.253 588.208 427.544C591.675 425.884 594.8 423.784 597.583 421.245ZM710.962 390.996C711.401 391.68 711.499 392.388 711.255 393.12C711.06 393.853 710.62 394.39 709.937 394.731C708.911 395.171 707.788 395.684 706.567 396.27C701.733 398.564 695.947 401.079 689.209 403.813C682.471 406.548 675.879 408.599 669.434 409.966C663.037 411.284 657.91 410.991 654.053 409.087C653.711 408.892 653.394 408.696 653.101 408.501C653.052 408.501 653.027 408.501 653.027 408.501C649.951 406.157 648.462 403.13 648.56 399.419C648.657 395.659 649.78 391.973 651.929 388.359C654.126 384.697 656.836 381.816 660.059 379.717C663.281 377.617 666.528 377.056 669.8 378.032C670.044 378.13 670.288 378.228 670.532 378.325C670.581 378.374 670.654 378.423 670.752 378.472C670.898 378.521 671.021 378.569 671.118 378.618L671.191 378.691C672.168 379.229 672.852 380.034 673.242 381.108C673.633 382.134 673.73 383.159 673.535 384.185C673.096 386.431 672.168 388.53 670.752 390.483C669.385 392.388 667.822 394.023 666.064 395.391C663.672 397.393 660.913 398.662 657.788 399.199C656.274 399.443 654.712 399.346 653.101 398.906C652.954 400.127 653.174 401.689 653.76 403.594C654.395 405.449 655.444 406.841 656.909 407.769C659.937 409.185 663.647 409.429 668.042 408.501C672.437 407.573 676.855 406.133 681.299 404.18C685.791 402.178 689.648 400.347 692.871 398.687C693.408 398.394 693.896 398.125 694.336 397.881C698.877 395.635 703.247 393.12 707.446 390.337C708.032 389.946 708.643 389.824 709.277 389.971C709.961 390.068 710.522 390.41 710.962 390.996ZM660.425 386.602C658.472 388.213 656.689 390.459 655.078 393.34C656.934 393.486 658.667 393.047 660.278 392.021C661.938 390.996 663.403 389.775 664.673 388.359C665.991 386.943 666.943 385.356 667.529 383.599C666.26 383.354 664.99 383.574 663.721 384.258C662.451 384.941 661.353 385.723 660.425 386.602ZM775.195 391.875C775.342 392.656 775.171 393.34 774.683 393.926C774.194 394.463 773.56 394.731 772.778 394.731C762.329 394.292 752.1 395.732 742.09 399.053C742.041 399.053 741.992 399.102 741.943 399.199C739.062 403.691 736.572 407.085 734.473 409.38C732.178 412.065 729.614 414.482 726.782 416.631C725.366 417.754 723.706 418.73 721.802 419.561C720.972 419.902 720.044 420.122 719.019 420.22C718.042 420.317 717.09 420.22 716.162 419.927C715.332 419.683 714.575 419.243 713.892 418.608C713.257 417.974 712.988 417.192 713.086 416.265C713.77 413.433 715.405 410.967 717.993 408.867C720.63 406.719 723.218 404.985 725.757 403.667C728.784 402.056 731.885 400.64 735.059 399.419C735.107 399.37 735.156 399.321 735.205 399.272C737.402 396.147 739.258 392.974 740.771 389.751C741.113 389.019 741.455 388.091 741.797 386.968C742.188 385.845 742.432 384.746 742.529 383.672C742.627 382.598 742.383 381.768 741.797 381.182L741.65 381.108L741.504 381.035C741.406 380.986 741.333 380.938 741.284 380.889C741.235 380.889 741.187 380.864 741.138 380.815C740.894 380.718 740.625 380.62 740.332 380.522C738.232 380.181 736.035 380.718 733.74 382.134C731.494 383.501 729.37 385.21 727.368 387.261C725.415 389.312 723.804 391.118 722.534 392.681C718.335 397.856 714.429 403.667 710.815 410.112C710.815 410.161 710.815 410.21 710.815 410.259C710.767 410.552 710.718 410.82 710.669 411.064C707.983 429.473 704.736 447.783 700.928 465.996C700.586 467.217 699.854 467.949 698.73 468.193C697.607 468.438 696.631 468.096 695.801 467.168C695.801 467.119 695.801 467.095 695.801 467.095C694.238 463.97 693.604 460.552 693.896 456.841C694.189 453.13 694.727 449.639 695.508 446.367C695.508 446.123 695.532 445.903 695.581 445.708C697.437 437.7 699.902 429.888 702.979 422.271C702.979 422.271 702.979 422.246 702.979 422.197C703.613 418.193 704.248 414.165 704.883 410.112C706.738 398.052 708.74 386.016 710.889 374.004C711.23 372.734 711.89 371.978 712.866 371.733C713.843 371.44 714.746 371.587 715.576 372.173C716.406 372.759 716.772 373.711 716.675 375.029C715.112 383.77 713.623 392.51 712.207 401.25C712.207 401.396 712.231 401.494 712.28 401.543C712.378 401.592 712.476 401.616 712.573 401.616C712.671 401.616 712.744 401.567 712.793 401.47C715.283 396.978 718.066 392.656 721.143 388.506C724.268 384.355 727.539 381.06 730.957 378.618C734.424 376.128 737.939 375.176 741.504 375.762C742.041 375.908 742.554 376.079 743.042 376.274C743.042 376.274 743.066 376.274 743.115 376.274C743.164 376.323 743.213 376.372 743.262 376.421C743.457 376.47 743.652 376.543 743.848 376.641L744.214 376.86C744.312 376.909 744.434 376.982 744.58 377.08C744.58 377.08 744.604 377.08 744.653 377.08C747.095 379.033 748.071 381.719 747.583 385.137C747.144 388.555 745.923 392.119 743.921 395.83C743.823 395.928 743.823 396.025 743.921 396.123C744.019 396.221 744.141 396.27 744.287 396.27C753.223 393.779 762.28 391.753 771.46 390.19C771.802 390.142 772.144 390.093 772.485 390.044C773.12 389.897 773.706 390.02 774.243 390.41C774.78 390.752 775.098 391.24 775.195 391.875ZM697.559 453.398C698.779 446.953 699.951 440.508 701.074 434.062C701.074 433.916 701.025 433.794 700.928 433.696C700.83 433.647 700.732 433.623 700.635 433.623C700.537 433.672 700.464 433.77 700.415 433.916C699.097 438.018 698.096 442.046 697.412 446.001C697.07 448.101 696.899 450.542 696.899 453.325C696.948 453.472 697.021 453.569 697.119 453.618C697.168 453.667 697.241 453.667 697.339 453.618C697.437 453.569 697.51 453.496 697.559 453.398ZM723.267 411.943C725.903 409.893 728.369 407.549 730.664 404.912C730.762 404.814 730.786 404.717 730.737 404.619C730.737 404.521 730.688 404.448 730.591 404.399C730.493 404.351 730.396 404.375 730.298 404.473C729.272 405.059 728.296 405.669 727.368 406.304C724.487 408.208 722.07 410.527 720.117 413.262C720.068 413.311 720.044 413.384 720.044 413.481C720.093 413.579 720.166 413.652 720.264 413.701C720.361 413.75 720.459 413.75 720.557 413.701C721.484 413.213 722.388 412.627 723.267 411.943ZM779.736 400.371C780.615 400.371 781.519 401.006 782.446 402.275C783.423 403.545 783.911 405.059 783.911 406.816C783.911 408.574 783.521 409.746 782.739 410.332C781.958 410.869 781.128 411.138 780.249 411.138C779.419 411.138 778.613 410.869 777.832 410.332C777.051 409.746 776.66 408.574 776.66 406.816C776.66 405.059 776.953 403.545 777.539 402.275C778.125 401.006 778.857 400.371 779.736 400.371ZM920.728 391.802C920.776 392.388 920.605 392.9 920.215 393.34C919.873 393.73 919.409 393.926 918.823 393.926C911.108 394.316 903.906 396.611 897.217 400.811C893.555 414.189 889.111 427.056 883.887 439.409C878.662 451.812 872.827 461.675 866.382 468.999C864.575 470.952 862.451 472.563 860.01 473.833C857.52 475.103 855.029 475.444 852.539 474.858C850.049 474.272 848.438 472.466 847.705 469.438C847.217 465.923 847.754 462.041 849.316 457.793C850.879 453.594 852.881 449.419 855.322 445.269C857.764 441.167 860.059 437.529 862.207 434.355C862.549 433.77 862.891 433.232 863.232 432.744C867.236 426.787 871.631 421.172 876.416 415.898C881.396 410.332 886.914 405.327 892.969 400.884C898.047 384.673 901.709 369.78 903.955 356.206C906.201 342.583 906.177 333.306 903.882 328.374L903.662 328.081L903.442 327.935C903.394 327.886 903.369 327.837 903.369 327.788C903.32 327.788 903.271 327.764 903.223 327.715C903.174 327.715 903.149 327.69 903.149 327.642C903.052 327.593 902.954 327.544 902.856 327.495C902.808 327.495 902.783 327.471 902.783 327.422C902.734 327.422 902.71 327.422 902.71 327.422C902.661 327.422 902.612 327.422 902.563 327.422C902.466 327.373 902.344 327.373 902.197 327.422C900.684 328.105 899.097 329.863 897.437 332.695C895.776 335.527 894.189 338.701 892.676 342.217C891.162 345.684 889.893 348.711 888.867 351.299C888.428 352.373 888.062 353.276 887.769 354.009C886.792 356.548 885.815 359.087 884.839 361.626C880.835 372.368 876.343 382.915 871.362 393.267C871.265 393.462 871.167 393.657 871.069 393.853C869.946 396.099 868.555 398.564 866.895 401.25C865.283 403.936 863.428 406.328 861.328 408.428C859.277 410.479 857.007 411.724 854.517 412.163C854.321 412.212 854.126 412.236 853.931 412.236C853.833 412.236 853.76 412.236 853.711 412.236C849.365 412.188 846.021 410.381 843.677 406.816C841.333 403.252 839.722 398.638 838.843 392.974C837.964 387.261 837.524 381.23 837.524 374.883C837.524 368.486 837.695 362.432 838.037 356.719C837.158 356.572 836.475 356.157 835.986 355.474C835.498 354.741 835.425 353.838 835.767 352.764C836.938 349.639 837.817 346.44 838.403 343.169L838.55 342.437C838.599 341.997 838.623 341.606 838.623 341.265C838.721 339.946 839.209 339.067 840.088 338.628C841.016 338.14 841.943 338.115 842.871 338.555C843.799 338.945 844.336 339.8 844.482 341.118C844.531 343.706 844.385 347.783 844.043 353.35C843.701 358.428 843.433 364.019 843.237 370.122C843.091 376.177 843.237 381.987 843.677 387.554C844.116 393.12 845.068 397.734 846.533 401.396C848.047 405.059 850.317 407.036 853.345 407.329C853.394 407.329 853.442 407.329 853.491 407.329C853.54 407.329 853.589 407.329 853.638 407.329C853.687 407.329 853.735 407.329 853.784 407.329C853.833 407.329 853.882 407.329 853.931 407.329C856.86 406.646 859.961 403.74 863.232 398.613C866.553 393.486 869.751 387.529 872.827 380.742C875.952 373.955 878.687 367.729 881.03 362.065C882.69 358.11 884.009 355.059 884.985 352.91C885.278 352.227 885.571 351.543 885.864 350.859C888.354 345 891.089 339.238 894.067 333.574C894.214 333.281 894.385 332.988 894.58 332.695C895.508 330.986 896.68 329.253 898.096 327.495C899.512 325.737 901.123 324.883 902.93 324.932C903.174 324.932 903.394 324.98 903.589 325.078L903.882 325.225C904.175 325.322 904.443 325.469 904.688 325.664C904.785 325.713 904.907 325.786 905.054 325.884C905.103 325.933 905.127 325.981 905.127 326.03C905.273 326.128 905.396 326.226 905.493 326.323C905.542 326.372 905.566 326.396 905.566 326.396C905.664 326.543 905.786 326.689 905.933 326.836C907.397 329.18 908.179 332.549 908.276 336.943C908.423 341.289 908.203 345.781 907.617 350.42C907.08 355.059 906.543 358.916 906.006 361.992C906.006 362.236 905.981 362.48 905.933 362.725C904.272 372.539 901.685 384.111 898.169 397.441C902.271 394.951 906.665 392.998 911.353 391.582C913.696 390.898 916.113 390.41 918.604 390.117C919.141 390.068 919.604 390.215 919.995 390.557C920.386 390.85 920.63 391.265 920.728 391.802ZM855.249 469.731C859.009 469.048 863.013 465.605 867.261 459.404C871.558 453.203 875.83 445.244 880.078 435.527C884.326 425.859 888.257 415.483 891.87 404.399C881.079 412.505 872.046 422.271 864.771 433.696C862.231 437.603 859.863 441.68 857.666 445.928C855.469 450.176 853.784 454.521 852.612 458.965C852.271 460.43 852.1 462.31 852.1 464.604C852.148 466.899 852.612 468.56 853.491 469.585C853.54 469.585 853.564 469.585 853.564 469.585C853.613 469.585 853.662 469.609 853.711 469.658C853.809 469.707 853.931 469.731 854.077 469.731C854.468 469.78 854.858 469.78 855.249 469.731ZM976.025 391.216C976.172 391.558 976.245 391.924 976.245 392.314C976.196 392.998 975.952 393.486 975.513 393.779C975.073 394.072 974.585 394.17 974.048 394.072C973.511 393.926 973.12 393.56 972.876 392.974C972.827 392.925 972.754 392.852 972.656 392.754C972.461 392.51 972.241 392.266 971.997 392.021C970.825 391.582 969.556 391.289 968.188 391.143C968.14 391.143 968.091 391.118 968.042 391.069C965.698 390.776 963.306 390.605 960.864 390.557C954.37 390.361 947.876 390.386 941.382 390.63C940.991 390.679 940.649 390.825 940.356 391.069C940.063 391.313 939.893 391.631 939.844 392.021C938.867 397.49 936.401 402.153 932.446 406.011C932.397 406.06 932.324 406.108 932.227 406.157C932.031 406.353 931.86 406.523 931.714 406.67C931.03 407.207 930.347 407.744 929.663 408.281C928.442 409.16 927.026 409.795 925.415 410.186C923.853 410.527 922.363 410.259 920.947 409.38L920.654 409.16C920.459 409.014 920.264 408.843 920.068 408.647C919.727 408.306 919.434 407.939 919.189 407.549C917.822 405.156 917.212 402.495 917.358 399.565C917.456 396.587 917.92 393.853 918.75 391.362C919.727 388.042 921.387 385.039 923.73 382.354C926.074 379.619 929.053 378.179 932.666 378.032C933.252 378.032 934.009 378.179 934.937 378.472C935.864 378.716 936.597 379.106 937.134 379.644C937.72 380.132 937.769 380.791 937.28 381.621C937.036 381.914 936.694 382.134 936.255 382.28C935.864 382.378 935.547 382.28 935.303 381.987C933.447 379.888 931.665 378.984 929.956 379.277C928.296 379.57 926.953 380.571 925.928 382.28C924.756 384.331 923.828 387.065 923.145 390.483C922.461 393.901 922.119 396.782 922.119 399.126C922.119 400.005 922.192 400.908 922.339 401.836C922.485 402.764 922.754 403.569 923.145 404.253C923.34 404.595 923.608 404.814 923.95 404.912C924.634 405.156 925.659 404.814 927.026 403.887C928.442 402.91 929.81 401.396 931.128 399.346C932.446 397.295 933.35 394.731 933.838 391.655C933.887 391.265 933.813 390.898 933.618 390.557C933.423 390.215 933.13 389.971 932.739 389.824C932.007 389.58 931.299 389.214 930.615 388.726C929.98 388.237 929.492 387.578 929.15 386.748C928.857 385.967 928.882 385.186 929.224 384.404C929.565 383.574 930.127 382.988 930.908 382.646C931.494 382.354 931.958 382.207 932.3 382.207C933.618 382.109 934.985 382.402 936.401 383.086C937.817 383.77 938.892 384.697 939.624 385.869C939.819 386.26 940.137 386.504 940.576 386.602C946.191 387.725 951.88 388.237 957.642 388.14C958.765 388.188 959.863 388.213 960.938 388.213C961.084 388.213 961.23 388.213 961.377 388.213C963.672 388.262 965.991 388.359 968.335 388.506C968.579 388.506 968.823 388.53 969.067 388.579C970.776 388.579 972.485 388.896 974.194 389.531C974.536 389.678 974.878 389.897 975.22 390.19C975.562 390.483 975.83 390.825 976.025 391.216ZM950.244 356.719C951.123 356.719 952.051 357.354 953.027 358.623C953.955 359.844 954.419 361.333 954.419 363.091C954.419 364.849 954.028 366.021 953.247 366.606C952.466 367.144 951.636 367.412 950.757 367.412C949.927 367.412 949.121 367.144 948.34 366.606C947.559 366.021 947.168 364.849 947.168 363.091C947.168 361.333 947.485 359.844 948.12 358.623C948.706 357.354 949.414 356.719 950.244 356.719ZM965.552 356.719C966.431 356.719 967.358 357.354 968.335 358.623C969.263 359.844 969.727 361.333 969.727 363.091C969.727 364.849 969.336 366.021 968.555 366.606C967.773 367.144 966.943 367.412 966.064 367.412C965.234 367.412 964.429 367.144 963.647 366.606C962.866 366.021 962.476 364.849 962.476 363.091C962.476 361.333 962.769 359.844 963.354 358.623C963.94 357.354 964.673 356.719 965.552 356.719ZM1045.46 391.216C1045.75 391.655 1045.85 392.144 1045.75 392.681C1045.65 393.169 1045.36 393.56 1044.87 393.853C1040.53 396.489 1036.08 398.931 1031.54 401.177C1028.81 402.544 1025.81 403.765 1022.53 404.839C1019.31 405.864 1016.11 406.279 1012.94 406.084C1009.81 405.84 1007.01 404.497 1004.52 402.056C1003.05 400.493 1001.86 398.784 1000.93 396.929C1000 395.024 999.194 393.12 998.511 391.216C998.462 391.118 998.413 391.021 998.364 390.923C998.267 390.581 998.145 390.264 997.998 389.971C997.607 388.799 997.095 387.7 996.46 386.675C996.411 386.626 996.338 386.602 996.24 386.602C996.191 386.553 996.118 386.553 996.021 386.602C994.214 387.676 992.554 389.019 991.04 390.63C990.796 390.874 990.552 391.118 990.308 391.362C986.938 394.878 983.716 398.564 980.64 402.422C978.735 404.717 976.88 407.036 975.073 409.38C974.536 410.063 973.877 410.454 973.096 410.552C972.314 410.649 971.582 410.43 970.898 409.893C970.117 409.258 969.751 408.428 969.8 407.402C970.435 398.125 972.168 389.043 975 380.156C975.537 378.936 976.294 378.276 977.271 378.179C978.296 378.032 979.175 378.325 979.907 379.058C980.64 379.741 980.859 380.718 980.566 381.987C979.004 386.772 977.808 391.655 976.978 396.636C976.978 396.733 977.002 396.807 977.051 396.855C977.1 396.904 977.173 396.929 977.271 396.929C977.368 396.929 977.441 396.904 977.49 396.855C980.273 393.535 983.228 390.361 986.353 387.334C986.548 387.139 986.743 386.968 986.938 386.821C988.306 385.454 989.941 384.111 991.846 382.793C993.75 381.475 995.654 380.962 997.559 381.255C998.682 381.548 999.585 382.231 1000.27 383.306C1001 384.38 1001.54 385.405 1001.88 386.382C1002.32 387.603 1002.76 388.848 1003.2 390.117C1004.17 393.486 1005.49 396.685 1007.15 399.712C1009.5 403.374 1012.5 405.083 1016.16 404.839C1019.82 404.595 1023.46 403.447 1027.08 401.396C1030.74 399.297 1033.74 397.368 1036.08 395.61C1036.87 395.073 1037.5 394.634 1037.99 394.292C1039.65 393.169 1041.28 392.021 1042.9 390.85C1043.29 390.557 1043.73 390.435 1044.21 390.483C1044.7 390.532 1045.12 390.776 1045.46 391.216ZM1102.51 390.996C1102.95 391.68 1103.05 392.388 1102.81 393.12C1102.61 393.853 1102.17 394.39 1101.49 394.731C1100.46 395.171 1099.34 395.684 1098.12 396.27C1093.29 398.564 1087.5 401.079 1080.76 403.813C1074.02 406.548 1067.43 408.599 1060.99 409.966C1054.59 411.284 1049.46 410.991 1045.61 409.087C1045.26 408.892 1044.95 408.696 1044.65 408.501C1044.6 408.501 1044.58 408.501 1044.58 408.501C1041.5 406.157 1040.01 403.13 1040.11 399.419C1040.21 395.659 1041.33 391.973 1043.48 388.359C1045.68 384.697 1048.39 381.816 1051.61 379.717C1054.83 377.617 1058.08 377.056 1061.35 378.032C1061.6 378.13 1061.84 378.228 1062.08 378.325C1062.13 378.374 1062.21 378.423 1062.3 378.472C1062.45 378.521 1062.57 378.569 1062.67 378.618L1062.74 378.691C1063.72 379.229 1064.4 380.034 1064.79 381.108C1065.19 382.134 1065.28 383.159 1065.09 384.185C1064.65 386.431 1063.72 388.53 1062.3 390.483C1060.94 392.388 1059.38 394.023 1057.62 395.391C1055.22 397.393 1052.47 398.662 1049.34 399.199C1047.83 399.443 1046.26 399.346 1044.65 398.906C1044.51 400.127 1044.73 401.689 1045.31 403.594C1045.95 405.449 1047 406.841 1048.46 407.769C1051.49 409.185 1055.2 409.429 1059.59 408.501C1063.99 407.573 1068.41 406.133 1072.85 404.18C1077.34 402.178 1081.2 400.347 1084.42 398.687C1084.96 398.394 1085.45 398.125 1085.89 397.881C1090.43 395.635 1094.8 393.12 1099 390.337C1099.58 389.946 1100.2 389.824 1100.83 389.971C1101.51 390.068 1102.08 390.41 1102.51 390.996ZM1051.98 386.602C1050.02 388.213 1048.24 390.459 1046.63 393.34C1048.49 393.486 1050.22 393.047 1051.83 392.021C1053.49 390.996 1054.96 389.775 1056.23 388.359C1057.54 386.943 1058.5 385.356 1059.08 383.599C1057.81 383.354 1056.54 383.574 1055.27 384.258C1054 384.941 1052.91 385.723 1051.98 386.602ZM1187.33 346.611C1187.38 346.807 1187.43 347.002 1187.48 347.197C1187.48 347.393 1187.45 347.612 1187.4 347.856C1187.21 348.638 1186.79 349.15 1186.16 349.395C1185.52 349.639 1184.91 349.614 1184.33 349.321C1183.74 348.979 1183.4 348.394 1183.3 347.563C1181.98 346.88 1180.49 346.416 1178.83 346.172C1178.83 346.172 1178.81 346.172 1178.76 346.172C1177.59 345.928 1176.37 345.757 1175.1 345.659C1168.9 345.024 1162.62 344.731 1156.27 344.78C1145.53 344.78 1134.79 345.049 1124.05 345.586C1122.09 348.955 1120.04 352.275 1117.9 355.547C1116.28 358.037 1114.53 360.479 1112.62 362.871C1112.48 363.066 1112.28 363.237 1112.04 363.384C1109.99 369.927 1108.11 376.519 1106.4 383.159C1106.1 384.282 1105.66 385.771 1105.08 387.627C1103.91 391.533 1102.56 396.392 1101.05 402.202C1099.54 408.013 1098.39 414.019 1097.61 420.22C1096.83 426.47 1096.9 432.134 1097.83 437.212C1098.71 442.339 1100.95 446.099 1104.57 448.491C1105.2 448.833 1105.88 448.955 1106.62 448.857C1107.25 448.857 1107.76 449.077 1108.15 449.517C1108.59 449.956 1108.84 450.493 1108.89 451.128C1108.89 451.763 1108.67 452.275 1108.23 452.666C1107.84 453.105 1107.32 453.35 1106.69 453.398C1106.25 453.398 1105.83 453.301 1105.44 453.105C1103.44 452.129 1101.83 450.859 1100.61 449.297C1098.17 445.635 1096.73 441.46 1096.29 436.772C1095.8 432.085 1095.68 427.593 1095.92 423.296C1096.61 412.944 1097.97 402.666 1100.02 392.461C1102.08 382.207 1104.61 372.1 1107.64 362.139C1107.25 361.113 1107.4 360.137 1108.08 359.209C1108.28 358.916 1108.5 358.623 1108.74 358.33C1108.79 358.281 1108.84 358.208 1108.89 358.11C1110.21 354.106 1111.6 350.103 1113.06 346.099C1109.59 346.245 1105.88 346.416 1101.93 346.611C1094.21 346.953 1087.01 347.344 1080.32 347.783C1078.96 347.832 1077.61 347.93 1076.29 348.076C1073.12 348.369 1069.92 348.442 1066.7 348.296C1066.65 348.296 1066.6 348.296 1066.55 348.296C1066.21 348.247 1065.82 348.149 1065.38 348.003C1065.23 347.954 1065.09 347.881 1064.94 347.783C1064.84 347.734 1064.75 347.686 1064.65 347.637C1064.45 347.539 1064.31 347.393 1064.21 347.197C1063.96 346.953 1063.79 346.66 1063.7 346.318C1063.6 345.83 1063.62 345.366 1063.77 344.927C1064.16 344.048 1064.77 343.608 1065.6 343.608C1066.43 343.608 1067.07 344.023 1067.5 344.854C1071.22 345.684 1075 346.099 1078.86 346.099C1079.35 346.099 1079.83 346.099 1080.32 346.099C1088.18 346.099 1096.53 345.781 1105.37 345.146C1108.25 345 1110.99 344.854 1113.57 344.707C1114.94 340.898 1117.11 335.552 1120.09 328.667C1123.12 321.782 1126.44 315.239 1130.05 309.038C1133.72 302.788 1137.13 298.784 1140.31 297.026C1141.19 296.636 1142.11 296.538 1143.09 296.733C1144.07 296.929 1144.8 297.49 1145.29 298.418C1145.43 298.76 1145.51 299.053 1145.51 299.297C1145.56 299.639 1145.58 299.907 1145.58 300.103C1145.39 301.47 1145.04 302.764 1144.56 303.984C1144.51 304.18 1144.43 304.399 1144.34 304.644C1143.85 306.06 1143.31 307.451 1142.72 308.818C1137.45 320.879 1131.54 332.598 1125 343.975C1126.61 343.877 1128.25 343.779 1129.91 343.682C1141.48 342.949 1152.81 342.437 1163.89 342.144C1164.53 342.144 1165.23 342.144 1166.02 342.144C1169.19 342.046 1172.71 342.119 1176.56 342.363C1180.47 342.559 1183.47 343.193 1185.57 344.268C1186.01 344.512 1186.45 344.927 1186.89 345.513C1186.99 345.659 1187.08 345.83 1187.18 346.025C1187.23 346.221 1187.28 346.416 1187.33 346.611ZM1066.92 344.634L1067.07 344.707C1067.07 344.707 1067.09 344.707 1067.14 344.707C1067.09 344.658 1067.04 344.609 1066.99 344.561C1066.94 344.561 1066.92 344.561 1066.92 344.561C1066.87 344.561 1066.85 344.561 1066.85 344.561C1066.89 344.609 1066.92 344.634 1066.92 344.634ZM1132.18 316.216C1128.22 323.442 1124.63 330.864 1121.41 338.481C1126.78 329.058 1131.71 319.39 1136.21 309.478C1134.79 311.675 1133.45 313.921 1132.18 316.216ZM1183.45 347.71C1183.45 347.71 1183.45 347.686 1183.45 347.637C1183.45 347.686 1183.45 347.734 1183.45 347.783C1183.5 347.783 1183.5 347.759 1183.45 347.71ZM1182.13 391.069C1182.42 391.655 1182.45 392.241 1182.2 392.827C1182.01 393.413 1181.62 393.853 1181.03 394.146C1168.53 399.126 1155.79 403.398 1142.8 406.963C1142.07 407.158 1141.28 407.354 1140.45 407.549C1137.82 408.232 1135.13 408.745 1132.4 409.087C1129.71 409.38 1127.34 409.014 1125.29 407.988C1123.29 406.914 1121.97 404.692 1121.34 401.323C1120.9 396.636 1121.53 392.119 1123.24 387.773C1123.39 387.383 1123.56 386.919 1123.75 386.382C1124.24 384.917 1124.9 383.623 1125.73 382.5C1126.56 381.328 1127.76 381.035 1129.32 381.621C1130.1 382.012 1130.59 382.622 1130.79 383.452C1131.03 384.233 1130.93 384.99 1130.49 385.723C1129.03 388.408 1127.95 391.875 1127.27 396.123C1126.59 400.322 1127 403.838 1128.52 406.67C1129.88 407.842 1132.25 408.11 1135.62 407.476C1139.04 406.792 1142.7 405.718 1146.61 404.253C1150.56 402.788 1154.03 401.421 1157.01 400.151C1158.76 399.419 1160.16 398.857 1161.18 398.467C1164.26 397.344 1167.31 396.099 1170.34 394.731C1173.36 393.364 1176.32 391.875 1179.2 390.264C1179.74 390.02 1180.27 389.971 1180.81 390.117C1181.4 390.264 1181.84 390.581 1182.13 391.069ZM1129.76 374.517C1128.54 374.321 1127.71 373.394 1127.27 371.733C1126.88 370.073 1126.88 368.413 1127.27 366.753C1127.71 365.093 1128.54 364.189 1129.76 364.043C1131.03 364.189 1131.86 365.093 1132.25 366.753C1132.69 368.413 1132.69 370.073 1132.25 371.733C1131.86 373.394 1131.03 374.321 1129.76 374.517ZM1233.03 391.729C1233.28 392.51 1232.98 393.242 1232.15 393.926C1227.32 397.1 1222.34 399.956 1217.21 402.495C1212.08 404.985 1206.74 406.987 1201.17 408.501C1196.68 409.819 1192.07 410.479 1187.33 410.479C1182.98 410.381 1179.83 409.136 1177.88 406.743C1175.93 404.351 1175.42 401.006 1176.34 396.709C1177.47 392.559 1179.3 388.774 1181.84 385.356C1184.33 381.89 1187.23 378.838 1190.55 376.201C1192.5 374.639 1194.75 373.442 1197.29 372.612C1199.78 371.733 1202.25 371.929 1204.69 373.198C1206.84 374.712 1207.84 376.616 1207.69 378.911C1207.5 381.255 1206.57 383.281 1204.91 384.99C1203.93 385.869 1202.95 386.138 1201.98 385.796C1201 385.503 1200.34 384.893 1200 383.965C1199.61 382.988 1199.8 381.987 1200.59 380.962H1200.66V380.889C1201 380.547 1201.54 379.937 1202.27 379.058C1202.95 378.179 1203.54 377.3 1204.03 376.421C1204.47 375.493 1204.44 374.834 1203.96 374.443C1202.78 373.76 1201.07 374.15 1198.83 375.615C1196.63 377.08 1194.34 379.106 1191.94 381.694C1189.5 384.331 1187.35 387.065 1185.5 389.897C1184.72 391.118 1183.76 392.803 1182.64 394.951C1181.57 397.051 1180.71 399.175 1180.08 401.323C1179.39 403.521 1179.32 405.303 1179.86 406.67C1181.13 409.014 1184.01 409.795 1188.5 409.014C1193.04 408.232 1198.12 406.621 1203.74 404.18C1209.4 401.738 1214.6 399.175 1219.34 396.489C1224.07 393.804 1227.32 391.729 1229.08 390.264C1229.91 389.629 1230.71 389.507 1231.49 389.897C1232.32 390.288 1232.84 390.898 1233.03 391.729ZM1289.79 391.069C1290.09 391.655 1290.11 392.241 1289.87 392.827C1289.67 393.413 1289.28 393.853 1288.7 394.146C1276.2 399.126 1263.45 403.398 1250.46 406.963C1249.73 407.158 1248.95 407.354 1248.12 407.549C1245.48 408.232 1242.8 408.745 1240.06 409.087C1237.38 409.38 1235.01 409.014 1232.96 407.988C1230.96 406.914 1229.64 404.692 1229 401.323C1228.56 396.636 1229.2 392.119 1230.91 387.773C1231.05 387.383 1231.23 386.919 1231.42 386.382C1231.91 384.917 1232.57 383.623 1233.4 382.5C1234.23 381.328 1235.42 381.035 1236.99 381.621C1237.77 382.012 1238.26 382.622 1238.45 383.452C1238.7 384.233 1238.6 384.99 1238.16 385.723C1236.69 388.408 1235.62 391.875 1234.94 396.123C1234.25 400.322 1234.67 403.838 1236.18 406.67C1237.55 407.842 1239.92 408.11 1243.29 407.476C1246.7 406.792 1250.37 405.718 1254.27 404.253C1258.23 402.788 1261.69 401.421 1264.67 400.151C1266.43 399.419 1267.82 398.857 1268.85 398.467C1271.92 397.344 1274.98 396.099 1278 394.731C1281.03 393.364 1283.98 391.875 1286.87 390.264C1287.4 390.02 1287.94 389.971 1288.48 390.117C1289.06 390.264 1289.5 390.581 1289.79 391.069ZM1237.43 374.517C1236.21 374.321 1235.38 373.394 1234.94 371.733C1234.55 370.073 1234.55 368.413 1234.94 366.753C1235.38 365.093 1236.21 364.189 1237.43 364.043C1238.7 364.189 1239.53 365.093 1239.92 366.753C1240.36 368.413 1240.36 370.073 1239.92 371.733C1239.53 373.394 1238.7 374.321 1237.43 374.517ZM1350.15 391.729C1350.24 392.266 1350.15 392.778 1349.85 393.267C1349.56 393.706 1349.12 393.999 1348.54 394.146C1348.49 394.146 1348.44 394.146 1348.39 394.146C1347.95 394.194 1347.51 394.194 1347.07 394.146C1346.58 394.146 1346.09 394.17 1345.61 394.219C1343.16 394.316 1340.72 394.585 1338.28 395.024C1331.79 396.294 1325.44 398.149 1319.24 400.591C1314.26 402.446 1309.4 404.619 1304.66 407.109C1304.52 407.207 1304.42 407.329 1304.37 407.476C1304.32 407.622 1304.32 407.769 1304.37 407.915C1305.2 410.503 1304.81 412.773 1303.2 414.727C1301.59 416.68 1299.61 418.12 1297.27 419.048C1295.9 419.634 1294.46 419.927 1292.94 419.927C1292.9 419.927 1292.87 419.927 1292.87 419.927C1292.58 419.927 1292.21 419.829 1291.77 419.634C1291.72 419.634 1291.7 419.609 1291.7 419.561C1289.31 417.803 1289.04 415.85 1290.89 413.701C1292.75 411.553 1295.41 409.551 1298.88 407.695C1299.02 407.549 1299.12 407.402 1299.17 407.256C1299.22 407.061 1299.17 406.865 1299.02 406.67C1297.66 404.863 1296.26 403.057 1294.85 401.25C1293.29 399.346 1291.75 397.368 1290.23 395.317C1290.23 395.317 1290.21 395.293 1290.16 395.244C1289.04 393.779 1288.01 392.241 1287.08 390.63C1286.16 388.97 1285.57 387.188 1285.33 385.283C1285.08 382.988 1285.57 380.889 1286.79 378.984C1288.01 377.08 1289.55 375.591 1291.41 374.517C1293.65 373.149 1296.24 372.246 1299.17 371.807C1302.1 371.318 1304.79 371.611 1307.23 372.686C1309.72 374.004 1310.72 375.664 1310.23 377.666C1309.74 379.619 1308.42 381.646 1306.27 383.745C1304.17 385.845 1301.93 387.725 1299.54 389.385C1297.14 390.996 1295.31 392.095 1294.04 392.681C1295.26 394.487 1296.56 396.318 1297.92 398.174C1299.54 400.42 1301.12 402.69 1302.69 404.985C1302.78 405.132 1302.91 405.229 1303.05 405.278C1303.2 405.327 1303.34 405.303 1303.49 405.205C1305.69 404.18 1307.4 403.374 1308.62 402.788C1308.86 402.69 1309.08 402.617 1309.28 402.568C1318.51 398.564 1327.98 395.195 1337.7 392.461C1340.92 391.533 1344.24 390.728 1347.66 390.044C1348.24 389.946 1348.75 390.068 1349.19 390.41C1349.68 390.703 1350 391.143 1350.15 391.729ZM1308.03 374.004C1307.98 373.955 1307.93 373.906 1307.89 373.857C1306.57 372.832 1304.35 372.759 1301.22 373.638C1298.14 374.517 1295.46 376.201 1293.16 378.691C1290.92 381.182 1290.36 384.307 1291.48 388.066C1291.58 388.262 1291.77 388.408 1292.07 388.506C1292.36 388.604 1292.7 388.555 1293.09 388.359C1294.65 387.48 1296.73 386.138 1299.32 384.331C1301.9 382.524 1304.13 380.669 1305.98 378.765C1307.89 376.812 1308.57 375.225 1308.03 374.004ZM1291.33 417.949C1291.97 418.535 1293.07 418.462 1294.63 417.729C1296.19 416.948 1297.63 415.85 1298.95 414.434C1300.32 412.969 1301.03 411.577 1301.07 410.259C1301.07 409.966 1300.95 409.771 1300.71 409.673C1300.51 409.575 1300.29 409.575 1300.05 409.673C1298.93 410.308 1297.61 411.138 1296.09 412.163C1294.58 413.188 1293.31 414.238 1292.29 415.312C1291.26 416.338 1290.94 417.217 1291.33 417.949ZM1407.71 391.069C1408.01 391.655 1408.03 392.241 1407.79 392.827C1407.59 393.413 1407.2 393.853 1406.62 394.146C1394.12 399.126 1381.37 403.398 1368.38 406.963C1367.65 407.158 1366.87 407.354 1366.04 407.549C1363.4 408.232 1360.72 408.745 1357.98 409.087C1355.3 409.38 1352.93 409.014 1350.88 407.988C1348.88 406.914 1347.56 404.692 1346.92 401.323C1346.48 396.636 1347.12 392.119 1348.83 387.773C1348.97 387.383 1349.15 386.919 1349.34 386.382C1349.83 384.917 1350.49 383.623 1351.32 382.5C1352.15 381.328 1353.34 381.035 1354.91 381.621C1355.69 382.012 1356.18 382.622 1356.37 383.452C1356.62 384.233 1356.52 384.99 1356.08 385.723C1354.61 388.408 1353.54 391.875 1352.86 396.123C1352.17 400.322 1352.59 403.838 1354.1 406.67C1355.47 407.842 1357.84 408.11 1361.21 407.476C1364.62 406.792 1368.29 405.718 1372.19 404.253C1376.15 402.788 1379.61 401.421 1382.59 400.151C1384.35 399.419 1385.74 398.857 1386.77 398.467C1389.84 397.344 1392.9 396.099 1395.92 394.731C1398.95 393.364 1401.9 391.875 1404.79 390.264C1405.32 390.02 1405.86 389.971 1406.4 390.117C1406.98 390.264 1407.42 390.581 1407.71 391.069ZM1355.35 374.517C1354.13 374.321 1353.3 373.394 1352.86 371.733C1352.47 370.073 1352.47 368.413 1352.86 366.753C1353.3 365.093 1354.13 364.189 1355.35 364.043C1356.62 364.189 1357.45 365.093 1357.84 366.753C1358.28 368.413 1358.28 370.073 1357.84 371.733C1357.45 373.394 1356.62 374.321 1355.35 374.517Z" fill="#121212"/>
</svg>
