<svg width="96" height="379" viewBox="0 0 96 379" fill="none" xmlns="http://www.w3.org/2000/svg">
<g clip-path="url(#clip0_27_44)">
<path d="M42.3828 304.219C42.4049 303.953 42.5046 303.732 42.6816 303.555C42.8587 303.378 43.069 303.289 43.3125 303.289C43.6003 303.311 43.8327 303.422 44.0098 303.621C44.1868 303.82 44.2643 304.064 44.2422 304.352C43.9323 306.809 43.9655 309.277 44.3418 311.756C44.4303 312.265 44.5299 312.774 44.6406 313.283C49.112 314.523 53.2292 315.917 56.9922 317.467C59.4935 318.485 62.194 319.758 65.0938 321.285C67.9935 322.812 70.7051 324.561 73.2285 326.531C75.7741 328.501 77.7331 330.682 79.1055 333.072C79.7474 334.268 80.1016 335.529 80.168 336.857C80.2344 338.163 79.9023 339.425 79.1719 340.643C79.0169 340.886 78.8509 341.13 78.6738 341.373C78.6074 341.462 78.5299 341.539 78.4414 341.605C77.3789 342.624 76.1172 343.199 74.6562 343.332C73.2174 343.443 71.7565 343.299 70.2734 342.9C68.8125 342.502 67.4844 342.026 66.2891 341.473C63.3229 340.078 60.5781 338.34 58.0547 336.26C55.5534 334.179 53.2845 331.866 51.248 329.32C47.7949 325.004 45.3047 320.189 43.7773 314.877C41.9401 314.368 40.1029 313.914 38.2656 313.516C37.026 313.228 35.4102 312.973 33.418 312.752C31.4036 312.508 29.3561 312.453 27.2754 312.586C25.1947 312.697 23.4349 313.15 21.9961 313.947C20.5352 314.722 19.7272 315.984 19.5723 317.732C19.6829 318.883 20.1478 320.023 20.9668 321.152C21.7858 322.259 22.7708 323.377 23.9219 324.506C25.9805 323.554 28.1055 322.812 30.2969 322.281C30.6732 322.193 31.0163 322.237 31.3262 322.414C31.6139 322.591 31.8132 322.868 31.9238 323.244C32.0124 323.643 31.957 324.008 31.7578 324.34C31.5365 324.65 31.2266 324.838 30.8281 324.904C28.7474 325.214 26.9434 325.646 25.416 326.199C25.748 326.531 26.0469 326.841 26.3125 327.129C26.401 327.217 26.4896 327.306 26.5781 327.395C29.168 330.007 31.8132 332.541 34.5137 334.998C37.4577 337.654 40.3242 340.399 43.1133 343.232C43.2461 343.387 43.3789 343.542 43.5117 343.697C44.6185 344.826 45.7917 346.188 47.0312 347.781C48.2708 349.375 49.1562 351.024 49.6875 352.729C50.2188 354.433 49.9531 356.016 48.8906 357.477C48.7578 357.632 48.625 357.786 48.4922 357.941C47.3633 358.982 46.0794 359.59 44.6406 359.768C43.2018 359.923 41.7409 359.812 40.2578 359.436C38.7747 359.059 37.4134 358.583 36.1738 358.008C32.2116 356.171 28.4596 353.548 24.918 350.139C21.3542 346.708 18.7754 342.956 17.1816 338.883C16.1634 335.917 16.1302 333.283 17.082 330.98C18.0117 328.656 19.8047 326.742 22.4609 325.236C21.5312 324.13 20.7233 322.979 20.0371 321.783C19.3288 320.566 18.9193 319.382 18.8086 318.23C18.7865 318.164 18.7754 318.098 18.7754 318.031C18.7754 317.987 18.7754 317.954 18.7754 317.932C18.7754 317.865 18.7865 317.799 18.8086 317.732C18.8086 317.71 18.8086 317.688 18.8086 317.666C18.9857 315.475 19.8932 313.881 21.5312 312.885C23.1471 311.889 24.9622 311.313 26.9766 311.158C29.5 310.937 32.1452 311.003 34.9121 311.357C37.679 311.689 40.4681 312.21 43.2793 312.918C43.2129 312.608 43.1465 312.298 43.0801 311.988C42.5931 309.443 42.3607 306.853 42.3828 304.219ZM25.3496 328.557C25.2168 328.424 25.0729 328.269 24.918 328.092C24.5638 327.715 24.1875 327.295 23.7891 326.83C20.668 328.512 19.0853 330.859 19.041 333.869C18.9746 336.88 20.0371 340.023 22.2285 343.299C24.4199 346.575 27.2975 349.452 30.8613 351.932C32.0566 352.773 33.5176 353.658 35.2441 354.588C36.9707 355.495 38.7415 356.193 40.5566 356.68C42.3717 357.167 43.9987 357.189 45.4375 356.746C45.8581 356.569 46.2233 356.326 46.5332 356.016C46.5996 355.971 46.666 355.916 46.7324 355.85C46.7324 355.827 46.7435 355.805 46.7656 355.783C46.7878 355.761 46.8099 355.739 46.832 355.717C46.8763 355.65 46.9206 355.584 46.9648 355.518C47.3411 354.809 47.3522 353.968 46.998 352.994C46.6439 351.998 46.1458 351.035 45.5039 350.105C44.862 349.176 44.2975 348.401 43.8105 347.781C43.7884 347.759 43.7663 347.737 43.7441 347.715C40.3353 343.708 36.7051 339.868 32.8535 336.193C30.2858 333.714 27.7845 331.169 25.3496 328.557ZM69.2773 326.631C61.8398 321.606 53.7826 317.821 45.1055 315.275C46.7214 320.721 49.5104 325.557 53.4727 329.785C57.4128 333.991 61.9727 337.223 67.1523 339.48C68.0378 339.857 69.2552 340.266 70.8047 340.709C72.3542 341.13 73.8483 341.373 75.2871 341.439C76.7259 341.484 77.722 341.107 78.2754 340.311C79.1387 338.717 79.0391 337.035 77.9766 335.264C76.9362 333.471 75.5417 331.799 73.793 330.25C72.0443 328.701 70.5391 327.494 69.2773 326.631ZM41.752 271.713C41.9512 271.558 42.1725 271.492 42.416 271.514C42.6595 271.536 42.8587 271.646 43.0137 271.846C43.0358 271.868 43.0469 271.879 43.0469 271.879C43.3125 272.344 43.6113 272.864 43.9434 273.439C44.873 275.033 45.8802 276.859 46.9648 278.918C48.0273 280.954 48.9128 282.98 49.6211 284.994C50.3294 286.986 50.6061 288.724 50.4512 290.207C50.4069 290.406 50.3516 290.605 50.2852 290.805C50.1302 291.181 49.9199 291.524 49.6543 291.834C49.5215 291.989 49.3776 292.122 49.2227 292.232C47.806 293.14 46.0573 293.494 43.9766 293.295C43.8659 293.295 43.7995 293.35 43.7773 293.461C43.7331 293.549 43.7552 293.627 43.8437 293.693C45.1055 294.601 46.3229 295.575 47.4961 296.615C48.2044 297.279 48.8796 298.054 49.5215 298.939C50.1634 299.803 50.4401 300.766 50.3516 301.828C50.3516 301.872 50.3405 301.928 50.3184 301.994C50.3184 301.994 50.3184 302.005 50.3184 302.027C50.0749 302.979 49.5215 303.688 48.6582 304.152C47.3743 304.728 45.9687 304.927 44.4414 304.75C42.8919 304.595 41.4642 304.318 40.1582 303.92C39.2285 303.632 38.321 303.267 37.4355 302.824C37.1257 302.669 36.8158 302.481 36.5059 302.26C36.196 302.038 36.0189 301.762 35.9746 301.43C35.9082 301.076 35.9746 300.743 36.1738 300.434C36.4173 300.124 36.7161 299.947 37.0703 299.902C37.4023 299.836 37.7233 299.902 38.0332 300.102C39.1842 300.788 40.6784 301.352 42.5156 301.795C44.3529 302.215 45.9023 302.26 47.1641 301.928C47.2526 301.906 47.3301 301.872 47.3965 301.828C47.4186 301.828 47.4297 301.828 47.4297 301.828C47.5846 301.762 47.7064 301.662 47.7949 301.529C47.7949 301.507 47.806 301.474 47.8281 301.43C47.8281 301.43 47.8281 301.419 47.8281 301.396C47.8281 301.374 47.8281 301.341 47.8281 301.297C47.4297 300.079 46.3672 298.762 44.6406 297.346C42.9141 295.907 41.4753 294.8 40.3242 294.025C39.3503 293.339 38.3542 292.675 37.3359 292.033C37.026 291.812 36.8711 291.535 36.8711 291.203C36.8711 290.871 36.9928 290.594 37.2363 290.373C37.4798 290.152 37.7897 290.085 38.166 290.174C38.4095 290.24 38.6641 290.318 38.9297 290.406C40.5898 290.96 42.2832 291.402 44.0098 291.734C44.873 291.889 45.8027 291.956 46.7988 291.934C47.7949 291.889 48.5918 291.513 49.1895 290.805C49.2559 290.694 49.3223 290.572 49.3887 290.439C49.4329 290.307 49.4772 290.174 49.5215 290.041C49.5215 290.041 49.5215 290.03 49.5215 290.008C49.6986 288.348 49.3444 286.444 48.459 284.297C47.5514 282.15 46.4447 280.058 45.1387 278.021C43.8327 275.985 42.6484 274.314 41.5859 273.008C41.431 272.809 41.3757 272.587 41.4199 272.344C41.4421 272.1 41.5527 271.89 41.752 271.713ZM26.3125 282.902C26.3125 282.504 26.6003 282.083 27.1758 281.641C27.7292 281.22 28.4043 281.01 29.2012 281.01C29.998 281.01 30.5293 281.187 30.7949 281.541C31.0384 281.895 31.1602 282.271 31.1602 282.67C31.1602 283.046 31.0384 283.411 30.7949 283.766C30.5293 284.12 29.998 284.297 29.2012 284.297C28.4043 284.297 27.7292 284.153 27.1758 283.865C26.6003 283.6 26.3125 283.279 26.3125 282.902ZM26.3125 275.963C26.3125 275.564 26.6003 275.144 27.1758 274.701C27.7292 274.281 28.4043 274.07 29.2012 274.07C29.998 274.07 30.5293 274.247 30.7949 274.602C31.0384 274.956 31.1602 275.332 31.1602 275.73C31.1602 276.107 31.0384 276.472 30.7949 276.826C30.5293 277.18 29.998 277.357 29.2012 277.357C28.4043 277.357 27.7292 277.225 27.1758 276.959C26.6003 276.693 26.3125 276.361 26.3125 275.963ZM41.5859 246.379C41.7852 246.113 42.0397 245.969 42.3496 245.947C42.6595 245.925 42.9362 246.036 43.1797 246.279C44.7513 247.917 46.4889 249.932 48.3926 252.322C50.2962 254.691 51.9232 257.181 53.2734 259.793C54.6237 262.383 55.2435 264.84 55.1328 267.164C54.9336 269.023 54.0703 270.507 52.543 271.613C51.1927 272.432 49.7539 272.897 48.2266 273.008C46.6771 273.141 45.1608 273.118 43.6777 272.941C43.4121 273.34 43.0579 273.55 42.6152 273.572C42.1504 273.617 41.763 273.462 41.4531 273.107C41.3203 272.908 41.1654 272.709 40.9883 272.51C36.5612 271.558 32.2891 270.163 28.1719 268.326C24.0547 266.489 20.0703 264.397 16.2187 262.051C16.0417 261.94 15.8314 261.807 15.5879 261.652C14.6139 261.055 13.4961 260.302 12.2344 259.395C10.9505 258.487 9.83268 257.524 8.88086 256.506C7.92904 255.488 7.47526 254.503 7.51953 253.551C7.5638 253.042 7.78516 252.654 8.18359 252.389C8.5599 252.101 8.98047 251.957 9.44531 251.957C10.1979 251.979 10.9062 252.09 11.5703 252.289C13.9831 253.042 16.3073 253.993 18.543 255.145C25.1836 258.465 31.5475 262.25 37.6348 266.5C39.4056 267.695 41.0879 269.023 42.6816 270.484C44.0098 270.75 45.3822 270.927 46.7988 271.016C48.2155 271.082 49.5658 270.894 50.8496 270.451C53.3509 269.411 54.6237 267.939 54.668 266.035C54.7122 264.109 54.0703 262.073 52.7422 259.926C51.3919 257.757 49.9089 255.786 48.293 254.016C46.6549 252.245 45.4043 250.961 44.541 250.164C43.6777 249.323 42.7702 248.548 41.8184 247.84C41.5749 247.663 41.431 247.441 41.3867 247.176C41.3424 246.888 41.4089 246.622 41.5859 246.379ZM33.7168 267.994C34.8014 268.37 35.8861 268.725 36.9707 269.057C30.8392 264.497 24.3867 260.468 17.6133 256.971C16.5286 256.417 15.444 255.897 14.3594 255.41C13.2526 254.923 12.1458 254.514 11.0391 254.182C10.5078 254.027 9.98763 253.938 9.47852 253.916C9.85482 254.757 10.541 255.587 11.5371 256.406C12.5111 257.225 13.3965 257.911 14.1934 258.465C17.2038 260.479 20.3581 262.272 23.6562 263.844C26.9544 265.393 30.3079 266.777 33.7168 267.994ZM41.6855 190.465C41.3978 190.177 41.2982 189.878 41.3867 189.568C41.4753 189.258 41.6745 189.037 41.9844 188.904C42.2721 188.771 42.582 188.827 42.9141 189.07C44.0872 190.243 45.2051 191.472 46.2676 192.756C48.8796 195.921 51.2591 199.242 53.4062 202.717C55.5534 206.192 57.3574 209.844 58.8184 213.674C59.3053 215.024 59.7259 216.496 60.0801 218.09C60.4564 219.684 60.5671 221.266 60.4121 222.838C60.2793 224.387 59.7038 225.76 58.6855 226.955C57.3574 228.305 55.8522 228.958 54.1699 228.914C52.4655 228.848 50.75 228.35 49.0234 227.42C47.2747 226.468 45.6367 225.372 44.1094 224.133C42.582 222.871 41.2982 221.72 40.2578 220.68C37.9115 218.355 35.7643 215.854 33.8164 213.176C33.4844 212.667 33.1523 212.158 32.8203 211.648C32.0677 213.375 31.0827 214.969 29.8652 216.43C28.6257 217.891 27.2533 218.82 25.748 219.219C25.6595 219.241 25.571 219.263 25.4824 219.285C25.2389 219.329 24.9844 219.352 24.7187 219.352C22.2617 219.352 19.9375 218.665 17.7461 217.293C15.5547 215.921 13.64 214.393 12.002 212.711C10.4967 211.25 9.09115 209.501 7.78516 207.465C6.47917 205.428 5.7819 203.348 5.69336 201.223C5.84831 199.319 6.58984 198.079 7.91797 197.504C9.22396 196.906 10.7402 196.685 12.4668 196.84C14.1934 196.995 15.7318 197.26 17.082 197.637C17.5026 197.725 17.9121 197.825 18.3105 197.936C18.5098 198.002 18.709 198.057 18.9082 198.102C19.2845 198.212 19.5612 198.423 19.7383 198.732C19.9154 199.042 19.9596 199.385 19.8711 199.762C19.7383 200.271 19.4395 200.603 18.9746 200.758C18.4876 200.891 18.0449 200.791 17.6465 200.459C15.9421 199.042 13.9831 198.223 11.7695 198.002C10.3307 197.847 9.02474 198.024 7.85156 198.533C6.67839 199.02 6.22461 200.027 6.49023 201.555C7.08789 203.525 8.42708 205.705 10.5078 208.096C12.5885 210.464 14.9238 212.512 17.5137 214.238C20.0814 215.943 22.4277 216.773 24.5527 216.729H24.7187C24.8073 216.729 24.8958 216.717 24.9844 216.695C25.0065 216.695 25.0286 216.695 25.0508 216.695C25.0951 216.673 25.1283 216.662 25.1504 216.662C25.1725 216.662 25.1836 216.662 25.1836 216.662C26.4674 216.197 27.6185 215.201 28.6367 213.674C29.6328 212.146 30.3522 210.741 30.7949 209.457C30.972 208.97 31.1048 208.494 31.1934 208.029C31.304 207.587 31.5365 207.277 31.8906 207.1C32.2448 206.923 32.61 206.9 32.9863 207.033C33.3626 207.166 33.6283 207.443 33.7832 207.863C34.1374 209.169 34.9674 210.829 36.2734 212.844C37.5794 214.858 39.1732 216.928 41.0547 219.053C42.9362 221.156 44.9173 223.004 46.998 224.598C49.0788 226.191 51.082 227.21 53.0078 227.652C54.9115 228.073 56.5495 227.597 57.9219 226.225C58.8516 225.184 59.3607 223.945 59.4492 222.506C59.5599 221.045 59.4382 219.562 59.084 218.057C58.752 216.551 58.3646 215.201 57.9219 214.006C56.7708 210.995 55.3652 208.118 53.7051 205.373C50.8275 200.503 47.4076 196.065 43.4453 192.059C42.8698 191.505 42.2832 190.974 41.6855 190.465ZM41.3203 155.17C41.3646 154.661 41.5749 154.329 41.9512 154.174C42.3053 154.019 42.6595 154.03 43.0137 154.207C43.3457 154.384 43.5339 154.716 43.5781 155.203C43.5781 155.225 43.5781 155.236 43.5781 155.236C43.2018 156.985 43.1686 158.756 43.4785 160.549C43.877 162.607 44.6406 164.533 45.7695 166.326C46.8763 168.119 48.1934 169.746 49.7207 171.207C49.7428 171.229 49.765 171.24 49.7871 171.24C55.3652 172.635 60.888 174.217 66.3555 175.988C71.8451 177.737 77.224 179.751 82.4922 182.031C84.1966 182.784 85.8568 183.647 87.4727 184.621C88.0924 185.02 88.679 185.518 89.2324 186.115C89.8079 186.691 89.985 187.388 89.7637 188.207C89.4759 188.849 89.0111 189.247 88.3691 189.402C87.7272 189.557 87.0964 189.624 86.4766 189.602C84.5729 189.513 82.7025 189.258 80.8652 188.838C75.0879 187.532 69.543 185.562 64.2305 182.928C58.9401 180.294 54.1257 176.951 49.7871 172.9C49.765 172.9 49.7428 172.889 49.7207 172.867C48.5918 172.557 46.8542 172.148 44.5078 171.639C42.1393 171.13 39.8262 170.753 37.5684 170.51C35.3105 170.244 33.75 170.377 32.8867 170.908C32.8867 170.908 32.8867 170.919 32.8867 170.941C32.8646 170.941 32.8535 170.952 32.8535 170.975C32.8535 170.975 32.8535 170.986 32.8535 171.008C32.765 171.517 32.9642 172.115 33.4512 172.801C33.9382 173.465 34.5247 174.118 35.2109 174.76C35.875 175.38 36.4284 175.889 36.8711 176.287C36.9154 176.309 36.9596 176.32 37.0039 176.32C37.0482 176.298 37.0814 176.265 37.1035 176.221C37.5241 175.38 38 174.583 38.5312 173.83C38.9076 173.387 39.3281 173.21 39.793 173.299C40.2357 173.365 40.5788 173.598 40.8223 173.996C41.0436 174.395 41.0104 174.848 40.7227 175.357C40.125 176.243 39.6491 177.173 39.2949 178.146C39.2728 178.213 39.2839 178.268 39.3281 178.312C40.1914 179.021 41.1322 179.807 42.1504 180.67C43.1465 181.533 44.0651 182.33 44.9062 183.061C44.9948 183.127 45.0833 183.204 45.1719 183.293C46.5 184.4 47.7728 185.606 48.9902 186.912C49.0124 186.912 49.0234 186.923 49.0234 186.945C49.3997 187.344 49.7539 187.798 50.0859 188.307C50.418 188.794 50.6061 189.336 50.6504 189.934C50.6725 190.089 50.6725 190.243 50.6504 190.398C50.2962 191.616 49.5326 192.269 48.3594 192.357C47.1862 192.446 46.1016 192.324 45.1055 191.992C42.6484 191.195 40.5345 189.867 38.7637 188.008C36.3288 185.374 35.4766 182.308 36.207 178.811C36.207 178.766 36.1849 178.722 36.1406 178.678C35.1667 177.66 34.237 176.586 33.3516 175.457C32.7539 174.727 32.2227 173.919 31.7578 173.033C31.5365 172.613 31.3815 172.148 31.293 171.639C31.2044 171.13 31.293 170.643 31.5586 170.178C31.6029 170.089 31.6582 170.012 31.7246 169.945C32.5215 169.171 33.8053 168.816 35.5762 168.883C37.3249 168.927 38.8522 169.06 40.1582 169.281C40.3574 169.303 40.5456 169.326 40.7227 169.348C42.8919 169.724 45.0612 170.156 47.2305 170.643C47.2969 170.643 47.3522 170.62 47.3965 170.576C47.4186 170.51 47.4076 170.443 47.3633 170.377C45.4596 168.296 43.9544 165.961 42.8477 163.371C41.7409 160.781 41.2318 158.048 41.3203 155.17ZM39.0293 181.5C38.985 181.456 38.9297 181.456 38.8633 181.5C38.7969 181.522 38.7747 181.566 38.7969 181.633C38.9297 182.872 39.3503 184.001 40.0586 185.02C40.7669 186.016 41.6523 186.879 42.7148 187.609C44.043 188.539 45.5039 189.159 47.0977 189.469C47.1641 189.469 47.2194 189.447 47.2637 189.402C47.2858 189.336 47.2747 189.281 47.2305 189.236C46.6107 188.462 45.9245 187.731 45.1719 187.045C45.1276 187.001 45.0944 186.967 45.0723 186.945C43.8327 185.772 42.571 184.632 41.2871 183.525C40.5345 182.861 39.7819 182.186 39.0293 181.5ZM87.5723 187.742C87.5944 187.742 87.5944 187.742 87.5723 187.742V187.742ZM66.5215 178.014C62.1387 176.486 57.7227 175.092 53.2734 173.83C53.207 173.808 53.1628 173.819 53.1406 173.863C53.0964 173.885 53.0742 173.919 53.0742 173.963C53.0742 174.007 53.0964 174.051 53.1406 174.096C55.8854 176.088 58.7852 177.826 61.8398 179.309C64.8945 180.792 68.0046 182.142 71.1699 183.359C74.5124 184.643 77.9102 185.684 81.3633 186.48C83.1341 186.923 84.9049 187.178 86.6758 187.244C86.7643 187.244 86.8197 187.211 86.8418 187.145C86.8639 187.078 86.8418 187.023 86.7754 186.979C85.2923 185.916 83.6986 184.997 81.9941 184.223C81.8613 184.156 81.7174 184.09 81.5625 184.023C76.6706 181.788 71.6569 179.785 66.5215 178.014ZM25.25 156.93C25.3828 156.686 25.582 156.564 25.8477 156.564C26.556 156.609 27.2422 156.764 27.9062 157.029C28.7695 157.339 29.5664 157.793 30.2969 158.391C31.0052 158.988 31.5365 159.741 31.8906 160.648C32.2891 161.866 32.2448 163.072 31.7578 164.268C31.2708 165.396 30.474 166.138 29.3672 166.492C28.2604 166.846 27.1426 166.846 26.0137 166.492C25.8366 166.426 25.6484 166.348 25.4492 166.26C25.1393 166.061 24.9733 165.817 24.9512 165.529C24.929 165.264 25.0176 165.02 25.2168 164.799C25.416 164.6 25.6927 164.522 26.0469 164.566C26.0911 164.566 26.1354 164.566 26.1797 164.566C26.2461 164.566 26.3125 164.566 26.3789 164.566C26.9766 164.589 27.5742 164.511 28.1719 164.334C28.7474 164.179 29.1569 163.825 29.4004 163.271C29.7324 162.452 29.6992 161.633 29.3008 160.814C28.3932 159.442 27.1536 158.424 25.582 157.76C25.4271 157.693 25.3164 157.583 25.25 157.428C25.1836 157.273 25.1836 157.107 25.25 156.93ZM42.3496 126.648C42.571 126.604 42.7702 126.66 42.9473 126.814C43.1243 126.947 43.2129 127.135 43.2129 127.379C43.2129 127.689 43.2129 127.999 43.2129 128.309C43.2572 129.902 43.2572 131.496 43.2129 133.09C43.2129 133.178 43.2129 133.267 43.2129 133.355C43.1686 134.551 43.069 135.846 42.9141 137.24C42.7591 138.613 42.4382 139.908 41.9512 141.125C41.4421 142.342 40.6673 143.294 39.627 143.98C38.6751 144.512 37.679 144.811 36.6387 144.877C36.528 144.899 36.4173 144.91 36.3066 144.91C35.9525 144.932 35.6426 145.021 35.377 145.176C35.377 145.176 35.377 145.187 35.377 145.209C35.377 145.231 35.377 145.242 35.377 145.242C35.377 145.264 35.377 145.298 35.377 145.342C35.377 145.386 35.377 145.43 35.377 145.475C35.377 145.497 35.377 145.508 35.377 145.508C35.8639 146.615 37.3581 147.821 39.8594 149.127C42.3607 150.411 45.0059 151.595 47.7949 152.68C50.584 153.742 52.6426 154.495 53.9707 154.938C54.4798 155.159 54.7786 155.48 54.8672 155.9C54.9336 156.343 54.834 156.73 54.5684 157.062C54.2806 157.417 53.86 157.572 53.3066 157.527C53.3066 157.527 52.6647 157.417 51.3809 157.195C50.0749 156.974 48.4811 156.697 46.5996 156.365C44.696 156.055 42.8034 155.745 40.9219 155.436C39.0182 155.104 37.4245 154.827 36.1406 154.605C34.8346 154.384 34.1816 154.273 34.1816 154.273C33.6061 154.118 33.263 153.82 33.1523 153.377C33.0195 152.934 33.0859 152.525 33.3516 152.148C33.6172 151.772 34.0378 151.606 34.6133 151.65L41.0879 152.746C41.1322 152.746 41.1764 152.735 41.2207 152.713C41.2428 152.669 41.2539 152.635 41.2539 152.613C41.2318 152.569 41.1986 152.536 41.1543 152.514C40.1139 152.005 39.0072 151.385 37.834 150.654C36.6387 149.924 35.6204 149.127 34.7793 148.264C33.916 147.378 33.4622 146.46 33.418 145.508C33.418 145.021 33.5508 144.589 33.8164 144.213C34.0599 143.814 34.4141 143.538 34.8789 143.383C35.4544 143.25 36.0299 143.195 36.6055 143.217C37.026 143.217 37.4355 143.195 37.834 143.15C39.4499 142.84 40.5456 141.933 41.1211 140.428C41.6966 138.9 42.0286 137.384 42.1172 135.879C42.2943 133.068 42.1504 130.279 41.6855 127.512C41.6634 127.29 41.7187 127.102 41.8516 126.947C41.9622 126.77 42.1283 126.671 42.3496 126.648ZM41.8848 100.684C42.1504 100.551 42.416 100.54 42.6816 100.65C42.9473 100.739 43.1465 100.916 43.2793 101.182C45.5371 106.848 47.474 112.626 49.0898 118.514C49.1784 118.846 49.2669 119.2 49.3555 119.576C49.6654 120.771 49.8978 121.989 50.0527 123.229C50.1855 124.446 50.0195 125.52 49.5547 126.449C49.0677 127.357 48.0605 127.954 46.5332 128.242C44.4082 128.441 42.3607 128.154 40.3906 127.379C40.2135 127.312 40.0033 127.235 39.7598 127.146C39.0957 126.925 38.5091 126.626 38 126.25C37.4687 125.874 37.3359 125.331 37.6016 124.623C37.7786 124.269 38.0553 124.048 38.4316 123.959C38.7858 123.848 39.1289 123.893 39.4609 124.092C40.6784 124.756 42.25 125.243 44.1758 125.553C46.0794 125.863 47.6732 125.674 48.957 124.988C49.4883 124.368 49.61 123.295 49.3223 121.768C49.0124 120.218 48.5254 118.558 47.8613 116.787C47.1973 114.994 46.5775 113.423 46.002 112.072C45.6699 111.275 45.4154 110.645 45.2383 110.18C44.7292 108.785 44.1647 107.402 43.5449 106.029C42.9251 104.657 42.25 103.318 41.5195 102.012C41.4089 101.768 41.3867 101.525 41.4531 101.281C41.5195 101.016 41.6634 100.816 41.8848 100.684ZM34.3809 124.424C34.2923 124.977 33.8717 125.354 33.1191 125.553C32.3665 125.73 31.6139 125.73 30.8613 125.553C30.1087 125.354 29.6992 124.977 29.6328 124.424C29.6992 123.848 30.1087 123.472 30.8613 123.295C31.6139 123.096 32.3665 123.096 33.1191 123.295C33.8717 123.472 34.2923 123.848 34.3809 124.424ZM41.3535 70.668C41.4199 70.1589 41.6302 69.8379 41.9844 69.7051C42.3164 69.5501 42.6595 69.5612 43.0137 69.7383C43.3457 69.8932 43.5339 70.2142 43.5781 70.7012C43.1354 72.6934 42.8919 74.7077 42.8477 76.7441C42.8255 79.6217 43.3568 82.3776 44.4414 85.0117C46.4779 85.4102 48.4479 85.9525 50.3516 86.6387C54.2474 88.0111 57.8997 89.8372 61.3086 92.1172C62.0169 92.6042 62.7917 93.2461 63.6328 94.043C64.474 94.8177 65.0716 95.6699 65.4258 96.5996C65.7799 97.5072 65.5807 98.4036 64.8281 99.2891C64.7839 99.3333 64.7396 99.3665 64.6953 99.3887C64.651 99.4329 64.6068 99.4661 64.5625 99.4883C63.6328 99.9974 62.4818 100.119 61.1094 99.8535C59.737 99.5658 58.3757 99.112 57.0254 98.4922C55.6973 97.8724 54.6126 97.3079 53.7715 96.7988C51.8014 95.6257 49.9753 94.2643 48.293 92.7148C46.5885 91.1654 45.1829 89.3724 44.0762 87.3359C43.3014 87.2031 42.4492 87.1257 41.5195 87.1035C40.5677 87.0814 39.7598 87.2585 39.0957 87.6348C39.0072 87.7233 38.9297 87.8008 38.8633 87.8672C38.8633 87.8893 38.8522 87.9225 38.8301 87.9668C38.8079 88.0111 38.7858 88.0443 38.7637 88.0664C38.7637 88.1107 38.7526 88.1549 38.7305 88.1992C38.7083 88.2214 38.6973 88.2435 38.6973 88.2656C38.4759 89.4388 39.0182 90.6895 40.3242 92.0176C41.6302 93.3236 43.1354 94.5299 44.8398 95.6367C46.5443 96.7435 47.8835 97.5625 48.8574 98.0938C50.5618 99.0677 52.3105 99.9753 54.1035 100.816C54.5241 101.038 54.7676 101.348 54.834 101.746C54.8783 102.145 54.7897 102.499 54.5684 102.809C54.347 103.141 53.9928 103.318 53.5059 103.34C49.0124 103.163 44.5521 102.654 40.125 101.812C35.6979 100.971 31.3372 99.9089 27.043 98.625C23.5898 97.6068 20.2142 96.4004 16.916 95.0059C14.3926 93.9876 11.9798 92.737 9.67773 91.2539C8.85872 90.7227 8.07292 90.1029 7.32031 89.3945C6.54557 88.6862 6.00326 87.8561 5.69336 86.9043C5.53841 86.2845 5.57161 85.7201 5.79297 85.2109C6.01432 84.7018 6.42383 84.3477 7.02148 84.1484C7.86263 83.9271 8.68164 83.8939 9.47852 84.0488C11.0501 84.3366 12.5885 84.7682 14.0937 85.3438C15.599 85.9193 17.071 86.5391 18.5098 87.2031C23.4238 89.4609 28.1276 92.084 32.6211 95.0723C33.7721 95.847 34.8789 96.6771 35.9414 97.5625C36.2956 97.8724 36.6497 98.2266 37.0039 98.625C37.1589 98.7799 37.2585 98.957 37.3027 99.1562C40.8223 99.8424 44.3639 100.307 47.9277 100.551C46.5332 99.7982 44.8288 98.7357 42.8145 97.3633C40.8001 95.9909 39.1068 94.4525 37.7344 92.748C36.3398 91.0436 35.8861 89.2839 36.373 87.4688L36.4727 87.2363C36.5833 86.9928 36.7051 86.7604 36.8379 86.5391C37.5684 85.6094 38.498 85.056 39.627 84.8789C40.7337 84.7018 41.8294 84.6797 42.9141 84.8125C42.0951 82.5326 41.597 80.1973 41.4199 77.8066C41.2428 75.416 41.2207 73.0365 41.3535 70.668ZM27.5742 96.832C29.2565 97.2969 30.9388 97.7396 32.6211 98.1602C29.6328 95.9023 26.5007 93.8548 23.2246 92.0176C22.9147 91.8405 22.6159 91.6634 22.3281 91.4863C21.5091 90.9993 20.2806 90.3242 18.6426 89.4609C16.9824 88.5977 15.2448 87.7565 13.4297 86.9375C11.5924 86.1185 9.9987 85.5319 8.64844 85.1777C7.29818 84.8236 6.51237 84.901 6.29102 85.4102C6.1582 86.2734 7.16536 87.4134 9.3125 88.8301C11.4375 90.2246 14.1602 91.6523 17.4805 93.1133C20.8008 94.5742 24.1654 95.8138 27.5742 96.832ZM49.6211 88.7969C48.3815 88.3763 47.1309 88.0111 45.8691 87.7012C46.9316 89.3613 48.2266 90.8223 49.7539 92.084C51.2591 93.3457 52.8639 94.4525 54.5684 95.4043C55.8301 96.0905 57.4238 96.8099 59.3496 97.5625C61.2754 98.3151 62.9355 98.6471 64.3301 98.5586C64.5072 98.5143 64.6178 98.4701 64.6621 98.4258C64.6842 98.4258 64.6953 98.4258 64.6953 98.4258C64.6953 98.4036 64.6953 98.3926 64.6953 98.3926C64.7396 98.3483 64.7617 98.304 64.7617 98.2598C64.8281 97.3079 63.8763 96.179 61.9062 94.873C59.9583 93.5671 57.7559 92.3496 55.2988 91.2207C52.8639 90.0697 50.9714 89.2617 49.6211 88.7969ZM41.9512 44.8359C42.1061 44.7695 42.2721 44.7363 42.4492 44.7363C42.7591 44.7585 42.9805 44.8691 43.1133 45.0684C43.2461 45.2676 43.2904 45.4889 43.2461 45.7324C43.1797 45.9759 43.0137 46.153 42.748 46.2637C42.7259 46.2858 42.6927 46.319 42.6484 46.3633C42.5378 46.4518 42.4271 46.5514 42.3164 46.6621C42.1172 47.1934 41.9844 47.7689 41.918 48.3887C41.918 48.4108 41.9069 48.4329 41.8848 48.4551C41.752 49.5176 41.6745 50.6022 41.6523 51.709C41.5638 54.653 41.5749 57.597 41.6855 60.541C41.7077 60.7181 41.7741 60.873 41.8848 61.0059C41.9954 61.1387 42.1393 61.2161 42.3164 61.2383C44.7956 61.681 46.9095 62.7988 48.6582 64.5918C48.6803 64.6139 48.7025 64.6471 48.7246 64.6914C48.8132 64.7799 48.8906 64.8574 48.957 64.9238C49.2005 65.2337 49.444 65.5436 49.6875 65.8535C50.0859 66.4069 50.3737 67.0488 50.5508 67.7793C50.7057 68.4876 50.584 69.1628 50.1855 69.8047L50.0859 69.9375C50.0195 70.026 49.9421 70.1146 49.8535 70.2031C49.6986 70.3581 49.5326 70.4909 49.3555 70.6016C48.2708 71.2214 47.0645 71.498 45.7363 71.4316C44.3861 71.3874 43.1465 71.1771 42.0176 70.8008C40.5124 70.3581 39.151 69.6055 37.9336 68.543C36.694 67.4805 36.041 66.1302 35.9746 64.4922C35.9746 64.2266 36.041 63.8835 36.1738 63.4629C36.2845 63.0423 36.4616 62.7103 36.7051 62.4668C36.9264 62.2012 37.2253 62.179 37.6016 62.4004C37.7344 62.5111 37.834 62.666 37.9004 62.8652C37.9447 63.0423 37.9004 63.1862 37.7676 63.2969C36.8158 64.138 36.4062 64.946 36.5391 65.7207C36.6719 66.4733 37.1257 67.082 37.9004 67.5469C38.8301 68.0781 40.0697 68.4987 41.6191 68.8086C43.1686 69.1185 44.4746 69.2734 45.5371 69.2734C45.9355 69.2734 46.3451 69.2402 46.7656 69.1738C47.1862 69.1074 47.5514 68.9857 47.8613 68.8086C48.0163 68.7201 48.1159 68.5983 48.1602 68.4434C48.2708 68.1335 48.1159 67.6686 47.6953 67.0488C47.2526 66.4069 46.5664 65.7871 45.6367 65.1895C44.707 64.5918 43.5449 64.1823 42.1504 63.9609C41.9733 63.9388 41.8073 63.972 41.6523 64.0605C41.4974 64.1491 41.3867 64.2819 41.3203 64.459C41.2096 64.791 41.0436 65.112 40.8223 65.4219C40.6009 65.7096 40.3021 65.931 39.9258 66.0859C39.5716 66.2188 39.2174 66.2077 38.8633 66.0527C38.487 65.8978 38.2214 65.6432 38.0664 65.2891C37.9336 65.0234 37.8672 64.8132 37.8672 64.6582C37.8229 64.0605 37.9557 63.4408 38.2656 62.7988C38.5755 62.1569 38.9961 61.6699 39.5273 61.3379C39.7044 61.2493 39.8151 61.1055 39.8594 60.9062C40.3685 58.3607 40.6009 55.7819 40.5566 53.1699C40.5788 52.6608 40.5898 52.1628 40.5898 51.6758C40.5898 51.6094 40.5898 51.543 40.5898 51.4766C40.612 50.4362 40.6562 49.3848 40.7227 48.3223C40.7227 48.2116 40.7337 48.1009 40.7559 47.9902C40.7559 47.2155 40.8997 46.4408 41.1875 45.666C41.2539 45.5111 41.3535 45.3561 41.4863 45.2012C41.6191 45.0462 41.7741 44.9245 41.9512 44.8359ZM42.084 18.6055C42.3939 18.5391 42.6595 18.5944 42.8809 18.7715C43.1022 18.9486 43.224 19.181 43.2461 19.4688C43.3346 21.2174 43.5892 22.944 44.0098 24.6484C44.7402 27.6146 45.7474 30.4811 47.0312 33.248C48.8242 31.8314 50.75 31.2448 52.8086 31.4883C54.8451 31.7318 56.7266 32.5176 58.4531 33.8457C62.2383 36.7676 64.9499 40.4531 66.5879 44.9023C66.8978 45.832 67.1191 46.7839 67.252 47.7578C67.4069 48.7318 67.3626 49.7168 67.1191 50.7129C66.6986 52.196 65.7578 53.181 64.2969 53.668C63.3893 53.8672 62.5039 53.7897 61.6406 53.4355C60.7773 53.1035 59.9805 52.694 59.25 52.207C56.7266 50.3034 54.4577 47.946 52.4434 45.1348C50.4069 42.3236 48.6803 39.5124 47.2637 36.7012C46.6882 37.5645 46.2122 38.6048 45.8359 39.8223C45.4596 41.0397 45.3379 42.1686 45.4707 43.209C45.6257 43.5189 45.6146 43.8177 45.4375 44.1055C45.2161 44.4375 44.9505 44.6257 44.6406 44.6699C44.3307 44.7142 44.054 44.6589 43.8105 44.5039C43.0801 44.0169 42.3385 43.5299 41.5859 43.043L43.1797 45.4668C43.3789 45.8431 43.39 46.1862 43.2129 46.4961C43.0358 46.7839 42.7812 46.9609 42.4492 47.0273C42.0951 47.0938 41.7741 46.9609 41.4863 46.6289C41.4863 46.6289 41.3092 46.3854 40.9551 45.8984C40.6009 45.4115 40.1582 44.8138 39.627 44.1055C39.0957 43.375 38.5755 42.6556 38.0664 41.9473C37.5352 41.2389 37.0924 40.6413 36.7383 40.1543C36.362 39.6673 36.1738 39.4238 36.1738 39.4238C35.9082 39.0033 35.8529 38.6048 36.0078 38.2285C36.1628 37.8522 36.4284 37.5977 36.8047 37.4648C37.181 37.332 37.5684 37.3984 37.9668 37.6641C39.1178 38.5052 40.3464 39.3685 41.6523 40.2539C42.1615 40.6302 42.6595 40.9844 43.1465 41.3164C43.3457 38.7266 44.2533 36.4245 45.8691 34.4102C45.8913 34.2331 45.9134 34.0671 45.9355 33.9121C43.9876 29.3522 42.4714 24.6263 41.3867 19.7344C41.3424 19.4688 41.3867 19.2363 41.5195 19.0371C41.6523 18.8158 41.8405 18.6719 42.084 18.6055ZM48.7578 35.041C48.6693 35.1074 48.6139 35.2292 48.5918 35.4062C48.5475 35.5833 48.5254 35.7604 48.5254 35.9375C48.5033 36.1146 48.5143 36.2585 48.5586 36.3691C48.6914 36.6126 48.8353 36.8672 48.9902 37.1328C50.3848 39.7227 52.0228 42.235 53.9043 44.6699C55.7637 47.0827 57.8665 49.1191 60.2129 50.7793C60.7884 51.1556 61.4414 51.4876 62.1719 51.7754C62.9023 52.0632 63.5775 52.0521 64.1973 51.7422C64.7507 51.4102 65.1159 50.901 65.293 50.2148C65.5586 48.3776 65.1712 46.4186 64.1309 44.3379C63.0905 42.2572 61.9727 40.5195 60.7773 39.125C59.8255 37.974 58.6745 36.9004 57.3242 35.9043C55.9961 34.8861 54.5905 34.2331 53.1074 33.9453C51.6022 33.6576 50.1523 34.0228 48.7578 35.041Z" fill="#121212"/>
</g>
<defs>
<clipPath id="clip0_27_44">
<rect width="96" height="379" fill="white"/>
</clipPath>
</defs>
</svg>
