<svg width="1728" height="485" viewBox="0 0 1728 485" fill="none" xmlns="http://www.w3.org/2000/svg">
<path d="M358.18 174.145V226H333.277V222.289C325.465 226.326 316.415 228.344 306.129 228.344C292.587 228.344 280.283 225.056 269.215 218.48C258.147 211.905 249.293 203.083 242.652 192.016C236.077 180.883 232.789 168.578 232.789 155.102C232.789 141.625 236.077 129.353 242.652 118.285C249.293 107.152 258.147 98.2982 269.215 91.7227C280.283 85.1471 292.587 81.8594 306.129 81.8594C309.449 81.8594 312.704 82.0872 315.895 82.543C324.553 83.7799 332.138 86.612 338.648 91.0391C345.159 95.401 350.237 100.707 353.883 106.957C357.138 112.816 358.538 118.513 358.082 124.047C357.626 129.516 355.836 133.78 352.711 136.84C349.586 139.9 345.549 140.648 340.602 139.086C336.305 137.328 333.57 134.594 332.398 130.883C331.227 127.172 331.259 123.721 332.496 120.531C333.798 117.276 335.979 115.518 339.039 115.258C341.448 115.062 342.587 113.533 342.457 110.668C342.327 107.738 340.895 104.385 338.16 100.609C335.491 96.7682 331.487 93.4479 326.148 90.6484C320.81 87.7839 314.137 86.2865 306.129 86.1562C297.145 86.3516 289.104 89.5091 282.008 95.6289C274.977 101.749 269.378 110.017 265.211 120.434C261.109 130.785 259.059 142.276 259.059 154.906C259.059 167.602 261.109 179.19 265.211 189.672C269.378 200.154 275.009 208.52 282.105 214.77C289.202 220.954 297.21 224.047 306.129 224.047C310.426 224.047 314.82 223.396 319.312 222.094C324.13 220.727 328.785 218.676 333.277 215.941V178.539H312.77V174.145H358.18ZM445.484 127.562H470.484V226H445.484V214.965C437.932 223.754 428.297 228.148 416.578 228.148C406.617 228.409 398.642 225.609 392.652 219.75C389.723 216.951 387.249 213.663 385.23 209.887C383.212 206.111 382.203 201.098 382.203 194.848V127.562H407.203V198.07C407.138 203.995 408.896 209.105 412.477 213.402C415.992 217.764 420.712 219.913 426.637 219.848C431.91 219.848 436.402 217.667 440.113 213.305C443.694 209.008 445.484 203.93 445.484 198.07V127.562ZM420.973 88.4023C424.814 88.4023 428.102 89.7695 430.836 92.5039C433.505 95.1732 434.84 98.4284 434.84 102.27C434.84 106.176 433.505 109.496 430.836 112.23C428.102 114.9 424.814 116.234 420.973 116.234C417.066 116.234 413.779 114.9 411.109 112.23C408.375 109.496 407.008 106.176 407.008 102.27C407.008 98.4284 408.375 95.1732 411.109 92.5039C413.779 89.7695 417.066 88.4023 420.973 88.4023ZM464.82 88.4023C468.661 88.4023 471.949 89.7695 474.684 92.5039C477.418 95.1732 478.785 98.4284 478.785 102.27C478.785 106.176 477.418 109.496 474.684 112.23C471.949 114.9 468.661 116.234 464.82 116.234C460.979 116.234 457.724 114.9 455.055 112.23C452.32 109.496 450.953 106.176 450.953 102.27C450.953 98.4284 452.32 95.1732 455.055 92.5039C457.724 89.7695 460.979 88.4023 464.82 88.4023ZM493.922 83.9102H518.922V226H493.922V83.9102ZM555.836 202.758C556.878 206.013 559.872 207.901 564.82 208.422C569.768 208.878 575.823 208.878 582.984 208.422C590.797 207.901 598.805 207.934 607.008 208.52C615.211 209.105 622.503 211.449 628.883 215.551C635.263 219.587 639.56 226.553 641.773 236.449C643.076 243.09 642.001 249.372 638.551 255.297C635.1 261.221 629.371 266.072 621.363 269.848C613.355 273.624 603.264 275.512 591.09 275.512C580.348 275.512 571.266 274.372 563.844 272.094C556.487 269.815 550.79 266.853 546.754 263.207C542.717 259.561 540.341 255.622 539.625 251.391C538.974 247.159 539.983 243.025 542.652 238.988C545.322 234.952 549.716 231.436 555.836 228.441C550.107 227.855 545.842 225.805 543.043 222.289C540.243 218.773 539.039 214.672 539.43 209.984C539.885 205.297 542.099 200.935 546.07 196.898C550.042 192.797 555.901 189.9 563.648 188.207C558.766 185.147 554.794 181.208 551.734 176.391C548.609 171.573 547.047 166.365 547.047 160.766C547.047 150.609 551.246 142.146 559.645 135.375C567.783 128.539 578.46 125.121 591.676 125.121C594.28 125.056 597.991 125.479 602.809 126.391C607.822 114.802 612.9 106.892 618.043 102.66C623.251 98.3633 627.906 96.5729 632.008 97.2891C636.174 97.9401 639.202 99.9583 641.09 103.344C642.978 106.664 643.173 110.115 641.676 113.695C639.462 117.862 636.598 120.531 633.082 121.703C629.632 122.81 626.539 122.745 623.805 121.508C621.135 120.271 619.931 118.188 620.191 115.258C620.582 111.807 620.354 110.147 619.508 110.277C618.661 110.342 617.49 111.449 615.992 113.598C614.56 115.746 613.128 118.188 611.695 120.922C610.328 123.591 609.286 125.805 608.57 127.562C617.359 129.906 623.87 133.682 628.102 138.891C632.854 144.359 635.23 151.326 635.23 159.789C635.23 169.555 630.803 178.083 621.949 185.375C613.486 191.885 603.004 195.173 590.504 195.238C581.259 195.238 573.186 193.48 566.285 189.965C566.285 189.965 565.667 190.29 564.43 190.941C563.193 191.592 561.826 192.504 560.328 193.676C558.831 194.848 557.594 196.215 556.617 197.777C555.706 199.275 555.445 200.935 555.836 202.758ZM591.09 129.027C585.751 129.027 581.194 132.087 577.418 138.207C573.707 144.262 571.852 151.586 571.852 160.18C571.852 168.773 573.707 176.098 577.418 182.152C581.194 188.207 585.751 191.234 591.09 191.234C596.363 191.234 600.855 188.207 604.566 182.152C608.342 176.098 610.23 168.773 610.23 160.18C610.23 151.586 608.342 144.262 604.566 138.207C600.855 132.087 596.363 129.027 591.09 129.027ZM590.504 271.117C598.577 271.117 605.217 270.076 610.426 267.992C615.634 265.909 619.638 263.24 622.438 259.984C625.237 256.794 627.027 253.376 627.809 249.73C628.59 246.085 628.525 242.634 627.613 239.379C626.702 236.189 625.172 233.552 623.023 231.469C620.875 229.451 618.271 228.441 615.211 228.441H569.215C566.48 228.572 564.039 229.678 561.891 231.762C559.742 233.845 558.115 236.482 557.008 239.672C555.901 242.927 555.543 246.345 555.934 249.926C556.389 253.507 557.822 256.892 560.23 260.082C562.639 263.337 566.285 265.974 571.168 267.992C576.116 270.076 582.561 271.117 590.504 271.117ZM723.023 127.562H748.023V226H723.023V214.965C715.471 223.754 705.836 228.148 694.117 228.148C684.156 228.409 676.181 225.609 670.191 219.75C667.262 216.951 664.788 213.663 662.77 209.887C660.751 206.111 659.742 201.098 659.742 194.848V127.562H684.742V198.07C684.677 203.995 686.435 209.105 690.016 213.402C693.531 217.764 698.251 219.913 704.176 219.848C709.449 219.848 713.941 217.667 717.652 213.305C721.233 209.008 723.023 203.93 723.023 198.07V127.562ZM698.512 88.4023C702.353 88.4023 705.641 89.7695 708.375 92.5039C711.044 95.1732 712.379 98.4284 712.379 102.27C712.379 106.176 711.044 109.496 708.375 112.23C705.641 114.9 702.353 116.234 698.512 116.234C694.605 116.234 691.318 114.9 688.648 112.23C685.914 109.496 684.547 106.176 684.547 102.27C684.547 98.4284 685.914 95.1732 688.648 92.5039C691.318 89.7695 694.605 88.4023 698.512 88.4023ZM742.359 88.4023C746.201 88.4023 749.488 89.7695 752.223 92.5039C754.957 95.1732 756.324 98.4284 756.324 102.27C756.324 106.176 754.957 109.496 752.223 112.23C749.488 114.9 746.201 116.234 742.359 116.234C738.518 116.234 735.263 114.9 732.594 112.23C729.859 109.496 728.492 106.176 728.492 102.27C728.492 98.4284 729.859 95.1732 732.594 92.5039C735.263 89.7695 738.518 88.4023 742.359 88.4023ZM849.293 133.812C852.223 136.612 854.697 139.9 856.715 143.676C858.733 147.452 859.742 152.465 859.742 158.715V226H834.742V155.492C834.807 149.568 833.049 144.457 829.469 140.16C825.953 135.798 821.233 133.65 815.309 133.715C810.035 133.715 805.543 135.896 801.832 140.258C798.251 144.555 796.461 149.633 796.461 155.492V226H771.461V127.562H796.461V138.598C804.013 129.809 813.648 125.414 825.367 125.414C835.328 125.154 843.303 127.953 849.293 133.812ZM1003.1 81.8594C1016.58 81.8594 1028.85 85.1471 1039.92 91.7227C1051.05 98.2982 1059.9 107.152 1066.48 118.285C1073.06 129.353 1076.34 141.625 1076.34 155.102C1076.34 168.578 1073.06 180.883 1066.48 192.016C1059.9 203.083 1051.05 211.905 1039.92 218.48C1028.85 225.056 1016.58 228.344 1003.1 228.344C989.625 228.344 977.32 225.056 966.188 218.48C955.12 211.905 946.298 203.083 939.723 192.016C933.147 180.883 929.859 168.578 929.859 155.102C929.859 141.625 933.147 129.353 939.723 118.285C946.298 107.152 955.12 98.2982 966.188 91.7227C977.32 85.1471 989.625 81.8594 1003.1 81.8594ZM1003.1 224.047C1011.96 224.047 1020.03 220.954 1027.32 214.77C1034.61 208.585 1040.41 200.284 1044.7 189.867C1049.07 179.385 1051.25 167.797 1051.25 155.102C1051.25 142.406 1049.07 130.85 1044.7 120.434C1040.41 110.017 1034.61 101.716 1027.32 95.5312C1020.03 89.2812 1011.96 86.1562 1003.1 86.1562C994.247 86.1562 986.174 89.2812 978.883 95.5312C971.591 101.716 965.764 110.017 961.402 120.434C957.105 130.85 954.957 142.406 954.957 155.102C954.957 167.797 957.105 179.385 961.402 189.867C965.764 200.284 971.591 208.585 978.883 214.77C986.174 220.954 994.247 224.047 1003.1 224.047ZM1023.9 88.4023C1027.74 88.4023 1031.03 89.7695 1033.77 92.5039C1036.43 95.1732 1037.77 98.4284 1037.77 102.27C1037.77 106.176 1036.43 109.496 1033.77 112.23C1031.03 114.9 1027.74 116.234 1023.9 116.234C1020 116.234 1016.71 114.9 1014.04 112.23C1011.3 109.496 1009.94 106.176 1009.94 102.27C1009.94 98.4284 1011.3 95.1732 1014.04 92.5039C1016.71 89.7695 1020 88.4023 1023.9 88.4023ZM1067.75 88.4023C1071.59 88.4023 1074.88 89.7695 1077.61 92.5039C1080.35 95.1732 1081.71 98.4284 1081.71 102.27C1081.71 106.176 1080.35 109.496 1077.61 112.23C1074.88 114.9 1071.59 116.234 1067.75 116.234C1063.91 116.234 1060.65 114.9 1057.98 112.23C1055.25 109.496 1053.88 106.176 1053.88 102.27C1053.88 98.4284 1055.25 95.1732 1057.98 92.5039C1060.65 89.7695 1063.91 88.4023 1067.75 88.4023ZM1172.93 127.562V132.25L1125.17 221.312H1172.93V226H1096.85V221.312L1144.61 132.25H1096.85V127.562H1172.93ZM1209.94 202.758C1210.98 206.013 1213.97 207.901 1218.92 208.422C1223.87 208.878 1229.92 208.878 1237.09 208.422C1244.9 207.901 1252.91 207.934 1261.11 208.52C1269.31 209.105 1276.6 211.449 1282.98 215.551C1289.36 219.587 1293.66 226.553 1295.88 236.449C1297.18 243.09 1296.1 249.372 1292.65 255.297C1289.2 261.221 1283.47 266.072 1275.46 269.848C1267.46 273.624 1257.37 275.512 1245.19 275.512C1234.45 275.512 1225.37 274.372 1217.95 272.094C1210.59 269.815 1204.89 266.853 1200.86 263.207C1196.82 259.561 1194.44 255.622 1193.73 251.391C1193.08 247.159 1194.08 243.025 1196.75 238.988C1199.42 234.952 1203.82 231.436 1209.94 228.441C1204.21 227.855 1199.94 225.805 1197.14 222.289C1194.35 218.773 1193.14 214.672 1193.53 209.984C1193.99 205.297 1196.2 200.935 1200.17 196.898C1204.14 192.797 1210 189.9 1217.75 188.207C1212.87 185.147 1208.9 181.208 1205.84 176.391C1202.71 171.573 1201.15 166.365 1201.15 160.766C1201.15 150.609 1205.35 142.146 1213.75 135.375C1221.88 128.539 1232.56 125.121 1245.78 125.121C1248.38 125.056 1252.09 125.479 1256.91 126.391C1261.92 114.802 1267 106.892 1272.14 102.66C1277.35 98.3633 1282.01 96.5729 1286.11 97.2891C1290.28 97.9401 1293.3 99.9583 1295.19 103.344C1297.08 106.664 1297.27 110.115 1295.78 113.695C1293.56 117.862 1290.7 120.531 1287.18 121.703C1283.73 122.81 1280.64 122.745 1277.91 121.508C1275.24 120.271 1274.03 118.188 1274.29 115.258C1274.68 111.807 1274.46 110.147 1273.61 110.277C1272.76 110.342 1271.59 111.449 1270.09 113.598C1268.66 115.746 1267.23 118.188 1265.8 120.922C1264.43 123.591 1263.39 125.805 1262.67 127.562C1271.46 129.906 1277.97 133.682 1282.2 138.891C1286.96 144.359 1289.33 151.326 1289.33 159.789C1289.33 169.555 1284.9 178.083 1276.05 185.375C1267.59 191.885 1257.11 195.173 1244.61 195.238C1235.36 195.238 1227.29 193.48 1220.39 189.965C1220.39 189.965 1219.77 190.29 1218.53 190.941C1217.29 191.592 1215.93 192.504 1214.43 193.676C1212.93 194.848 1211.7 196.215 1210.72 197.777C1209.81 199.275 1209.55 200.935 1209.94 202.758ZM1245.19 129.027C1239.85 129.027 1235.3 132.087 1231.52 138.207C1227.81 144.262 1225.95 151.586 1225.95 160.18C1225.95 168.773 1227.81 176.098 1231.52 182.152C1235.3 188.207 1239.85 191.234 1245.19 191.234C1250.46 191.234 1254.96 188.207 1258.67 182.152C1262.44 176.098 1264.33 168.773 1264.33 160.18C1264.33 151.586 1262.44 144.262 1258.67 138.207C1254.96 132.087 1250.46 129.027 1245.19 129.027ZM1244.61 271.117C1252.68 271.117 1259.32 270.076 1264.53 267.992C1269.74 265.909 1273.74 263.24 1276.54 259.984C1279.34 256.794 1281.13 253.376 1281.91 249.73C1282.69 246.085 1282.63 242.634 1281.71 239.379C1280.8 236.189 1279.27 233.552 1277.12 231.469C1274.98 229.451 1272.37 228.441 1269.31 228.441H1223.32C1220.58 228.572 1218.14 229.678 1215.99 231.762C1213.84 233.845 1212.22 236.482 1211.11 239.672C1210 242.927 1209.64 246.345 1210.04 249.926C1210.49 253.507 1211.92 256.892 1214.33 260.082C1216.74 263.337 1220.39 265.974 1225.27 267.992C1230.22 270.076 1236.66 271.117 1244.61 271.117ZM1377.12 127.562H1402.12V226H1377.12V214.965C1369.57 223.754 1359.94 228.148 1348.22 228.148C1338.26 228.409 1330.28 225.609 1324.29 219.75C1321.36 216.951 1318.89 213.663 1316.87 209.887C1314.85 206.111 1313.84 201.098 1313.84 194.848V127.562H1338.84V198.07C1338.78 203.995 1340.54 209.105 1344.12 213.402C1347.63 217.764 1352.35 219.913 1358.28 219.848C1363.55 219.848 1368.04 217.667 1371.75 213.305C1375.33 209.008 1377.12 203.93 1377.12 198.07V127.562ZM1352.61 88.4023C1356.45 88.4023 1359.74 89.7695 1362.48 92.5039C1365.15 95.1732 1366.48 98.4284 1366.48 102.27C1366.48 106.176 1365.15 109.496 1362.48 112.23C1359.74 114.9 1356.45 116.234 1352.61 116.234C1348.71 116.234 1345.42 114.9 1342.75 112.23C1340.02 109.496 1338.65 106.176 1338.65 102.27C1338.65 98.4284 1340.02 95.1732 1342.75 92.5039C1345.42 89.7695 1348.71 88.4023 1352.61 88.4023ZM1396.46 88.4023C1400.3 88.4023 1403.59 89.7695 1406.32 92.5039C1409.06 95.1732 1410.43 98.4284 1410.43 102.27C1410.43 106.176 1409.06 109.496 1406.32 112.23C1403.59 114.9 1400.3 116.234 1396.46 116.234C1392.62 116.234 1389.36 114.9 1386.7 112.23C1383.96 109.496 1382.59 106.176 1382.59 102.27C1382.59 98.4284 1383.96 95.1732 1386.7 92.5039C1389.36 89.7695 1392.62 88.4023 1396.46 88.4023ZM1503.39 133.812C1506.32 136.612 1508.8 139.9 1510.82 143.676C1512.83 147.452 1513.84 152.465 1513.84 158.715V226H1488.84V155.492C1488.91 149.568 1487.15 144.457 1483.57 140.16C1480.05 135.798 1475.33 133.65 1469.41 133.715C1464.14 133.715 1459.64 135.896 1455.93 140.258C1452.35 144.555 1450.56 149.633 1450.56 155.492V226H1425.56V127.562H1450.56V138.598C1458.11 129.809 1467.75 125.414 1479.47 125.414C1489.43 125.154 1497.4 127.953 1503.39 133.812ZM1612.67 208.812C1618.34 203.083 1622.57 195.531 1625.37 186.156H1628.49C1625.82 199.242 1620.19 209.496 1611.6 216.918C1603.07 224.275 1592.91 227.953 1581.13 227.953C1568.11 227.953 1557.01 223.07 1547.83 213.305C1538.84 203.669 1534.35 191.69 1534.35 177.367C1534.35 162.523 1538.84 150.121 1547.83 140.16C1556.94 129.939 1568.66 124.828 1582.98 124.828C1597.24 124.828 1608.41 129.158 1616.48 137.816C1624.68 146.475 1629.11 158.031 1629.76 172.484H1559.16C1558.83 175.74 1558.93 179.906 1559.45 184.984C1559.97 189.997 1561.27 195.043 1563.36 200.121C1565.44 205.134 1568.73 209.333 1573.22 212.719C1577.71 216.104 1583.86 217.764 1591.68 217.699C1600.01 217.504 1607.01 214.542 1612.67 208.812ZM1582.5 129.223C1577.35 129.223 1572.37 132.836 1567.55 140.062C1562.74 147.289 1559.97 156.501 1559.25 167.699H1604.66C1604.53 154.743 1602.42 145.108 1598.32 138.793C1594.28 132.413 1589.01 129.223 1582.5 129.223ZM1702.91 169.262C1713.13 175.447 1717.95 184.431 1717.36 196.215C1716.64 205.329 1714.01 212.198 1709.45 216.82C1704.96 221.443 1699.72 224.503 1693.73 226C1687.74 227.432 1682.24 227.986 1677.22 227.66C1666.87 226.814 1659.32 224.079 1654.57 219.457C1649.88 214.835 1647.5 209.919 1647.44 204.711C1647.44 199.503 1649.29 195.629 1653 193.09C1657.69 190.486 1661.53 190.551 1664.53 193.285C1667.52 196.02 1669.28 199.503 1669.8 203.734C1670.32 207.901 1669.25 210.863 1666.58 212.621C1665.28 213.402 1664.92 214.542 1665.5 216.039C1666.15 217.536 1667.68 218.904 1670.09 220.141C1672.57 221.378 1675.89 221.996 1680.05 221.996C1688.78 221.671 1694.93 219.88 1698.51 216.625C1702.09 213.37 1703.92 209.822 1703.98 205.98C1704.11 202.139 1703.26 199.177 1701.44 197.094C1699.62 194.88 1696.69 192.895 1692.65 191.137C1687.25 188.793 1682.33 186.938 1677.91 185.57C1672.24 183.487 1668.08 181.892 1665.41 180.785C1653.62 174.926 1647.86 165.811 1648.12 153.441C1648.38 145.303 1651.18 138.533 1656.52 133.129C1662.25 127.855 1670.03 125.154 1679.86 125.023C1690.99 124.893 1699.2 126.781 1704.47 130.688C1709.81 134.529 1712.57 138.891 1712.77 143.773C1713.03 148.656 1711.11 152.53 1707.01 155.395C1703.04 157.673 1699.46 157.51 1696.27 154.906C1693.14 152.237 1691.22 149.014 1690.5 145.238C1689.79 141.397 1691.02 138.826 1694.21 137.523C1696.43 136.677 1696.23 135.31 1693.63 133.422C1691.02 131.469 1686.5 130.362 1680.05 130.102C1675.11 130.036 1670.91 131.469 1667.46 134.398C1664.72 136.612 1663.16 139.607 1662.77 143.383C1662.51 146.898 1663.68 150.023 1666.29 152.758C1668.5 154.906 1674.39 157.803 1683.96 161.449C1692.88 164.444 1699.2 167.048 1702.91 169.262ZM1699.98 236.449C1700.56 236.384 1702.12 236.482 1704.66 236.742C1707.14 237.068 1709.87 237.719 1712.87 238.695C1715.8 239.737 1718.37 241.267 1720.58 243.285C1722.73 245.368 1723.8 248.168 1723.8 251.684C1723.54 255.655 1721.82 259.04 1718.63 261.84C1715.44 264.704 1711.7 266.723 1707.4 267.895C1703.04 269.132 1698.97 269.197 1695.19 268.09C1691.35 267.048 1688.62 264.574 1686.99 260.668H1692.07C1694.21 263.402 1696.75 264.737 1699.68 264.672C1702.55 264.607 1705.09 263.402 1707.3 261.059C1709.51 258.78 1710.69 255.688 1710.82 251.781C1710.69 248.786 1709.84 246.41 1708.28 244.652C1706.71 242.96 1704.89 241.69 1702.81 240.844C1700.66 240.062 1698.74 239.574 1697.05 239.379C1695.35 239.184 1694.31 239.118 1693.92 239.184L1698.61 225.902H1703.59L1699.98 236.449Z" fill="#121212"/>
<line x1="-3.49691e-07" y1="155" x2="214" y2="155" stroke="#121212" stroke-width="8"/>
<path d="M123.047 392.168C123.633 392.217 124.121 392.437 124.512 392.827C124.902 393.218 125.098 393.682 125.098 394.219C125.049 394.854 124.805 395.366 124.365 395.757C123.926 396.147 123.389 396.318 122.754 396.27C117.334 395.586 111.89 395.659 106.421 396.489C105.298 396.685 104.175 396.904 103.052 397.148C100.317 407.012 97.2412 416.094 93.8232 424.395C91.5771 429.912 88.7695 435.869 85.4004 442.266C82.0312 448.662 78.1738 454.644 73.8281 460.21C69.4824 465.825 64.6729 470.146 59.3994 473.174C56.7627 474.59 53.9795 475.371 51.0498 475.518C48.1689 475.664 45.3857 474.932 42.7002 473.32C42.1631 472.979 41.626 472.612 41.0889 472.222C40.8936 472.075 40.7227 471.904 40.5762 471.709C38.3301 469.365 37.0605 466.582 36.7676 463.359C36.5234 460.186 36.8408 456.963 37.7197 453.691C38.5986 450.469 39.6484 447.539 40.8691 444.902C43.9453 438.359 47.7783 432.305 52.3682 426.738C56.958 421.221 62.0605 416.216 67.6758 411.724C77.1973 404.106 87.8174 398.613 99.5361 395.244C100.659 391.191 101.66 387.139 102.539 383.086C103.174 380.352 103.735 376.787 104.224 372.393C104.761 367.949 104.883 363.433 104.59 358.843C104.346 354.253 103.345 350.371 101.587 347.197C99.8779 343.975 97.0947 342.192 93.2373 341.851C90.6982 342.095 88.1836 343.12 85.6934 344.927C83.252 346.733 80.7861 348.906 78.2959 351.445C80.3955 355.986 82.0312 360.674 83.2031 365.508C83.3984 366.338 83.3008 367.095 82.9102 367.778C82.5195 368.413 81.9092 368.853 81.0791 369.097C80.2002 369.292 79.3945 369.17 78.6621 368.73C77.9785 368.242 77.5635 367.559 77.417 366.68C76.7334 362.09 75.7812 358.11 74.5605 354.741C73.8281 355.474 73.1445 356.133 72.5098 356.719C72.3145 356.914 72.1191 357.109 71.9238 357.305C66.1621 363.018 60.5713 368.853 55.1514 374.81C49.292 381.304 43.2373 387.627 36.9873 393.779C36.6455 394.072 36.3037 394.365 35.9619 394.658C33.4717 397.1 30.4688 399.688 26.9531 402.422C23.4375 405.156 19.7998 407.109 16.04 408.281C12.2803 409.453 8.78906 408.867 5.56641 406.523C5.22461 406.23 4.88281 405.938 4.54102 405.645C2.24609 403.154 0.90332 400.322 0.512695 397.148C0.170898 393.975 0.415039 390.752 1.24512 387.48C2.0752 384.209 3.125 381.206 4.39453 378.472C8.44727 369.731 14.2334 361.455 21.7529 353.643C29.3213 345.781 37.5977 340.093 46.582 336.577C53.125 334.331 58.9355 334.258 64.0137 336.357C69.1406 338.408 73.3643 342.363 76.6846 348.223C79.126 346.172 81.665 344.39 84.3018 342.876C86.9873 341.313 89.5996 340.41 92.1387 340.166C92.2852 340.117 92.4316 340.093 92.5781 340.093C92.6758 340.093 92.749 340.093 92.7979 340.093C92.9443 340.093 93.0908 340.117 93.2373 340.166C93.2861 340.166 93.335 340.166 93.3838 340.166C98.2178 340.557 101.733 342.559 103.931 346.172C106.128 349.736 107.397 353.74 107.739 358.184C108.228 363.75 108.081 369.585 107.3 375.688C106.567 381.792 105.42 387.944 103.857 394.146C104.541 393.999 105.225 393.853 105.908 393.706C111.523 392.632 117.236 392.119 123.047 392.168ZM69.3604 354.595C69.6533 354.302 69.9951 353.984 70.3857 353.643C71.2158 352.861 72.1436 352.031 73.1689 351.152C69.458 344.268 64.2822 340.776 57.6416 340.679C51.001 340.532 44.0674 342.876 36.8408 347.71C29.6143 352.544 23.2666 358.892 17.7979 366.753C15.9424 369.39 13.9893 372.612 11.9385 376.421C9.93652 380.229 8.39844 384.136 7.32422 388.14C6.25 392.144 6.20117 395.732 7.17773 398.906C7.56836 399.834 8.10547 400.64 8.78906 401.323C8.88672 401.47 9.00879 401.616 9.15527 401.763C9.2041 401.763 9.25293 401.787 9.30176 401.836C9.35059 401.885 9.39941 401.934 9.44824 401.982C9.59473 402.08 9.74121 402.178 9.8877 402.275C11.4502 403.105 13.3057 403.13 15.4541 402.349C17.6514 401.567 19.7754 400.469 21.8262 399.053C23.877 397.637 25.5859 396.392 26.9531 395.317C27.002 395.269 27.0508 395.22 27.0996 395.171C35.9375 387.651 44.4092 379.644 52.5146 371.147C57.9834 365.483 63.5986 359.966 69.3604 354.595ZM73.6084 451.494C84.6924 435.088 93.042 417.314 98.6572 398.174C86.6455 401.738 75.9766 407.891 66.6504 416.631C57.373 425.322 50.2441 435.381 45.2637 446.807C44.4336 448.76 43.5303 451.445 42.5537 454.863C41.626 458.281 41.0889 461.577 40.9424 464.751C40.8447 467.925 41.6748 470.122 43.4326 471.343C46.9482 473.247 50.6592 473.027 54.5654 470.684C58.5205 468.389 62.207 465.312 65.625 461.455C69.043 457.598 71.7041 454.277 73.6084 451.494ZM182.739 390.996C183.179 391.68 183.276 392.388 183.032 393.12C182.837 393.853 182.397 394.39 181.714 394.731C180.688 395.171 179.565 395.684 178.345 396.27C173.511 398.564 167.725 401.079 160.986 403.813C154.248 406.548 147.656 408.599 141.211 409.966C134.814 411.284 129.688 410.991 125.83 409.087C125.488 408.892 125.171 408.696 124.878 408.501C124.829 408.501 124.805 408.501 124.805 408.501C121.729 406.157 120.239 403.13 120.337 399.419C120.435 395.659 121.558 391.973 123.706 388.359C125.903 384.697 128.613 381.816 131.836 379.717C135.059 377.617 138.306 377.056 141.577 378.032C141.821 378.13 142.065 378.228 142.31 378.325C142.358 378.374 142.432 378.423 142.529 378.472C142.676 378.521 142.798 378.569 142.896 378.618L142.969 378.691C143.945 379.229 144.629 380.034 145.02 381.108C145.41 382.134 145.508 383.159 145.312 384.185C144.873 386.431 143.945 388.53 142.529 390.483C141.162 392.388 139.6 394.023 137.842 395.391C135.449 397.393 132.69 398.662 129.565 399.199C128.052 399.443 126.489 399.346 124.878 398.906C124.731 400.127 124.951 401.689 125.537 403.594C126.172 405.449 127.222 406.841 128.687 407.769C131.714 409.185 135.425 409.429 139.819 408.501C144.214 407.573 148.633 406.133 153.076 404.18C157.568 402.178 161.426 400.347 164.648 398.687C165.186 398.394 165.674 398.125 166.113 397.881C170.654 395.635 175.024 393.12 179.224 390.337C179.81 389.946 180.42 389.824 181.055 389.971C181.738 390.068 182.3 390.41 182.739 390.996ZM132.202 386.602C130.249 388.213 128.467 390.459 126.855 393.34C128.711 393.486 130.444 393.047 132.056 392.021C133.716 390.996 135.181 389.775 136.45 388.359C137.769 386.943 138.721 385.356 139.307 383.599C138.037 383.354 136.768 383.574 135.498 384.258C134.229 384.941 133.13 385.723 132.202 386.602ZM253.271 391.216C253.564 391.655 253.662 392.144 253.564 392.681C253.467 393.169 253.174 393.56 252.686 393.853C248.34 396.489 243.896 398.931 239.355 401.177C236.621 402.544 233.618 403.765 230.347 404.839C227.124 405.864 223.926 406.279 220.752 406.084C217.627 405.84 214.819 404.497 212.329 402.056C210.864 400.493 209.668 398.784 208.74 396.929C207.812 395.024 207.007 393.12 206.323 391.216C206.274 391.118 206.226 391.021 206.177 390.923C206.079 390.581 205.957 390.264 205.811 389.971C205.42 388.799 204.907 387.7 204.272 386.675C204.224 386.626 204.15 386.602 204.053 386.602C204.004 386.553 203.931 386.553 203.833 386.602C202.026 387.676 200.366 389.019 198.853 390.63C198.608 390.874 198.364 391.118 198.12 391.362C194.751 394.878 191.528 398.564 188.452 402.422C186.548 404.717 184.692 407.036 182.886 409.38C182.349 410.063 181.689 410.454 180.908 410.552C180.127 410.649 179.395 410.43 178.711 409.893C177.93 409.258 177.563 408.428 177.612 407.402C178.247 398.125 179.98 389.043 182.812 380.156C183.35 378.936 184.106 378.276 185.083 378.179C186.108 378.032 186.987 378.325 187.72 379.058C188.452 379.741 188.672 380.718 188.379 381.987C186.816 386.772 185.62 391.655 184.79 396.636C184.79 396.733 184.814 396.807 184.863 396.855C184.912 396.904 184.985 396.929 185.083 396.929C185.181 396.929 185.254 396.904 185.303 396.855C188.086 393.535 191.04 390.361 194.165 387.334C194.36 387.139 194.556 386.968 194.751 386.821C196.118 385.454 197.754 384.111 199.658 382.793C201.562 381.475 203.467 380.962 205.371 381.255C206.494 381.548 207.397 382.231 208.081 383.306C208.813 384.38 209.351 385.405 209.692 386.382C210.132 387.603 210.571 388.848 211.011 390.117C211.987 393.486 213.306 396.685 214.966 399.712C217.31 403.374 220.312 405.083 223.975 404.839C227.637 404.595 231.274 403.447 234.888 401.396C238.55 399.297 241.553 397.368 243.896 395.61C244.678 395.073 245.312 394.634 245.801 394.292C247.461 393.169 249.097 392.021 250.708 390.85C251.099 390.557 251.538 390.435 252.026 390.483C252.515 390.532 252.93 390.776 253.271 391.216ZM310.327 390.996C310.767 391.68 310.864 392.388 310.62 393.12C310.425 393.853 309.985 394.39 309.302 394.731C308.276 395.171 307.153 395.684 305.933 396.27C301.099 398.564 295.312 401.079 288.574 403.813C281.836 406.548 275.244 408.599 268.799 409.966C262.402 411.284 257.275 410.991 253.418 409.087C253.076 408.892 252.759 408.696 252.466 408.501C252.417 408.501 252.393 408.501 252.393 408.501C249.316 406.157 247.827 403.13 247.925 399.419C248.022 395.659 249.146 391.973 251.294 388.359C253.491 384.697 256.201 381.816 259.424 379.717C262.646 377.617 265.894 377.056 269.165 378.032C269.409 378.13 269.653 378.228 269.897 378.325C269.946 378.374 270.02 378.423 270.117 378.472C270.264 378.521 270.386 378.569 270.483 378.618L270.557 378.691C271.533 379.229 272.217 380.034 272.607 381.108C272.998 382.134 273.096 383.159 272.9 384.185C272.461 386.431 271.533 388.53 270.117 390.483C268.75 392.388 267.188 394.023 265.43 395.391C263.037 397.393 260.278 398.662 257.153 399.199C255.64 399.443 254.077 399.346 252.466 398.906C252.319 400.127 252.539 401.689 253.125 403.594C253.76 405.449 254.81 406.841 256.274 407.769C259.302 409.185 263.013 409.429 267.407 408.501C271.802 407.573 276.221 406.133 280.664 404.18C285.156 402.178 289.014 400.347 292.236 398.687C292.773 398.394 293.262 398.125 293.701 397.881C298.242 395.635 302.612 393.12 306.812 390.337C307.397 389.946 308.008 389.824 308.643 389.971C309.326 390.068 309.888 390.41 310.327 390.996ZM259.79 386.602C257.837 388.213 256.055 390.459 254.443 393.34C256.299 393.486 258.032 393.047 259.644 392.021C261.304 390.996 262.769 389.775 264.038 388.359C265.356 386.943 266.309 385.356 266.895 383.599C265.625 383.354 264.355 383.574 263.086 384.258C261.816 384.941 260.718 385.723 259.79 386.602ZM366.211 390.41C366.797 390.85 367.114 391.411 367.163 392.095C367.212 392.778 366.968 393.389 366.431 393.926C362.817 397.393 358.374 401.226 353.101 405.425C347.876 409.624 342.383 413.213 336.621 416.191C330.908 419.17 325.488 420.537 320.361 420.293C316.26 419.854 312.988 417.949 310.547 414.58C308.74 411.602 307.715 408.428 307.471 405.059C307.178 401.641 307.227 398.296 307.617 395.024C306.738 394.438 306.274 393.657 306.226 392.681C306.128 391.655 306.47 390.801 307.251 390.117C307.69 389.824 308.13 389.482 308.569 389.092C310.669 379.326 313.745 369.902 317.798 360.82C321.851 351.738 326.465 342.949 331.641 334.453C331.885 334.062 332.178 333.599 332.52 333.062C333.838 330.913 335.498 328.447 337.5 325.664C339.502 322.832 341.626 320.366 343.872 318.267C346.118 316.167 348.291 315.166 350.391 315.264C351.514 315.361 352.368 315.85 352.954 316.729C353.589 317.559 353.906 318.486 353.906 319.512C353.857 321.172 353.613 322.734 353.174 324.199C351.514 329.521 349.414 334.648 346.875 339.58C339.551 354.229 331.201 368.267 321.826 381.694C319.189 385.601 316.26 389.312 313.037 392.827C312.451 395.757 312.061 398.784 311.865 401.909C311.719 405.034 312.134 408.013 313.11 410.845C315.405 416.362 318.652 419.17 322.852 419.268C327.1 419.365 331.592 417.949 336.328 415.02C341.113 412.041 345.459 408.77 349.365 405.205C353.271 401.592 356.104 398.833 357.861 396.929C359.717 395.024 361.426 393.022 362.988 390.923C363.379 390.386 363.867 390.068 364.453 389.971C365.088 389.873 365.674 390.02 366.211 390.41ZM318.53 373.052C317.7 375.444 316.919 377.837 316.187 380.229C326.245 366.704 335.132 352.471 342.847 337.529C344.067 335.137 345.215 332.744 346.289 330.352C347.363 327.91 348.267 325.469 348.999 323.027C349.341 321.855 349.536 320.708 349.585 319.585C347.729 320.415 345.898 321.929 344.092 324.126C342.285 326.274 340.771 328.228 339.551 329.985C335.107 336.626 331.152 343.584 327.686 350.859C324.268 358.135 321.216 365.532 318.53 373.052ZM493.359 306.768C493.994 305.693 494.8 305.156 495.776 305.156C496.753 305.107 497.559 305.449 498.193 306.182C498.877 306.914 499.048 307.866 498.706 309.038C494.897 319.097 491.406 329.277 488.232 339.58C486.719 344.365 484.888 350.615 482.739 358.33C480.64 366.045 478.711 374.224 476.953 382.866C475.244 391.509 474.219 399.59 473.877 407.109C473.584 414.629 474.512 420.537 476.66 424.834C477.637 426.641 479.077 427.495 480.981 427.397C481.812 427.349 482.52 427.568 483.105 428.057C483.691 428.594 484.033 429.277 484.131 430.107C484.18 430.938 483.936 431.646 483.398 432.231C482.91 432.817 482.251 433.159 481.421 433.257C479.224 433.208 477.246 432.5 475.488 431.133C472.803 428.643 471.24 425.371 470.801 421.318C470.361 417.266 470.264 413.506 470.508 410.039C471.143 401.885 472.241 393.828 473.804 385.869C476.685 371.025 480.273 355.571 484.57 339.507C482.764 343.853 480.981 348.223 479.224 352.617C475.952 360.723 472.559 368.779 469.043 376.787C465.82 384.404 462.231 391.851 458.276 399.126C458.13 399.37 457.959 399.614 457.764 399.858C456.396 402.446 454.59 405.156 452.344 407.988C450.146 410.771 447.632 412.358 444.8 412.749C444.702 412.749 444.604 412.749 444.507 412.749C444.507 412.749 444.482 412.749 444.434 412.749C444.141 412.749 443.848 412.725 443.555 412.676C443.408 412.627 443.237 412.578 443.042 412.529C441.333 411.895 440.137 410.747 439.453 409.087C438.818 407.427 438.428 405.767 438.281 404.106C437.842 399.81 437.744 395.562 437.988 391.362C438.623 379.351 439.746 367.29 441.357 355.181C440.43 357.866 439.526 360.552 438.647 363.237C435.62 372.71 432.544 381.865 429.419 390.703C427.075 397.344 424.414 403.862 421.436 410.259C421.338 410.503 421.191 410.771 420.996 411.064C420.068 413.066 418.872 415.166 417.407 417.363C415.942 419.561 414.233 420.903 412.28 421.392C412.085 421.44 411.89 421.465 411.694 421.465C411.646 421.465 411.621 421.465 411.621 421.465C408.936 421.318 407.08 420.22 406.055 418.169C405.078 416.069 404.59 413.677 404.59 410.991C404.59 408.257 404.712 405.889 404.956 403.887C405.835 396.855 407.178 389.922 408.984 383.086C411.621 372.881 414.624 362.798 417.993 352.837C418.286 352.056 418.774 351.494 419.458 351.152C420.142 350.811 420.898 350.762 421.729 351.006C422.51 351.299 423.071 351.836 423.413 352.617C423.755 353.35 423.779 354.106 423.486 354.888C419.482 364.458 416.064 374.248 413.232 384.258C411.279 390.85 409.839 397.539 408.911 404.326C408.765 405.547 408.667 407.402 408.618 409.893C408.569 412.334 408.716 414.604 409.058 416.704C409.448 418.755 410.181 419.854 411.255 420C412.28 419.854 413.379 418.755 414.551 416.704C415.723 414.653 416.846 412.261 417.92 409.526C419.043 406.743 419.995 404.253 420.776 402.056C421.265 400.786 421.655 399.785 421.948 399.053C427.368 384.355 432.227 369.39 436.523 354.155C438.965 345.854 441.479 337.603 444.067 329.399C444.507 328.374 445.166 327.764 446.045 327.568C446.973 327.373 447.803 327.544 448.535 328.081C449.316 328.569 449.731 329.351 449.78 330.425C449.487 335.991 448.901 341.997 448.022 348.442C447.729 350.884 447.461 353.13 447.217 355.181C446.973 357.28 446.655 359.844 446.265 362.871C445.532 369.023 444.751 375.786 443.921 383.159C443.14 390.483 442.676 396.88 442.529 402.349C442.432 407.769 442.969 410.649 444.141 410.991C445.703 410.698 448.12 407.354 451.392 400.957C454.712 394.561 458.179 387.163 461.792 378.765C465.454 370.317 468.579 362.944 471.167 356.646C471.899 354.839 472.559 353.252 473.145 351.885C474.414 348.857 475.684 345.83 476.953 342.803C481.738 330.498 487.207 318.486 493.359 306.768ZM567.7 390.776C568.042 391.216 568.188 391.704 568.14 392.241C568.091 392.778 567.847 393.218 567.407 393.56C567.358 393.608 567.334 393.633 567.334 393.633C566.309 394.219 565.161 394.878 563.892 395.61C560.376 397.661 556.348 399.883 551.807 402.275C547.314 404.619 542.847 406.572 538.403 408.135C534.009 409.697 530.176 410.308 526.904 409.966C526.465 409.868 526.025 409.746 525.586 409.6C524.756 409.258 523.999 408.794 523.315 408.208C522.974 407.915 522.681 407.598 522.437 407.256C520.435 404.131 519.653 400.273 520.093 395.684C520.093 395.439 519.971 395.293 519.727 395.244C519.531 395.146 519.36 395.195 519.214 395.391C517.212 398.174 515.063 400.859 512.769 403.447C511.304 405.01 509.595 406.499 507.642 407.915C505.737 409.331 503.613 409.941 501.27 409.746C501.172 409.746 501.05 409.722 500.903 409.673C500.903 409.673 500.879 409.673 500.83 409.673C498.73 409.136 497.168 407.915 496.143 406.011C494.873 403.179 494.434 400.078 494.824 396.709C495.166 393.291 495.776 390.142 496.655 387.261C497.29 385.21 498.096 383.208 499.072 381.255C499.414 380.571 499.829 379.888 500.317 379.204C500.806 378.521 501.416 378.13 502.148 378.032C502.93 377.886 503.662 378.032 504.346 378.472C505.029 379.009 505.42 379.668 505.518 380.449C505.664 381.182 505.518 381.89 505.078 382.573C503.564 385.112 502.319 388.408 501.343 392.461C500.415 396.514 500.317 399.932 501.05 402.715C501.099 402.91 501.172 403.081 501.27 403.228C501.27 403.276 501.27 403.301 501.27 403.301C501.416 403.643 501.636 403.911 501.929 404.106C501.978 404.106 502.051 404.131 502.148 404.18C502.148 404.18 502.173 404.18 502.222 404.18C502.271 404.18 502.344 404.18 502.441 404.18C505.127 403.301 508.032 400.957 511.157 397.148C514.331 393.34 516.772 390.166 518.481 387.627C519.995 385.479 521.46 383.281 522.876 381.035C523.364 380.352 523.975 380.01 524.707 380.01C525.439 380.01 526.05 380.278 526.538 380.815C527.026 381.353 527.173 382.036 526.978 382.866C526.831 383.403 526.66 383.965 526.465 384.551C525.244 388.213 524.268 391.948 523.535 395.757C523.193 397.661 523.047 399.712 523.096 401.909C523.193 404.106 524.023 405.864 525.586 407.183C525.83 407.329 526.099 407.476 526.392 407.622C526.685 407.72 526.978 407.817 527.271 407.915C527.271 407.915 527.295 407.915 527.344 407.915C531.006 408.306 535.205 407.524 539.941 405.571C544.678 403.569 549.292 401.128 553.784 398.247C558.276 395.366 561.963 392.754 564.844 390.41C565.283 390.068 565.771 389.946 566.309 390.044C566.846 390.093 567.31 390.337 567.7 390.776ZM543.018 356.719C543.896 356.719 544.824 357.354 545.801 358.623C546.729 359.844 547.192 361.333 547.192 363.091C547.192 364.849 546.802 366.021 546.021 366.606C545.239 367.144 544.409 367.412 543.53 367.412C542.7 367.412 541.895 367.144 541.113 366.606C540.332 366.021 539.941 364.849 539.941 363.091C539.941 361.333 540.259 359.844 540.894 358.623C541.479 357.354 542.188 356.719 543.018 356.719ZM558.325 356.719C559.204 356.719 560.132 357.354 561.108 358.623C562.036 359.844 562.5 361.333 562.5 363.091C562.5 364.849 562.109 366.021 561.328 366.606C560.547 367.144 559.717 367.412 558.838 367.412C558.008 367.412 557.202 367.144 556.421 366.606C555.64 366.021 555.249 364.849 555.249 363.091C555.249 361.333 555.542 359.844 556.128 358.623C556.714 357.354 557.446 356.719 558.325 356.719ZM629.883 316.436C630.322 317.314 630.42 318.511 630.176 320.024C629.932 321.489 629.59 322.881 629.15 324.199C629.004 324.688 628.882 325.103 628.784 325.444C626.343 334.819 622.534 346.27 617.358 359.795C614.087 368.535 610.913 377.446 607.837 386.528C604.761 395.61 602.319 404.302 600.513 412.603C598.706 420.903 598.047 428.228 598.535 434.575C599.023 440.972 601.221 445.83 605.127 449.15C605.664 449.688 605.933 450.298 605.933 450.981C605.981 451.714 605.762 452.373 605.273 452.959C604.639 453.643 603.857 453.911 602.93 453.765C602.051 453.667 601.367 453.203 600.879 452.373C599.17 449.248 598.12 445.854 597.729 442.192C597.339 438.53 597.192 434.941 597.29 431.426C597.534 419.512 599.268 407.817 602.49 396.343C606.592 381.792 611.011 367.339 615.747 352.983C616.577 350.298 617.432 347.612 618.311 344.927C620.605 338.091 622.754 331.23 624.756 324.346C624.805 324.102 624.78 323.955 624.683 323.906C624.634 323.809 624.536 323.784 624.39 323.833C624.292 323.882 624.194 323.955 624.097 324.053C623.462 325.127 622.827 326.226 622.192 327.349C616.772 337.31 611.572 347.417 606.592 357.671C602.588 365.874 598.438 374.028 594.141 382.134C595.654 383.599 596.973 385.186 598.096 386.895C598.73 388.164 598.755 389.287 598.169 390.264C597.583 391.191 596.729 391.729 595.605 391.875C594.531 392.021 593.555 391.558 592.676 390.483C592.09 389.604 591.504 388.799 590.918 388.066C590.82 388.311 590.698 388.53 590.552 388.726C590.356 389.116 590.137 389.507 589.893 389.897C585.889 397.417 581.323 404.619 576.196 411.504C574.536 413.652 572.51 415.752 570.117 417.803C567.773 419.805 565.137 420.562 562.207 420.073C562.012 420.024 561.816 419.951 561.621 419.854C558.984 418.535 557.617 416.313 557.52 413.188C557.422 410.063 557.959 406.841 559.131 403.521C560.303 400.2 561.426 397.539 562.5 395.537C564.941 390.654 568.188 386.333 572.241 382.573C575.269 379.692 578.906 378.032 583.154 377.593C585.352 377.446 587.402 377.812 589.307 378.691C593.945 370.244 598.486 361.724 602.93 353.13C606.299 346.685 609.717 340.264 613.184 333.867C615.576 329.375 618.14 324.98 620.874 320.684C620.972 320.586 621.045 320.488 621.094 320.391C621.973 318.975 623.071 317.632 624.39 316.362C624.39 316.313 624.414 316.265 624.463 316.216C624.902 315.825 625.439 315.483 626.074 315.19C626.758 314.897 627.466 314.873 628.198 315.117C628.931 315.312 629.492 315.752 629.883 316.436ZM563.892 413.848C563.892 413.848 563.916 413.848 563.965 413.848C563.916 413.848 563.892 413.848 563.892 413.848ZM564.185 413.774C566.138 413.091 568.359 411.187 570.85 408.062C573.389 404.888 575.83 401.445 578.174 397.734C580.518 393.975 582.397 390.85 583.813 388.359C584.155 387.822 584.448 387.358 584.692 386.968C585.132 386.138 585.596 385.308 586.084 384.478C583.789 383.794 581.274 384.624 578.54 386.968C575.806 389.312 573.218 392.339 570.776 396.05C568.384 399.712 566.528 403.228 565.21 406.597C563.94 409.966 563.599 412.358 564.185 413.774ZM699.243 390.776C699.585 391.216 699.731 391.704 699.683 392.241C699.634 392.778 699.39 393.218 698.95 393.56C698.901 393.608 698.877 393.633 698.877 393.633C697.852 394.219 696.704 394.878 695.435 395.61C691.919 397.661 687.891 399.883 683.35 402.275C678.857 404.619 674.39 406.572 669.946 408.135C665.552 409.697 661.719 410.308 658.447 409.966C658.008 409.868 657.568 409.746 657.129 409.6C656.299 409.258 655.542 408.794 654.858 408.208C654.517 407.915 654.224 407.598 653.979 407.256C651.978 404.131 651.196 400.273 651.636 395.684C651.636 395.439 651.514 395.293 651.27 395.244C651.074 395.146 650.903 395.195 650.757 395.391C648.755 398.174 646.606 400.859 644.312 403.447C642.847 405.01 641.138 406.499 639.185 407.915C637.28 409.331 635.156 409.941 632.812 409.746C632.715 409.746 632.593 409.722 632.446 409.673C632.446 409.673 632.422 409.673 632.373 409.673C630.273 409.136 628.711 407.915 627.686 406.011C626.416 403.179 625.977 400.078 626.367 396.709C626.709 393.291 627.319 390.142 628.198 387.261C628.833 385.21 629.639 383.208 630.615 381.255C630.957 380.571 631.372 379.888 631.86 379.204C632.349 378.521 632.959 378.13 633.691 378.032C634.473 377.886 635.205 378.032 635.889 378.472C636.572 379.009 636.963 379.668 637.061 380.449C637.207 381.182 637.061 381.89 636.621 382.573C635.107 385.112 633.862 388.408 632.886 392.461C631.958 396.514 631.86 399.932 632.593 402.715C632.642 402.91 632.715 403.081 632.812 403.228C632.812 403.276 632.812 403.301 632.812 403.301C632.959 403.643 633.179 403.911 633.472 404.106C633.521 404.106 633.594 404.131 633.691 404.18C633.691 404.18 633.716 404.18 633.765 404.18C633.813 404.18 633.887 404.18 633.984 404.18C636.67 403.301 639.575 400.957 642.7 397.148C645.874 393.34 648.315 390.166 650.024 387.627C651.538 385.479 653.003 383.281 654.419 381.035C654.907 380.352 655.518 380.01 656.25 380.01C656.982 380.01 657.593 380.278 658.081 380.815C658.569 381.353 658.716 382.036 658.521 382.866C658.374 383.403 658.203 383.965 658.008 384.551C656.787 388.213 655.811 391.948 655.078 395.757C654.736 397.661 654.59 399.712 654.639 401.909C654.736 404.106 655.566 405.864 657.129 407.183C657.373 407.329 657.642 407.476 657.935 407.622C658.228 407.72 658.521 407.817 658.813 407.915C658.813 407.915 658.838 407.915 658.887 407.915C662.549 408.306 666.748 407.524 671.484 405.571C676.221 403.569 680.835 401.128 685.327 398.247C689.819 395.366 693.506 392.754 696.387 390.41C696.826 390.068 697.314 389.946 697.852 390.044C698.389 390.093 698.853 390.337 699.243 390.776ZM674.561 356.719C675.439 356.719 676.367 357.354 677.344 358.623C678.271 359.844 678.735 361.333 678.735 363.091C678.735 364.849 678.345 366.021 677.563 366.606C676.782 367.144 675.952 367.412 675.073 367.412C674.243 367.412 673.438 367.144 672.656 366.606C671.875 366.021 671.484 364.849 671.484 363.091C671.484 361.333 671.802 359.844 672.437 358.623C673.022 357.354 673.73 356.719 674.561 356.719ZM689.868 356.719C690.747 356.719 691.675 357.354 692.651 358.623C693.579 359.844 694.043 361.333 694.043 363.091C694.043 364.849 693.652 366.021 692.871 366.606C692.09 367.144 691.26 367.412 690.381 367.412C689.551 367.412 688.745 367.144 687.964 366.606C687.183 366.021 686.792 364.849 686.792 363.091C686.792 361.333 687.085 359.844 687.671 358.623C688.257 357.354 688.989 356.719 689.868 356.719ZM760.4 392.095C760.498 392.583 760.376 393.022 760.034 393.413C759.741 393.804 759.326 393.999 758.789 393.999C758.105 393.999 757.422 393.999 756.738 393.999C753.223 394.097 749.707 394.097 746.191 393.999C745.996 393.999 745.801 393.999 745.605 393.999C742.969 393.901 740.112 393.682 737.036 393.34C734.009 392.998 731.152 392.29 728.467 391.216C725.781 390.093 723.682 388.384 722.168 386.089C720.996 383.989 720.337 381.792 720.19 379.497C720.142 379.253 720.117 379.009 720.117 378.765C720.068 377.983 719.873 377.3 719.531 376.714C719.531 376.714 719.507 376.714 719.458 376.714C719.409 376.714 719.385 376.714 719.385 376.714C719.336 376.714 719.263 376.714 719.165 376.714C719.067 376.714 718.97 376.714 718.872 376.714C718.823 376.714 718.799 376.714 718.799 376.714C716.357 377.788 713.696 381.084 710.815 386.602C707.983 392.119 705.371 397.954 702.979 404.106C700.635 410.259 698.975 414.8 697.998 417.729C697.51 418.853 696.802 419.512 695.874 419.707C694.897 419.854 694.043 419.634 693.311 419.048C692.529 418.413 692.188 417.485 692.285 416.265C692.285 416.265 692.529 414.849 693.018 412.017C693.506 409.136 694.116 405.62 694.849 401.47C695.532 397.271 696.216 393.096 696.899 388.945C697.632 384.746 698.242 381.23 698.73 378.398C699.219 375.518 699.463 374.077 699.463 374.077C699.805 372.808 700.464 372.051 701.44 371.807C702.417 371.514 703.32 371.66 704.15 372.246C704.98 372.832 705.347 373.76 705.249 375.029L702.832 389.312C702.832 389.409 702.856 389.507 702.905 389.604C703.003 389.653 703.076 389.678 703.125 389.678C703.223 389.629 703.296 389.556 703.345 389.458C704.468 387.163 705.835 384.722 707.446 382.134C709.058 379.497 710.815 377.251 712.72 375.396C714.673 373.491 716.699 372.49 718.799 372.393C719.873 372.393 720.825 372.686 721.655 373.271C722.534 373.809 723.145 374.59 723.486 375.615C723.779 376.885 723.901 378.154 723.853 379.424C723.853 380.352 723.901 381.255 723.999 382.134C724.683 385.698 726.685 388.115 730.005 389.385C733.374 390.654 736.719 391.387 740.039 391.582C746.24 391.973 752.393 391.655 758.496 390.63C758.984 390.581 759.399 390.703 759.741 390.996C760.132 391.24 760.352 391.606 760.4 392.095Z" fill="#121212"/>
</svg>
