<svg width="96" height="379" viewBox="0 0 96 379" fill="none" xmlns="http://www.w3.org/2000/svg">
<g clip-path="url(#clip0_28_46)">
<path d="M47.9004 49.6816C47.7233 49.8145 47.513 49.8919 47.2695 49.9141C47.0703 49.9141 46.9043 49.8477 46.7715 49.7148C46.6608 49.582 46.6055 49.4271 46.6055 49.25C46.6055 49.0729 46.6608 48.918 46.7715 48.7852C46.9043 48.6745 47.0592 48.6081 47.2363 48.5859C47.3027 48.4974 47.3802 48.3757 47.4688 48.2207C47.6016 47.9108 47.7233 47.5677 47.834 47.1914C47.9225 46.8372 48 46.472 48.0664 46.0957C48.1328 45.7194 48.1882 45.3431 48.2324 44.9668C48.3431 44.1921 48.4316 43.4173 48.498 42.6426C48.5423 41.8678 48.5755 41.0931 48.5977 40.3184C48.6419 39.3223 48.653 38.3262 48.6309 37.3301C44.9785 36.0684 41.7799 35.0501 39.0352 34.2754C36.3125 33.5007 34.6855 33.224 34.1543 33.4453C33.4017 34.1979 32.793 34.9616 32.3281 35.7363C31.974 36.2676 31.6751 36.6439 31.4316 36.8652C31.1217 37.0866 30.7897 37.1751 30.4355 37.1309C30.0592 37.1087 29.7826 36.9316 29.6055 36.5996C29.3398 36.002 29.3509 35.4264 29.6387 34.873C29.9043 34.3418 30.2806 33.8991 30.7676 33.5449C31.2546 33.1908 31.653 32.9915 31.9629 32.9473C32.6048 32.8587 33.2135 32.8366 33.7891 32.8809C34.9401 32.9694 36.0579 33.1243 37.1426 33.3457C39.3118 33.7663 41.4479 34.2643 43.5508 34.8398C45.2552 35.2826 46.9486 35.7474 48.6309 36.2344C48.5866 34.4857 48.498 32.737 48.3652 30.9883C48.2988 29.9479 48.2103 28.9076 48.0996 27.8672L25.4551 15.4492C25.1009 15.25 24.9349 14.9512 24.957 14.5527C24.9792 14.3535 25.0345 14.1654 25.123 13.9883C25.2116 13.8333 25.3112 13.7005 25.4219 13.5898C25.6654 13.3685 25.8867 13.2246 26.0859 13.1582C26.4844 13.0033 26.8496 12.9147 27.1816 12.8926C27.8236 12.8483 28.4323 12.8483 29.0078 12.8926C30.181 12.9811 31.321 13.1139 32.4277 13.291C34.6634 13.6673 36.877 14.11 39.0684 14.6191C41.3704 15.1504 43.6725 15.7148 45.9746 16.3125C45.6204 15.1172 45.1999 13.9772 44.7129 12.8926C44.5801 12.5605 44.569 12.2174 44.6797 11.8633C44.8125 11.5313 45.0449 11.2878 45.377 11.1328C45.7311 10.9779 46.0742 10.9557 46.4062 11.0664C46.7383 11.1992 46.9818 11.4316 47.1367 11.7637C47.181 11.8743 47.2142 11.974 47.2363 12.0625C47.5684 13.6784 47.834 15.2721 48.0332 16.8438C49.3835 17.1979 50.7337 17.5521 52.084 17.9063C54.6296 18.5924 57.1751 19.2786 59.7207 19.9648C61.4915 20.4518 63.2624 20.9277 65.0332 21.3926C67.1803 21.9902 69.3275 22.5547 71.4746 23.0859C72.5592 23.3737 73.6328 23.6283 74.6953 23.8496C75.2266 23.9603 75.7467 24.0599 76.2559 24.1484C76.4551 24.1706 76.6432 24.1927 76.8203 24.2148C76.9089 24.1484 77.0085 24.0931 77.1191 24.0488C77.4733 23.916 77.8053 23.9271 78.1152 24.082C78.4473 24.237 78.6797 24.4915 78.8125 24.8457C78.8346 24.89 78.8568 24.9453 78.8789 25.0117C78.901 25.0781 78.9121 25.1556 78.9121 25.2441C78.9342 25.4212 78.9121 25.6094 78.8457 25.8086C78.8014 25.9193 78.7572 26.0189 78.7129 26.1074C78.6465 26.196 78.5801 26.2734 78.5137 26.3398C78.4694 26.4063 78.4141 26.4616 78.3477 26.5059C78.3034 26.5501 78.2591 26.5833 78.2148 26.6055C78.0156 26.7161 77.8607 26.7826 77.75 26.8047C77.7057 26.8047 77.6615 26.8158 77.6172 26.8379C77.5729 26.8379 77.5286 26.8379 77.4844 26.8379C77.3516 26.86 77.2298 26.8711 77.1191 26.8711C77.0085 26.8711 76.9089 26.8711 76.8203 26.8711C76.4883 26.849 76.1673 26.8047 75.8574 26.7383C75.2819 26.6497 74.7064 26.5391 74.1309 26.4063C73.0241 26.1628 71.9284 25.8971 70.8438 25.6094C68.6745 25.0339 66.5163 24.4362 64.3691 23.8164L51.4863 20.1309C50.4238 19.8431 49.3613 19.5443 48.2988 19.2344C48.3652 20.0091 48.4316 20.7839 48.498 21.5586C48.6751 23.6836 48.8301 25.8086 48.9629 27.9336C52.748 30.0365 56.6328 32.1947 60.6172 34.4082C68.4089 38.6803 75.3594 42.5319 81.4688 45.9629C82 46.2949 82.2103 46.7819 82.0996 47.4238C82.0111 47.778 81.8118 48.0436 81.502 48.2207C81.2142 48.4199 80.8822 48.4753 80.5059 48.3867C80.4837 48.3867 80.4505 48.3867 80.4063 48.3867C78.3034 47.7227 76.2227 47.0475 74.1641 46.3613L67.9883 44.2363C67.2357 43.9707 65.8965 43.4837 63.9707 42.7754C59.8757 41.2702 54.9837 39.5215 49.2949 37.5293C49.3171 38.459 49.3171 39.3887 49.2949 40.3184C49.2949 41.89 49.2507 43.4616 49.1621 45.0332C49.0957 45.8301 48.9961 46.627 48.8633 47.4238C48.819 47.8223 48.7194 48.2318 48.5645 48.6523C48.498 48.8737 48.3874 49.0951 48.2324 49.3164C48.166 49.4492 48.0553 49.571 47.9004 49.6816ZM77.1191 24.2148C77.1191 24.2148 77.1302 24.2148 77.1523 24.2148C77.1523 24.2148 77.1413 24.2148 77.1191 24.2148ZM26.2188 14.8516C26.4401 15.1615 28.5983 16.4785 32.6934 18.8027C36.7884 21.1491 41.9017 24.0267 48.0332 27.4355C47.834 25.5319 47.5573 23.6283 47.2031 21.7246C47.0703 20.972 46.9264 20.2194 46.7715 19.4668C46.7272 19.2897 46.6829 19.1237 46.6387 18.9688C46.6387 18.9023 46.6276 18.8359 46.6055 18.7695C43.9271 18.0391 41.2487 17.3418 38.5703 16.6777C36.4232 16.1465 34.265 15.6816 32.0957 15.2832C31.0111 15.084 29.9375 14.9401 28.875 14.8516C28.8529 14.8516 28.8197 14.8516 28.7754 14.8516C28.6204 14.8294 28.4102 14.8073 28.1445 14.7852C27.8789 14.7852 27.6022 14.7741 27.3145 14.752C27.0046 14.752 26.75 14.752 26.5508 14.752C26.3294 14.7741 26.2188 14.8073 26.2188 14.8516ZM49.0957 30.9551C49.1842 32.7702 49.2396 34.5964 49.2617 36.4336C49.3503 36.4557 49.4388 36.4779 49.5273 36.5C49.638 36.5221 49.7487 36.5553 49.8594 36.5996C51.7409 37.1309 53.6113 37.6842 55.4707 38.2598C55.6921 38.3262 55.9134 38.3926 56.1348 38.459L68.6191 42.3105L71.7402 43.2402C72.7806 43.5501 73.821 43.849 74.8613 44.1367C76.8314 44.7122 78.8125 45.2435 80.8047 45.7305L48.9629 28.332C49.0072 29.1953 49.0514 30.0697 49.0957 30.9551ZM47.1699 48.6191C47.1921 48.6191 47.2031 48.6081 47.2031 48.5859C47.2031 48.5859 47.1921 48.5859 47.1699 48.5859C47.1699 48.6081 47.1699 48.6191 47.1699 48.6191ZM44.248 81.8887C44.0488 82.0436 43.8275 82.11 43.584 82.0879C43.3405 82.0658 43.1413 81.9551 42.9863 81.7559C42.9642 81.7337 42.9531 81.7227 42.9531 81.7227C42.6875 81.2578 42.3887 80.7376 42.0566 80.1621C41.127 78.5684 40.1198 76.7422 39.0352 74.6836C37.9727 72.6471 37.0872 70.6217 36.3789 68.6074C35.6706 66.6152 35.3939 64.8776 35.5488 63.3945C35.5931 63.1953 35.6484 62.9961 35.7148 62.7969C35.8698 62.4206 36.0801 62.0775 36.3457 61.7676C36.4785 61.6126 36.6224 61.4798 36.7773 61.3691C38.194 60.4616 39.9427 60.1074 42.0234 60.3066C42.1341 60.3066 42.2005 60.2513 42.2227 60.1406C42.2669 60.0521 42.2448 59.9746 42.1563 59.9082C40.8945 59.0007 39.6771 58.0267 38.5039 56.9863C37.7956 56.3223 37.1204 55.5475 36.4785 54.6621C35.8366 53.7988 35.5599 52.8359 35.6484 51.7734C35.6484 51.7292 35.6595 51.6738 35.6816 51.6074C35.6816 51.6074 35.6816 51.5964 35.6816 51.5742C35.9251 50.6224 36.4785 49.9141 37.3418 49.4492C38.6257 48.8737 40.0313 48.6745 41.5586 48.8516C43.1081 49.0065 44.5358 49.2832 45.8418 49.6816C46.7715 49.9694 47.679 50.3346 48.5645 50.7773C48.8743 50.9323 49.1842 51.1204 49.4941 51.3418C49.804 51.5632 49.9811 51.8398 50.0254 52.1719C50.0918 52.526 50.0254 52.8581 49.8262 53.168C49.5827 53.4779 49.2839 53.6549 48.9297 53.6992C48.5977 53.7656 48.2767 53.6992 47.9668 53.5C46.8158 52.8138 45.3216 52.2493 43.4844 51.8066C41.6471 51.3861 40.0977 51.3418 38.8359 51.6738C38.7474 51.696 38.6699 51.7292 38.6035 51.7734C38.5814 51.7734 38.5703 51.7734 38.5703 51.7734C38.4154 51.8398 38.2936 51.9395 38.2051 52.0723C38.2051 52.0944 38.194 52.1276 38.1719 52.1719C38.1719 52.1719 38.1719 52.1829 38.1719 52.2051C38.1719 52.2272 38.1719 52.2604 38.1719 52.3047C38.5703 53.5221 39.6328 54.8392 41.3594 56.2559C43.0859 57.6947 44.5247 58.8014 45.6758 59.5762C46.6497 60.2624 47.6458 60.9264 48.6641 61.5684C48.974 61.7897 49.1289 62.0664 49.1289 62.3984C49.1289 62.7305 49.0072 63.0072 48.7637 63.2285C48.5202 63.4499 48.2103 63.5163 47.834 63.4277C47.5905 63.3613 47.3359 63.2839 47.0703 63.1953C45.4102 62.6419 43.7168 62.1992 41.9902 61.8672C41.127 61.7122 40.1973 61.6458 39.2012 61.668C38.2051 61.7122 37.4082 62.0885 36.8105 62.7969C36.7441 62.9076 36.6777 63.0293 36.6113 63.1621C36.5671 63.2949 36.5228 63.4277 36.4785 63.5605C36.4785 63.5605 36.4785 63.5716 36.4785 63.5938C36.3014 65.2539 36.6556 67.1576 37.541 69.3047C38.4486 71.4518 39.5553 73.5436 40.8613 75.5801C42.1673 77.6165 43.3516 79.2878 44.4141 80.5938C44.569 80.793 44.6243 81.0143 44.5801 81.2578C44.5579 81.5013 44.4473 81.7116 44.248 81.8887ZM59.6875 70.6992C59.6875 71.0977 59.3997 71.5182 58.8242 71.9609C58.2708 72.3815 57.5957 72.5918 56.7988 72.5918C56.002 72.5918 55.4707 72.4147 55.2051 72.0605C54.9616 71.7064 54.8398 71.3301 54.8398 70.9316C54.8398 70.5553 54.9616 70.1901 55.2051 69.8359C55.4707 69.4818 56.002 69.3047 56.7988 69.3047C57.5957 69.3047 58.2708 69.4486 58.8242 69.7363C59.3997 70.002 59.6875 70.3229 59.6875 70.6992ZM59.6875 77.6387C59.6875 78.0371 59.3997 78.4577 58.8242 78.9004C58.2708 79.321 57.5957 79.5313 56.7988 79.5313C56.002 79.5313 55.4707 79.3542 55.2051 79C54.9616 78.6458 54.8398 78.2695 54.8398 77.8711C54.8398 77.4948 54.9616 77.1296 55.2051 76.7754C55.4707 76.4212 56.002 76.2441 56.7988 76.2441C57.5957 76.2441 58.2708 76.377 58.8242 76.6426C59.3997 76.9082 59.6875 77.2402 59.6875 77.6387ZM43.8164 109.414C43.5729 109.458 43.3405 109.414 43.1191 109.281C42.9199 109.148 42.7871 108.949 42.7207 108.684C42.7207 108.661 42.7207 108.639 42.7207 108.617C42.6986 108.418 42.6986 108.219 42.7207 108.02C42.7207 107.798 42.7096 107.577 42.6875 107.355C42.6432 106.249 42.5215 105.142 42.3223 104.035C41.7467 101.091 40.9056 98.2135 39.7988 95.4023C38.9577 93.1445 37.9727 90.9421 36.8438 88.7949C36.7995 88.7285 36.7441 88.6842 36.6777 88.6621C36.6113 88.64 36.5449 88.64 36.4785 88.6621C35.3053 89.0384 34.276 88.8613 33.3906 88.1309C32.5052 87.4004 31.8522 86.5039 31.4316 85.4414C31.166 84.8216 31.0332 84.1686 31.0332 83.4824C31.0332 83.4603 31.0332 83.4492 31.0332 83.4492C31.0332 83.3164 31.0775 83.1504 31.166 82.9512C31.166 82.929 31.1771 82.918 31.1992 82.918C31.9961 81.8333 32.8815 81.7116 33.8555 82.5527C34.8294 83.3939 35.737 84.6003 36.5781 86.1719C36.6445 86.2383 36.7109 86.2826 36.7773 86.3047C36.8659 86.3268 36.9544 86.3047 37.043 86.2383C37.862 85.6185 38.681 84.9876 39.5 84.3457C40.3633 83.6374 41.2598 82.9401 42.1895 82.2539C42.1895 82.2539 42.2005 82.2428 42.2227 82.2207C42.8867 81.7116 43.584 81.2467 44.3145 80.8262C45.0671 80.4056 45.875 80.14 46.7383 80.0293C47.7786 79.9186 48.7305 80.14 49.5938 80.6934C50.457 81.2467 51.1322 81.944 51.6191 82.7852C52.2389 83.8034 52.6484 84.9766 52.8477 86.3047C53.069 87.6328 52.9362 88.8503 52.4492 89.957C51.8516 91.0859 51.099 91.5397 50.1914 91.3184C49.306 91.097 48.3874 90.4993 47.4355 89.5254C46.4837 88.5736 45.6315 87.5553 44.8789 86.4707C44.1484 85.3861 43.6504 84.556 43.3848 83.9805C42.5658 84.5339 41.7357 85.1204 40.8945 85.7402C39.8763 86.4707 38.847 87.1901 37.8066 87.8984C37.7402 87.9427 37.696 87.998 37.6738 88.0645C37.6517 88.1309 37.6628 88.1973 37.707 88.2637C38.1719 89.2598 38.5371 90.0345 38.8027 90.5879C38.847 90.6986 38.8802 90.7982 38.9023 90.8867C40.7174 95.0703 42.2448 99.3646 43.4844 103.77C43.9049 105.23 44.2702 106.736 44.5801 108.285C44.6243 108.551 44.569 108.783 44.4141 108.982C44.2813 109.204 44.082 109.348 43.8164 109.414ZM51.8516 90.3223C51.8737 90.3001 51.8958 90.278 51.918 90.2559C52.3828 89.6582 52.416 88.651 52.0176 87.2344C51.6191 85.8398 50.8555 84.6224 49.7266 83.582C48.5977 82.5638 47.181 82.3092 45.4766 82.8184C45.388 82.8626 45.3216 82.9512 45.2773 83.084C45.2331 83.2168 45.2552 83.3717 45.3438 83.5488C45.7422 84.2572 46.3509 85.1979 47.1699 86.3711C47.9889 87.5443 48.8301 88.5514 49.6934 89.3926C50.5788 90.2559 51.2982 90.5658 51.8516 90.3223ZM31.9297 82.752C31.6641 83.0397 31.6973 83.5378 32.0293 84.2461C32.3835 84.9544 32.8815 85.6074 33.5234 86.2051C34.1875 86.8249 34.8184 87.1458 35.416 87.168C35.5488 87.168 35.6374 87.1126 35.6816 87.002C35.7259 86.9134 35.7259 86.8138 35.6816 86.7031C35.3939 86.194 35.0176 85.5964 34.5527 84.9102C34.0879 84.224 33.612 83.6484 33.125 83.1836C32.6602 82.7188 32.2617 82.5749 31.9297 82.752ZM44.1484 135.545C43.8385 135.744 43.5176 135.788 43.1855 135.678C42.8535 135.589 42.61 135.39 42.4551 135.08C42.2559 134.615 42.0234 134.106 41.7578 133.553C40.7174 131.361 39.5775 128.738 38.3379 125.684C37.0983 122.629 36.1686 119.641 35.5488 116.719C34.9512 113.819 35.084 111.495 35.9473 109.746C36.0358 109.591 36.1243 109.447 36.2129 109.314C36.2129 109.292 36.2129 109.281 36.2129 109.281C37.2754 107.887 38.6478 107.212 40.3301 107.256C42.0345 107.3 43.7057 107.809 45.3438 108.783C47.0039 109.779 48.3099 111.008 49.2617 112.469C50.2135 113.93 50.4681 115.402 50.0254 116.885C49.9811 116.995 49.9368 117.106 49.8926 117.217C49.8704 117.239 49.8483 117.272 49.8262 117.316C49.804 117.383 49.7819 117.438 49.7598 117.482L49.7266 117.516C49.4831 117.958 49.1178 118.268 48.6309 118.445C48.166 118.622 47.7012 118.667 47.2363 118.578C46.2181 118.379 45.2663 117.958 44.3809 117.316C43.5176 116.697 42.776 115.988 42.1563 115.191C41.2487 114.107 40.6732 112.856 40.4297 111.439C40.319 110.753 40.3633 110.045 40.5625 109.314C40.0091 109.248 39.3008 109.348 38.4375 109.613C37.5964 109.901 36.9655 110.377 36.5449 111.041C35.903 112.413 35.7923 114.096 36.2129 116.088C36.6335 118.08 37.2865 120.083 38.1719 122.098C39.0794 124.134 39.9095 125.883 40.6621 127.344C40.7949 127.587 40.9167 127.809 41.0273 128.008C42.0456 130.066 43.1855 132.048 44.4473 133.951C44.6243 134.217 44.6797 134.493 44.6133 134.781C44.569 135.091 44.4141 135.346 44.1484 135.545ZM46.1406 112.635C45.4102 111.749 44.3919 110.941 43.0859 110.211C43.0195 111.052 43.2188 111.838 43.6836 112.568C44.1484 113.321 44.7018 113.985 45.3438 114.561C45.9857 115.158 46.7051 115.59 47.502 115.855C47.6126 115.28 47.513 114.704 47.2031 114.129C46.8932 113.553 46.5391 113.055 46.1406 112.635ZM44.6797 169.844C44.6576 170.242 44.5026 170.519 44.2148 170.674C43.9271 170.829 43.6283 170.84 43.3184 170.707C43.0306 170.574 42.8646 170.298 42.8203 169.877C42.8646 168.261 42.7428 166.656 42.4551 165.063C41.4147 160.038 39.2233 155.633 35.8809 151.848C35.8145 151.803 35.748 151.77 35.6816 151.748C32.0736 150.84 27.5358 149.512 22.0684 147.764C16.5788 146.037 11.4323 144.122 6.62891 142.02C1.82552 139.917 -1.35091 137.858 -2.90039 135.844C-3.16602 135.49 -3.32096 135.069 -3.36523 134.582C-3.43164 134.117 -3.32096 133.697 -3.0332 133.32C-2.43555 132.701 -1.46159 132.38 -0.111328 132.357C1.2168 132.335 2.57813 132.468 3.97266 132.756C5.36719 133.021 6.47396 133.254 7.29297 133.453C12.3841 134.803 17.4531 136.807 22.5 139.463C27.5247 142.141 31.9518 145.473 35.7813 149.457C35.8477 149.501 35.9141 149.535 35.9805 149.557C37.1094 149.822 38.2383 150.099 39.3672 150.387C42.3555 151.161 45.0671 151.803 47.502 152.312C49.959 152.844 51.7852 153.054 52.9805 152.943C53.0026 152.943 53.0247 152.943 53.0469 152.943C53.2461 152.921 53.4564 152.877 53.6777 152.811C53.8991 152.744 54.0319 152.6 54.0762 152.379C54.0319 151.339 53.2682 150.276 51.7852 149.191C50.3021 148.107 48.5313 146.978 46.4727 145.805C44.8789 144.897 43.3516 143.956 41.8906 142.982C40.4297 142.031 39.2454 141.046 38.3379 140.027C37.4525 139.009 37.054 137.958 37.1426 136.873C37.3197 135.744 37.8398 134.947 38.7031 134.482C39.5664 134.04 40.5293 133.852 41.5918 133.918C43.1413 134.051 44.6243 134.316 46.041 134.715C46.2845 134.781 46.5169 134.848 46.7383 134.914C46.849 134.936 46.9707 134.958 47.1035 134.98C47.6126 135.113 48.1107 135.202 48.5977 135.246C48.6198 135.246 48.6419 135.246 48.6641 135.246C49.2396 135.202 49.6602 135.368 49.9258 135.744C50.1914 136.143 50.2578 136.563 50.125 137.006C49.9922 137.449 49.6491 137.736 49.0957 137.869C48.6973 137.913 48.3874 137.913 48.166 137.869C48.1439 137.869 48.1217 137.869 48.0996 137.869C47.6348 137.825 46.8932 137.67 45.875 137.404C45.0339 137.183 44.1595 136.973 43.252 136.773C42.3665 136.574 41.5918 136.475 40.9277 136.475C40.2637 136.497 39.8542 136.707 39.6992 137.105C39.6992 137.15 39.6992 137.194 39.6992 137.238C39.6771 137.238 39.666 137.249 39.666 137.271C39.6217 138.046 39.998 138.887 40.7949 139.795C41.6139 140.702 42.599 141.577 43.75 142.418C44.901 143.259 45.9525 143.979 46.9043 144.576C47.3249 144.864 47.679 145.107 47.9668 145.307C48.1439 145.417 48.3099 145.528 48.4648 145.639C49.7266 146.458 50.9551 147.321 52.1504 148.229C52.903 148.804 53.5892 149.512 54.209 150.354C54.8288 151.195 54.8952 152.113 54.4082 153.109C54.3197 153.242 54.2201 153.364 54.1094 153.475C54.043 153.541 53.9766 153.607 53.9102 153.674C53.1576 154.205 51.8958 154.426 50.125 154.338C48.3542 154.271 46.4616 154.05 44.4473 153.674C42.4551 153.298 40.7285 152.932 39.2676 152.578C39.0905 152.556 38.9577 152.611 38.8691 152.744C38.8027 152.877 38.8138 153.021 38.9023 153.176C40.651 155.566 42.0345 158.145 43.0527 160.912C44.071 163.701 44.6133 166.678 44.6797 169.844ZM-1.30664 134.848C-0.399089 136.132 1.74805 137.57 5.13477 139.164C8.49935 140.78 12.5169 142.385 17.1875 143.979C21.8581 145.594 26.5951 147.055 31.3984 148.361C31.5091 148.383 31.6087 148.361 31.6973 148.295C31.7858 148.229 31.8301 148.14 31.8301 148.029C31.8522 147.919 31.819 147.819 31.7305 147.73C28.7422 145.185 25.5104 142.982 22.0352 141.123C18.5378 139.264 15.0514 137.736 11.5762 136.541C8.47721 135.456 5.31185 134.704 2.08008 134.283C1.2832 134.195 0.508464 134.161 -0.244141 134.184C-0.531901 134.206 -0.808594 134.239 -1.07422 134.283C-1.20703 134.327 -1.29557 134.405 -1.33984 134.516C-1.38411 134.626 -1.37305 134.737 -1.30664 134.848ZM44.1152 196.605C43.8496 196.738 43.584 196.749 43.3184 196.639C43.0527 196.55 42.8535 196.373 42.7207 196.107C40.4629 190.441 38.526 184.663 36.9102 178.775C36.8216 178.443 36.7331 178.089 36.6445 177.713C36.3346 176.518 36.1022 175.3 35.9473 174.061C35.8145 172.843 35.9805 171.77 36.4453 170.84C36.9323 169.932 37.9395 169.335 39.4668 169.047C41.5918 168.848 43.6393 169.135 45.6094 169.91C45.7865 169.977 45.9967 170.054 46.2402 170.143C46.9043 170.364 47.4909 170.663 48 171.039C48.5313 171.415 48.6641 171.958 48.3984 172.666C48.2214 173.02 47.9447 173.242 47.5684 173.33C47.2142 173.441 46.8711 173.396 46.5391 173.197C45.3216 172.533 43.75 172.046 41.8242 171.736C39.9206 171.426 38.3268 171.615 37.043 172.301C36.5117 172.921 36.39 173.994 36.6777 175.521C36.9876 177.071 37.4746 178.731 38.1387 180.502C38.8027 182.295 39.4225 183.867 39.998 185.217C40.3301 186.014 40.5846 186.645 40.7617 187.109C41.2708 188.504 41.8353 189.887 42.4551 191.26C43.0749 192.632 43.75 193.971 44.4805 195.277C44.5911 195.521 44.6133 195.764 44.5469 196.008C44.4805 196.273 44.3366 196.473 44.1152 196.605ZM51.6191 172.865C51.7077 172.312 52.1283 171.936 52.8809 171.736C53.6335 171.559 54.3861 171.559 55.1387 171.736C55.8913 171.936 56.3008 172.312 56.3672 172.865C56.3008 173.441 55.8913 173.817 55.1387 173.994C54.3861 174.193 53.6335 174.193 52.8809 173.994C52.1283 173.817 51.7077 173.441 51.6191 172.865ZM44.0488 228.414C43.8496 228.547 43.6283 228.591 43.3848 228.547C43.1634 228.503 42.9863 228.37 42.8535 228.148C41.6582 226.178 40.5514 224.164 39.5332 222.105C38.9134 220.866 38.36 219.505 37.873 218.021C37.4082 216.561 37.2201 215.111 37.3086 213.672C37.4193 212.255 38.028 210.982 39.1348 209.854C39.8431 209.189 40.6178 208.647 41.459 208.227C42.3223 207.806 43.1855 207.441 44.0488 207.131C44.0931 207.109 44.1374 207.087 44.1816 207.064C44.3366 207.02 44.4805 206.965 44.6133 206.898C45.1445 206.721 45.6426 206.489 46.1074 206.201C46.1296 206.179 46.1406 206.146 46.1406 206.102C46.1628 206.079 46.1628 206.046 46.1406 206.002C45.6536 205.183 45.0449 204.43 44.3145 203.744C44.2038 203.633 44.0931 203.523 43.9824 203.412C42.3887 201.885 40.7174 200.424 38.9688 199.029C37.9284 198.166 36.877 197.325 35.8145 196.506C35.5046 196.262 35.3275 195.964 35.2832 195.609C35.2389 195.255 35.3385 194.923 35.582 194.613C35.8698 194.259 36.2461 194.093 36.7109 194.115C40.9167 194.403 45.0339 195.189 49.0625 196.473C49.6159 196.716 49.9147 197.059 49.959 197.502C50.0254 197.967 49.8926 198.365 49.5605 198.697C49.2507 199.029 48.8079 199.129 48.2324 198.996C46.0632 198.288 43.8496 197.745 41.5918 197.369C41.5475 197.369 41.5143 197.38 41.4922 197.402C41.4701 197.424 41.459 197.458 41.459 197.502C41.459 197.546 41.4701 197.579 41.4922 197.602C42.9974 198.863 44.4362 200.202 45.8086 201.619C45.8971 201.708 45.9746 201.796 46.041 201.885C46.6608 202.505 47.2695 203.246 47.8672 204.109C48.4648 204.973 48.6973 205.836 48.5645 206.699C48.4316 207.208 48.1217 207.618 47.6348 207.928C47.1478 208.26 46.6829 208.503 46.2402 208.658C45.6868 208.857 45.1224 209.057 44.5469 209.256C43.0195 209.699 41.5697 210.296 40.1973 211.049C38.5371 212.111 37.7624 213.473 37.873 215.133C37.9837 216.793 38.5039 218.442 39.4336 220.08C40.3854 221.74 41.2598 223.102 42.0566 224.164C42.3001 224.518 42.4993 224.806 42.6543 225.027C43.1634 225.78 43.6836 226.521 44.2148 227.252C44.3477 227.429 44.403 227.628 44.3809 227.85C44.3587 228.071 44.248 228.259 44.0488 228.414ZM78.9121 280.111C79.377 280.443 79.5872 280.831 79.543 281.273C79.5208 281.738 79.3216 282.104 78.9453 282.369C78.569 282.635 78.1152 282.646 77.584 282.402C77.584 282.402 77.5729 282.402 77.5508 282.402C77.5508 282.38 77.5397 282.369 77.5176 282.369C77.4733 282.347 77.429 282.325 77.3848 282.303C77.3405 282.281 77.2962 282.247 77.252 282.203C75.1712 281.074 71.7845 279.624 67.0918 277.854C62.3991 276.083 57.2969 274.378 51.7852 272.74C46.2956 271.102 41.304 269.907 36.8105 269.154C32.3392 268.402 29.2624 268.468 27.5801 269.354C27.5801 269.376 27.5801 269.387 27.5801 269.387C27.5801 269.409 27.5801 269.42 27.5801 269.42C27.5801 269.42 27.5911 269.409 27.6133 269.387C27.4583 269.962 27.1595 270.305 26.7168 270.416C26.252 270.527 25.8424 270.438 25.4883 270.15C25.112 269.885 24.957 269.453 25.0234 268.855C25.3112 267.948 25.8757 267.328 26.7168 266.996C27.5358 266.686 28.4544 266.542 29.4727 266.564C30.4909 266.587 31.4095 266.653 32.2285 266.764C32.3835 266.764 32.5273 266.775 32.6602 266.797C37.2201 267.483 41.7135 268.413 46.1406 269.586C51.9844 271.091 57.7728 272.751 63.5059 274.566C59.61 272.464 55.7363 270.316 51.8848 268.125C48.0332 265.934 44.2591 263.62 40.5625 261.186C40.3411 261.031 40.1087 260.865 39.8652 260.688C38.6921 259.935 37.3639 258.994 35.8809 257.865C34.4199 256.758 33.1029 255.574 31.9297 254.313C30.7786 253.073 30.1035 251.867 29.9043 250.693C29.7493 249.166 30.1367 247.993 31.0664 247.174C31.9961 246.377 33.1693 245.89 34.5859 245.713C36.224 245.514 37.8398 245.503 39.4336 245.68C42.5326 246.012 45.5762 246.554 48.5645 247.307C51.5749 248.081 54.541 248.945 57.4629 249.896C61.4251 251.136 65.2767 252.63 69.0176 254.379C69.5046 254.711 69.737 255.098 69.7148 255.541C69.6927 256.006 69.4935 256.371 69.1172 256.637C68.763 256.924 68.3203 256.958 67.7891 256.736C66.0182 255.873 64.2031 255.098 62.3438 254.412C58.6029 253.018 54.7956 251.767 50.9219 250.66C47.0703 249.553 43.1634 248.779 39.2012 248.336C39.1126 248.314 39.002 248.303 38.8691 248.303C38.0723 248.214 37.0098 248.148 35.6816 248.104C34.3757 248.059 33.1914 248.148 32.1289 248.369C31.0885 248.613 30.5905 249.111 30.6348 249.863C30.6348 249.885 30.6348 249.896 30.6348 249.896C30.6348 249.919 30.6348 249.941 30.6348 249.963C30.6348 250.029 30.6458 250.096 30.668 250.162C31.3542 251.623 33.0697 253.339 35.8145 255.309C38.5592 257.301 41.6361 259.282 45.0449 261.252C48.4538 263.222 51.4863 264.938 54.1426 266.398C55.5814 267.173 56.7324 267.804 57.5957 268.291C60.5618 269.951 63.5391 271.589 66.5273 273.205C70.6888 275.441 74.8171 277.743 78.9121 280.111ZM59.6875 269.586C59.6875 269.984 59.3997 270.405 58.8242 270.848C58.2708 271.268 57.5957 271.479 56.7988 271.479C56.002 271.479 55.4707 271.301 55.2051 270.947C54.9616 270.593 54.8398 270.217 54.8398 269.818C54.8398 269.442 54.9616 269.077 55.2051 268.723C55.4707 268.368 56.002 268.191 56.7988 268.191C57.5957 268.191 58.2708 268.335 58.8242 268.623C59.3997 268.889 59.6875 269.21 59.6875 269.586ZM59.6875 276.525C59.6875 276.924 59.3997 277.344 58.8242 277.787C58.2708 278.208 57.5957 278.418 56.7988 278.418C56.002 278.418 55.4707 278.241 55.2051 277.887C54.9616 277.533 54.8398 277.156 54.8398 276.758C54.8398 276.382 54.9616 276.016 55.2051 275.662C55.4707 275.308 56.002 275.131 56.7988 275.131C57.5957 275.131 58.2708 275.264 58.8242 275.529C59.3997 275.795 59.6875 276.127 59.6875 276.525ZM44.0488 312.75C43.8496 312.883 43.6283 312.927 43.3848 312.883C43.1634 312.839 42.9863 312.706 42.8535 312.484C41.6582 310.514 40.5514 308.5 39.5332 306.441C38.9134 305.202 38.36 303.84 37.873 302.357C37.4082 300.896 37.2201 299.447 37.3086 298.008C37.4193 296.591 38.028 295.318 39.1348 294.189C39.8431 293.525 40.6178 292.983 41.459 292.562C42.3223 292.142 43.1855 291.777 44.0488 291.467C44.0931 291.445 44.1374 291.423 44.1816 291.4C44.3366 291.356 44.4805 291.301 44.6133 291.234C45.1445 291.057 45.6426 290.825 46.1074 290.537C46.1296 290.515 46.1406 290.482 46.1406 290.438C46.1628 290.415 46.1628 290.382 46.1406 290.338C45.6536 289.519 45.0449 288.766 44.3145 288.08C44.2038 287.969 44.0931 287.859 43.9824 287.748C42.3887 286.221 40.7174 284.76 38.9688 283.365C37.9284 282.502 36.877 281.661 35.8145 280.842C35.5046 280.598 35.3275 280.299 35.2832 279.945C35.2389 279.591 35.3385 279.259 35.582 278.949C35.8698 278.595 36.2461 278.429 36.7109 278.451C40.9167 278.739 45.0339 279.525 49.0625 280.809C49.6159 281.052 49.9147 281.395 49.959 281.838C50.0254 282.303 49.8926 282.701 49.5605 283.033C49.2507 283.365 48.8079 283.465 48.2324 283.332C46.0632 282.624 43.8496 282.081 41.5918 281.705C41.5475 281.705 41.5143 281.716 41.4922 281.738C41.4701 281.76 41.459 281.794 41.459 281.838C41.459 281.882 41.4701 281.915 41.4922 281.938C42.9974 283.199 44.4362 284.538 45.8086 285.955C45.8971 286.044 45.9746 286.132 46.041 286.221C46.6608 286.84 47.2695 287.582 47.8672 288.445C48.4648 289.309 48.6973 290.172 48.5645 291.035C48.4316 291.544 48.1217 291.954 47.6348 292.264C47.1478 292.596 46.6829 292.839 46.2402 292.994C45.6868 293.193 45.1224 293.393 44.5469 293.592C43.0195 294.035 41.5697 294.632 40.1973 295.385C38.5371 296.447 37.7624 297.809 37.873 299.469C37.9837 301.129 38.5039 302.778 39.4336 304.416C40.3854 306.076 41.2598 307.438 42.0566 308.5C42.3001 308.854 42.4993 309.142 42.6543 309.363C43.1634 310.116 43.6836 310.857 44.2148 311.588C44.3477 311.765 44.403 311.964 44.3809 312.186C44.3587 312.407 44.248 312.595 44.0488 312.75ZM44.4141 338.051C44.2148 338.316 43.9603 338.46 43.6504 338.482C43.3405 338.505 43.0638 338.394 42.8203 338.15C41.2487 336.512 39.5111 334.498 37.6074 332.107C35.7038 329.739 34.0768 327.249 32.7266 324.637C31.3763 322.047 30.7565 319.59 30.8672 317.266C31.0664 315.406 31.9297 313.923 33.457 312.816C34.8073 311.997 36.2461 311.533 37.7734 311.422C39.3229 311.289 40.8392 311.311 42.3223 311.488C42.5879 311.09 42.9421 310.88 43.3848 310.857C43.8496 310.813 44.237 310.968 44.5469 311.322C44.6797 311.521 44.8346 311.721 45.0117 311.92C49.4388 312.872 53.7109 314.266 57.8281 316.104C61.9453 317.941 65.9297 320.033 69.7813 322.379C69.9583 322.49 70.1686 322.622 70.4121 322.777C71.3861 323.375 72.5039 324.128 73.7656 325.035C75.0495 325.943 76.1673 326.906 77.1191 327.924C78.071 328.942 78.5247 329.927 78.4805 330.879C78.4362 331.388 78.2148 331.775 77.8164 332.041C77.4401 332.329 77.0195 332.473 76.5547 332.473C75.8021 332.451 75.0938 332.34 74.4297 332.141C72.0169 331.388 69.6927 330.436 67.457 329.285C60.8164 325.965 54.4525 322.18 48.3652 317.93C46.5944 316.734 44.9121 315.406 43.3184 313.945C41.9902 313.68 40.6178 313.503 39.2012 313.414C37.7845 313.348 36.4342 313.536 35.1504 313.979C32.6491 315.019 31.3763 316.491 31.332 318.395C31.2878 320.32 31.9297 322.357 33.2578 324.504C34.6081 326.673 36.0911 328.643 37.707 330.414C39.3451 332.185 40.5957 333.469 41.459 334.266C42.3223 335.107 43.2298 335.882 44.1816 336.59C44.4251 336.767 44.569 336.988 44.6133 337.254C44.6576 337.542 44.5911 337.807 44.4141 338.051ZM52.2832 316.436C51.1986 316.059 50.1139 315.705 49.0293 315.373C55.1608 319.933 61.6133 323.962 68.3867 327.459C69.4714 328.012 70.556 328.533 71.6406 329.02C72.7474 329.507 73.8542 329.916 74.9609 330.248C75.4922 330.403 76.0124 330.492 76.5215 330.514C76.1452 329.673 75.459 328.842 74.4629 328.023C73.4889 327.204 72.6035 326.518 71.8066 325.965C68.7962 323.951 65.6419 322.158 62.3438 320.586C59.0456 319.036 55.6921 317.653 52.2832 316.436ZM44.248 369.76C44.0488 369.915 43.8275 369.981 43.584 369.959C43.3405 369.937 43.1413 369.826 42.9863 369.627C42.9642 369.605 42.9531 369.594 42.9531 369.594C42.6875 369.129 42.3887 368.609 42.0566 368.033C41.127 366.439 40.1198 364.613 39.0352 362.555C37.9727 360.518 37.0872 358.493 36.3789 356.479C35.6706 354.486 35.3939 352.749 35.5488 351.266C35.5931 351.066 35.6484 350.867 35.7148 350.668C35.8698 350.292 36.0801 349.949 36.3457 349.639C36.4785 349.484 36.6224 349.351 36.7773 349.24C38.194 348.333 39.9427 347.979 42.0234 348.178C42.1341 348.178 42.2005 348.122 42.2227 348.012C42.2669 347.923 42.2448 347.846 42.1563 347.779C40.8945 346.872 39.6771 345.898 38.5039 344.857C37.7956 344.193 37.1204 343.419 36.4785 342.533C35.8366 341.67 35.5599 340.707 35.6484 339.645C35.6484 339.6 35.6595 339.545 35.6816 339.479C35.6816 339.479 35.6816 339.467 35.6816 339.445C35.9251 338.493 36.4785 337.785 37.3418 337.32C38.6257 336.745 40.0313 336.546 41.5586 336.723C43.1081 336.878 44.5358 337.154 45.8418 337.553C46.7715 337.84 47.679 338.206 48.5645 338.648C48.8743 338.803 49.1842 338.992 49.4941 339.213C49.804 339.434 49.9811 339.711 50.0254 340.043C50.0918 340.397 50.0254 340.729 49.8262 341.039C49.5827 341.349 49.2839 341.526 48.9297 341.57C48.5977 341.637 48.2767 341.57 47.9668 341.371C46.8158 340.685 45.3216 340.12 43.4844 339.678C41.6471 339.257 40.0977 339.213 38.8359 339.545C38.7474 339.567 38.6699 339.6 38.6035 339.645C38.5814 339.645 38.5703 339.645 38.5703 339.645C38.4154 339.711 38.2936 339.811 38.2051 339.943C38.2051 339.965 38.194 339.999 38.1719 340.043C38.1719 340.043 38.1719 340.054 38.1719 340.076C38.1719 340.098 38.1719 340.132 38.1719 340.176C38.5703 341.393 39.6328 342.71 41.3594 344.127C43.0859 345.566 44.5247 346.673 45.6758 347.447C46.6497 348.133 47.6458 348.798 48.6641 349.439C48.974 349.661 49.1289 349.938 49.1289 350.27C49.1289 350.602 49.0072 350.878 48.7637 351.1C48.5202 351.321 48.2103 351.387 47.834 351.299C47.5905 351.232 47.3359 351.155 47.0703 351.066C45.4102 350.513 43.7168 350.07 41.9902 349.738C41.127 349.583 40.1973 349.517 39.2012 349.539C38.2051 349.583 37.4082 349.96 36.8105 350.668C36.7441 350.779 36.6777 350.9 36.6113 351.033C36.5671 351.166 36.5228 351.299 36.4785 351.432C36.4785 351.432 36.4785 351.443 36.4785 351.465C36.3014 353.125 36.6556 355.029 37.541 357.176C38.4486 359.323 39.5553 361.415 40.8613 363.451C42.1673 365.488 43.3516 367.159 44.4141 368.465C44.569 368.664 44.6243 368.885 44.5801 369.129C44.5579 369.372 44.4473 369.583 44.248 369.76ZM59.6875 358.57C59.6875 358.969 59.3997 359.389 58.8242 359.832C58.2708 360.253 57.5957 360.463 56.7988 360.463C56.002 360.463 55.4707 360.286 55.2051 359.932C54.9616 359.577 54.8398 359.201 54.8398 358.803C54.8398 358.426 54.9616 358.061 55.2051 357.707C55.4707 357.353 56.002 357.176 56.7988 357.176C57.5957 357.176 58.2708 357.32 58.8242 357.607C59.3997 357.873 59.6875 358.194 59.6875 358.57ZM59.6875 365.51C59.6875 365.908 59.3997 366.329 58.8242 366.771C58.2708 367.192 57.5957 367.402 56.7988 367.402C56.002 367.402 55.4707 367.225 55.2051 366.871C54.9616 366.517 54.8398 366.141 54.8398 365.742C54.8398 365.366 54.9616 365.001 55.2051 364.646C55.4707 364.292 56.002 364.115 56.7988 364.115C57.5957 364.115 58.2708 364.248 58.8242 364.514C59.3997 364.779 59.6875 365.111 59.6875 365.51Z" fill="#121212"/>
</g>
<defs>
<clipPath id="clip0_28_46">
<rect width="96" height="379" fill="white"/>
</clipPath>
</defs>
</svg>
