<svg width="1737" height="498" viewBox="0 0 1737 498" fill="none" xmlns="http://www.w3.org/2000/svg">
<path d="M675.715 83.9102H700.715V226H675.715V154.027H629.719V226H604.719V83.9102H629.719V149.73H675.715V83.9102ZM787.531 127.562H812.531V226H787.531V214.965C779.979 223.754 770.344 228.148 758.625 228.148C748.664 228.409 740.689 225.609 734.699 219.75C731.77 216.951 729.296 213.663 727.277 209.887C725.259 206.111 724.25 201.098 724.25 194.848V127.562H749.25V198.07C749.185 203.995 750.943 209.105 754.523 213.402C758.039 217.764 762.759 219.913 768.684 219.848C773.957 219.848 778.449 217.667 782.16 213.305C785.741 209.008 787.531 203.93 787.531 198.07V127.562ZM763.02 88.4023C766.861 88.4023 770.148 89.7695 772.883 92.5039C775.552 95.1732 776.887 98.4284 776.887 102.27C776.887 106.176 775.552 109.496 772.883 112.23C770.148 114.9 766.861 116.234 763.02 116.234C759.113 116.234 755.826 114.9 753.156 112.23C750.422 109.496 749.055 106.176 749.055 102.27C749.055 98.4284 750.422 95.1732 753.156 92.5039C755.826 89.7695 759.113 88.4023 763.02 88.4023ZM806.867 88.4023C810.708 88.4023 813.996 89.7695 816.73 92.5039C819.465 95.1732 820.832 98.4284 820.832 102.27C820.832 106.176 819.465 109.496 816.73 112.23C813.996 114.9 810.708 116.234 806.867 116.234C803.026 116.234 799.771 114.9 797.102 112.23C794.367 109.496 793 106.176 793 102.27C793 98.4284 794.367 95.1732 797.102 92.5039C799.771 89.7695 803.026 88.4023 806.867 88.4023ZM888.508 169.262C898.729 175.447 903.547 184.431 902.961 196.215C902.245 205.329 899.608 212.198 895.051 216.82C890.559 221.443 885.318 224.503 879.328 226C873.339 227.432 867.837 227.986 862.824 227.66C852.473 226.814 844.921 224.079 840.168 219.457C835.48 214.835 833.104 209.919 833.039 204.711C833.039 199.503 834.895 195.629 838.605 193.09C843.293 190.486 847.134 190.551 850.129 193.285C853.124 196.02 854.882 199.503 855.402 203.734C855.923 207.901 854.849 210.863 852.18 212.621C850.878 213.402 850.52 214.542 851.105 216.039C851.757 217.536 853.286 218.904 855.695 220.141C858.169 221.378 861.49 221.996 865.656 221.996C874.38 221.671 880.533 219.88 884.113 216.625C887.694 213.37 889.517 209.822 889.582 205.98C889.712 202.139 888.866 199.177 887.043 197.094C885.22 194.88 882.29 192.895 878.254 191.137C872.85 188.793 867.935 186.938 863.508 185.57C857.844 183.487 853.677 181.892 851.008 180.785C839.224 174.926 833.462 165.811 833.723 153.441C833.983 145.303 836.783 138.533 842.121 133.129C847.85 127.855 855.63 125.154 865.461 125.023C876.594 124.893 884.797 126.781 890.07 130.688C895.409 134.529 898.176 138.891 898.371 143.773C898.632 148.656 896.711 152.53 892.609 155.395C888.638 157.673 885.057 157.51 881.867 154.906C878.742 152.237 876.822 149.014 876.105 145.238C875.389 141.397 876.626 138.826 879.816 137.523C882.03 136.677 881.835 135.31 879.23 133.422C876.626 131.469 872.102 130.362 865.656 130.102C860.708 130.036 856.509 131.469 853.059 134.398C850.324 136.612 848.762 139.607 848.371 143.383C848.111 146.898 849.283 150.023 851.887 152.758C854.1 154.906 859.992 157.803 869.562 161.449C878.482 164.444 884.797 167.048 888.508 169.262ZM996.906 208.812C1002.57 203.083 1006.8 195.531 1009.6 186.156H1012.73C1010.06 199.242 1004.43 209.496 995.832 216.918C987.303 224.275 977.147 227.953 965.363 227.953C952.342 227.953 941.242 223.07 932.062 213.305C923.078 203.669 918.586 191.69 918.586 177.367C918.586 162.523 923.078 150.121 932.062 140.16C941.177 129.939 952.896 124.828 967.219 124.828C981.477 124.828 992.642 129.158 1000.71 137.816C1008.92 146.475 1013.35 158.031 1014 172.484H943.391C943.065 175.74 943.163 179.906 943.684 184.984C944.204 189.997 945.507 195.043 947.59 200.121C949.673 205.134 952.961 209.333 957.453 212.719C961.945 216.104 968.098 217.764 975.91 217.699C984.243 217.504 991.242 214.542 996.906 208.812ZM966.73 129.223C961.587 129.223 956.607 132.836 951.789 140.062C946.971 147.289 944.204 156.501 943.488 167.699H988.898C988.768 154.743 986.652 145.108 982.551 138.793C978.514 132.413 973.241 129.223 966.73 129.223ZM1106.48 127.562H1111.36L1060.38 246.801C1055.7 257.348 1050.68 264.509 1045.34 268.285C1040.01 272.126 1034.99 273.689 1030.3 272.973C1025.62 272.257 1021.91 270.336 1019.17 267.211C1016.44 264.151 1015.33 260.993 1015.85 257.738C1017.02 252.53 1018.94 249.177 1021.61 247.68C1024.35 246.247 1027.15 246.02 1030.01 246.996C1032.88 248.038 1035.15 249.665 1036.85 251.879C1038.54 254.092 1038.93 256.241 1038.02 258.324C1037.17 260.473 1037.5 261.97 1039 262.816C1040.49 263.663 1042.74 262.849 1045.73 260.375C1048.79 257.966 1052.21 252.888 1055.99 245.141L1064.29 226L1023.47 127.562H1048.86L1076.89 195.727L1106.48 127.562ZM1130.4 226V127.562H1155.4V226H1130.4ZM1142.9 111.547C1139.06 111.547 1135.77 110.18 1133.04 107.445C1130.3 104.711 1128.94 101.423 1128.94 97.582C1128.94 93.7409 1130.3 90.4857 1133.04 87.8164C1135.77 85.082 1139.06 83.7148 1142.9 83.7148C1146.74 83.7148 1150 85.082 1152.67 87.8164C1155.4 90.4857 1156.77 93.7409 1156.77 97.582C1156.77 101.423 1155.4 104.711 1152.67 107.445C1150 110.18 1146.74 111.547 1142.9 111.547ZM1258.14 133.812C1261.07 136.612 1263.54 139.9 1265.56 143.676C1267.58 147.452 1268.59 152.465 1268.59 158.715V226H1243.59V155.492C1243.65 149.568 1241.89 144.457 1238.31 140.16C1234.8 135.798 1230.08 133.65 1224.15 133.715C1218.88 133.715 1214.39 135.896 1210.68 140.258C1207.1 144.555 1205.3 149.633 1205.3 155.492V226H1180.3V127.562H1205.3V138.598C1212.86 129.809 1222.49 125.414 1234.21 125.414C1244.17 125.154 1252.15 127.953 1258.14 133.812ZM1452.47 83.9102L1452.57 182.152C1452.57 196.801 1447.49 208.161 1437.34 216.234C1427.31 224.242 1413.83 228.246 1396.91 228.246C1379.46 228.246 1365.75 224.242 1355.79 216.234C1346.42 208.552 1341.73 197.191 1341.73 182.152L1341.63 83.9102H1366.93V182.152C1367.06 194.327 1370.67 203.507 1377.77 209.691C1384.86 215.941 1394.82 219.066 1407.65 219.066C1420.54 219.066 1430.43 216.039 1437.34 209.984C1444.37 203.995 1447.88 194.717 1447.88 182.152L1447.79 83.9102H1452.47ZM1403.06 88.4023C1406.9 88.4023 1410.19 89.7695 1412.92 92.5039C1415.59 95.1732 1416.93 98.4284 1416.93 102.27C1416.93 106.176 1415.59 109.496 1412.92 112.23C1410.19 114.9 1406.9 116.234 1403.06 116.234C1399.15 116.234 1395.86 114.9 1393.2 112.23C1390.46 109.496 1389.09 106.176 1389.09 102.27C1389.09 98.4284 1390.46 95.1732 1393.2 92.5039C1395.86 89.7695 1399.15 88.4023 1403.06 88.4023ZM1446.91 88.4023C1450.75 88.4023 1454.04 89.7695 1456.77 92.5039C1459.5 95.1732 1460.87 98.4284 1460.87 102.27C1460.87 106.176 1459.5 109.496 1456.77 112.23C1454.04 114.9 1450.75 116.234 1446.91 116.234C1443.07 116.234 1439.81 114.9 1437.14 112.23C1434.41 109.496 1433.04 106.176 1433.04 102.27C1433.04 98.4284 1434.41 95.1732 1437.14 92.5039C1439.81 89.7695 1443.07 88.4023 1446.91 88.4023ZM1553.84 133.812C1556.77 136.612 1559.24 139.9 1561.26 143.676C1563.28 147.452 1564.29 152.465 1564.29 158.715V226H1539.29V155.492C1539.35 149.568 1537.6 144.457 1534.02 140.16C1530.5 135.798 1525.78 133.65 1519.86 133.715C1514.58 133.715 1510.09 135.896 1506.38 140.258C1502.8 144.555 1501.01 149.633 1501.01 155.492V226H1476.01V127.562H1501.01V138.598C1508.56 129.809 1518.2 125.414 1529.91 125.414C1539.88 125.154 1547.85 127.953 1553.84 133.812ZM1587.73 83.9102H1612.73V226H1587.73V83.9102ZM1699.45 127.562H1724.45V226H1699.45V214.965C1691.89 223.754 1682.26 228.148 1670.54 228.148C1660.58 228.409 1652.6 225.609 1646.61 219.75C1643.68 216.951 1641.21 213.663 1639.19 209.887C1637.17 206.111 1636.16 201.098 1636.16 194.848V127.562H1661.16V198.07C1661.1 203.995 1662.86 209.105 1666.44 213.402C1669.95 217.764 1674.67 219.913 1680.6 219.848C1685.87 219.848 1690.36 217.667 1694.07 213.305C1697.65 209.008 1699.45 203.93 1699.45 198.07V127.562ZM1674.93 88.4023C1678.77 88.4023 1682.06 89.7695 1684.8 92.5039C1687.47 95.1732 1688.8 98.4284 1688.8 102.27C1688.8 106.176 1687.47 109.496 1684.8 112.23C1682.06 114.9 1678.77 116.234 1674.93 116.234C1671.03 116.234 1667.74 114.9 1665.07 112.23C1662.34 109.496 1660.97 106.176 1660.97 102.27C1660.97 98.4284 1662.34 95.1732 1665.07 92.5039C1667.74 89.7695 1671.03 88.4023 1674.93 88.4023ZM1718.78 88.4023C1722.62 88.4023 1725.91 89.7695 1728.64 92.5039C1731.38 95.1732 1732.75 98.4284 1732.75 102.27C1732.75 106.176 1731.38 109.496 1728.64 112.23C1725.91 114.9 1722.62 116.234 1718.78 116.234C1714.94 116.234 1711.68 114.9 1709.02 112.23C1706.28 109.496 1704.91 106.176 1704.91 102.27C1704.91 98.4284 1706.28 95.1732 1709.02 92.5039C1711.68 89.7695 1714.94 88.4023 1718.78 88.4023Z" fill="#121212"/>
<line x1="9" y1="155" x2="583" y2="155" stroke="#121212" stroke-width="8"/>
<path d="M99.1611 389.897C99.6006 389.897 100.016 390.166 100.406 390.703C100.846 391.24 101.188 391.899 101.432 392.681C101.676 393.413 101.798 394.072 101.798 394.658C101.847 395.244 101.651 395.562 101.212 395.61C90.5186 395.854 79.3125 397.026 67.5938 399.126C67.1543 402.202 65.8115 405.083 63.5654 407.769C61.3682 410.405 59 412.676 56.4609 414.58C50.5527 419.072 43.1064 423.247 34.1221 427.104C25.1377 431.011 16.9834 433.062 9.65918 433.257C5.41113 432.72 2.84766 431.206 1.96875 428.716C1.08984 426.226 2.16406 423.418 5.19141 420.293C10.2207 415.752 15.958 411.992 22.4033 409.014C28.8975 405.986 35.3428 403.398 41.7393 401.25C47.9404 399.15 54.2393 397.344 60.6357 395.83C59.8545 394.512 58.7314 393.34 57.2666 392.314C55.8506 391.24 54.459 390.312 53.0918 389.531C52.7012 389.336 52.335 389.116 51.9932 388.872C48.9658 387.261 45.9141 385.698 42.8379 384.185C39.0293 382.378 35.2939 380.449 31.6318 378.398C27.9697 376.348 24.5518 373.931 21.3779 371.147C15.665 365.728 12.6133 360.552 12.2227 355.62C11.8809 350.64 13.3945 345.952 16.7637 341.558C20.1816 337.114 24.6494 332.964 30.167 329.106C34.6592 325.884 40.25 322.661 46.9395 319.438C53.6777 316.216 60.5625 313.75 67.5938 312.041C74.625 310.332 80.8994 310.161 86.417 311.528C90.4697 313.091 92.9844 315.557 93.9609 318.926C94.9863 322.246 94.9863 325.811 93.9609 329.619C92.9355 333.379 91.3975 336.724 89.3467 339.653C88.126 341.558 86.6855 343.267 85.0254 344.78C83.8047 345.708 82.7061 345.903 81.7295 345.366C80.7529 344.78 80.1914 343.95 80.0449 342.876C79.8984 341.753 80.4355 340.776 81.6562 339.946C87.5156 336.333 91.251 332.622 92.8623 328.813C94.5225 324.956 94.2295 321.758 91.9834 319.219C89.7861 316.631 85.7822 315.386 79.9717 315.483C71.8662 315.972 63.7363 317.974 55.582 321.489C47.4277 324.956 40.0547 329.033 33.4629 333.721C31.0215 335.479 28.4092 337.676 25.626 340.312C22.8428 342.949 20.7188 345.83 19.2539 348.955C17.8379 352.031 17.8623 355.181 19.3271 358.403C21.5244 362.749 24.6738 366.313 28.7754 369.097C32.877 371.88 37.1494 374.321 41.5928 376.421C42.6182 376.958 43.6191 377.471 44.5957 377.959C46.0605 378.74 47.5498 379.497 49.0635 380.229C52.042 381.597 54.9229 383.135 57.7061 384.844C60.5381 386.553 63.0527 388.677 65.25 391.216C66.0312 392.29 66.6172 393.34 67.0078 394.365C77.6035 392.168 88.3213 390.679 99.1611 389.897ZM4.8252 430.62C6.43652 432.134 9.83008 432.329 15.0059 431.206C20.2305 430.083 26.041 427.983 32.4375 424.907C38.8828 421.88 44.7666 418.242 50.0889 413.994C55.4111 409.697 59.0244 405.181 60.9287 400.444C51.9932 402.3 43.3506 404.814 35.001 407.988C26.6514 411.113 19.0342 414.946 12.1494 419.487C11.3682 420.024 10.2451 420.952 8.78027 422.271C7.2666 423.638 6.02148 425.103 5.04492 426.665C4.06836 428.228 3.99512 429.546 4.8252 430.62ZM176.798 391.362C177.091 391.997 177.091 392.607 176.798 393.193C176.505 393.779 176.041 394.17 175.406 394.365C173.99 394.707 172.599 395.073 171.231 395.464C167.911 396.343 164.566 397.173 161.197 397.954C160.953 398.003 160.709 398.052 160.465 398.101C157.291 398.882 154.068 399.517 150.797 400.005C147.574 400.493 144.327 400.591 141.056 400.298C136.271 399.614 133.243 397.734 131.974 394.658C130.753 391.582 130.533 387.896 131.314 383.599C131.314 383.55 131.314 383.55 131.314 383.599C130.533 384.087 129.801 384.648 129.117 385.283C129.117 385.283 129.117 385.308 129.117 385.356C129.312 385.601 129.508 385.869 129.703 386.162C130.143 386.895 130.289 387.676 130.143 388.506C130.045 389.336 129.654 390.044 128.971 390.63C128.189 391.118 127.384 391.313 126.554 391.216C125.724 391.069 125.016 390.63 124.43 389.897C124.43 389.849 124.43 389.849 124.43 389.897C122.672 391.704 120.938 393.56 119.229 395.464C116.349 398.589 113.37 401.689 110.294 404.766C110.001 404.961 109.732 405.205 109.488 405.498C108.023 406.914 106.339 408.208 104.435 409.38C102.53 410.552 100.602 410.649 98.6484 409.673C98.502 409.575 98.3555 409.478 98.209 409.38C96.6465 408.11 95.6943 406.548 95.3525 404.692C94.9619 402.788 94.9863 400.933 95.4258 399.126C96.9883 392.632 100.309 387.188 105.387 382.793C108.365 380.205 111.637 378.667 115.201 378.179C118.766 377.69 122.159 378.74 125.382 381.328C125.431 381.328 125.455 381.328 125.455 381.328C126.773 380.156 128.263 379.131 129.923 378.252C130.802 377.764 131.778 377.52 132.853 377.52C133.927 377.52 134.854 377.91 135.636 378.691C136.319 379.521 136.637 380.425 136.588 381.401C136.588 382.329 136.466 383.232 136.222 384.111C136.222 384.258 136.197 384.38 136.148 384.478C136.051 384.917 135.953 385.405 135.855 385.942C135.27 387.993 134.903 390.142 134.757 392.388C134.61 394.634 135.27 396.44 136.734 397.808C139.273 399.419 142.594 399.834 146.695 399.053C150.797 398.271 154.581 397.295 158.048 396.123C158.927 395.83 159.732 395.562 160.465 395.317C165.055 393.95 169.547 392.266 173.941 390.264C174.527 390.02 175.089 389.995 175.626 390.19C176.163 390.386 176.554 390.776 176.798 391.362ZM114.176 392.241C114.176 392.241 114.176 392.217 114.176 392.168C116.275 390.068 118.399 387.944 120.548 385.796C117.911 384.478 115.104 385.039 112.125 387.48C109.146 389.922 106.607 392.852 104.508 396.27C102.457 399.639 101.505 402.129 101.651 403.74C103.214 402.764 104.679 401.592 106.046 400.225C108.585 397.881 111.124 395.391 113.663 392.754C113.81 392.607 113.98 392.437 114.176 392.241ZM232.535 390.41C233.121 390.85 233.438 391.411 233.487 392.095C233.536 392.778 233.292 393.389 232.755 393.926C229.142 397.393 224.698 401.226 219.425 405.425C214.2 409.624 208.707 413.213 202.945 416.191C197.232 419.17 191.812 420.537 186.686 420.293C182.584 419.854 179.312 417.949 176.871 414.58C175.064 411.602 174.039 408.428 173.795 405.059C173.502 401.641 173.551 398.296 173.941 395.024C173.062 394.438 172.599 393.657 172.55 392.681C172.452 391.655 172.794 390.801 173.575 390.117C174.015 389.824 174.454 389.482 174.894 389.092C176.993 379.326 180.069 369.902 184.122 360.82C188.175 351.738 192.789 342.949 197.965 334.453C198.209 334.062 198.502 333.599 198.844 333.062C200.162 330.913 201.822 328.447 203.824 325.664C205.826 322.832 207.95 320.366 210.196 318.267C212.442 316.167 214.615 315.166 216.715 315.264C217.838 315.361 218.692 315.85 219.278 316.729C219.913 317.559 220.23 318.486 220.23 319.512C220.182 321.172 219.938 322.734 219.498 324.199C217.838 329.521 215.738 334.648 213.199 339.58C205.875 354.229 197.525 368.267 188.15 381.694C185.514 385.601 182.584 389.312 179.361 392.827C178.775 395.757 178.385 398.784 178.189 401.909C178.043 405.034 178.458 408.013 179.435 410.845C181.729 416.362 184.977 419.17 189.176 419.268C193.424 419.365 197.916 417.949 202.652 415.02C207.438 412.041 211.783 408.77 215.689 405.205C219.596 401.592 222.428 398.833 224.186 396.929C226.041 395.024 227.75 393.022 229.312 390.923C229.703 390.386 230.191 390.068 230.777 389.971C231.412 389.873 231.998 390.02 232.535 390.41ZM184.854 373.052C184.024 375.444 183.243 377.837 182.511 380.229C192.569 366.704 201.456 352.471 209.171 337.529C210.392 335.137 211.539 332.744 212.613 330.352C213.688 327.91 214.591 325.469 215.323 323.027C215.665 321.855 215.86 320.708 215.909 319.585C214.054 320.415 212.223 321.929 210.416 324.126C208.609 326.274 207.096 328.228 205.875 329.985C201.432 336.626 197.477 343.584 194.01 350.859C190.592 358.135 187.54 365.532 184.854 373.052ZM356.607 391.582C356.9 392.07 356.998 392.583 356.9 393.12C356.803 393.608 356.51 393.999 356.021 394.292C351.676 396.88 347.232 399.321 342.691 401.616C339.957 402.983 336.954 404.204 333.683 405.278C330.46 406.304 327.262 406.719 324.088 406.523C320.963 406.279 318.155 404.937 315.665 402.495C314.2 400.933 313.004 399.224 312.076 397.368C311.148 395.464 310.343 393.535 309.659 391.582C309.61 391.484 309.562 391.387 309.513 391.289C309.415 390.996 309.293 390.703 309.146 390.41C308.756 389.336 308.292 388.335 307.755 387.407C307.657 387.261 307.511 387.163 307.315 387.114C307.169 387.065 307.022 387.09 306.876 387.188C305.167 388.262 303.604 389.556 302.188 391.069C301.944 391.313 301.7 391.533 301.456 391.729C297.403 395.977 293.546 400.444 289.884 405.132C288.956 406.304 288.028 407.476 287.101 408.647C286.759 409.087 286.441 409.502 286.148 409.893C285.367 410.82 284.415 411.187 283.292 410.991C282.218 410.747 281.485 410.063 281.095 408.94C280.167 405.327 280.436 401.665 281.9 397.954C283.365 394.194 285.147 390.557 287.247 387.041C289.2 383.721 290.665 380.693 291.642 377.959C292.667 375.225 292.472 372.954 291.056 371.147C289.64 369.292 286.295 368.071 281.021 367.485C276.236 367.046 270.816 367.095 264.762 367.632C258.756 368.169 253.409 368.95 248.722 369.976C248.38 370.024 248.062 370.098 247.77 370.195C245.084 370.732 242.569 371.587 240.226 372.759C240.079 372.856 239.957 372.954 239.859 373.052C240.055 373.101 240.25 373.149 240.445 373.198C242.691 373.735 244.791 374.639 246.744 375.908C249.186 377.715 250.699 379.985 251.285 382.72C251.92 385.405 251.944 388.164 251.358 390.996C250.87 393.682 249.625 396.782 247.623 400.298C245.67 403.765 243.253 406.597 240.372 408.794C237.491 410.942 234.464 411.382 231.29 410.112C231.046 410.015 230.802 409.868 230.558 409.673C228.409 407.964 227.335 405.693 227.335 402.861C227.335 399.98 227.75 397.344 228.58 394.951C229.557 391.729 231.07 388.701 233.121 385.869C235.221 383.037 237.955 381.084 241.324 380.01C241.959 379.912 242.447 380.059 242.789 380.449C243.131 380.791 243.253 381.23 243.155 381.768C243.106 382.256 242.813 382.622 242.276 382.866C240.47 383.843 238.517 386.187 236.417 389.897C234.317 393.608 232.73 397.393 231.656 401.25C230.582 405.059 230.704 407.622 232.022 408.94C232.071 408.94 232.096 408.94 232.096 408.94C232.145 408.989 232.193 409.014 232.242 409.014C232.34 409.062 232.413 409.087 232.462 409.087C232.462 409.087 232.486 409.111 232.535 409.16C234.293 409.697 236.124 408.818 238.028 406.523C239.933 404.229 241.617 401.323 243.082 397.808C244.547 394.243 245.499 390.85 245.938 387.627C246.427 384.404 246.134 382.134 245.06 380.815C242.96 378.862 240.958 377.446 239.054 376.567C237.784 375.933 236.905 375.347 236.417 374.81C236.319 374.614 236.246 374.468 236.197 374.37C236.197 374.224 236.173 374.077 236.124 373.931C236.075 372.759 236.515 371.88 237.442 371.294C238.37 370.659 239.371 370.171 240.445 369.829C240.738 369.731 241.031 369.634 241.324 369.536C243.57 368.755 245.865 368.145 248.209 367.705C257.486 365.898 266.837 365.142 276.261 365.435C276.407 365.435 276.529 365.435 276.627 365.435C278.873 365.435 281.388 365.703 284.171 366.24C286.954 366.729 289.322 367.998 291.275 370.049C293.229 372.051 294.083 375.298 293.839 379.79C293.595 384.233 291.568 390.41 287.76 398.32C290.787 394.609 294.034 391.069 297.501 387.7C297.696 387.554 297.892 387.383 298.087 387.188C299.454 385.82 301.09 384.502 302.994 383.232C304.947 381.914 306.852 381.377 308.707 381.621C309.83 381.963 310.733 382.671 311.417 383.745C312.149 384.771 312.687 385.771 313.028 386.748C313.614 388.506 314.176 390.386 314.713 392.388C315.494 395.952 316.593 399.126 318.009 401.909C319.62 404.302 322.257 405.229 325.919 404.692C329.581 404.155 333.487 402.886 337.638 400.884C341.788 398.833 345.426 396.831 348.551 394.878C351.676 392.876 353.507 391.655 354.044 391.216C354.435 390.923 354.874 390.825 355.362 390.923C355.851 390.972 356.266 391.191 356.607 391.582ZM483.756 306.768C484.391 305.693 485.196 305.156 486.173 305.156C487.149 305.107 487.955 305.449 488.59 306.182C489.273 306.914 489.444 307.866 489.103 309.038C485.294 319.097 481.803 329.277 478.629 339.58C477.115 344.365 475.284 350.615 473.136 358.33C471.036 366.045 469.107 374.224 467.35 382.866C465.641 391.509 464.615 399.59 464.273 407.109C463.98 414.629 464.908 420.537 467.057 424.834C468.033 426.641 469.474 427.495 471.378 427.397C472.208 427.349 472.916 427.568 473.502 428.057C474.088 428.594 474.43 429.277 474.527 430.107C474.576 430.938 474.332 431.646 473.795 432.231C473.307 432.817 472.647 433.159 471.817 433.257C469.62 433.208 467.643 432.5 465.885 431.133C463.199 428.643 461.637 425.371 461.197 421.318C460.758 417.266 460.66 413.506 460.904 410.039C461.539 401.885 462.638 393.828 464.2 385.869C467.081 371.025 470.67 355.571 474.967 339.507C473.16 343.853 471.378 348.223 469.62 352.617C466.349 360.723 462.955 368.779 459.439 376.787C456.217 384.404 452.628 391.851 448.673 399.126C448.526 399.37 448.355 399.614 448.16 399.858C446.793 402.446 444.986 405.156 442.74 407.988C440.543 410.771 438.028 412.358 435.196 412.749C435.099 412.749 435.001 412.749 434.903 412.749C434.903 412.749 434.879 412.749 434.83 412.749C434.537 412.749 434.244 412.725 433.951 412.676C433.805 412.627 433.634 412.578 433.438 412.529C431.729 411.895 430.533 410.747 429.85 409.087C429.215 407.427 428.824 405.767 428.678 404.106C428.238 399.81 428.141 395.562 428.385 391.362C429.02 379.351 430.143 367.29 431.754 355.181C430.826 357.866 429.923 360.552 429.044 363.237C426.017 372.71 422.94 381.865 419.815 390.703C417.472 397.344 414.811 403.862 411.832 410.259C411.734 410.503 411.588 410.771 411.393 411.064C410.465 413.066 409.269 415.166 407.804 417.363C406.339 419.561 404.63 420.903 402.677 421.392C402.481 421.44 402.286 421.465 402.091 421.465C402.042 421.465 402.018 421.465 402.018 421.465C399.332 421.318 397.477 420.22 396.451 418.169C395.475 416.069 394.986 413.677 394.986 410.991C394.986 408.257 395.108 405.889 395.353 403.887C396.231 396.855 397.574 389.922 399.381 383.086C402.018 372.881 405.021 362.798 408.39 352.837C408.683 352.056 409.171 351.494 409.854 351.152C410.538 350.811 411.295 350.762 412.125 351.006C412.906 351.299 413.468 351.836 413.81 352.617C414.151 353.35 414.176 354.106 413.883 354.888C409.879 364.458 406.461 374.248 403.629 384.258C401.676 390.85 400.235 397.539 399.308 404.326C399.161 405.547 399.063 407.402 399.015 409.893C398.966 412.334 399.112 414.604 399.454 416.704C399.845 418.755 400.577 419.854 401.651 420C402.677 419.854 403.775 418.755 404.947 416.704C406.119 414.653 407.242 412.261 408.316 409.526C409.439 406.743 410.392 404.253 411.173 402.056C411.661 400.786 412.052 399.785 412.345 399.053C417.765 384.355 422.623 369.39 426.92 354.155C429.361 345.854 431.876 337.603 434.464 329.399C434.903 328.374 435.562 327.764 436.441 327.568C437.369 327.373 438.199 327.544 438.932 328.081C439.713 328.569 440.128 329.351 440.177 330.425C439.884 335.991 439.298 341.997 438.419 348.442C438.126 350.884 437.857 353.13 437.613 355.181C437.369 357.28 437.052 359.844 436.661 362.871C435.929 369.023 435.147 375.786 434.317 383.159C433.536 390.483 433.072 396.88 432.926 402.349C432.828 407.769 433.365 410.649 434.537 410.991C436.1 410.698 438.517 407.354 441.788 400.957C445.108 394.561 448.575 387.163 452.188 378.765C455.851 370.317 458.976 362.944 461.563 356.646C462.296 354.839 462.955 353.252 463.541 351.885C464.811 348.857 466.08 345.83 467.35 342.803C472.135 330.498 477.604 318.486 483.756 306.768ZM563.956 391.362C564.249 391.997 564.249 392.607 563.956 393.193C563.663 393.779 563.199 394.17 562.564 394.365C561.148 394.707 559.757 395.073 558.39 395.464C555.069 396.343 551.725 397.173 548.355 397.954C548.111 398.003 547.867 398.052 547.623 398.101C544.449 398.882 541.227 399.517 537.955 400.005C534.732 400.493 531.485 400.591 528.214 400.298C523.429 399.614 520.401 397.734 519.132 394.658C517.911 391.582 517.691 387.896 518.473 383.599C518.473 383.55 518.473 383.55 518.473 383.599C517.691 384.087 516.959 384.648 516.275 385.283C516.275 385.283 516.275 385.308 516.275 385.356C516.471 385.601 516.666 385.869 516.861 386.162C517.301 386.895 517.447 387.676 517.301 388.506C517.203 389.336 516.812 390.044 516.129 390.63C515.348 391.118 514.542 391.313 513.712 391.216C512.882 391.069 512.174 390.63 511.588 389.897C511.588 389.849 511.588 389.849 511.588 389.897C509.83 391.704 508.097 393.56 506.388 395.464C503.507 398.589 500.528 401.689 497.452 404.766C497.159 404.961 496.891 405.205 496.646 405.498C495.182 406.914 493.497 408.208 491.593 409.38C489.688 410.552 487.76 410.649 485.807 409.673C485.66 409.575 485.514 409.478 485.367 409.38C483.805 408.11 482.853 406.548 482.511 404.692C482.12 402.788 482.145 400.933 482.584 399.126C484.146 392.632 487.467 387.188 492.545 382.793C495.523 380.205 498.795 378.667 502.359 378.179C505.924 377.69 509.317 378.74 512.54 381.328C512.589 381.328 512.613 381.328 512.613 381.328C513.932 380.156 515.421 379.131 517.081 378.252C517.96 377.764 518.937 377.52 520.011 377.52C521.085 377.52 522.013 377.91 522.794 378.691C523.478 379.521 523.795 380.425 523.746 381.401C523.746 382.329 523.624 383.232 523.38 384.111C523.38 384.258 523.355 384.38 523.307 384.478C523.209 384.917 523.111 385.405 523.014 385.942C522.428 387.993 522.062 390.142 521.915 392.388C521.769 394.634 522.428 396.44 523.893 397.808C526.432 399.419 529.752 399.834 533.854 399.053C537.955 398.271 541.739 397.295 545.206 396.123C546.085 395.83 546.891 395.562 547.623 395.317C552.213 393.95 556.705 392.266 561.1 390.264C561.686 390.02 562.247 389.995 562.784 390.19C563.321 390.386 563.712 390.776 563.956 391.362ZM501.334 392.241C501.334 392.241 501.334 392.217 501.334 392.168C503.434 390.068 505.558 387.944 507.706 385.796C505.069 384.478 502.262 385.039 499.283 387.48C496.305 389.922 493.766 392.852 491.666 396.27C489.615 399.639 488.663 402.129 488.81 403.74C490.372 402.764 491.837 401.592 493.204 400.225C495.743 397.881 498.282 395.391 500.821 392.754C500.968 392.607 501.139 392.437 501.334 392.241ZM634.342 391.216C634.635 391.655 634.732 392.144 634.635 392.681C634.537 393.169 634.244 393.56 633.756 393.853C629.41 396.489 624.967 398.931 620.426 401.177C617.691 402.544 614.688 403.765 611.417 404.839C608.194 405.864 604.996 406.279 601.822 406.084C598.697 405.84 595.89 404.497 593.399 402.056C591.935 400.493 590.738 398.784 589.811 396.929C588.883 395.024 588.077 393.12 587.394 391.216C587.345 391.118 587.296 391.021 587.247 390.923C587.149 390.581 587.027 390.264 586.881 389.971C586.49 388.799 585.978 387.7 585.343 386.675C585.294 386.626 585.221 386.602 585.123 386.602C585.074 386.553 585.001 386.553 584.903 386.602C583.097 387.676 581.437 389.019 579.923 390.63C579.679 390.874 579.435 391.118 579.19 391.362C575.821 394.878 572.599 398.564 569.522 402.422C567.618 404.717 565.763 407.036 563.956 409.38C563.419 410.063 562.76 410.454 561.979 410.552C561.197 410.649 560.465 410.43 559.781 409.893C559 409.258 558.634 408.428 558.683 407.402C559.317 398.125 561.051 389.043 563.883 380.156C564.42 378.936 565.177 378.276 566.153 378.179C567.179 378.032 568.058 378.325 568.79 379.058C569.522 379.741 569.742 380.718 569.449 381.987C567.887 386.772 566.69 391.655 565.86 396.636C565.86 396.733 565.885 396.807 565.934 396.855C565.982 396.904 566.056 396.929 566.153 396.929C566.251 396.929 566.324 396.904 566.373 396.855C569.156 393.535 572.11 390.361 575.235 387.334C575.431 387.139 575.626 386.968 575.821 386.821C577.188 385.454 578.824 384.111 580.729 382.793C582.633 381.475 584.537 380.962 586.441 381.255C587.564 381.548 588.468 382.231 589.151 383.306C589.884 384.38 590.421 385.405 590.763 386.382C591.202 387.603 591.642 388.848 592.081 390.117C593.058 393.486 594.376 396.685 596.036 399.712C598.38 403.374 601.383 405.083 605.045 404.839C608.707 404.595 612.345 403.447 615.958 401.396C619.62 399.297 622.623 397.368 624.967 395.61C625.748 395.073 626.383 394.634 626.871 394.292C628.531 393.169 630.167 392.021 631.778 390.85C632.169 390.557 632.608 390.435 633.097 390.483C633.585 390.532 634 390.776 634.342 391.216ZM709.269 391.362C709.562 391.997 709.562 392.607 709.269 393.193C708.976 393.779 708.512 394.17 707.877 394.365C706.461 394.707 705.069 395.073 703.702 395.464C700.382 396.343 697.037 397.173 693.668 397.954C693.424 398.003 693.18 398.052 692.936 398.101C689.762 398.882 686.539 399.517 683.268 400.005C680.045 400.493 676.798 400.591 673.526 400.298C668.741 399.614 665.714 397.734 664.444 394.658C663.224 391.582 663.004 387.896 663.785 383.599C663.785 383.55 663.785 383.55 663.785 383.599C663.004 384.087 662.271 384.648 661.588 385.283C661.588 385.283 661.588 385.308 661.588 385.356C661.783 385.601 661.979 385.869 662.174 386.162C662.613 386.895 662.76 387.676 662.613 388.506C662.516 389.336 662.125 390.044 661.441 390.63C660.66 391.118 659.854 391.313 659.024 391.216C658.194 391.069 657.486 390.63 656.9 389.897C656.9 389.849 656.9 389.849 656.9 389.897C655.143 391.704 653.409 393.56 651.7 395.464C648.819 398.589 645.841 401.689 642.765 404.766C642.472 404.961 642.203 405.205 641.959 405.498C640.494 406.914 638.81 408.208 636.905 409.38C635.001 410.552 633.072 410.649 631.119 409.673C630.973 409.575 630.826 409.478 630.68 409.38C629.117 408.11 628.165 406.548 627.823 404.692C627.433 402.788 627.457 400.933 627.896 399.126C629.459 392.632 632.779 387.188 637.857 382.793C640.836 380.205 644.107 378.667 647.672 378.179C651.236 377.69 654.63 378.74 657.853 381.328C657.901 381.328 657.926 381.328 657.926 381.328C659.244 380.156 660.733 379.131 662.394 378.252C663.272 377.764 664.249 377.52 665.323 377.52C666.397 377.52 667.325 377.91 668.106 378.691C668.79 379.521 669.107 380.425 669.059 381.401C669.059 382.329 668.937 383.232 668.692 384.111C668.692 384.258 668.668 384.38 668.619 384.478C668.521 384.917 668.424 385.405 668.326 385.942C667.74 387.993 667.374 390.142 667.228 392.388C667.081 394.634 667.74 396.44 669.205 397.808C671.744 399.419 675.064 399.834 679.166 399.053C683.268 398.271 687.052 397.295 690.519 396.123C691.397 395.83 692.203 395.562 692.936 395.317C697.525 393.95 702.018 392.266 706.412 390.264C706.998 390.02 707.56 389.995 708.097 390.19C708.634 390.386 709.024 390.776 709.269 391.362ZM646.646 392.241C646.646 392.241 646.646 392.217 646.646 392.168C648.746 390.068 650.87 387.944 653.019 385.796C650.382 384.478 647.574 385.039 644.596 387.48C641.617 389.922 639.078 392.852 636.979 396.27C634.928 399.639 633.976 402.129 634.122 403.74C635.685 402.764 637.149 401.592 638.517 400.225C641.056 397.881 643.595 395.391 646.134 392.754C646.28 392.607 646.451 392.437 646.646 392.241ZM783.683 389.824C784.806 389.922 785.538 390.386 785.88 391.216C786.222 391.997 786.197 392.778 785.807 393.56C785.416 394.292 784.684 394.707 783.609 394.805C783.561 394.805 783.536 394.805 783.536 394.805C779.679 393.975 775.772 393.901 771.817 394.585C767.276 395.464 763.028 397.148 759.073 399.639C755.118 402.08 751.529 404.985 748.307 408.354C748.258 408.403 748.233 408.452 748.233 408.501C745.157 420.806 741.666 432.988 737.76 445.049C733.902 457.158 729.459 469.023 724.43 480.645C722.77 484.404 720.865 488.066 718.717 491.631C717.838 492.998 716.739 494.292 715.421 495.513C714.151 496.782 712.613 497.173 710.807 496.685C709.391 496.05 708.512 495.024 708.17 493.608C707.828 492.192 707.682 490.801 707.73 489.434C707.926 485.234 708.487 481.108 709.415 477.056C712.296 464.312 716.642 452.08 722.452 440.361C728.263 428.691 735.636 418.071 744.571 408.501C744.571 408.452 744.596 408.403 744.645 408.354C745.328 405.864 746.231 402.031 747.354 396.855C748.478 391.631 749.308 386.528 749.845 381.548C750.431 376.567 750.138 373.125 748.966 371.221C748.966 371.221 748.941 371.221 748.893 371.221C748.893 371.172 748.868 371.147 748.819 371.147C748.819 371.147 748.795 371.147 748.746 371.147C747.623 370.952 746.305 371.392 744.791 372.466C743.326 373.54 741.886 374.834 740.47 376.348C739.103 377.812 737.979 379.033 737.101 380.01C737.052 380.107 737.027 380.205 737.027 380.303C737.076 380.4 737.149 380.474 737.247 380.522C739.103 381.45 740.86 382.5 742.521 383.672C743.497 384.502 743.888 385.43 743.692 386.455C743.546 387.432 743.033 388.188 742.154 388.726C741.275 389.214 740.274 389.141 739.151 388.506C737.198 387.188 735.147 386.138 732.999 385.356C732.853 385.308 732.73 385.332 732.633 385.43C731.07 387.334 729.337 389.409 727.433 391.655C725.528 393.853 723.771 395.879 722.159 397.734C722.013 397.93 721.842 398.125 721.646 398.32C719.205 401.25 716.544 404.058 713.663 406.743C713.663 406.792 713.639 406.816 713.59 406.816C712.711 407.646 711.71 408.428 710.587 409.16C709.513 409.893 708.316 410.308 706.998 410.405C706.656 410.454 706.314 410.454 705.973 410.405C703.287 409.624 701.847 407.939 701.651 405.352C701.456 402.764 701.725 400.371 702.457 398.174C704.215 392.754 707.145 388.091 711.246 384.185C717.057 378.813 723.819 376.934 731.534 378.545C731.632 378.545 731.729 378.496 731.827 378.398C734.073 376.25 736.441 374.199 738.932 372.246C740.543 370.928 742.325 369.756 744.278 368.73C745.206 368.242 746.231 367.9 747.354 367.705C748.478 367.51 749.552 367.705 750.577 368.291C750.772 368.389 750.943 368.511 751.09 368.657C752.799 370.415 753.58 373.247 753.434 377.153C753.336 381.011 753.043 384.38 752.555 387.261C752.506 387.7 752.457 388.115 752.408 388.506C751.578 393.291 750.626 398.076 749.552 402.861C749.552 403.008 749.601 403.13 749.698 403.228C749.845 403.276 749.991 403.252 750.138 403.154C754.728 398.955 759.879 395.635 765.592 393.193C771.305 390.752 777.335 389.629 783.683 389.824ZM725.602 384.771C725.699 384.673 725.699 384.551 725.602 384.404C725.553 384.258 725.455 384.209 725.309 384.258C722.574 384.551 720.084 385.479 717.838 387.041C715.641 388.604 713.736 390.557 712.125 392.9C710.074 395.83 708.707 399.053 708.023 402.568C708.023 402.715 708.072 402.837 708.17 402.935C708.316 402.983 708.438 402.959 708.536 402.861C710.245 401.494 711.856 399.98 713.37 398.32C713.468 398.223 713.541 398.149 713.59 398.101C716.178 395.366 718.692 392.583 721.134 389.751C722.599 388.091 724.088 386.431 725.602 384.771ZM711.832 491.851C711.832 491.899 711.832 491.899 711.832 491.851V491.851ZM733.292 445.415C736.661 435.747 739.737 426.006 742.521 416.191C742.569 416.045 742.545 415.947 742.447 415.898C742.398 415.801 742.325 415.752 742.228 415.752C742.13 415.752 742.032 415.801 741.935 415.898C737.54 421.953 733.707 428.35 730.436 435.088C727.164 441.826 724.186 448.687 721.5 455.669C718.668 463.042 716.373 470.537 714.615 478.154C713.639 482.061 713.077 485.967 712.931 489.873C712.931 490.068 713.004 490.19 713.15 490.239C713.297 490.288 713.419 490.239 713.517 490.093C715.86 486.821 717.887 483.306 719.596 479.546C719.742 479.253 719.889 478.936 720.035 478.594C724.967 467.803 729.386 456.743 733.292 445.415ZM842.569 390.996C843.009 391.68 843.106 392.388 842.862 393.12C842.667 393.853 842.228 394.39 841.544 394.731C840.519 395.171 839.396 395.684 838.175 396.27C833.341 398.564 827.555 401.079 820.816 403.813C814.078 406.548 807.486 408.599 801.041 409.966C794.645 411.284 789.518 410.991 785.66 409.087C785.318 408.892 785.001 408.696 784.708 408.501C784.659 408.501 784.635 408.501 784.635 408.501C781.559 406.157 780.069 403.13 780.167 399.419C780.265 395.659 781.388 391.973 783.536 388.359C785.733 384.697 788.443 381.816 791.666 379.717C794.889 377.617 798.136 377.056 801.407 378.032C801.651 378.13 801.896 378.228 802.14 378.325C802.188 378.374 802.262 378.423 802.359 378.472C802.506 378.521 802.628 378.569 802.726 378.618L802.799 378.691C803.775 379.229 804.459 380.034 804.85 381.108C805.24 382.134 805.338 383.159 805.143 384.185C804.703 386.431 803.775 388.53 802.359 390.483C800.992 392.388 799.43 394.023 797.672 395.391C795.279 397.393 792.521 398.662 789.396 399.199C787.882 399.443 786.319 399.346 784.708 398.906C784.562 400.127 784.781 401.689 785.367 403.594C786.002 405.449 787.052 406.841 788.517 407.769C791.544 409.185 795.255 409.429 799.649 408.501C804.044 407.573 808.463 406.133 812.906 404.18C817.398 402.178 821.256 400.347 824.479 398.687C825.016 398.394 825.504 398.125 825.943 397.881C830.484 395.635 834.854 393.12 839.054 390.337C839.64 389.946 840.25 389.824 840.885 389.971C841.568 390.068 842.13 390.41 842.569 390.996ZM792.032 386.602C790.079 388.213 788.297 390.459 786.686 393.34C788.541 393.486 790.274 393.047 791.886 392.021C793.546 390.996 795.011 389.775 796.28 388.359C797.599 386.943 798.551 385.356 799.137 383.599C797.867 383.354 796.598 383.574 795.328 384.258C794.059 384.941 792.96 385.723 792.032 386.602ZM903.727 392.095C903.824 392.583 903.702 393.022 903.36 393.413C903.067 393.804 902.652 393.999 902.115 393.999C901.432 393.999 900.748 393.999 900.064 393.999C896.549 394.097 893.033 394.097 889.518 393.999C889.322 393.999 889.127 393.999 888.932 393.999C886.295 393.901 883.438 393.682 880.362 393.34C877.335 392.998 874.479 392.29 871.793 391.216C869.107 390.093 867.008 388.384 865.494 386.089C864.322 383.989 863.663 381.792 863.517 379.497C863.468 379.253 863.443 379.009 863.443 378.765C863.395 377.983 863.199 377.3 862.857 376.714C862.857 376.714 862.833 376.714 862.784 376.714C862.735 376.714 862.711 376.714 862.711 376.714C862.662 376.714 862.589 376.714 862.491 376.714C862.394 376.714 862.296 376.714 862.198 376.714C862.149 376.714 862.125 376.714 862.125 376.714C859.684 377.788 857.022 381.084 854.142 386.602C851.31 392.119 848.697 397.954 846.305 404.106C843.961 410.259 842.301 414.8 841.324 417.729C840.836 418.853 840.128 419.512 839.2 419.707C838.224 419.854 837.369 419.634 836.637 419.048C835.855 418.413 835.514 417.485 835.611 416.265C835.611 416.265 835.855 414.849 836.344 412.017C836.832 409.136 837.442 405.62 838.175 401.47C838.858 397.271 839.542 393.096 840.226 388.945C840.958 384.746 841.568 381.23 842.057 378.398C842.545 375.518 842.789 374.077 842.789 374.077C843.131 372.808 843.79 372.051 844.767 371.807C845.743 371.514 846.646 371.66 847.477 372.246C848.307 372.832 848.673 373.76 848.575 375.029L846.158 389.312C846.158 389.409 846.183 389.507 846.231 389.604C846.329 389.653 846.402 389.678 846.451 389.678C846.549 389.629 846.622 389.556 846.671 389.458C847.794 387.163 849.161 384.722 850.772 382.134C852.384 379.497 854.142 377.251 856.046 375.396C857.999 373.491 860.025 372.49 862.125 372.393C863.199 372.393 864.151 372.686 864.981 373.271C865.86 373.809 866.471 374.59 866.812 375.615C867.105 376.885 867.228 378.154 867.179 379.424C867.179 380.352 867.228 381.255 867.325 382.134C868.009 385.698 870.011 388.115 873.331 389.385C876.7 390.654 880.045 391.387 883.365 391.582C889.566 391.973 895.719 391.655 901.822 390.63C902.311 390.581 902.726 390.703 903.067 390.996C903.458 391.24 903.678 391.606 903.727 392.095Z" fill="#121212"/>
</svg>
