<svg width="24" height="24" viewBox="0 0 24 24" fill="none" xmlns="http://www.w3.org/2000/svg">
<g clip-path="url(#clip0_29_50)">
<path d="M22.3488 14.378C21.8259 13.8538 21.2046 13.4381 20.5206 13.1547C19.8365 12.8714 19.1032 12.726 18.3628 12.727C17.3061 12.7253 16.2704 13.0221 15.3748 13.583L15.3988 13.569L13.3178 10.494L19.2718 1.70196C19.3523 1.58325 19.4087 1.44984 19.4376 1.30935C19.4665 1.16887 19.4675 1.02406 19.4405 0.883193C19.4135 0.742326 19.359 0.608161 19.2801 0.488358C19.2012 0.368556 19.0995 0.265461 18.9808 0.184961C18.8621 0.10446 18.7287 0.0481309 18.5882 0.0191886C18.4477 -0.00975372 18.3029 -0.0107422 18.1621 0.0162797C18.0212 0.0433015 17.887 0.0978045 17.7672 0.176677C17.6474 0.255549 17.5443 0.357246 17.4638 0.475961L17.4618 0.479961L12.0018 8.54896L6.54083 0.479961C6.46382 0.353735 6.36199 0.244462 6.24149 0.158767C6.121 0.0730725 5.98435 0.0127407 5.83985 -0.0185702C5.69534 -0.0498811 5.54598 -0.0515189 5.40082 -0.0233843C5.25566 0.00475022 5.11773 0.0620711 4.99538 0.145103C4.87304 0.228135 4.76883 0.335148 4.68908 0.459655C4.60932 0.584162 4.55569 0.723569 4.53142 0.869423C4.50715 1.01528 4.51275 1.16454 4.54789 1.30817C4.58302 1.45179 4.64696 1.58678 4.73583 1.70496L4.73383 1.70196L10.6838 10.495L8.60283 13.57C7.71325 13.0172 6.68615 12.7258 5.63883 12.729C4.37229 12.7289 3.14259 13.1551 2.14779 13.939C1.15299 14.7229 0.450991 15.8188 0.154864 17.0503C-0.141263 18.2817 -0.0142826 19.577 0.515353 20.7275C1.04499 21.8779 1.94645 22.8167 3.07454 23.3925C4.20264 23.9682 5.4917 24.1476 6.73412 23.9015C7.97653 23.6555 9.09997 22.9985 9.9235 22.0362C10.747 21.074 11.2227 19.8625 11.2739 18.597C11.3251 17.3315 10.9489 16.0856 10.2058 15.06L10.2168 15.076L12.0008 12.439L13.7838 15.076C13.0945 16.0323 12.7249 17.182 12.7278 18.361C12.7279 19.2877 12.9565 20.2002 13.3935 21.0175C13.8304 21.8348 14.4621 22.5318 15.2327 23.0467C16.0033 23.5616 16.889 23.8785 17.8113 23.9693C18.7336 24.0602 19.6641 23.9222 20.5204 23.5676C21.3766 23.2129 22.1322 22.6526 22.7202 21.9363C23.3082 21.2199 23.7105 20.3696 23.8914 19.4607C24.0723 18.5517 24.0263 17.6122 23.7574 16.7252C23.4885 15.8383 23.005 15.0314 22.3498 14.376L22.3488 14.378ZM8.07783 20.802C7.59476 21.2854 6.97914 21.6148 6.30885 21.7484C5.63857 21.8819 4.94373 21.8137 4.31224 21.5522C3.68074 21.2908 3.14097 20.848 2.7612 20.2798C2.38143 19.7115 2.17872 19.0434 2.17872 18.36C2.17872 17.6765 2.38143 17.0084 2.7612 16.4402C3.14097 15.8719 3.68074 15.4291 4.31224 15.1677C4.94373 14.9063 5.63857 14.838 6.30885 14.9716C6.97914 15.1051 7.59476 15.4345 8.07783 15.918C8.70883 16.541 9.09983 17.406 9.09983 18.362C9.09983 19.318 8.70883 20.182 8.07883 20.805L8.07783 20.802ZM20.8048 20.802C20.3218 21.2854 19.7061 21.6148 19.0359 21.7484C18.3656 21.8819 17.6707 21.8137 17.0392 21.5522C16.4077 21.2908 15.868 20.848 15.4882 20.2798C15.1084 19.7115 14.9057 19.0434 14.9057 18.36C14.9057 17.6765 15.1084 17.0084 15.4882 16.4402C15.868 15.8719 16.4077 15.4291 17.0392 15.1677C17.6707 14.9063 18.3656 14.838 19.0359 14.9716C19.7061 15.1051 20.3218 15.4345 20.8048 15.918C21.4358 16.541 21.8278 17.406 21.8278 18.362C21.8278 19.318 21.4368 20.182 20.8068 20.805L20.8048 20.802Z" fill="#121212"/>
</g>
<defs>
<clipPath id="clip0_29_50">
<rect width="24" height="24" fill="white"/>
</clipPath>
</defs>
</svg>
