<svg width="398" height="150" viewBox="0 0 398 150" fill="none" xmlns="http://www.w3.org/2000/svg">
<path d="M48.4062 38.4688H49.9004L35.8086 68H34.4316L26.6387 50.4512L18.2598 68H16.8828L3.75781 38.4688H12.0488L20.6621 59.3574L25.8477 48.7227L21.3066 38.4688H29.5977L38.2109 59.3574L48.4062 38.4688ZM75.4766 62.8438C77.1758 61.125 78.4453 58.8594 79.2852 56.0469H80.2227C79.4219 59.9727 77.7324 63.0488 75.1543 65.2754C72.5957 67.4824 69.5488 68.5859 66.0137 68.5859C62.1074 68.5859 58.7773 67.1211 56.0234 64.1914C53.3281 61.3008 51.9805 57.707 51.9805 53.4102C51.9805 48.957 53.3281 45.2363 56.0234 42.248C58.7578 39.1816 62.2734 37.6484 66.5703 37.6484C70.8477 37.6484 74.1973 38.9473 76.6191 41.5449C79.0801 44.1426 80.4082 47.6094 80.6035 51.9453H59.4219C59.3242 52.9219 59.3535 54.1719 59.5098 55.6953C59.666 57.1992 60.0566 58.7129 60.6816 60.2363C61.3066 61.7402 62.293 63 63.6406 64.0156C64.9883 65.0312 66.834 65.5293 69.1777 65.5098C71.6777 65.4512 73.7773 64.5625 75.4766 62.8438ZM66.4238 38.9668C64.8809 38.9668 63.3867 40.0508 61.9414 42.2188C60.4961 44.3867 59.666 47.1504 59.4512 50.5098H73.0742C73.0352 46.623 72.4004 43.7324 71.1699 41.8379C69.959 39.9238 68.377 38.9668 66.4238 38.9668ZM122.762 25.373H130.262V68H122.762V64.6602C122.605 65.1094 122.215 65.6562 121.59 66.3008C120.965 66.9258 120.086 67.4922 118.953 68C117.82 68.4883 116.395 68.7324 114.676 68.7324C112.645 68.7324 110.857 68.3711 109.314 67.6484C107.771 66.9062 106.355 65.8125 105.066 64.3672C103.738 62.9414 102.693 61.3105 101.932 59.4746C101.17 57.6387 100.789 55.5391 100.789 53.1758C100.789 50.7539 101.141 48.5859 101.844 46.6719C102.547 44.7383 103.504 43.127 104.715 41.8379C107.156 39.1621 110.34 37.8242 114.266 37.8242C115.848 37.8242 117.41 38.1074 118.953 38.6738C120.496 39.2402 121.766 40.1191 122.762 41.3105V25.373ZM122.762 59.1523V43.4492C122.078 42.5898 121.141 41.8184 119.949 41.1348C118.719 40.4316 117.479 40.0801 116.229 40.0801C113.729 40.0605 111.766 41.252 110.34 43.6543C108.973 46.0176 108.289 49.1719 108.289 53.1172C108.27 57.1016 109.041 60.3926 110.604 62.9902C112.186 65.627 114.158 66.8867 116.521 66.7695C118.006 66.6523 119.422 65.9297 120.77 64.6016C122.059 63.1562 122.723 61.3398 122.762 59.1523ZM159.91 62.8438C161.609 61.125 162.879 58.8594 163.719 56.0469H164.656C163.855 59.9727 162.166 63.0488 159.588 65.2754C157.029 67.4824 153.982 68.5859 150.447 68.5859C146.541 68.5859 143.211 67.1211 140.457 64.1914C137.762 61.3008 136.414 57.707 136.414 53.4102C136.414 48.957 137.762 45.2363 140.457 42.248C143.191 39.1816 146.707 37.6484 151.004 37.6484C155.281 37.6484 158.631 38.9473 161.053 41.5449C163.514 44.1426 164.842 47.6094 165.037 51.9453H143.855C143.758 52.9219 143.787 54.1719 143.943 55.6953C144.1 57.1992 144.49 58.7129 145.115 60.2363C145.74 61.7402 146.727 63 148.074 64.0156C149.422 65.0312 151.268 65.5293 153.611 65.5098C156.111 65.4512 158.211 64.5625 159.91 62.8438ZM150.857 38.9668C149.314 38.9668 147.82 40.0508 146.375 42.2188C144.93 44.3867 144.1 47.1504 143.885 50.5098H157.508C157.469 46.623 156.834 43.7324 155.604 41.8379C154.393 39.9238 152.811 38.9668 150.857 38.9668ZM186.98 50.9785C190.047 52.834 191.492 55.5293 191.316 59.0645C191.102 61.7988 190.311 63.8594 188.943 65.2461C187.596 66.6328 186.023 67.5508 184.227 68C182.43 68.4297 180.779 68.5957 179.275 68.498C176.17 68.2441 173.904 67.4238 172.479 66.0371C171.072 64.6504 170.359 63.1758 170.34 61.6133C170.34 60.0508 170.896 58.8887 172.01 58.127C173.416 57.3457 174.568 57.3652 175.467 58.1855C176.365 59.0059 176.893 60.0508 177.049 61.3203C177.205 62.5703 176.883 63.459 176.082 63.9863C175.691 64.2207 175.584 64.5625 175.76 65.0117C175.955 65.4609 176.414 65.8711 177.137 66.2422C177.879 66.6133 178.875 66.7988 180.125 66.7988C182.742 66.7012 184.588 66.1641 185.662 65.1875C186.736 64.2109 187.283 63.1465 187.303 61.9941C187.342 60.8418 187.088 59.9531 186.541 59.3281C185.994 58.6641 185.115 58.0684 183.904 57.541C182.283 56.8379 180.809 56.2812 179.48 55.8711C177.781 55.2461 176.531 54.7676 175.73 54.4355C172.195 52.6777 170.467 49.9434 170.545 46.2324C170.623 43.791 171.463 41.7598 173.064 40.1387C174.783 38.5566 177.117 37.7461 180.066 37.707C183.406 37.668 185.867 38.2344 187.449 39.4062C189.051 40.5586 189.881 41.8672 189.939 43.332C190.018 44.7969 189.441 45.959 188.211 46.8184C187.02 47.502 185.945 47.4531 184.988 46.6719C184.051 45.8711 183.475 44.9043 183.26 43.7715C183.045 42.6191 183.416 41.8477 184.373 41.457C185.037 41.2031 184.979 40.793 184.197 40.2266C183.416 39.6406 182.059 39.3086 180.125 39.2305C178.641 39.2109 177.381 39.6406 176.346 40.5195C175.525 41.1836 175.057 42.082 174.939 43.2148C174.861 44.2695 175.213 45.207 175.994 46.0273C176.658 46.6719 178.426 47.541 181.297 48.6348C183.973 49.5332 185.867 50.3145 186.98 50.9785ZM198.201 68V38.4688H205.701V68H198.201ZM201.951 33.6641C200.799 33.6641 199.812 33.2539 198.992 32.4336C198.172 31.6133 197.762 30.627 197.762 29.4746C197.762 28.3223 198.172 27.3457 198.992 26.5449C199.812 25.7246 200.799 25.3145 201.951 25.3145C203.104 25.3145 204.08 25.7246 204.881 26.5449C205.701 27.3457 206.111 28.3223 206.111 29.4746C206.111 30.627 205.701 31.6133 204.881 32.4336C204.08 33.2539 203.104 33.6641 201.951 33.6641ZM217.215 61.0273C217.527 62.0039 218.426 62.5703 219.91 62.7266C221.395 62.8633 223.211 62.8633 225.359 62.7266C227.703 62.5703 230.105 62.5801 232.566 62.7559C235.027 62.9316 237.215 63.6348 239.129 64.8652C241.043 66.0762 242.332 68.166 242.996 71.1348C243.387 73.127 243.064 75.0117 242.029 76.7891C240.994 78.5664 239.275 80.0215 236.873 81.1543C234.471 82.2871 231.443 82.8535 227.791 82.8535C224.568 82.8535 221.844 82.5117 219.617 81.8281C217.41 81.1445 215.701 80.2559 214.49 79.1621C213.279 78.0684 212.566 76.8867 212.352 75.6172C212.156 74.3477 212.459 73.1074 213.26 71.8965C214.061 70.6855 215.379 69.6309 217.215 68.7324C215.496 68.5566 214.217 67.9414 213.377 66.8867C212.537 65.832 212.176 64.6016 212.293 63.1953C212.43 61.7891 213.094 60.4805 214.285 59.2695C215.477 58.0391 217.234 57.1699 219.559 56.6621C218.094 55.7441 216.902 54.5625 215.984 53.1172C215.047 51.6719 214.578 50.1094 214.578 48.4297C214.578 45.3828 215.838 42.8438 218.357 40.8125C220.799 38.7617 224.002 37.7363 227.967 37.7363C228.748 37.7168 229.861 37.8438 231.307 38.1172C232.811 34.6406 234.334 32.2676 235.877 30.998C237.439 29.709 238.836 29.1719 240.066 29.3867C241.316 29.582 242.225 30.1875 242.791 31.2031C243.357 32.1992 243.416 33.2344 242.967 34.3086C242.303 35.5586 241.443 36.3594 240.389 36.7109C239.354 37.043 238.426 37.0234 237.605 36.6523C236.805 36.2812 236.443 35.6562 236.521 34.7773C236.639 33.7422 236.57 33.2441 236.316 33.2832C236.062 33.3027 235.711 33.6348 235.262 34.2793C234.832 34.9238 234.402 35.6562 233.973 36.4766C233.562 37.2773 233.25 37.9414 233.035 38.4688C235.672 39.1719 237.625 40.3047 238.895 41.8672C240.32 43.5078 241.033 45.5977 241.033 48.1367C241.033 51.0664 239.705 53.625 237.049 55.8125C234.51 57.7656 231.365 58.752 227.615 58.7715C224.842 58.7715 222.42 58.2441 220.35 57.1895C220.35 57.1895 220.164 57.2871 219.793 57.4824C219.422 57.6777 219.012 57.9512 218.562 58.3027C218.113 58.6543 217.742 59.0645 217.449 59.5332C217.176 59.9824 217.098 60.4805 217.215 61.0273ZM227.791 38.9082C226.189 38.9082 224.822 39.8262 223.689 41.6621C222.576 43.4785 222.02 45.6758 222.02 48.2539C222.02 50.832 222.576 53.0293 223.689 54.8457C224.822 56.6621 226.189 57.5703 227.791 57.5703C229.373 57.5703 230.721 56.6621 231.834 54.8457C232.967 53.0293 233.533 50.832 233.533 48.2539C233.533 45.6758 232.967 43.4785 231.834 41.6621C230.721 39.8262 229.373 38.9082 227.791 38.9082ZM227.615 81.5352C230.037 81.5352 232.029 81.2227 233.592 80.5977C235.154 79.9727 236.355 79.1719 237.195 78.1953C238.035 77.2383 238.572 76.2129 238.807 75.1191C239.041 74.0254 239.021 72.9902 238.748 72.0137C238.475 71.0566 238.016 70.2656 237.371 69.6406C236.727 69.0352 235.945 68.7324 235.027 68.7324H221.229C220.408 68.7715 219.676 69.1035 219.031 69.7285C218.387 70.3535 217.898 71.1445 217.566 72.1016C217.234 73.0781 217.127 74.1035 217.244 75.1777C217.381 76.252 217.811 77.2676 218.533 78.2246C219.256 79.2012 220.35 79.9922 221.814 80.5977C223.299 81.2227 225.232 81.5352 227.615 81.5352ZM272.615 40.3438C273.494 41.1836 274.236 42.1699 274.842 43.3027C275.447 44.4355 275.75 45.9395 275.75 47.8145V68H268.25V46.8477C268.27 45.0703 267.742 43.5371 266.668 42.248C265.613 40.9395 264.197 40.2949 262.42 40.3145C260.838 40.3145 259.49 40.9688 258.377 42.2773C257.303 43.5664 256.766 45.0898 256.766 46.8477V68H249.266V38.4688H256.766V41.7793C259.031 39.1426 261.922 37.8242 265.438 37.8242C268.426 37.7461 270.818 38.5859 272.615 40.3438ZM331.59 25.373L317.908 45.9395V68H310.32V48.6934L295.906 25.373H304.52L316.678 44.4453L329.891 25.373H331.59ZM356.873 41.9258C359.471 44.6992 360.828 48.3711 360.945 52.9414C360.945 57.3359 359.471 61.0566 356.521 64.1035C353.592 67.1504 350.096 68.6738 346.033 68.6738C341.99 68.6738 338.562 67.209 335.75 64.2793C332.977 61.3691 331.59 57.7754 331.59 53.498C331.59 49.1035 332.986 45.3828 335.779 42.3359C338.592 39.25 342.195 37.7168 346.59 37.7363C350.887 37.7559 354.314 39.1523 356.873 41.9258ZM346.385 67.209C347.732 67.209 348.953 66.584 350.047 65.334C351.16 64.0645 352.039 62.375 352.684 60.2656C353.348 58.1367 353.68 55.7734 353.68 53.1758C353.68 50.5977 353.348 48.2539 352.684 46.1445C352.039 44.0156 351.16 42.3262 350.047 41.0762C348.953 39.8066 347.732 39.1719 346.385 39.1719C345.037 39.1719 343.807 39.8066 342.693 41.0762C341.6 42.3262 340.721 44.0156 340.057 46.1445C339.412 48.2539 339.09 50.5977 339.09 53.1758C339.09 55.7734 339.412 58.1367 340.057 60.2656C340.721 62.375 341.6 64.0645 342.693 65.334C343.807 66.584 345.037 67.209 346.385 67.209ZM386.082 38.4688H393.582V68H386.082V64.6895C383.816 67.3262 380.926 68.6445 377.41 68.6445C374.422 68.7227 372.029 67.8828 370.232 66.125C369.354 65.2852 368.611 64.2988 368.006 63.166C367.4 62.0332 367.098 60.5293 367.098 58.6543V38.4688H374.598V59.6211C374.578 61.3984 375.105 62.9316 376.18 64.2207C377.234 65.5293 378.65 66.1738 380.428 66.1543C382.01 66.1543 383.357 65.5 384.471 64.1914C385.545 62.9023 386.082 61.3789 386.082 59.6211V38.4688Z" fill="#121212"/>
<path d="M33.3184 107.721C33.3574 108.014 33.2891 108.268 33.1133 108.482C32.9375 108.697 32.7031 108.805 32.4102 108.805C31.9805 108.805 31.5508 108.795 31.1211 108.775C29.2852 108.775 27.4395 108.688 25.584 108.512C23.7285 108.316 21.9609 107.857 20.2812 107.135C20.0273 107.037 19.793 106.92 19.5781 106.783C19.5586 107.33 19.5195 107.799 19.4609 108.189C19.3438 109.518 19.002 110.855 18.4355 112.203C17.8691 113.551 16.8828 114.43 15.4766 114.84L15.3301 114.898H15.125C13.7773 114.898 12.7031 114.205 11.9023 112.818C11.1211 111.412 10.6035 109.889 10.3496 108.248C10.0762 108.756 9.64648 109.576 9.06055 110.709C8.5332 111.705 8.01562 112.691 7.50781 113.668C7 114.625 6.61914 115.299 6.36523 115.689C6.30664 115.787 6.23828 115.885 6.16016 115.982C5.78906 116.607 5.32031 117.223 4.75391 117.828C4.20703 118.434 3.58203 118.756 2.87891 118.795C2.82031 118.795 2.75195 118.785 2.67383 118.766C1.52148 118.531 0.886719 117.594 0.769531 115.953C0.632812 114.293 0.808594 112.379 1.29688 110.211C1.76562 108.023 2.3418 106.002 3.02539 104.146C3.72852 102.271 4.32422 100.982 4.8125 100.279C5.14453 99.8691 5.50586 99.7031 5.89648 99.7812C6.30664 99.8398 6.60938 100.045 6.80469 100.396C7.01953 100.729 7 101.129 6.74609 101.598C6.16016 102.516 5.48633 104.02 4.72461 106.109C3.98242 108.199 3.38672 110.299 2.9375 112.408C2.50781 114.518 2.44922 116.061 2.76172 117.037C2.76172 117.057 2.77148 117.076 2.79102 117.096C2.81055 117.135 2.82031 117.164 2.82031 117.184C2.83984 117.203 2.86914 117.223 2.9082 117.242C2.92773 117.242 2.9375 117.242 2.9375 117.242C2.9375 117.242 2.94727 117.242 2.9668 117.242C2.98633 117.242 2.99609 117.242 2.99609 117.242C3.60156 117.125 4.33398 116.344 5.19336 114.898C6.05273 113.453 6.88281 111.832 7.68359 110.035C8.50391 108.219 9.1582 106.715 9.64648 105.523C9.91992 104.879 10.1055 104.449 10.2031 104.234C10.418 103.844 10.7109 103.619 11.082 103.561C11.4531 103.482 11.7949 103.551 12.1074 103.766C12.4395 103.961 12.625 104.283 12.6641 104.732C12.6641 104.752 12.6641 104.771 12.6641 104.791C12.6641 104.811 12.6641 104.83 12.6641 104.85C12.6641 104.889 12.6641 104.928 12.6641 104.967C12.6641 104.986 12.6641 105.006 12.6641 105.025C12.625 106.119 12.752 107.477 13.0449 109.098C13.3379 110.699 13.8457 111.881 14.5684 112.643C14.6855 112.721 14.7832 112.77 14.8613 112.789C14.8809 112.789 14.9102 112.789 14.9492 112.789C14.9688 112.789 14.9883 112.789 15.0078 112.789L15.0664 112.76C16.0234 112.486 16.7266 111.598 17.1758 110.094C17.625 108.59 17.8789 106.979 17.9375 105.26C17.0391 103.932 16.8633 102.34 17.4102 100.484C17.5469 100.152 17.752 99.9863 18.0254 99.9863C18.2988 99.9668 18.543 100.084 18.7578 100.338C19.0898 100.885 19.3145 101.646 19.4316 102.623C19.5684 103.6 19.6367 104.605 19.6367 105.641C20.6328 106.422 21.873 106.959 23.3574 107.252C24.8418 107.525 26.2285 107.633 27.5176 107.574C29.0996 107.555 30.6719 107.379 32.2344 107.047C32.4883 106.988 32.7129 107.027 32.9082 107.164C33.1035 107.281 33.2402 107.467 33.3184 107.721ZM55.9062 107.428C56.0234 107.662 56.0332 107.896 55.9355 108.131C55.8574 108.365 55.7012 108.541 55.4668 108.658C50.4668 110.65 45.3691 112.359 40.1738 113.785C39.8809 113.863 39.5684 113.941 39.2363 114.02C38.1816 114.293 37.1074 114.498 36.0137 114.635C34.9395 114.752 33.9922 114.605 33.1719 114.195C32.3711 113.766 31.8438 112.877 31.5898 111.529C31.4141 109.654 31.668 107.848 32.3516 106.109C32.4102 105.953 32.4785 105.768 32.5566 105.553C32.752 104.967 33.0156 104.449 33.3477 104C33.6797 103.531 34.1582 103.414 34.7832 103.648C35.0957 103.805 35.291 104.049 35.3691 104.381C35.4668 104.693 35.4277 104.996 35.252 105.289C34.666 106.363 34.2363 107.75 33.9629 109.449C33.6895 111.129 33.8555 112.535 34.4609 113.668C35.0078 114.137 35.9551 114.244 37.3027 113.99C38.6699 113.717 40.1348 113.287 41.6973 112.701C43.2793 112.115 44.666 111.568 45.8574 111.061C46.5605 110.768 47.1172 110.543 47.5273 110.387C48.7578 109.938 49.9785 109.439 51.1895 108.893C52.4004 108.346 53.582 107.75 54.7344 107.105C54.9492 107.008 55.1641 106.988 55.3789 107.047C55.6133 107.105 55.7891 107.232 55.9062 107.428ZM34.959 100.807C34.4707 100.729 34.1387 100.357 33.9629 99.6934C33.8066 99.0293 33.8066 98.3652 33.9629 97.7012C34.1387 97.0371 34.4707 96.6758 34.959 96.6172C35.4668 96.6758 35.7988 97.0371 35.9551 97.7012C36.1309 98.3652 36.1309 99.0293 35.9551 99.6934C35.7988 100.357 35.4668 100.729 34.959 100.807ZM89.6855 89.6445C89.7051 89.7227 89.7246 89.8008 89.7441 89.8789C89.7441 89.957 89.7344 90.0449 89.7148 90.1426C89.6367 90.4551 89.4707 90.6602 89.2168 90.7578C88.9629 90.8555 88.7188 90.8457 88.4844 90.7285C88.25 90.5918 88.1133 90.3574 88.0742 90.0254C87.5469 89.752 86.9512 89.5664 86.2871 89.4688C86.2871 89.4688 86.2773 89.4688 86.2578 89.4688C85.7891 89.3711 85.3008 89.3027 84.793 89.2637C82.3125 89.0098 79.8027 88.8926 77.2637 88.9121C72.9668 88.9121 68.6699 89.0195 64.373 89.2344C63.5918 90.582 62.7715 91.9102 61.9121 93.2188C61.2676 94.2148 60.5645 95.1914 59.8027 96.1484C59.7441 96.2266 59.666 96.2949 59.5684 96.3535C58.748 98.9707 57.9961 101.607 57.3125 104.264C57.1953 104.713 57.0195 105.309 56.7852 106.051C56.3164 107.613 55.7793 109.557 55.1738 111.881C54.5684 114.205 54.1094 116.607 53.7969 119.088C53.4844 121.588 53.5137 123.854 53.8848 125.885C54.2363 127.936 55.1348 129.439 56.5801 130.396C56.834 130.533 57.1074 130.582 57.4004 130.543C57.6543 130.543 57.8594 130.631 58.0156 130.807C58.1914 130.982 58.2891 131.197 58.3086 131.451C58.3086 131.705 58.2207 131.91 58.0449 132.066C57.8887 132.242 57.6836 132.34 57.4297 132.359C57.2539 132.359 57.0879 132.32 56.9316 132.242C56.1309 131.852 55.4863 131.344 54.998 130.719C54.0215 129.254 53.4453 127.584 53.2695 125.709C53.0742 123.834 53.0254 122.037 53.123 120.318C53.3965 116.178 53.9434 112.066 54.7637 107.984C55.584 103.883 56.5996 99.8398 57.8105 95.8555C57.6543 95.4453 57.7129 95.0547 57.9863 94.6836C58.0645 94.5664 58.1523 94.4492 58.25 94.332C58.2695 94.3125 58.2891 94.2832 58.3086 94.2441C58.8359 92.6426 59.3926 91.041 59.9785 89.4395C58.5918 89.498 57.1074 89.5664 55.5254 89.6445C52.4395 89.7812 49.5586 89.9375 46.8828 90.1133C46.3359 90.1328 45.7988 90.1719 45.2715 90.2305C44.002 90.3477 42.7227 90.377 41.4336 90.3184C41.4141 90.3184 41.3945 90.3184 41.375 90.3184C41.2383 90.2988 41.082 90.2598 40.9062 90.2012C40.8477 90.1816 40.7891 90.1523 40.7305 90.1133C40.6914 90.0938 40.6523 90.0742 40.6133 90.0547C40.5352 90.0156 40.4766 89.957 40.4375 89.8789C40.3398 89.7812 40.2715 89.6641 40.2324 89.5273C40.1934 89.332 40.2031 89.1465 40.2617 88.9707C40.418 88.6191 40.6621 88.4434 40.9941 88.4434C41.3262 88.4434 41.5801 88.6094 41.7559 88.9414C43.2402 89.2734 44.7539 89.4395 46.2969 89.4395C46.4922 89.4395 46.6875 89.4395 46.8828 89.4395C50.0273 89.4395 53.3672 89.3125 56.9023 89.0586C58.0547 89 59.1484 88.9414 60.1836 88.8828C60.7305 87.3594 61.5996 85.2207 62.791 82.4668C64.002 79.7129 65.3301 77.0957 66.7754 74.6152C68.2402 72.1152 69.6074 70.5137 70.877 69.8105C71.2285 69.6543 71.5996 69.6152 71.9902 69.6934C72.3809 69.7715 72.6738 69.9961 72.8691 70.3672C72.9277 70.5039 72.957 70.6211 72.957 70.7188C72.9766 70.8555 72.9863 70.9629 72.9863 71.041C72.9082 71.5879 72.7715 72.1055 72.5762 72.5938C72.5566 72.6719 72.5273 72.7598 72.4883 72.8574C72.293 73.4238 72.0781 73.9805 71.8438 74.5273C69.7344 79.3516 67.3711 84.0391 64.7539 88.5898C65.3984 88.5508 66.0527 88.5117 66.7168 88.4727C71.3457 88.1797 75.877 87.9746 80.3105 87.8574C80.5645 87.8574 80.8477 87.8574 81.1602 87.8574C82.4297 87.8184 83.8359 87.8477 85.3789 87.9453C86.9414 88.0234 88.1426 88.2773 88.9824 88.707C89.1582 88.8047 89.334 88.9707 89.5098 89.2051C89.5488 89.2637 89.5879 89.332 89.627 89.4102C89.6465 89.4883 89.666 89.5664 89.6855 89.6445ZM41.5215 88.8535L41.5801 88.8828C41.5801 88.8828 41.5898 88.8828 41.6094 88.8828C41.5898 88.8633 41.5703 88.8438 41.5508 88.8242C41.5312 88.8242 41.5215 88.8242 41.5215 88.8242C41.502 88.8242 41.4922 88.8242 41.4922 88.8242C41.5117 88.8438 41.5215 88.8535 41.5215 88.8535ZM67.625 77.4863C66.043 80.377 64.6074 83.3457 63.3184 86.3926C65.4668 82.623 67.4395 78.7559 69.2363 74.791C68.6699 75.6699 68.1328 76.5684 67.625 77.4863ZM88.1328 90.084C88.1328 90.084 88.1328 90.0742 88.1328 90.0547C88.1328 90.0742 88.1328 90.0938 88.1328 90.1133C88.1523 90.1133 88.1523 90.1035 88.1328 90.084ZM92.6152 107.018C92.8496 107.174 92.9961 107.379 93.0547 107.633C93.1133 107.887 93.0645 108.131 92.9082 108.365C92.6934 108.639 92.4492 108.873 92.1758 109.068C92.1562 109.088 92.127 109.117 92.0879 109.156C90.584 110.27 88.9824 111.227 87.2832 112.027C85.4277 112.984 83.5039 113.795 81.5117 114.459C80.8281 114.693 80.125 114.85 79.4023 114.928C78.6992 114.986 78.0156 114.879 77.3516 114.605C76.5898 114.234 76.082 113.668 75.8281 112.906C75.5742 112.145 75.4082 111.354 75.3301 110.533C75.252 109.869 75.1348 109.283 74.9785 108.775C74.8418 108.268 74.5586 107.945 74.1289 107.809C73.5039 107.789 72.8203 108.17 72.0781 108.951C71.3359 109.732 70.6133 110.65 69.9102 111.705C69.2266 112.76 68.6406 113.697 68.1523 114.518C67.9375 114.889 67.7617 115.191 67.625 115.426L65.6621 118.736C65.6621 118.736 65.6621 118.746 65.6621 118.766C65.6621 118.766 65.6621 118.775 65.6621 118.795C65.4668 119.088 65.2031 119.264 64.8711 119.322C64.5391 119.381 64.2266 119.312 63.9336 119.117C63.1328 118.434 62.7227 117.242 62.7031 115.543C62.6836 113.824 62.8496 112.008 63.2012 110.094C63.5527 108.18 63.8848 106.598 64.1973 105.348C64.2754 105.055 64.334 104.801 64.373 104.586C63.9824 104.645 63.582 104.635 63.1719 104.557C62.8398 104.479 62.5957 104.312 62.4395 104.059C62.2637 103.785 62.2051 103.482 62.2637 103.15C62.3418 102.838 62.5176 102.594 62.791 102.418C63.0449 102.242 63.3281 102.184 63.6406 102.242C63.8945 102.32 64.1387 102.32 64.373 102.242C64.6074 102.145 64.8418 102.018 65.0762 101.861C65.3105 100.904 65.75 99.3711 66.3945 97.2617C67.0586 95.1523 67.8496 92.8184 68.7676 90.2598C69.7051 87.6816 70.7305 85.2305 71.8438 82.9062C72.957 80.5625 74.0898 78.6875 75.2422 77.2812C76.3945 75.8555 77.5176 75.2402 78.6113 75.4355C78.6504 75.4551 78.6895 75.4648 78.7285 75.4648C79.3926 75.7578 79.7246 76.2852 79.7246 77.0469C79.7246 77.8086 79.6367 78.5117 79.4609 79.1562C79.4414 79.2539 79.4219 79.3516 79.4023 79.4492C78.7578 81.8711 77.9473 84.2344 76.9707 86.5391C76.0137 88.8438 74.959 91.1094 73.8066 93.3359C72.3223 96.3438 70.5156 99.166 68.3867 101.803C67.8594 102.408 67.2637 102.975 66.5996 103.502C66.1504 105.436 65.75 107.389 65.3984 109.361C65.0664 111.314 64.9102 113.268 64.9297 115.221C65.0273 115.064 65.125 114.898 65.2227 114.723C65.8086 113.707 66.5215 112.564 67.3613 111.295C68.2012 110.006 69.1094 108.844 70.0859 107.809C71.082 106.773 72.0977 106.129 73.1328 105.875C74.0117 105.699 74.7637 105.836 75.3887 106.285C76.0137 106.734 76.4238 107.389 76.6191 108.248C76.7363 108.873 76.7852 109.635 76.7656 110.533C76.7461 111.217 76.7656 111.871 76.8242 112.496C76.8828 113.121 77.0488 113.619 77.3223 113.99C77.8496 114.479 78.9336 114.459 80.5742 113.932C82.2148 113.385 84.2559 112.389 86.6973 110.943C88.0254 110.201 89.2461 109.332 90.3594 108.336C90.7305 108.004 91.0332 107.662 91.2676 107.311C91.4238 107.076 91.6289 106.93 91.8828 106.871C92.1367 106.812 92.3809 106.861 92.6152 107.018ZM69.0898 94.5664C68.582 96.168 68.1035 97.7695 67.6543 99.3711C69.373 97.2031 70.877 94.8984 72.166 92.457C73.7285 89.6055 75.1055 86.666 76.2969 83.6387C76.8828 82.1348 77.3809 80.6113 77.791 79.0684C77.791 79.0488 77.791 79.0293 77.791 79.0098C77.9668 78.3652 78.0547 77.7109 78.0547 77.0469C77.3906 77.3008 76.7559 77.8477 76.1504 78.6875C75.5645 79.5273 75.0859 80.2891 74.7148 80.9727C74.6953 81.0117 74.6758 81.0508 74.6562 81.0898C72.3906 85.4062 70.5352 89.8984 69.0898 94.5664ZM65.3398 117.242H65.3691C65.3691 117.242 65.3594 117.242 65.3398 117.242ZM147.898 104.352C147.977 104.469 148.025 104.605 148.045 104.762C148.064 104.898 148.055 105.025 148.016 105.143C147.996 105.221 147.967 105.289 147.928 105.348C147.889 105.387 147.85 105.436 147.811 105.494C147.752 105.533 147.703 105.572 147.664 105.611L147.605 105.641C147.566 105.68 147.537 105.709 147.518 105.729C147.381 105.787 147.264 105.836 147.166 105.875C146.951 105.973 146.746 105.982 146.551 105.904C146.355 105.807 146.209 105.66 146.111 105.465C146.072 105.348 146.053 105.23 146.053 105.113C146.014 105.113 145.975 105.104 145.936 105.084C145.35 104.986 144.754 104.898 144.148 104.82C142.918 104.703 141.688 104.635 140.457 104.615C139.305 104.576 138.152 104.576 137 104.615C136.551 106.627 136.199 108.648 135.945 110.68C135.809 111.734 135.74 112.779 135.74 113.814C135.701 114.83 135.818 115.807 136.092 116.744C136.209 117.057 136.365 117.311 136.561 117.506C136.775 117.682 137.059 117.73 137.41 117.652C137.938 117.594 138.318 117.73 138.553 118.062C138.807 118.375 138.885 118.727 138.787 119.117C138.689 119.527 138.387 119.811 137.879 119.967C135.945 120.045 134.744 119.137 134.275 117.242C134.041 115.875 134.051 114.352 134.305 112.672C134.578 110.992 134.891 109.42 135.242 107.955C135.301 107.74 135.35 107.525 135.389 107.311C135.604 106.412 135.828 105.523 136.062 104.645C134.734 104.684 133.416 104.771 132.107 104.908C129.939 105.104 127.801 105.436 125.691 105.904C124.48 106.158 123.299 106.49 122.146 106.9C120.975 107.291 119.891 107.799 118.895 108.424C118.582 108.58 118.318 108.59 118.104 108.453C117.908 108.297 117.801 108.092 117.781 107.838C117.762 107.584 117.898 107.369 118.191 107.193C120.555 106.178 122.996 105.475 125.516 105.084C127.977 104.635 130.457 104.303 132.957 104.088C134.07 103.99 135.184 103.902 136.297 103.824C136.707 102.262 137.127 100.699 137.557 99.1367C138.865 94.6055 139.988 90.0254 140.926 85.3965C140.945 85.2793 140.975 85.1426 141.014 84.9863C141.15 84.2246 141.297 83.2578 141.453 82.0859C141.629 80.9141 141.688 79.8203 141.629 78.8047C141.57 77.7891 141.297 77.125 140.809 76.8125C140.73 76.793 140.623 76.7832 140.486 76.7832C140.369 76.7637 140.262 76.7637 140.164 76.7832L139.988 76.8125C139.93 76.832 139.861 76.8516 139.783 76.8711C139.744 76.8906 139.705 76.9102 139.666 76.9297C137.791 77.8086 135.662 79.6934 133.279 82.584C130.916 85.4746 128.543 88.8047 126.16 92.5742C123.777 96.3438 121.619 99.9766 119.686 103.473C117.752 106.969 116.287 109.752 115.291 111.822C113.338 115.631 111.629 119.527 110.164 123.512C109.949 124 109.637 124.264 109.227 124.303C108.816 124.342 108.465 124.215 108.172 123.922C107.898 123.629 107.83 123.229 107.967 122.721C109.549 118.678 111.355 114.742 113.387 110.914C115.418 107.086 117.547 103.307 119.773 99.5762C123.074 93.9902 126.717 88.6289 130.701 83.4922C130.779 83.4141 130.848 83.3359 130.906 83.2578C132 81.8711 133.27 80.4355 134.715 78.9512C136.18 77.4473 137.703 76.373 139.285 75.7285C139.324 75.7285 139.363 75.7188 139.402 75.6992C139.5 75.6602 139.607 75.6309 139.725 75.6113C140.975 75.4355 141.805 75.748 142.215 76.5488C142.625 77.3496 142.801 78.3164 142.742 79.4492C142.703 80.582 142.605 81.5586 142.449 82.3789C141.883 85.4648 141.16 88.5117 140.281 91.5195C140.125 92.1641 139.959 92.7988 139.783 93.4238C139.627 93.9902 139.471 94.5566 139.314 95.123C138.553 97.9941 137.84 100.875 137.176 103.766C139.52 103.629 141.863 103.58 144.207 103.619C144.344 103.619 144.48 103.619 144.617 103.619C145.477 103.619 146.336 103.717 147.195 103.912C147.293 103.932 147.41 103.971 147.547 104.029C147.645 104.088 147.732 104.156 147.811 104.234C147.83 104.254 147.85 104.273 147.869 104.293C147.889 104.312 147.898 104.332 147.898 104.352ZM183.816 123.951C184.207 124.146 184.412 124.42 184.432 124.771C184.451 125.123 184.334 125.416 184.08 125.65C183.826 125.885 183.484 125.934 183.055 125.797C180.086 124.039 177.01 122.477 173.826 121.109C170.291 119.625 166.531 118.336 162.547 117.242C158.582 116.129 154.617 115.455 150.652 115.221C149.422 118.795 148.455 122.301 147.752 125.738C147.635 126.246 147.381 126.559 146.99 126.676C146.6 126.793 146.229 126.734 145.877 126.5C145.545 126.285 145.398 125.914 145.438 125.387C145.438 125.367 145.438 125.357 145.438 125.357C145.457 125.338 145.467 125.328 145.467 125.328C145.467 125.289 145.467 125.26 145.467 125.24C145.467 125.201 145.477 125.172 145.496 125.152C146.121 121.812 146.844 118.492 147.664 115.191C146.629 115.504 145.584 115.768 144.529 115.982C144.08 116.041 143.719 115.914 143.445 115.602C143.172 115.289 143.084 114.918 143.182 114.488C143.318 114 143.592 113.678 144.002 113.521C144.432 113.365 144.861 113.297 145.291 113.316C145.369 113.316 145.457 113.316 145.555 113.316C145.574 113.316 145.594 113.316 145.613 113.316C146.512 113.082 147.42 112.799 148.338 112.467C149.002 109.83 149.686 107.193 150.389 104.557C151.502 100.436 152.557 96.3047 153.553 92.1641C153.982 90.3281 154.363 88.4922 154.695 86.6562C154.852 85.7188 154.969 84.8008 155.047 83.9023C155.066 83.7852 155.076 83.668 155.076 83.5508C155.154 82.8672 155.115 82.2129 154.959 81.5879C154.803 81.2754 154.773 80.9727 154.871 80.6797C154.969 80.3672 155.164 80.1328 155.457 79.9766C155.828 79.8008 156.18 79.8008 156.512 79.9766C156.863 80.1328 157.088 80.416 157.186 80.8262C157.381 81.8613 157.381 82.877 157.186 83.873C157.166 83.9707 157.146 84.0684 157.127 84.166C156.971 85.1426 156.785 86.0898 156.57 87.0078C156.121 88.8828 155.652 90.7383 155.164 92.5742C154.93 93.4336 154.695 94.293 154.461 95.1523C153.387 99.1562 152.342 103.16 151.326 107.164C153.143 102.984 155.193 98.9219 157.479 94.9766C159.764 91.0312 162.332 87.291 165.184 83.7559C166.316 82.3496 167.693 80.8652 169.314 79.3027C170.955 77.7402 172.723 76.4902 174.617 75.5527C176.531 74.5957 178.455 74.3418 180.389 74.791L180.682 74.8789L180.945 74.9961C181.141 75.0742 181.326 75.1523 181.502 75.2305C182.869 76.0117 183.631 77.0957 183.787 78.4824C183.963 79.8691 183.816 81.2461 183.348 82.6133C182.156 85.8555 180.408 88.9707 178.104 91.959C175.799 94.9277 173.416 97.623 170.955 100.045C168.182 102.76 165.223 105.279 162.078 107.604C158.934 109.908 155.594 111.881 152.059 113.521C151.746 113.658 151.434 113.785 151.121 113.902C156.766 114.879 162.303 116.246 167.732 118.004C173.182 119.742 178.543 121.725 183.816 123.951ZM167 85.25C161.121 92.6523 156.229 101.158 152.322 110.768C157.674 108.072 162.664 104.518 167.293 100.104C171.922 95.6699 175.75 91.2363 178.777 86.8027C179.285 86.0801 179.91 84.9473 180.652 83.4043C181.395 81.8613 181.883 80.3477 182.117 78.8633C182.352 77.3594 181.961 76.3145 180.945 75.7285C179.305 75.3184 177.615 75.6406 175.877 76.6953C174.158 77.75 172.547 79.0684 171.043 80.6504C169.539 82.2324 168.299 83.6289 167.322 84.8398C167.205 84.9766 167.098 85.1133 167 85.25ZM235.818 73.9121C235.955 74.0293 236.053 74.1953 236.111 74.4102C236.189 74.6055 236.219 74.8008 236.199 74.9961C236.16 75.2305 236.082 75.4355 235.965 75.6113C235.828 75.8262 235.672 76.0117 235.496 76.168C235.477 76.207 235.447 76.2461 235.408 76.2852C235.154 76.5195 234.861 76.6367 234.529 76.6367C234.217 76.6367 233.943 76.5195 233.709 76.2852C233.436 75.9922 233.318 75.6699 233.357 75.3184C232.732 75.2598 232.107 75.2207 231.482 75.2012C227.674 75.2207 223.875 75.4453 220.086 75.875C216.316 76.3047 212.547 76.8027 208.777 77.3691C206.766 77.7012 204.754 78.0527 202.742 78.4238C201.414 80.8848 200.252 83.4434 199.256 86.0996C198.436 88.1895 197.371 91.0605 196.062 94.7129C194.773 98.3652 193.533 102.164 192.342 106.109C191.17 110.055 190.379 113.521 189.969 116.51C189.559 119.479 189.832 121.334 190.789 122.076C191.16 122.369 191.326 122.711 191.287 123.102C191.248 123.492 191.072 123.795 190.76 124.01C190.447 124.244 190.057 124.273 189.588 124.098C189.334 123.941 189.139 123.756 189.002 123.541C188.982 123.502 188.963 123.473 188.943 123.453C188.943 123.453 188.943 123.443 188.943 123.424L188.885 123.336C188.67 122.75 188.582 122.184 188.621 121.637C188.641 121.051 188.68 120.475 188.738 119.908C189.168 116.666 189.705 113.453 190.35 110.27C192.049 101.812 194.246 93.4727 196.941 85.25C197.625 83.1797 198.387 81.1191 199.227 79.0684C194.637 79.9473 190.105 81.0703 185.633 82.4375C185.574 82.457 185.516 82.4766 185.457 82.4961C184.734 82.7305 184.041 83.0039 183.377 83.3164C183.338 83.3555 183.289 83.3848 183.23 83.4043C183.016 83.7168 182.732 83.8828 182.381 83.9023C182.029 83.9219 181.717 83.8242 181.443 83.6094C181.189 83.375 181.082 83.0332 181.121 82.584C181.121 82.5254 181.131 82.4668 181.15 82.4082C181.17 82.3496 181.189 82.3008 181.209 82.2617C181.248 82.1445 181.316 82.0371 181.414 81.9395C181.434 81.9004 181.463 81.8613 181.502 81.8223C181.99 81.4512 182.527 81.2266 183.113 81.1484C183.23 81.1094 183.348 81.0703 183.465 81.0312C184.051 80.9141 184.627 80.7969 185.193 80.6797C189.295 79.957 194.09 79.1562 199.578 78.2773C199.91 77.5352 200.262 76.8027 200.633 76.0801C201.199 74.9277 201.961 73.9023 202.918 73.0039C203.27 72.7109 203.66 72.584 204.09 72.623C204.52 72.6621 204.881 72.8477 205.174 73.1797C205.467 73.5703 205.584 73.9902 205.525 74.4395C205.467 74.8887 205.242 75.25 204.852 75.5234C204.207 76.1094 203.66 76.793 203.211 77.5742C203.211 77.5938 203.201 77.6133 203.182 77.6328C203.182 77.6523 203.172 77.6719 203.152 77.6914C205.203 77.3594 207.049 77.0566 208.689 76.7832C210.76 76.4512 212.83 76.1094 214.9 75.7578C220.662 74.7422 226.463 73.9316 232.303 73.3262C232.869 73.2871 233.475 73.2773 234.119 73.2969C234.666 73.2969 235.184 73.4531 235.672 73.7656C235.73 73.8047 235.779 73.8535 235.818 73.9121Z" fill="#121212"/>
</svg>
