<svg width="237" height="64" viewBox="0 0 237 64" fill="none" xmlns="http://www.w3.org/2000/svg">
<path d="M33.3184 38.7207C33.3574 39.0137 33.2891 39.2676 33.1133 39.4824C32.9375 39.6973 32.7031 39.8047 32.4102 39.8047C31.9805 39.8047 31.5508 39.7949 31.1211 39.7754C29.2852 39.7754 27.4395 39.6875 25.584 39.5117C23.7285 39.3164 21.9609 38.8574 20.2812 38.1348C20.0273 38.0371 19.793 37.9199 19.5781 37.7832C19.5586 38.3301 19.5195 38.7988 19.4609 39.1895C19.3438 40.5176 19.002 41.8555 18.4355 43.2031C17.8691 44.5508 16.8828 45.4297 15.4766 45.8398L15.3301 45.8984H15.125C13.7773 45.8984 12.7031 45.2051 11.9023 43.8184C11.1211 42.4121 10.6035 40.8887 10.3496 39.248C10.0762 39.7559 9.64648 40.5762 9.06055 41.709C8.5332 42.7051 8.01562 43.6914 7.50781 44.668C7 45.625 6.61914 46.2988 6.36523 46.6895C6.30664 46.7871 6.23828 46.8848 6.16016 46.9824C5.78906 47.6074 5.32031 48.2227 4.75391 48.8281C4.20703 49.4336 3.58203 49.7559 2.87891 49.7949C2.82031 49.7949 2.75195 49.7852 2.67383 49.7656C1.52148 49.5312 0.886719 48.5938 0.769531 46.9531C0.632812 45.293 0.808594 43.3789 1.29688 41.2109C1.76562 39.0234 2.3418 37.002 3.02539 35.1465C3.72852 33.2715 4.32422 31.9824 4.8125 31.2793C5.14453 30.8691 5.50586 30.7031 5.89648 30.7812C6.30664 30.8398 6.60938 31.0449 6.80469 31.3965C7.01953 31.7285 7 32.1289 6.74609 32.5977C6.16016 33.5156 5.48633 35.0195 4.72461 37.1094C3.98242 39.1992 3.38672 41.2988 2.9375 43.4082C2.50781 45.5176 2.44922 47.0605 2.76172 48.0371C2.76172 48.0566 2.77148 48.0762 2.79102 48.0957C2.81055 48.1348 2.82031 48.1641 2.82031 48.1836C2.83984 48.2031 2.86914 48.2227 2.9082 48.2422C2.92773 48.2422 2.9375 48.2422 2.9375 48.2422C2.9375 48.2422 2.94727 48.2422 2.9668 48.2422C2.98633 48.2422 2.99609 48.2422 2.99609 48.2422C3.60156 48.125 4.33398 47.3438 5.19336 45.8984C6.05273 44.4531 6.88281 42.832 7.68359 41.0352C8.50391 39.2188 9.1582 37.7148 9.64648 36.5234C9.91992 35.8789 10.1055 35.4492 10.2031 35.2344C10.418 34.8438 10.7109 34.6191 11.082 34.5605C11.4531 34.4824 11.7949 34.5508 12.1074 34.7656C12.4395 34.9609 12.625 35.2832 12.6641 35.7324C12.6641 35.752 12.6641 35.7715 12.6641 35.791C12.6641 35.8105 12.6641 35.8301 12.6641 35.8496C12.6641 35.8887 12.6641 35.9277 12.6641 35.9668C12.6641 35.9863 12.6641 36.0059 12.6641 36.0254C12.625 37.1191 12.752 38.4766 13.0449 40.0977C13.3379 41.6992 13.8457 42.8809 14.5684 43.6426C14.6855 43.7207 14.7832 43.7695 14.8613 43.7891C14.8809 43.7891 14.9102 43.7891 14.9492 43.7891C14.9688 43.7891 14.9883 43.7891 15.0078 43.7891L15.0664 43.7598C16.0234 43.4863 16.7266 42.5977 17.1758 41.0938C17.625 39.5898 17.8789 37.9785 17.9375 36.2598C17.0391 34.9316 16.8633 33.3398 17.4102 31.4844C17.5469 31.1523 17.752 30.9863 18.0254 30.9863C18.2988 30.9668 18.543 31.084 18.7578 31.3379C19.0898 31.8848 19.3145 32.6465 19.4316 33.623C19.5684 34.5996 19.6367 35.6055 19.6367 36.6406C20.6328 37.4219 21.873 37.959 23.3574 38.252C24.8418 38.5254 26.2285 38.6328 27.5176 38.5742C29.0996 38.5547 30.6719 38.3789 32.2344 38.0469C32.4883 37.9883 32.7129 38.0273 32.9082 38.1641C33.1035 38.2812 33.2402 38.4668 33.3184 38.7207ZM55.9062 38.4277C56.0234 38.6621 56.0332 38.8965 55.9355 39.1309C55.8574 39.3652 55.7012 39.541 55.4668 39.6582C50.4668 41.6504 45.3691 43.3594 40.1738 44.7852C39.8809 44.8633 39.5684 44.9414 39.2363 45.0195C38.1816 45.293 37.1074 45.498 36.0137 45.6348C34.9395 45.752 33.9922 45.6055 33.1719 45.1953C32.3711 44.7656 31.8438 43.877 31.5898 42.5293C31.4141 40.6543 31.668 38.8477 32.3516 37.1094C32.4102 36.9531 32.4785 36.7676 32.5566 36.5527C32.752 35.9668 33.0156 35.4492 33.3477 35C33.6797 34.5312 34.1582 34.4141 34.7832 34.6484C35.0957 34.8047 35.291 35.0488 35.3691 35.3809C35.4668 35.6934 35.4277 35.9961 35.252 36.2891C34.666 37.3633 34.2363 38.75 33.9629 40.4492C33.6895 42.1289 33.8555 43.5352 34.4609 44.668C35.0078 45.1367 35.9551 45.2441 37.3027 44.9902C38.6699 44.7168 40.1348 44.2871 41.6973 43.7012C43.2793 43.1152 44.666 42.5684 45.8574 42.0605C46.5605 41.7676 47.1172 41.543 47.5273 41.3867C48.7578 40.9375 49.9785 40.4395 51.1895 39.8926C52.4004 39.3457 53.582 38.75 54.7344 38.1055C54.9492 38.0078 55.1641 37.9883 55.3789 38.0469C55.6133 38.1055 55.7891 38.2324 55.9062 38.4277ZM34.959 31.8066C34.4707 31.7285 34.1387 31.3574 33.9629 30.6934C33.8066 30.0293 33.8066 29.3652 33.9629 28.7012C34.1387 28.0371 34.4707 27.6758 34.959 27.6172C35.4668 27.6758 35.7988 28.0371 35.9551 28.7012C36.1309 29.3652 36.1309 30.0293 35.9551 30.6934C35.7988 31.3574 35.4668 31.7285 34.959 31.8066ZM89.6855 20.6445C89.7051 20.7227 89.7246 20.8008 89.7441 20.8789C89.7441 20.957 89.7344 21.0449 89.7148 21.1426C89.6367 21.4551 89.4707 21.6602 89.2168 21.7578C88.9629 21.8555 88.7188 21.8457 88.4844 21.7285C88.25 21.5918 88.1133 21.3574 88.0742 21.0254C87.5469 20.752 86.9512 20.5664 86.2871 20.4688C86.2871 20.4688 86.2773 20.4688 86.2578 20.4688C85.7891 20.3711 85.3008 20.3027 84.793 20.2637C82.3125 20.0098 79.8027 19.8926 77.2637 19.9121C72.9668 19.9121 68.6699 20.0195 64.373 20.2344C63.5918 21.582 62.7715 22.9102 61.9121 24.2188C61.2676 25.2148 60.5645 26.1914 59.8027 27.1484C59.7441 27.2266 59.666 27.2949 59.5684 27.3535C58.748 29.9707 57.9961 32.6074 57.3125 35.2637C57.1953 35.7129 57.0195 36.3086 56.7852 37.0508C56.3164 38.6133 55.7793 40.5566 55.1738 42.8809C54.5684 45.2051 54.1094 47.6074 53.7969 50.0879C53.4844 52.5879 53.5137 54.8535 53.8848 56.8848C54.2363 58.9355 55.1348 60.4395 56.5801 61.3965C56.834 61.5332 57.1074 61.582 57.4004 61.543C57.6543 61.543 57.8594 61.6309 58.0156 61.8066C58.1914 61.9824 58.2891 62.1973 58.3086 62.4512C58.3086 62.7051 58.2207 62.9102 58.0449 63.0664C57.8887 63.2422 57.6836 63.3398 57.4297 63.3594C57.2539 63.3594 57.0879 63.3203 56.9316 63.2422C56.1309 62.8516 55.4863 62.3438 54.998 61.7188C54.0215 60.2539 53.4453 58.584 53.2695 56.709C53.0742 54.834 53.0254 53.0371 53.123 51.3184C53.3965 47.1777 53.9434 43.0664 54.7637 38.9844C55.584 34.8828 56.5996 30.8398 57.8105 26.8555C57.6543 26.4453 57.7129 26.0547 57.9863 25.6836C58.0645 25.5664 58.1523 25.4492 58.25 25.332C58.2695 25.3125 58.2891 25.2832 58.3086 25.2441C58.8359 23.6426 59.3926 22.041 59.9785 20.4395C58.5918 20.498 57.1074 20.5664 55.5254 20.6445C52.4395 20.7812 49.5586 20.9375 46.8828 21.1133C46.3359 21.1328 45.7988 21.1719 45.2715 21.2305C44.002 21.3477 42.7227 21.377 41.4336 21.3184C41.4141 21.3184 41.3945 21.3184 41.375 21.3184C41.2383 21.2988 41.082 21.2598 40.9062 21.2012C40.8477 21.1816 40.7891 21.1523 40.7305 21.1133C40.6914 21.0938 40.6523 21.0742 40.6133 21.0547C40.5352 21.0156 40.4766 20.957 40.4375 20.8789C40.3398 20.7812 40.2715 20.6641 40.2324 20.5273C40.1934 20.332 40.2031 20.1465 40.2617 19.9707C40.418 19.6191 40.6621 19.4434 40.9941 19.4434C41.3262 19.4434 41.5801 19.6094 41.7559 19.9414C43.2402 20.2734 44.7539 20.4395 46.2969 20.4395C46.4922 20.4395 46.6875 20.4395 46.8828 20.4395C50.0273 20.4395 53.3672 20.3125 56.9023 20.0586C58.0547 20 59.1484 19.9414 60.1836 19.8828C60.7305 18.3594 61.5996 16.2207 62.791 13.4668C64.002 10.7129 65.3301 8.0957 66.7754 5.61523C68.2402 3.11523 69.6074 1.51367 70.877 0.810547C71.2285 0.654297 71.5996 0.615234 71.9902 0.693359C72.3809 0.771484 72.6738 0.996094 72.8691 1.36719C72.9277 1.50391 72.957 1.62109 72.957 1.71875C72.9766 1.85547 72.9863 1.96289 72.9863 2.04102C72.9082 2.58789 72.7715 3.10547 72.5762 3.59375C72.5566 3.67188 72.5273 3.75977 72.4883 3.85742C72.293 4.42383 72.0781 4.98047 71.8438 5.52734C69.7344 10.3516 67.3711 15.0391 64.7539 19.5898C65.3984 19.5508 66.0527 19.5117 66.7168 19.4727C71.3457 19.1797 75.877 18.9746 80.3105 18.8574C80.5645 18.8574 80.8477 18.8574 81.1602 18.8574C82.4297 18.8184 83.8359 18.8477 85.3789 18.9453C86.9414 19.0234 88.1426 19.2773 88.9824 19.707C89.1582 19.8047 89.334 19.9707 89.5098 20.2051C89.5488 20.2637 89.5879 20.332 89.627 20.4102C89.6465 20.4883 89.666 20.5664 89.6855 20.6445ZM41.5215 19.8535L41.5801 19.8828C41.5801 19.8828 41.5898 19.8828 41.6094 19.8828C41.5898 19.8633 41.5703 19.8438 41.5508 19.8242C41.5312 19.8242 41.5215 19.8242 41.5215 19.8242C41.502 19.8242 41.4922 19.8242 41.4922 19.8242C41.5117 19.8438 41.5215 19.8535 41.5215 19.8535ZM67.625 8.48633C66.043 11.377 64.6074 14.3457 63.3184 17.3926C65.4668 13.623 67.4395 9.75586 69.2363 5.79102C68.6699 6.66992 68.1328 7.56836 67.625 8.48633ZM88.1328 21.084C88.1328 21.084 88.1328 21.0742 88.1328 21.0547C88.1328 21.0742 88.1328 21.0938 88.1328 21.1133C88.1523 21.1133 88.1523 21.1035 88.1328 21.084ZM92.6152 38.0176C92.8496 38.1738 92.9961 38.3789 93.0547 38.6328C93.1133 38.8867 93.0645 39.1309 92.9082 39.3652C92.6934 39.6387 92.4492 39.873 92.1758 40.0684C92.1562 40.0879 92.127 40.1172 92.0879 40.1562C90.584 41.2695 88.9824 42.2266 87.2832 43.0273C85.4277 43.9844 83.5039 44.7949 81.5117 45.459C80.8281 45.6934 80.125 45.8496 79.4023 45.9277C78.6992 45.9863 78.0156 45.8789 77.3516 45.6055C76.5898 45.2344 76.082 44.668 75.8281 43.9062C75.5742 43.1445 75.4082 42.3535 75.3301 41.5332C75.252 40.8691 75.1348 40.2832 74.9785 39.7754C74.8418 39.2676 74.5586 38.9453 74.1289 38.8086C73.5039 38.7891 72.8203 39.1699 72.0781 39.9512C71.3359 40.7324 70.6133 41.6504 69.9102 42.7051C69.2266 43.7598 68.6406 44.6973 68.1523 45.5176C67.9375 45.8887 67.7617 46.1914 67.625 46.4258L65.6621 49.7363C65.6621 49.7363 65.6621 49.7461 65.6621 49.7656C65.6621 49.7656 65.6621 49.7754 65.6621 49.7949C65.4668 50.0879 65.2031 50.2637 64.8711 50.3223C64.5391 50.3809 64.2266 50.3125 63.9336 50.1172C63.1328 49.4336 62.7227 48.2422 62.7031 46.543C62.6836 44.8242 62.8496 43.0078 63.2012 41.0938C63.5527 39.1797 63.8848 37.5977 64.1973 36.3477C64.2754 36.0547 64.334 35.8008 64.373 35.5859C63.9824 35.6445 63.582 35.6348 63.1719 35.5566C62.8398 35.4785 62.5957 35.3125 62.4395 35.0586C62.2637 34.7852 62.2051 34.4824 62.2637 34.1504C62.3418 33.8379 62.5176 33.5938 62.791 33.418C63.0449 33.2422 63.3281 33.1836 63.6406 33.2422C63.8945 33.3203 64.1387 33.3203 64.373 33.2422C64.6074 33.1445 64.8418 33.0176 65.0762 32.8613C65.3105 31.9043 65.75 30.3711 66.3945 28.2617C67.0586 26.1523 67.8496 23.8184 68.7676 21.2598C69.7051 18.6816 70.7305 16.2305 71.8438 13.9062C72.957 11.5625 74.0898 9.6875 75.2422 8.28125C76.3945 6.85547 77.5176 6.24023 78.6113 6.43555C78.6504 6.45508 78.6895 6.46484 78.7285 6.46484C79.3926 6.75781 79.7246 7.28516 79.7246 8.04688C79.7246 8.80859 79.6367 9.51172 79.4609 10.1562C79.4414 10.2539 79.4219 10.3516 79.4023 10.4492C78.7578 12.8711 77.9473 15.2344 76.9707 17.5391C76.0137 19.8438 74.959 22.1094 73.8066 24.3359C72.3223 27.3438 70.5156 30.166 68.3867 32.8027C67.8594 33.4082 67.2637 33.9746 66.5996 34.502C66.1504 36.4355 65.75 38.3887 65.3984 40.3613C65.0664 42.3145 64.9102 44.2676 64.9297 46.2207C65.0273 46.0645 65.125 45.8984 65.2227 45.7227C65.8086 44.707 66.5215 43.5645 67.3613 42.2949C68.2012 41.0059 69.1094 39.8438 70.0859 38.8086C71.082 37.7734 72.0977 37.1289 73.1328 36.875C74.0117 36.6992 74.7637 36.8359 75.3887 37.2852C76.0137 37.7344 76.4238 38.3887 76.6191 39.248C76.7363 39.873 76.7852 40.6348 76.7656 41.5332C76.7461 42.2168 76.7656 42.8711 76.8242 43.4961C76.8828 44.1211 77.0488 44.6191 77.3223 44.9902C77.8496 45.4785 78.9336 45.459 80.5742 44.9316C82.2148 44.3848 84.2559 43.3887 86.6973 41.9434C88.0254 41.2012 89.2461 40.332 90.3594 39.3359C90.7305 39.0039 91.0332 38.6621 91.2676 38.3105C91.4238 38.0762 91.6289 37.9297 91.8828 37.8711C92.1367 37.8125 92.3809 37.8613 92.6152 38.0176ZM69.0898 25.5664C68.582 27.168 68.1035 28.7695 67.6543 30.3711C69.373 28.2031 70.877 25.8984 72.166 23.457C73.7285 20.6055 75.1055 17.666 76.2969 14.6387C76.8828 13.1348 77.3809 11.6113 77.791 10.0684C77.791 10.0488 77.791 10.0293 77.791 10.0098C77.9668 9.36523 78.0547 8.71094 78.0547 8.04688C77.3906 8.30078 76.7559 8.84766 76.1504 9.6875C75.5645 10.5273 75.0859 11.2891 74.7148 11.9727C74.6953 12.0117 74.6758 12.0508 74.6562 12.0898C72.3906 16.4062 70.5352 20.8984 69.0898 25.5664ZM65.3398 48.2422H65.3691C65.3691 48.2422 65.3594 48.2422 65.3398 48.2422ZM147.898 35.3516C147.977 35.4688 148.025 35.6055 148.045 35.7617C148.064 35.8984 148.055 36.0254 148.016 36.1426C147.996 36.2207 147.967 36.2891 147.928 36.3477C147.889 36.3867 147.85 36.4355 147.811 36.4941C147.752 36.5332 147.703 36.5723 147.664 36.6113L147.605 36.6406C147.566 36.6797 147.537 36.709 147.518 36.7285C147.381 36.7871 147.264 36.8359 147.166 36.875C146.951 36.9727 146.746 36.9824 146.551 36.9043C146.355 36.8066 146.209 36.6602 146.111 36.4648C146.072 36.3477 146.053 36.2305 146.053 36.1133C146.014 36.1133 145.975 36.1035 145.936 36.084C145.35 35.9863 144.754 35.8984 144.148 35.8203C142.918 35.7031 141.688 35.6348 140.457 35.6152C139.305 35.5762 138.152 35.5762 137 35.6152C136.551 37.627 136.199 39.6484 135.945 41.6797C135.809 42.7344 135.74 43.7793 135.74 44.8145C135.701 45.8301 135.818 46.8066 136.092 47.7441C136.209 48.0566 136.365 48.3105 136.561 48.5059C136.775 48.6816 137.059 48.7305 137.41 48.6523C137.938 48.5938 138.318 48.7305 138.553 49.0625C138.807 49.375 138.885 49.7266 138.787 50.1172C138.689 50.5273 138.387 50.8105 137.879 50.9668C135.945 51.0449 134.744 50.1367 134.275 48.2422C134.041 46.875 134.051 45.3516 134.305 43.6719C134.578 41.9922 134.891 40.4199 135.242 38.9551C135.301 38.7402 135.35 38.5254 135.389 38.3105C135.604 37.4121 135.828 36.5234 136.062 35.6445C134.734 35.6836 133.416 35.7715 132.107 35.9082C129.939 36.1035 127.801 36.4355 125.691 36.9043C124.48 37.1582 123.299 37.4902 122.146 37.9004C120.975 38.291 119.891 38.7988 118.895 39.4238C118.582 39.5801 118.318 39.5898 118.104 39.4531C117.908 39.2969 117.801 39.0918 117.781 38.8379C117.762 38.584 117.898 38.3691 118.191 38.1934C120.555 37.1777 122.996 36.4746 125.516 36.084C127.977 35.6348 130.457 35.3027 132.957 35.0879C134.07 34.9902 135.184 34.9023 136.297 34.8242C136.707 33.2617 137.127 31.6992 137.557 30.1367C138.865 25.6055 139.988 21.0254 140.926 16.3965C140.945 16.2793 140.975 16.1426 141.014 15.9863C141.15 15.2246 141.297 14.2578 141.453 13.0859C141.629 11.9141 141.688 10.8203 141.629 9.80469C141.57 8.78906 141.297 8.125 140.809 7.8125C140.73 7.79297 140.623 7.7832 140.486 7.7832C140.369 7.76367 140.262 7.76367 140.164 7.7832L139.988 7.8125C139.93 7.83203 139.861 7.85156 139.783 7.87109C139.744 7.89063 139.705 7.91016 139.666 7.92969C137.791 8.80859 135.662 10.6934 133.279 13.584C130.916 16.4746 128.543 19.8047 126.16 23.5742C123.777 27.3438 121.619 30.9766 119.686 34.4727C117.752 37.9688 116.287 40.752 115.291 42.8223C113.338 46.6309 111.629 50.5273 110.164 54.5117C109.949 55 109.637 55.2637 109.227 55.3027C108.816 55.3418 108.465 55.2148 108.172 54.9219C107.898 54.6289 107.83 54.2285 107.967 53.7207C109.549 49.6777 111.355 45.7422 113.387 41.9141C115.418 38.0859 117.547 34.3066 119.773 30.5762C123.074 24.9902 126.717 19.6289 130.701 14.4922C130.779 14.4141 130.848 14.3359 130.906 14.2578C132 12.8711 133.27 11.4355 134.715 9.95117C136.18 8.44727 137.703 7.37305 139.285 6.72852C139.324 6.72852 139.363 6.71875 139.402 6.69922C139.5 6.66016 139.607 6.63086 139.725 6.61133C140.975 6.43555 141.805 6.74805 142.215 7.54883C142.625 8.34961 142.801 9.31641 142.742 10.4492C142.703 11.582 142.605 12.5586 142.449 13.3789C141.883 16.4648 141.16 19.5117 140.281 22.5195C140.125 23.1641 139.959 23.7988 139.783 24.4238C139.627 24.9902 139.471 25.5566 139.314 26.123C138.553 28.9941 137.84 31.875 137.176 34.7656C139.52 34.6289 141.863 34.5801 144.207 34.6191C144.344 34.6191 144.48 34.6191 144.617 34.6191C145.477 34.6191 146.336 34.7168 147.195 34.9121C147.293 34.9316 147.41 34.9707 147.547 35.0293C147.645 35.0879 147.732 35.1562 147.811 35.2344C147.83 35.2539 147.85 35.2734 147.869 35.293C147.889 35.3125 147.898 35.332 147.898 35.3516ZM183.816 54.9512C184.207 55.1465 184.412 55.4199 184.432 55.7715C184.451 56.123 184.334 56.416 184.08 56.6504C183.826 56.8848 183.484 56.9336 183.055 56.7969C180.086 55.0391 177.01 53.4766 173.826 52.1094C170.291 50.625 166.531 49.3359 162.547 48.2422C158.582 47.1289 154.617 46.4551 150.652 46.2207C149.422 49.7949 148.455 53.3008 147.752 56.7383C147.635 57.2461 147.381 57.5586 146.99 57.6758C146.6 57.793 146.229 57.7344 145.877 57.5C145.545 57.2852 145.398 56.9141 145.438 56.3867C145.438 56.3672 145.438 56.3574 145.438 56.3574C145.457 56.3379 145.467 56.3281 145.467 56.3281C145.467 56.2891 145.467 56.2598 145.467 56.2402C145.467 56.2012 145.477 56.1719 145.496 56.1523C146.121 52.8125 146.844 49.4922 147.664 46.1914C146.629 46.5039 145.584 46.7676 144.529 46.9824C144.08 47.041 143.719 46.9141 143.445 46.6016C143.172 46.2891 143.084 45.918 143.182 45.4883C143.318 45 143.592 44.6777 144.002 44.5215C144.432 44.3652 144.861 44.2969 145.291 44.3164C145.369 44.3164 145.457 44.3164 145.555 44.3164C145.574 44.3164 145.594 44.3164 145.613 44.3164C146.512 44.082 147.42 43.7988 148.338 43.4668C149.002 40.8301 149.686 38.1934 150.389 35.5566C151.502 31.4355 152.557 27.3047 153.553 23.1641C153.982 21.3281 154.363 19.4922 154.695 17.6562C154.852 16.7188 154.969 15.8008 155.047 14.9023C155.066 14.7852 155.076 14.668 155.076 14.5508C155.154 13.8672 155.115 13.2129 154.959 12.5879C154.803 12.2754 154.773 11.9727 154.871 11.6797C154.969 11.3672 155.164 11.1328 155.457 10.9766C155.828 10.8008 156.18 10.8008 156.512 10.9766C156.863 11.1328 157.088 11.416 157.186 11.8262C157.381 12.8613 157.381 13.877 157.186 14.873C157.166 14.9707 157.146 15.0684 157.127 15.166C156.971 16.1426 156.785 17.0898 156.57 18.0078C156.121 19.8828 155.652 21.7383 155.164 23.5742C154.93 24.4336 154.695 25.293 154.461 26.1523C153.387 30.1562 152.342 34.1602 151.326 38.1641C153.143 33.9844 155.193 29.9219 157.479 25.9766C159.764 22.0312 162.332 18.291 165.184 14.7559C166.316 13.3496 167.693 11.8652 169.314 10.3027C170.955 8.74023 172.723 7.49023 174.617 6.55273C176.531 5.5957 178.455 5.3418 180.389 5.79102L180.682 5.87891L180.945 5.99609C181.141 6.07422 181.326 6.15234 181.502 6.23047C182.869 7.01172 183.631 8.0957 183.787 9.48242C183.963 10.8691 183.816 12.2461 183.348 13.6133C182.156 16.8555 180.408 19.9707 178.104 22.959C175.799 25.9277 173.416 28.623 170.955 31.0449C168.182 33.7598 165.223 36.2793 162.078 38.6035C158.934 40.9082 155.594 42.8809 152.059 44.5215C151.746 44.6582 151.434 44.7852 151.121 44.9023C156.766 45.8789 162.303 47.2461 167.732 49.0039C173.182 50.7422 178.543 52.7246 183.816 54.9512ZM167 16.25C161.121 23.6523 156.229 32.1582 152.322 41.7676C157.674 39.0723 162.664 35.5176 167.293 31.1035C171.922 26.6699 175.75 22.2363 178.777 17.8027C179.285 17.0801 179.91 15.9473 180.652 14.4043C181.395 12.8613 181.883 11.3477 182.117 9.86328C182.352 8.35938 181.961 7.31445 180.945 6.72852C179.305 6.31836 177.615 6.64062 175.877 7.69531C174.158 8.75 172.547 10.0684 171.043 11.6504C169.539 13.2324 168.299 14.6289 167.322 15.8398C167.205 15.9766 167.098 16.1133 167 16.25ZM235.818 4.91211C235.955 5.0293 236.053 5.19531 236.111 5.41016C236.189 5.60547 236.219 5.80078 236.199 5.99609C236.16 6.23047 236.082 6.43555 235.965 6.61133C235.828 6.82617 235.672 7.01172 235.496 7.16797C235.477 7.20703 235.447 7.24609 235.408 7.28516C235.154 7.51953 234.861 7.63672 234.529 7.63672C234.217 7.63672 233.943 7.51953 233.709 7.28516C233.436 6.99219 233.318 6.66992 233.357 6.31836C232.732 6.25977 232.107 6.2207 231.482 6.20117C227.674 6.2207 223.875 6.44531 220.086 6.875C216.316 7.30469 212.547 7.80273 208.777 8.36914C206.766 8.70117 204.754 9.05273 202.742 9.42383C201.414 11.8848 200.252 14.4434 199.256 17.0996C198.436 19.1895 197.371 22.0605 196.062 25.7129C194.773 29.3652 193.533 33.1641 192.342 37.1094C191.17 41.0547 190.379 44.5215 189.969 47.5098C189.559 50.4785 189.832 52.334 190.789 53.0762C191.16 53.3691 191.326 53.7109 191.287 54.1016C191.248 54.4922 191.072 54.7949 190.76 55.0098C190.447 55.2441 190.057 55.2734 189.588 55.0977C189.334 54.9414 189.139 54.7559 189.002 54.541C188.982 54.502 188.963 54.4727 188.943 54.4531C188.943 54.4531 188.943 54.4434 188.943 54.4238L188.885 54.3359C188.67 53.75 188.582 53.1836 188.621 52.6367C188.641 52.0508 188.68 51.4746 188.738 50.9082C189.168 47.666 189.705 44.4531 190.35 41.2695C192.049 32.8125 194.246 24.4727 196.941 16.25C197.625 14.1797 198.387 12.1191 199.227 10.0684C194.637 10.9473 190.105 12.0703 185.633 13.4375C185.574 13.457 185.516 13.4766 185.457 13.4961C184.734 13.7305 184.041 14.0039 183.377 14.3164C183.338 14.3555 183.289 14.3848 183.23 14.4043C183.016 14.7168 182.732 14.8828 182.381 14.9023C182.029 14.9219 181.717 14.8242 181.443 14.6094C181.189 14.375 181.082 14.0332 181.121 13.584C181.121 13.5254 181.131 13.4668 181.15 13.4082C181.17 13.3496 181.189 13.3008 181.209 13.2617C181.248 13.1445 181.316 13.0371 181.414 12.9395C181.434 12.9004 181.463 12.8613 181.502 12.8223C181.99 12.4512 182.527 12.2266 183.113 12.1484C183.23 12.1094 183.348 12.0703 183.465 12.0312C184.051 11.9141 184.627 11.7969 185.193 11.6797C189.295 10.957 194.09 10.1562 199.578 9.27734C199.91 8.53516 200.262 7.80273 200.633 7.08008C201.199 5.92773 201.961 4.90234 202.918 4.00391C203.27 3.71094 203.66 3.58398 204.09 3.62305C204.52 3.66211 204.881 3.84766 205.174 4.17969C205.467 4.57031 205.584 4.99023 205.525 5.43945C205.467 5.88867 205.242 6.25 204.852 6.52344C204.207 7.10938 203.66 7.79297 203.211 8.57422C203.211 8.59375 203.201 8.61328 203.182 8.63281C203.182 8.65234 203.172 8.67187 203.152 8.69141C205.203 8.35938 207.049 8.05664 208.689 7.7832C210.76 7.45117 212.83 7.10938 214.9 6.75781C220.662 5.74219 226.463 4.93164 232.303 4.32617C232.869 4.28711 233.475 4.27734 234.119 4.29688C234.666 4.29688 235.184 4.45312 235.672 4.76562C235.73 4.80469 235.779 4.85352 235.818 4.91211Z" fill="#121212"/>
</svg>
