<svg id="Layer_1" data-name="Layer 1" xmlns="http://www.w3.org/2000/svg" viewBox="0 0 3601.26783 585.03298"><defs><style>.cls-1{fill:#fff;}</style></defs><path class="cls-1" d="M634.6938,167.03919q-95.52424-.39584-156.65977,62.14491-60.711,61.74908-60.711,150.81026,0,86.68622,60.28641,145.6645Q538.745,585.033,626.62731,585.033q88.30686,0,151.9897-61.74908,64.10739-61.74909,64.10739-150.81026Q840.17709,279.85,783.71164,223.64251,728.0953,167.435,634.6938,167.03919Zm88.51914,304.1934q-14.22249,42.94728-38.2097,68.47815t-53.2813,25.53087q-29.29412,0-53.28131-25.53087t-38.2097-68.47815q-14.2225-42.94728-14.2225-95.59233,0-52.24923,14.2225-95.19651t38.2097-68.47815q23.9872-25.53087,53.28131-25.53087t53.2813,25.53087q23.98721,25.53087,38.2097,68.47815t14.2225,95.19651Q737.43544,428.28531,723.21294,471.23259Z"/><path class="cls-1" d="M1181.38589,176.93487V462.7223q0,35.62447-23.35038,61.74908-24.19947,26.52045-58.58821,26.52044-38.63424.39584-61.56007-26.12461-23.35038-26.12461-22.92582-62.14491V176.93487H906.276V449.66q0,37.99944,13.16112,60.95743a158.74091,158.74091,0,0,0,32.266,39.97857q39.0588,35.62447,104.01529,34.04117,76.41941,0,125.66747-53.43671V575.929h108.68537V176.93487Z"/><polygon class="cls-1" points="526.008 0 517.105 0 495.647 0 492.481 0 301.008 257.684 124.818 0 0 0 208.88 315.079 208.88 575.929 318.839 575.929 318.839 290.35 526.008 0"/><path class="cls-1" d="M1605.11628,360.18774q-18.79951-20.59815-48.99531-20.59214A69.27448,69.27448,0,0,0,1532.068,343.959a45.25512,45.25512,0,0,0-19.55416,13.52205V275.718h-38.465V494.41973h38.465V477.28865q1.22342,3.44833,6.03154,8.343c3.1892,3.25073,7.71315,6.15547,13.52262,8.71393q8.71335,3.83811,21.95122,3.83167,15.61173,0,27.48939-5.63633a69.05294,69.05294,0,0,0,21.80354-16.76047,83.71321,83.71321,0,0,0,16.09253-25.1035q5.85869-14.12775,5.85869-32.32184,0-18.63337-5.4134-33.43451A71.46742,71.46742,0,0,0,1605.11628,360.18774Zm-30.20811,108.52293q-12.19989,20.30153-30.38153,19.393-11.42119-.88987-21.77894-11.12413-9.93676-11.12413-10.23382-27.95873V368.45693a49.94005,49.94005,0,0,1,14.43667-11.87822,38.1006,38.1006,0,0,1,19.08426-5.414q19.24509-.14809,30.20811,18.34276,10.53089,18.1878,10.53145,48.55087Q1586.922,448.72424,1574.90817,468.71067Z"/><path class="cls-1" d="M1721.89581,447.82176l-43.13718-104.91362h-39.08315l62.83959,151.51159-12.78084,29.46689q-8.71335,17.87271-15.72163,23.5215-6.97137,5.63632-10.43186,3.68343c-2.32379-1.31042-2.81831-3.60931-1.50818-6.92186,1.40859-3.20122.791-6.51376-1.80465-9.913a21.95514,21.95514,0,0,0-10.53089-7.4407,15.214,15.214,0,0,0-12.85467,1.05057q-6.22958,3.3745-8.92426,15.40082-1.22343,7.52728,5.09287,14.65933,6.34033,7.13793,17.156,8.788c7.19345,1.11239,14.93063-1.27321,23.1383-7.13191q12.30978-8.788,23.13829-33.15l78.46278-183.52464h-7.51511Z"/><polygon class="cls-1" points="1987.666 377.022 1916.866 377.022 1916.866 275.718 1878.401 275.718 1878.401 494.42 1916.866 494.42 1916.866 383.635 1987.666 383.635 1987.666 494.42 2026.155 494.42 2026.155 275.718 1987.666 275.718 1987.666 377.022"/><path class="cls-1" d="M2159.62088,451.43107a35.46756,35.46756,0,0,1-8.2815,23.44737q-8.56568,10.06726-20.7401,10.07356-13.68345.14811-21.77894-9.92532a35.05168,35.05168,0,0,1-8.13326-23.59561V342.90814h-38.465V446.47442c0,9.61625,1.53278,17.32911,4.64758,23.13858a60.17966,60.17966,0,0,0,11.4209,15.19048q13.83112,13.516,36.83319,12.92879,27.069,0,44.49712-20.29537v16.98283h38.465V342.90814h-38.465Z"/><path class="cls-1" d="M2315.03827,407.08248q-8.56484-5.09845-29.16985-12.01416-22.10059-8.41715-27.1929-13.38611a18.24954,18.24954,0,0,1-5.4134-14.42437,19.62452,19.62452,0,0,1,7.21863-13.83112q7.9707-6.767,19.38016-6.61278,14.87.59367,20.88892,5.03077c4.00424,2.954,4.32591,5.0923.91463,6.39013q-7.37832,3.00362-5.711,11.8041a24.91472,24.91472,0,0,0,8.94944,14.88169q7.26671,6.08106,16.43938.82821c6.328-4.41262,9.294-10.38264,8.9483-17.89775q-.51856-11.27223-12.77969-20.209-12.23767-8.955-37.94644-8.6521-22.693.31507-35.91913,12.48378-12.34757,12.47763-12.92851,31.259-.5924,28.57058,26.5988,42.08662c4.10383,1.70563,10.53145,4.16536,19.23249,7.36658a228.95838,228.95838,0,0,1,22.71819,8.56568q9.3066,4.06047,13.52261,9.17124,4.1897,4.82071,3.98021,13.68287-.22323,8.86231-8.50415,16.38958-8.26949,7.50882-28.404,8.25661-9.60365,0-15.25229-2.85523c-3.757-1.90339-6.106-4.00453-7.06981-6.30371-.93982-2.31119-.42126-4.06634,1.582-5.26544q6.154-4.06005,4.9681-13.75671a25.17042,25.17042,0,0,0-8.13211-16.00667q-6.89752-6.30342-17.7249-.29648-8.56482,5.85869-8.50415,17.88516.07383,12.03248,10.97675,22.69328,10.90007,10.67942,34.80532,12.63231a84.638,84.638,0,0,0,25.38882-2.63286,49.98339,49.98339,0,0,0,24.275-14.05349q10.457-10.67942,12.11346-31.71628Q2338.62128,421.37721,2315.03827,407.08248Z"/><path class="cls-1" d="M2508.05466,412.05144q-1.51962-33.37284-20.44247-53.35928-18.65269-20.0049-51.5675-19.99861-33.03843,0-54.11337,23.59562-20.72693,23.0085-20.7401,57.27709,0,33.05733,20.7401,55.31218,21.21115,22.54489,51.26988,22.545,27.18145,0,46.89474-16.98312,19.8392-17.13135,26.00582-47.35205h-4.81928q-6.4528,21.65544-19.529,34.88058-13.09105,13.21941-32.311,13.67057-18.05687.1481-28.42806-7.66335a46.11731,46.11731,0,0,1-15.17789-19.46745,82.57869,82.57869,0,0,1-6.00751-23.29913,95.45851,95.45851,0,0,1-.44529-19.15809Zm-95.74123-49.9108q11.12328-16.68621,22.98948-16.68606,15.01762,0,24.42382,14.659,9.38215,14.66562,9.69123,44.57095h-69.88537Q2401.16383,378.821,2412.31343,362.14064Z"/><path class="cls-1" d="M2604.71282,447.82176l-43.13776-104.91362h-39.08315l62.8396,151.51159-12.78084,29.46689q-8.7125,17.87271-15.72163,23.5215-6.97137,5.63632-10.43187,3.68343c-2.32378-1.31042-2.81831-3.60931-1.50874-6.92186,1.40915-3.20122.791-6.51376-1.80409-9.913a21.95129,21.95129,0,0,0-10.53145-7.4407,15.21316,15.21316,0,0,0-12.8541,1.05057q-6.22959,3.3745-8.92426,15.40082-1.22258,7.52728,5.09287,14.65933,6.34119,7.13793,17.156,8.788c7.19344,1.11239,14.93063-1.27321,23.13829-7.13191q12.30979-8.788,23.1383-33.15l78.46278-183.52464h-7.51511Z"/><rect class="cls-1" x="2687.08025" y="342.90814" width="38.465" height="151.51159"/><path class="cls-1" d="M2706.31389,275.409a20.83905,20.83905,0,0,0-15.179,6.24218,20.4602,20.4602,0,0,0-6.304,15.104,21.54393,21.54393,0,0,0,21.483,21.49447,20.42321,20.42321,0,0,0,15.10348-6.316,20.83132,20.83132,0,0,0,6.25477-15.17846,21.33365,21.33365,0,0,0-21.35825-21.34623Z"/><path class="cls-1" d="M2883.53425,352.52439q-13.83113-13.53406-36.83376-12.92879-27.06813,0-44.49655,20.29566V342.90814h-38.465V494.41973h38.465V385.89708a35.47308,35.47308,0,0,1,8.28093-23.44737q8.56655-10.08573,20.74124-10.07356,13.68174-.14811,21.80241,9.913a35.18631,35.18631,0,0,1,8.10922,23.60791V494.41973h38.465V390.85345c0-9.61625-1.53278-17.34142-4.64757-23.1506A60.35343,60.35343,0,0,0,2883.53425,352.52439Z"/><path class="cls-1" d="M3175.433,275.718l.14882,151.21511q0,28.99685-16.2173,42.84041-15.94485,13.97922-45.70766,13.97937-29.6283,0-46.00529-14.43668-16.3518-14.27628-16.66145-42.3831V275.718h-38.93433l.14881,151.21511q0,34.70743,21.62955,52.45666,23.02782,18.48486,63.28489,18.491,39.08257,0,62.24548-18.491,23.43478-18.63294,23.43592-52.45666l-.14881-151.21511Z"/><path class="cls-1" d="M3338.68659,352.52439q-13.83113-13.53406-36.83262-12.92879-27.06984,0-44.49769,20.29566V342.90814h-38.465V494.41973h38.465V385.89708a35.46809,35.46809,0,0,1,8.28207-23.44737q8.56483-10.08573,20.7401-10.07356,13.68345-.14811,21.80355,9.913a35.18537,35.18537,0,0,1,8.10808,23.60791V494.41973h38.465V390.85345c0-9.61625-1.53278-17.34142-4.64757-23.1506A60.35343,60.35343,0,0,0,3338.68659,352.52439Z"/><rect class="cls-1" x="3390.84706" y="275.71802" width="38.465" height="218.7017"/><path class="cls-1" d="M3562.80283,342.90814V451.43107a35.468,35.468,0,0,1-8.28207,23.44737q-8.56482,10.06726-20.7401,10.07356-13.68345.14811-21.77836-9.92532a35.04583,35.04583,0,0,1-8.13326-23.59561V342.90814h-38.465V446.47442c0,9.61625,1.53279,17.32911,4.64758,23.13858a60.16623,60.16623,0,0,0,11.4209,15.19048q13.83113,13.516,36.83263,12.92879,27.06984,0,44.49768-20.29537v16.98283h38.465V342.90814Z"/><path class="cls-1" d="M2102.7722,322.44306a20.34016,20.34016,0,0,0,15.01419-6.27308,20.70936,20.70936,0,0,0,6.19982-15.08975,21.16767,21.16767,0,0,0-21.214-21.21172,20.70259,20.70259,0,0,0-15.08746,6.19982,20.33147,20.33147,0,0,0-6.27308,15.0119,21.41789,21.41789,0,0,0,21.36054,21.36283Z"/><path class="cls-1" d="M2162.84271,322.44306A20.34016,20.34016,0,0,0,2177.8569,316.17a20.70936,20.70936,0,0,0,6.19982-15.08975,21.16767,21.16767,0,0,0-21.214-21.21172,20.70257,20.70257,0,0,0-15.08746,6.19982,20.33147,20.33147,0,0,0-6.27308,15.0119,21.41789,21.41789,0,0,0,21.36054,21.36283Z"/><path class="cls-1" d="M3504.69209,322.44306a20.34018,20.34018,0,0,0,15.0142-6.27308,20.70936,20.70936,0,0,0,6.19982-15.08975,21.16767,21.16767,0,0,0-21.214-21.21172,20.70257,20.70257,0,0,0-15.08745,6.19982,20.33148,20.33148,0,0,0-6.27309,15.0119,21.4179,21.4179,0,0,0,21.36054,21.36283Z"/><path class="cls-1" d="M3564.7626,322.44306a20.34016,20.34016,0,0,0,15.01419-6.27308,20.70933,20.70933,0,0,0,6.19983-15.08975,21.16769,21.16769,0,0,0-21.214-21.21172,20.70257,20.70257,0,0,0-15.08745,6.19982,20.33148,20.33148,0,0,0-6.27309,15.0119,21.4179,21.4179,0,0,0,21.36054,21.36283Z"/><path class="cls-1" d="M3075.256,255.40348a20.34017,20.34017,0,0,0,15.01419-6.27309,20.70934,20.70934,0,0,0,6.19982-15.08974,21.16767,21.16767,0,0,0-21.214-21.21173,20.70259,20.70259,0,0,0-15.08746,6.19982,20.3315,20.3315,0,0,0-6.27308,15.01191,21.4179,21.4179,0,0,0,21.36054,21.36283Z"/><path class="cls-1" d="M3135.32647,255.40348a20.34021,20.34021,0,0,0,15.0142-6.27309,20.70934,20.70934,0,0,0,6.19982-15.08974,21.16767,21.16767,0,0,0-21.214-21.21173,20.70257,20.70257,0,0,0-15.08745,6.19982,20.33151,20.33151,0,0,0-6.27309,15.01191,21.41792,21.41792,0,0,0,21.36054,21.36283Z"/></svg>