<svg id="Layer_1" data-name="Layer 1" xmlns="http://www.w3.org/2000/svg" viewBox="0 0 3601.26783 612.24838"><defs><style>.cls-1{fill:#fff;}</style></defs><path class="cls-1" d="M664.21939,174.80975q-99.968-.41424-163.9475,65.03586-63.53521,64.62162-63.53521,157.82587,0,90.7188,63.09091,152.44073,63.97951,62.13617,155.95006,62.13617,92.41485,0,159.06017-64.62162,67.08963-64.62161,67.08963-157.82587-2.66581-96.93241-61.758-155.75466Q761.96587,175.224,664.21939,174.80975Zm92.637,318.3443q-14.88413,44.94517-39.9872,71.66372t-55.75992,26.71855q-30.65685,0-55.75992-26.71855t-39.98719-71.66372Q550.478,448.20889,550.478,393.11482q0-54.67982,14.88413-99.625t39.98719-71.66371q25.10307-26.71856,55.75992-26.71855t55.75992,26.71855q25.10307,26.71855,39.9872,71.66371t14.88412,99.625Q771.74051,448.20889,756.85639,493.15405Z"/><path class="cls-1" d="M1236.34327,185.16578V484.24787q0,37.28171-24.43662,64.62162-25.32522,27.75415-61.3137,27.75415-40.4315.41424-64.42381-27.33991-24.43662-27.33991-23.99232-65.03586V185.16578H948.43547V470.57791q0,39.76715,13.77337,63.79314a166.12559,166.12559,0,0,0,33.767,41.83835q40.87579,37.2817,108.854,35.62474,79.97439,0,131.51344-55.92256v46.80925h113.74135v-417.555Z"/><polygon class="cls-1" points="550.478 0 541.16 0 518.704 0 515.391 0 315.01 269.671 130.625 0 0 0 218.597 329.736 218.597 602.721 333.671 602.721 333.671 303.857 550.478 0"/><path class="cls-1" d="M2236.08965,298.09845a20.65752,20.65752,0,0,1,20.70276,20.70053,20.21026,20.21026,0,0,1-6.0504,14.72608,19.85,19.85,0,0,1-14.65236,6.12191,20.90175,20.90175,0,0,1-20.84576-20.848,19.84152,19.84152,0,0,1,6.12191-14.65013A20.20364,20.20364,0,0,1,2236.08965,298.09845Z"/><path class="cls-1" d="M2294.71248,298.09845a20.65752,20.65752,0,0,1,20.70276,20.70053,20.21026,20.21026,0,0,1-6.0504,14.72608,19.85,19.85,0,0,1-14.65236,6.12191,20.90175,20.90175,0,0,1-20.84576-20.848,19.84152,19.84152,0,0,1,6.12191-14.65013A20.20364,20.20364,0,0,1,2294.71248,298.09845Z"/><path class="cls-1" d="M2766.46114,346.15018a63.52223,63.52223,0,0,1-17.61723-3.70638v-.04552A82.38417,82.38417,0,0,0,2766.46114,346.15018Z"/><path class="cls-1" d="M2745.87009,361.29631c1.5059-.43736,3.18831-.87332,4.94891-1.29783C2749.15335,360.40847,2747.46648,360.78913,2745.87009,361.29631Z"/><path class="cls-1" d="M2755.83718,358.92323q-2.65265.49978-5.01818,1.07525C2752.45784,359.59519,2754.128,359.2324,2755.83718,358.92323Z"/><path class="cls-1" d="M2761.56473,358.0016c-1.97174.2265-3.84406.58119-5.72755.92163C2757.66481,358.57888,2759.55165,358.25686,2761.56473,358.0016Z"/><path class="cls-1" d="M2766.46114,346.15018a63.52223,63.52223,0,0,1-17.61723-3.70638v-.04552A82.38417,82.38417,0,0,0,2766.46114,346.15018Z"/><path class="cls-1" d="M1678.38408,379.00459q-19.49347-21.34638-50.74591-21.32333a71.65387,71.65387,0,0,0-24.93782,4.53,46.40307,46.40307,0,0,0-20.22463,14.00191V291.51553h-39.85495V518.06261h39.85495V500.30852c.82333,2.3795,2.88221,5.26227,6.223,8.64831,3.29444,3.386,7.96183,6.36042,14.00163,9.01445,6.04035,2.65376,13.59,3.98092,22.74153,3.98092q16.199,0,28.50708-5.85715a71.293,71.293,0,0,0,22.55945-17.34214,86.478,86.478,0,0,0,16.65538-25.99045q6.10878-14.68837,6.08615-33.49481c0-12.858-1.87623-24.43483-5.62813-34.63875A73.10388,73.10388,0,0,0,1678.38408,379.00459Zm-31.2988,112.42689c-8.41874,14.00219-18.89748,20.72846-31.43509,20.08778-7.916-.64067-15.421-4.48418-22.60469-11.53079q-10.29553-11.53137-10.56978-28.96483V387.56129a51.709,51.709,0,0,1,14.91711-12.30888,39.94679,39.94679,0,0,1,19.813-5.58261q19.90485-.137,31.29824,18.98964,10.84515,18.87513,10.8904,50.28788Q1659.53186,470.7262,1647.08528,491.43148Z"/><path class="cls-1" d="M1799.36767,469.78809l-44.70555-108.675h-40.44926l65.06759,156.94951-13.22466,30.52071q-8.991,18.53162-16.28952,24.34323c-4.80424,3.88931-8.41929,5.17039-10.79879,3.84351-2.3795-1.37268-2.88277-3.75218-1.55561-7.184,1.464-3.29444.82389-6.72628-1.87623-10.24972a22.89743,22.89743,0,0,0-10.8904-7.7331,15.82556,15.82556,0,0,0-13.31571,1.09815c-4.301,2.33369-7.41219,7.64176-9.24318,15.96945-.86913,5.17067.91549,10.25,5.26283,15.19166,4.34677,4.89613,10.29552,7.96183,17.75352,9.10577q11.18868,1.71593,23.97709-7.41275,12.76719-9.1284,23.97709-34.31842l81.31187-190.124h-7.82442Z"/><path class="cls-1" d="M2084.30215,442.37916h32.717v59.62266a89.79655,89.79655,0,0,1-22.28407,9.83778,75.8497,75.8497,0,0,1-21.00272,3.11151q-21.34595,0-38.29933-14.87132-17.0218-14.89407-26.86042-39.94655-9.88329-25.05261-9.8833-55.41274,0-30.26907,9.8833-55.04687,9.88414-24.84651,26.76882-39.48909,16.88439-14.61968,38.39093-15.1c12.76608.18293,23.38222,2.56243,31.93892,7.09241q12.69765,6.7267,19.17285,15.87814c4.34678,6.04007,6.58887,11.39367,6.81788,16.01526.18265,4.62159-1.64777,7.09242-5.44548,7.41275-4.89585.41167-8.32769,3.20311-10.38713,8.328a24.16173,24.16173,0,0,0-.22845,16.56434c1.87567,5.94847,6.22244,10.29552,13.08613,13.08669q11.80617,3.77494,19.31025-3.56925,7.48119-7.34377,8.55671-20.49945,1.09758-13.10944-6.68048-27.13439a78.02523,78.02523,0,0,0-24.29771-25.48718q-15.5807-10.50122-36.28569-13.45283a109.25729,109.25729,0,0,0-15.5578-1.09815q-32.39721,0-58.84458,15.74073a119.199,119.199,0,0,0-42.28024,42.28024q-15.85551,26.56243-15.832,58.75326,0,32.25939,15.832,58.79878a119.199,119.199,0,0,0,42.28024,42.28024q26.425,15.71811,58.84458,15.74073c16.38113,0,30.84078-3.24863,43.28679-9.65485v5.90267h39.7181V435.37807h-72.4351Z"/><path class="cls-1" d="M2295.93239,473.54027a36.54061,36.54061,0,0,1-8.55614,24.25163c-5.94875,7.00109-13.08725,10.43293-21.506,10.43293-9.42639.13713-16.97711-3.29471-22.55944-10.24972a36.35716,36.35716,0,0,1-8.41874-24.43484V361.1131H2195.036V468.36961q0,14.96277,4.8048,23.97709a62.09451,62.09451,0,0,0,11.8517,15.74072q14.27616,14.00218,38.11556,13.407c18.71538,0,34.04472-7.00081,46.12431-21.04852v17.61668h39.85495V361.1131h-39.85495Z"/><rect class="cls-1" x="2373.17229" y="291.51553" width="39.85494" height="226.54708"/><polygon class="cls-1" points="2529.481 518.063 2675.86 518.063 2675.86 511.84 2569.198 511.84 2569.198 399.733 2637.241 399.87 2637.241 392.732 2569.198 392.732 2569.198 298.333 2675.86 298.333 2675.86 291.516 2529.481 291.516 2529.481 518.063"/><path class="cls-1" d="M2833.77082,501.31534a73.36731,73.36731,0,0,0-34.86805-11.11913,274.76566,274.76566,0,0,0-38.29877-.18321,183.22548,183.22548,0,0,1-28.96511-.04552c-7.916-.77809-12.675-3.798-14.36748-8.96865a10.57123,10.57123,0,0,1,1.32716-8.00763,24.53818,24.53818,0,0,1,5.856-6.49754,65.5842,65.5842,0,0,1,9.4722-5.90295q16.54254,8.44261,38.62051,8.41957,29.92471-.1374,50.15047-15.74072,21.2077-17.43361,21.18536-40.77044,0-20.24753-11.34786-33.3116a45.16743,45.16743,0,0,0-9.12365-8.36064c.1307.06.30162.13014.429.18935-.32286-.2008-.70827-.41948-1.05123-.62615a2.22756,2.22756,0,0,0-.41222-.26253,54.69641,54.69641,0,0,0-6.86368-3.88959c-1.00654-.45747-2.15049-.96074-3.34024-1.46429a2.65247,2.65247,0,0,0-.77865-.27453c-.35748-.16813-.7306-.29269-1.09255-.44155a92.9119,92.9119,0,0,0-22.48348-6.28193,87.698,87.698,0,0,0-41.59545,3.42318c-.11394.03351-.2413.06368-.353.09747a10.96536,10.96536,0,0,0-1.36961.45635c-.143.05251-.27817.08183-.42116.13517a81.45447,81.45447,0,0,0-14.0491,6.86452c-.17539.10641-.37424.21785-.54181.32258-.458.27453-.91494.54907-1.32716.82361-.0458.0458-.09161.0916-.13629.0916a57.05149,57.05149,0,0,0-4.6674,3.56925q-20.11179,16.1982-20.08834,40.49562a44.82137,44.82137,0,0,0,7.458,24.89231,59.9279,59.9279,0,0,0,19.036,18.85222q-18.60031,4.04976-28.049,13.77317-9.47276,9.74633-10.52454,20.9572a26.66029,26.66029,0,0,0,5.71974,19.63c4.43838,5.58233,11.25626,8.877,20.362,9.79226q-14.62052,7.13808-21.00328,16.83887c-4.25517,6.40593-5.85714,12.99508-4.759,19.76744q1.64723,10.08942,11.30207,18.80643c6.45258,5.81134,15.55835,10.57006,27.31844,14.18483,11.80478,3.615,26.21919,5.4452,43.37839,5.4452q29.102,0,48.27369-9.01417c12.76663-6.04008,21.8724-13.77317,27.41-23.19928a42.07721,42.07721,0,0,0,5.12431-30.063Q2849.0309,511.03875,2833.77082,501.31534Zm-38.711-53.17064c-5.99455,9.65484-13.133,14.45937-21.55179,14.45937-8.51146,0-15.78736-4.80453-21.735-14.45937q-8.92313-14.48228-8.92369-35.0507,0-20.52236,8.92369-35.09623c5.94763-9.70065,13.22353-14.551,21.735-14.551,8.41874,0,15.55724,4.85032,21.55179,14.551,5.94875,9.70065,8.96837,21.41466,8.96837,35.09623C2804.02819,426.82136,2801.00857,438.48985,2795.05982,448.1447Zm36.97274,107.75977a36.311,36.311,0,0,1-8.55727,16.42721c-4.48418,5.12486-10.84515,9.38031-19.12648,12.67475-8.32825,3.34051-18.89859,4.98773-31.80151,4.98773-12.63034,0-22.92587-1.64722-30.75029-4.89613q-11.73663-4.94207-17.52451-12.62922a33.99747,33.99747,0,0,1-6.77208-16.2898,36.45616,36.45616,0,0,1,1.64666-16.244,31.13572,31.13572,0,0,1,7.77862-12.675,17.43739,17.43739,0,0,1,11.66848-5.30779h73.35a17.34059,17.34059,0,0,1,12.446,4.89612,26.58231,26.58231,0,0,1,7.32171,12.629A33.12175,33.12175,0,0,1,2832.03256,555.90447Z"/><path class="cls-1" d="M2838.80463,312.747c-10.90324-1.80474-20.45029,6.64835-22.23882,8.5567a21.90119,21.90119,0,0,1-2.79173,2.56243,22.15089,22.15089,0,0,1-3.75134,2.3337c-8.74047,5.4452-20.49944,8.09923-35.92039,8.09923-15.32934,0-26.5856-2.654-34.50163-8.05343q-2.60739-1.78463-5.21591-3.569a7.45873,7.45873,0,0,0-2.44652,3.85244,7.73222,7.73222,0,0,0,.706,5.29076c.99648,2.07229,2.57053,3.28075,6.39672,5.51055,2.48116,1.44613,5.77671,3.24388,9.80287,5.11341v-.04552a82.38417,82.38417,0,0,0,17.61723,3.7519c1.09814.13741,2.19629.229,3.34024.27482a3.71316,3.71316,0,0,1,.73172.04552c1.14395.0458,2.3795.0458,3.56925.0458s2.3795,0,3.56925-.0458c2.3337-.09133,4.62159-.27454,6.81788-.54907.41222-.04581.77753-.09133,1.18975-.13713.13741,0,.27482-.04581.41222-.04581q4.11722-.61791,7.82442-1.51008a1.22181,1.22181,0,0,1,.54852-.13713,55.8017,55.8017,0,0,0,6.08616-2.01336.99817.99817,0,0,0-.13741.22873,84.24712,84.24712,0,0,0,15.92365-7.27562c0-.04553.04581-.04553.09161-.09133a4.46221,4.46221,0,0,1,2.3795-1.46429c1.32716-.18321,1.69358,2.51663,1.09814,8.00763-.41222,4.66712,1.51037,8.00764,5.81135,9.97519s9.24318,2.05916,14.7797.22873c5.58233-1.83014,10.11232-6.04007,13.63577-12.675a17.92693,17.92693,0,0,0-.91494-16.60986C2850.1983,317.04823,2845.4393,313.84512,2838.80463,312.747Z"/><path class="cls-1" d="M2967.521,357.68126q-26.151,0-40.03815,22.23827V361.1131H2887.628V518.06261h39.85494V416.52584a72.0601,72.0601,0,0,1,2.19629-18.12,50.34335,50.34335,0,0,1,7.00109-15.6494q7.82387-10.913,16.6107-14.04742c5.856-2.05917,11.16465-2.51691,15.87785-1.28136,4.7132,1.18975,8.05343,3.0657,10.02071,5.58261,1.96728,2.56243,1.73826,4.75872-.77864,6.63467-4.02616,2.88277-5.90183,7.00109-5.53653,12.26308a22.00028,22.00028,0,0,0,5.99455,13.819c3.66086,3.88959,8.32825,5.26227,14.048,4.11832,9.33479-2.92857,14.6423-8.5109,15.96946-16.83887q1.922-12.42324-8.37406-23.657C2993.69442,361.89091,2982.66717,358.0016,2967.521,357.68126Z"/><path class="cls-1" d="M3056.29091,291.19519a21.55949,21.55949,0,0,0-15.69465,6.45174,21.2184,21.2184,0,0,0-6.54306,15.64912,22.19268,22.19268,0,1,0,44.38493,0,22.0279,22.0279,0,0,0-22.14722-22.10086Z"/><rect class="cls-1" x="3036.38689" y="361.1131" width="39.85494" height="156.94951"/><path class="cls-1" d="M3251.58639,379.00459q-19.49347-21.34638-50.79171-21.32333a71.589,71.589,0,0,0-24.892,4.53,46.54748,46.54748,0,0,0-20.27044,14.00191V291.51553h-39.85606V518.06261h39.85606V500.30852c.86914,2.3795,2.928,5.26227,6.26825,8.64831,3.29444,3.386,7.96183,6.36042,14.00219,9.01445,5.99455,2.65376,13.59,3.98092,22.69573,3.98092,10.84516,0,20.31624-1.96756,28.50708-5.85715a70.94461,70.94461,0,0,0,22.60413-17.34214,87.37628,87.37628,0,0,0,16.6565-25.99045q6.03924-14.68837,6.03923-33.49481c0-12.858-1.82986-24.43483-5.58121-34.63875A74.50232,74.50232,0,0,0,3251.58639,379.00459Zm-31.2988,112.42689c-8.41986,14.00219-18.89747,20.72846-31.48089,20.08778-7.87023-.64067-15.421-4.48418-22.55945-11.53079q-10.29552-11.53137-10.615-28.96483V387.56129a51.95346,51.95346,0,0,1,14.96181-12.30888,39.791,39.791,0,0,1,19.76772-5.58261q19.97439-.137,31.2988,18.98964,10.91218,18.87513,10.88984,50.28788Q3232.6878,470.7262,3220.28759,491.43148Z"/><path class="cls-1" d="M3380.21119,357.22379q-35.00378-.1374-57.47218,24.43456-22.23658,24.29771-22.23771,59.30232c0,22.74154,7.32171,41.86859,22.10142,57.3345,14.91712,15.55779,33.17447,23.33669,54.63466,23.33669q32.39638,0,55.7328-24.29743,23.542-24.2977,23.52018-59.30233-.89316-36.44614-21.64451-58.57Q3414.46258,357.3612,3380.21119,357.22379Zm32.44275,119.65672q-5.21646,16.88481-14.00218,26.95146c-5.85715,6.68075-12.40021,10.021-19.53871,10.021q-10.77645,0-19.53871-10.021-8.78571-10.0894-14.00107-26.95146a137.53675,137.53675,0,0,1,0-75.04278c3.47653-11.25654,8.14393-20.27071,14.00107-26.95146s12.35441-10.06679,19.53871-10.06679c7.1385,0,13.68156,3.386,19.53871,10.06679s10.52454,15.69492,14.00218,26.95146a137.56491,137.56491,0,0,1,0,75.04278Z"/><polygon class="cls-1" points="3601.268 361.113 3479.964 361.113 3479.964 368.572 3556.104 368.572 3479.964 510.604 3479.964 518.063 3601.268 518.063 3601.268 510.604 3525.127 510.604 3601.268 368.572 3601.268 361.113"/></svg>