<svg id="Layer_1" data-name="Layer 1" xmlns="http://www.w3.org/2000/svg" viewBox="0 0 1790.41936 811.93529"><defs><style>.cls-1{fill:#1d1d1b;}</style></defs><path class="cls-1" d="M880.85683,231.82456q-132.57289-.54936-217.41954,86.24752-84.25744,85.69818-84.25744,209.30132,0,120.30705,83.66823,202.1598,84.84665,82.4021,206.8137,82.40209,122.55627,0,210.9382-85.69818,88.97114-85.69817,88.97114-209.30131-3.53528-128.54727-81.90059-206.55458Q1010.48365,232.3739,880.85683,231.82456ZM1003.7077,653.99795q-19.73862,59.60418-53.02915,95.03708t-73.94621,35.4329q-40.65568,0-73.94622-35.4329T749.757,653.99795q-19.73864-59.60418-19.73863-132.66737,0-72.51386,19.73863-132.118t53.02915-95.03708q33.29054-35.4329,73.94622-35.4329t73.94621,35.4329q33.29052,35.43291,53.02915,95.03708t19.73863,132.118Q1023.44633,594.39376,1003.7077,653.99795Z"/><path class="cls-1" d="M1639.58088,245.55824V642.187q0,49.44126-32.40671,85.69818-33.58514,36.80626-81.31137,36.80626-53.61837.54936-85.43586-36.25692-32.40671-36.25692-31.81749-86.24752V245.55824H1257.771V624.05852q0,52.73733,18.2656,84.59948a220.30847,220.30847,0,0,0,44.78017,55.48408q54.20759,49.44124,144.35715,47.24386,106.05831,0,174.407-74.16188V799.3003h150.83848V245.55824Z"/><polygon class="cls-1" points="730.018 0 717.661 0 687.881 0 683.487 0 417.752 357.625 173.229 0 0 0 289.893 437.28 289.893 799.3 442.499 799.3 442.499 402.961 730.018 0"/></svg>