<svg width="374" height="110" viewBox="0 0 374 110" fill="none" xmlns="http://www.w3.org/2000/svg">
<path d="M43.6816 12.2686L27.7197 36.2627V62H18.8672V39.4756L2.05078 12.2686H12.0996L26.2842 34.5195L41.6992 12.2686H43.6816ZM70.3418 11.5508C75.0586 11.5508 79.3538 12.7015 83.2275 15.0029C87.124 17.3044 90.223 20.4033 92.5244 24.2998C94.8258 28.1735 95.9766 32.4688 95.9766 37.1855C95.9766 41.9023 94.8258 46.209 92.5244 50.1055C90.223 53.9792 87.124 57.0667 83.2275 59.3682C79.3538 61.6696 75.0586 62.8203 70.3418 62.8203C65.625 62.8203 61.3184 61.6696 57.4219 59.3682C53.5482 57.0667 50.4606 53.9792 48.1592 50.1055C45.8577 46.209 44.707 41.9023 44.707 37.1855C44.707 32.4688 45.8577 28.1735 48.1592 24.2998C50.4606 20.4033 53.5482 17.3044 57.4219 15.0029C61.3184 12.7015 65.625 11.5508 70.3418 11.5508ZM70.3418 61.3164C73.4408 61.3164 76.2663 60.234 78.8184 58.0693C81.3704 55.9046 83.3984 52.9993 84.9023 49.3535C86.429 45.6849 87.1924 41.6289 87.1924 37.1855C87.1924 32.7422 86.429 28.6976 84.9023 25.0518C83.3984 21.4059 81.3704 18.5007 78.8184 16.3359C76.2663 14.1484 73.4408 13.0547 70.3418 13.0547C67.2428 13.0547 64.4173 14.1484 61.8652 16.3359C59.3132 18.5007 57.2738 21.4059 55.7471 25.0518C54.2432 28.6976 53.4912 32.7422 53.4912 37.1855C53.4912 41.6289 54.2432 45.6849 55.7471 49.3535C57.2738 52.9993 59.3132 55.9046 61.8652 58.0693C64.4173 60.234 67.2428 61.3164 70.3418 61.3164ZM141.948 12.2686L141.982 46.6533C141.982 51.7803 140.205 55.7565 136.65 58.582C133.141 61.3848 128.424 62.7861 122.5 62.7861C116.393 62.7861 111.597 61.3848 108.11 58.582C104.829 55.8932 103.188 51.917 103.188 46.6533L103.154 12.2686H112.007V46.6533C112.052 50.9144 113.317 54.1273 115.801 56.292C118.285 58.4795 121.771 59.5732 126.26 59.5732C130.771 59.5732 134.235 58.5137 136.65 56.3945C139.111 54.2982 140.342 51.0511 140.342 46.6533L140.308 12.2686H141.948Z" fill="#121212"/>
<path d="M18.0781 91.2271C18.623 91.8071 19.0537 92.5322 19.3701 93.4023C19.6865 94.2637 19.8447 95.2393 19.8447 96.3291C19.8447 97.3926 19.6733 98.3374 19.3306 99.1636C18.9878 99.9897 18.5176 100.724 17.9199 101.365C17.3398 102.016 16.7026 102.508 16.0083 102.842C15.314 103.167 14.5098 103.33 13.5957 103.33C12.8223 103.33 12.1807 103.22 11.6709 103C11.1611 102.771 10.7656 102.517 10.4844 102.235C10.2031 101.945 10.0273 101.699 9.95703 101.497V103H6.58203V83.8179H9.95703V90.9897C10.4053 90.4536 10.9766 90.0581 11.6709 89.8032C12.3652 89.5483 13.0684 89.4209 13.7803 89.4209C15.5469 89.4209 16.9795 90.0229 18.0781 91.2271ZM15.4282 100.746C16.1313 99.5767 16.4785 98.0957 16.4697 96.3027C16.4697 94.5273 16.1621 93.1079 15.5469 92.0444C14.9053 90.9634 14.022 90.4272 12.897 90.436C12.3345 90.436 11.7764 90.5942 11.2227 90.9106C10.6865 91.2183 10.2646 91.5654 9.95703 91.9521V99.0186C9.97461 100.003 10.2734 100.82 10.8535 101.471C11.46 102.068 12.0972 102.394 12.7651 102.446C13.8286 102.499 14.7163 101.932 15.4282 100.746ZM32.3164 89.7109H32.9756L26.0938 105.808C25.4609 107.232 24.7842 108.199 24.0635 108.708C23.3428 109.227 22.666 109.438 22.0332 109.341C21.4004 109.245 20.8994 108.985 20.5303 108.563C20.1611 108.15 20.0117 107.724 20.082 107.285C20.2402 106.582 20.4995 106.129 20.8599 105.927C21.229 105.733 21.6069 105.703 21.9937 105.834C22.3804 105.975 22.688 106.195 22.9165 106.494C23.145 106.792 23.1978 107.083 23.0747 107.364C22.9604 107.654 23.0044 107.856 23.2065 107.97C23.4087 108.084 23.7119 107.975 24.1162 107.641C24.5293 107.315 24.9907 106.63 25.5005 105.584L26.6211 103L21.1104 89.7109H24.5381L28.3218 98.9131L32.3164 89.7109ZM58.5781 95.9995V103H55.2163V102.499C54.1616 103.044 52.9399 103.316 51.5513 103.316C49.7231 103.316 48.062 102.873 46.5679 101.985C45.0737 101.097 43.8784 99.9062 42.9819 98.4121C42.0942 96.9092 41.6504 95.248 41.6504 93.4287C41.6504 91.6094 42.0942 89.9526 42.9819 88.4585C43.8784 86.9556 45.0737 85.7603 46.5679 84.8726C48.062 83.9849 49.7231 83.541 51.5513 83.541C51.9995 83.541 52.439 83.5718 52.8696 83.6333C54.0386 83.8003 55.0625 84.1826 55.9414 84.7803C56.8203 85.3691 57.5059 86.0854 57.998 86.9292C58.4375 87.7202 58.6265 88.4893 58.5649 89.2363C58.5034 89.9746 58.2617 90.5503 57.8398 90.9634C57.418 91.3765 56.873 91.4775 56.2051 91.2666C55.625 91.0293 55.2559 90.6602 55.0977 90.1592C54.9395 89.6582 54.9438 89.1924 55.1108 88.7617C55.2866 88.3223 55.5811 88.085 55.9941 88.0498C56.3193 88.0234 56.4731 87.8169 56.4556 87.4302C56.438 87.0347 56.2446 86.582 55.8755 86.0723C55.5151 85.5537 54.9746 85.1055 54.2539 84.7275C53.5332 84.3408 52.6323 84.1387 51.5513 84.1211C50.3384 84.1475 49.2529 84.5737 48.2949 85.3999C47.3457 86.2261 46.5898 87.3423 46.0273 88.7485C45.4736 90.146 45.1968 91.6973 45.1968 93.4023C45.1968 95.1162 45.4736 96.6807 46.0273 98.0957C46.5898 99.5107 47.3501 100.64 48.3081 101.484C49.2661 102.319 50.3472 102.736 51.5513 102.736C52.1313 102.736 52.7246 102.648 53.3311 102.473C53.9814 102.288 54.6099 102.011 55.2163 101.642V96.5928H52.4478V95.9995H58.5781ZM70.3643 89.7109H73.7393V103H70.3643V101.51C69.3447 102.697 68.0439 103.29 66.4619 103.29C65.1172 103.325 64.0405 102.947 63.2319 102.156C62.8364 101.778 62.5024 101.334 62.23 100.825C61.9575 100.315 61.8213 99.6382 61.8213 98.7944V89.7109H65.1963V99.2295C65.1875 100.029 65.4248 100.719 65.9082 101.299C66.3828 101.888 67.02 102.178 67.8198 102.169C68.5317 102.169 69.1382 101.875 69.6392 101.286C70.1226 100.706 70.3643 100.021 70.3643 99.2295V89.7109ZM67.0552 84.4243C67.5737 84.4243 68.0176 84.6089 68.3867 84.978C68.7471 85.3384 68.9272 85.7778 68.9272 86.2964C68.9272 86.8237 68.7471 87.272 68.3867 87.6411C68.0176 88.0015 67.5737 88.1816 67.0552 88.1816C66.5278 88.1816 66.084 88.0015 65.7236 87.6411C65.3545 87.272 65.1699 86.8237 65.1699 86.2964C65.1699 85.7778 65.3545 85.3384 65.7236 84.978C66.084 84.6089 66.5278 84.4243 67.0552 84.4243ZM72.9746 84.4243C73.4932 84.4243 73.937 84.6089 74.3062 84.978C74.6753 85.3384 74.8599 85.7778 74.8599 86.2964C74.8599 86.8237 74.6753 87.272 74.3062 87.6411C73.937 88.0015 73.4932 88.1816 72.9746 88.1816C72.4561 88.1816 72.0166 88.0015 71.6562 87.6411C71.2871 87.272 71.1025 86.8237 71.1025 86.2964C71.1025 85.7778 71.2871 85.3384 71.6562 84.978C72.0166 84.6089 72.4561 84.4243 72.9746 84.4243ZM76.9033 83.8179H80.2783V103H76.9033V83.8179ZM93.5015 92.9805V102.473H102.532V103H90.1396V83.8179H102.532V84.3979H93.5015V92.3872H99.2627V92.9937L93.5015 92.9805ZM107.12 99.8623C107.261 100.302 107.665 100.557 108.333 100.627C109.001 100.688 109.818 100.688 110.785 100.627C111.84 100.557 112.921 100.561 114.028 100.64C115.136 100.719 116.12 101.036 116.981 101.589C117.843 102.134 118.423 103.075 118.722 104.411C118.897 105.307 118.752 106.155 118.287 106.955C117.821 107.755 117.047 108.41 115.966 108.919C114.885 109.429 113.523 109.684 111.879 109.684C110.429 109.684 109.203 109.53 108.201 109.223C107.208 108.915 106.439 108.515 105.894 108.023C105.349 107.531 105.028 106.999 104.932 106.428C104.844 105.856 104.98 105.298 105.34 104.753C105.701 104.208 106.294 103.734 107.12 103.33C106.347 103.25 105.771 102.974 105.393 102.499C105.015 102.024 104.853 101.471 104.905 100.838C104.967 100.205 105.266 99.6162 105.802 99.0713C106.338 98.5176 107.129 98.1265 108.175 97.8979C107.516 97.4849 106.979 96.9531 106.566 96.3027C106.145 95.6523 105.934 94.9492 105.934 94.1934C105.934 92.8223 106.5 91.6797 107.634 90.7656C108.733 89.8428 110.174 89.3813 111.958 89.3813C112.31 89.3726 112.811 89.4297 113.461 89.5527C114.138 87.9883 114.824 86.9204 115.518 86.3491C116.221 85.769 116.85 85.5273 117.403 85.624C117.966 85.7119 118.375 85.9844 118.629 86.4414C118.884 86.8896 118.911 87.3555 118.708 87.8389C118.41 88.4014 118.023 88.7617 117.548 88.9199C117.083 89.0693 116.665 89.0605 116.296 88.8936C115.936 88.7266 115.773 88.4453 115.808 88.0498C115.861 87.584 115.83 87.3599 115.716 87.3774C115.602 87.3862 115.443 87.5356 115.241 87.8257C115.048 88.1157 114.854 88.4453 114.661 88.8145C114.477 89.1748 114.336 89.4736 114.239 89.7109C115.426 90.0273 116.305 90.5371 116.876 91.2402C117.518 91.9785 117.838 92.9189 117.838 94.0615C117.838 95.3799 117.241 96.5312 116.045 97.5156C114.903 98.3945 113.488 98.8384 111.8 98.8472C110.552 98.8472 109.462 98.6099 108.531 98.1353C108.531 98.1353 108.447 98.1792 108.28 98.2671C108.113 98.355 107.929 98.478 107.727 98.6362C107.524 98.7944 107.357 98.979 107.226 99.1899C107.103 99.3921 107.067 99.6162 107.12 99.8623ZM111.879 89.9087C111.159 89.9087 110.543 90.3218 110.034 91.1479C109.533 91.9653 109.282 92.9541 109.282 94.1143C109.282 95.2744 109.533 96.2632 110.034 97.0806C110.543 97.8979 111.159 98.3066 111.879 98.3066C112.591 98.3066 113.198 97.8979 113.699 97.0806C114.208 96.2632 114.463 95.2744 114.463 94.1143C114.463 92.9541 114.208 91.9653 113.699 91.1479C113.198 90.3218 112.591 89.9087 111.879 89.9087ZM111.8 109.091C112.89 109.091 113.787 108.95 114.49 108.669C115.193 108.388 115.733 108.027 116.111 107.588C116.489 107.157 116.731 106.696 116.836 106.204C116.942 105.711 116.933 105.246 116.81 104.806C116.687 104.375 116.48 104.02 116.19 103.738C115.9 103.466 115.549 103.33 115.136 103.33H108.926C108.557 103.347 108.228 103.497 107.938 103.778C107.647 104.059 107.428 104.415 107.278 104.846C107.129 105.285 107.081 105.747 107.133 106.23C107.195 106.713 107.388 107.17 107.713 107.601C108.039 108.041 108.531 108.396 109.19 108.669C109.858 108.95 110.728 109.091 111.8 109.091ZM118.577 83.9893H119.315C119.315 84.332 119.24 84.7671 119.091 85.2944C118.933 85.813 118.7 86.3271 118.392 86.8369C118.084 87.3467 117.702 87.7773 117.245 88.1289C116.779 88.4805 116.239 88.6562 115.624 88.6562C114.947 88.6562 114.371 88.4805 113.896 88.1289C113.422 87.7773 113.04 87.3467 112.75 86.8369C112.459 86.3271 112.249 85.813 112.117 85.2944C111.985 84.7671 111.919 84.332 111.919 83.9893H112.684C112.754 84.8594 113.079 85.5098 113.659 85.9404C114.239 86.3711 114.903 86.5864 115.65 86.5864C116.397 86.5776 117.061 86.3579 117.641 85.9272C118.212 85.4878 118.524 84.8418 118.577 83.9893ZM128.306 89.4209C129.589 89.4473 130.521 89.7769 131.101 90.4097C131.681 91.0425 131.914 91.7104 131.8 92.4136C131.694 93.1167 131.246 93.5913 130.455 93.8374C129.972 93.9341 129.576 93.8198 129.269 93.4946C128.961 93.1606 128.79 92.7695 128.754 92.3213C128.728 91.873 128.886 91.5259 129.229 91.2798C129.44 91.1216 129.462 90.937 129.295 90.7261C129.128 90.5063 128.842 90.3481 128.438 90.2515C128.042 90.146 127.594 90.1812 127.093 90.3569C126.601 90.5327 126.135 90.9282 125.696 91.5435C125.423 91.9478 125.226 92.3916 125.103 92.875C124.979 93.3496 124.918 93.8594 124.918 94.4043V103H121.543V89.7109H124.918V91.3062C125.7 90.0493 126.83 89.4209 128.306 89.4209ZM134.16 103V89.7109H137.535V103H134.16ZM135.847 87.5488C135.329 87.5488 134.885 87.3643 134.516 86.9951C134.146 86.626 133.962 86.1821 133.962 85.6636C133.962 85.145 134.146 84.7056 134.516 84.3452C134.885 83.9761 135.329 83.7915 135.847 83.7915C136.366 83.7915 136.805 83.9761 137.166 84.3452C137.535 84.7056 137.719 85.145 137.719 85.6636C137.719 86.1821 137.535 86.626 137.166 86.9951C136.805 87.3643 136.366 87.5488 135.847 87.5488ZM152.393 91.2271C152.938 91.8071 153.368 92.5322 153.685 93.4023C154.001 94.2637 154.159 95.2393 154.159 96.3291C154.159 97.3926 153.988 98.3374 153.645 99.1636C153.302 99.9897 152.832 100.724 152.234 101.365C151.654 102.016 151.017 102.508 150.323 102.842C149.628 103.167 148.824 103.33 147.91 103.33C147.137 103.33 146.495 103.22 145.985 103C145.476 102.771 145.08 102.517 144.799 102.235C144.518 101.945 144.342 101.699 144.271 101.497V103H140.896V83.8179H144.271V90.9897C144.72 90.4536 145.291 90.0581 145.985 89.8032C146.68 89.5483 147.383 89.4209 148.095 89.4209C149.861 89.4209 151.294 90.0229 152.393 91.2271ZM149.743 100.746C150.446 99.5767 150.793 98.0957 150.784 96.3027C150.784 94.5273 150.477 93.1079 149.861 92.0444C149.22 90.9634 148.336 90.4272 147.211 90.436C146.649 90.436 146.091 90.5942 145.537 90.9106C145.001 91.2183 144.579 91.5654 144.271 91.9521V99.0186C144.289 100.003 144.588 100.82 145.168 101.471C145.774 102.068 146.412 102.394 147.08 102.446C148.143 102.499 149.031 101.932 149.743 100.746ZM167.91 91.2666C169.079 92.5146 169.689 94.167 169.742 96.2236C169.742 98.2012 169.079 99.8755 167.751 101.247C166.433 102.618 164.86 103.303 163.032 103.303C161.212 103.303 159.67 102.644 158.404 101.326C157.156 100.016 156.532 98.3989 156.532 96.4741C156.532 94.4966 157.161 92.8223 158.417 91.4512C159.683 90.0625 161.305 89.3726 163.282 89.3813C165.216 89.3901 166.758 90.0186 167.91 91.2666ZM163.19 102.644C163.796 102.644 164.346 102.363 164.838 101.8C165.339 101.229 165.734 100.469 166.024 99.5195C166.323 98.5615 166.473 97.498 166.473 96.3291C166.473 95.1689 166.323 94.1143 166.024 93.165C165.734 92.207 165.339 91.4468 164.838 90.8843C164.346 90.313 163.796 90.0273 163.19 90.0273C162.583 90.0273 162.03 90.313 161.529 90.8843C161.037 91.4468 160.641 92.207 160.342 93.165C160.052 94.1143 159.907 95.1689 159.907 96.3291C159.907 97.498 160.052 98.5615 160.342 99.5195C160.641 100.469 161.037 101.229 161.529 101.8C162.03 102.363 162.583 102.644 163.19 102.644ZM181.99 89.7109V90.3438L175.543 102.367H181.99V103H171.72V102.367L178.167 90.3438H171.72V89.7109H181.99ZM207.302 98.2935L211.323 103H206.867L205.035 100.93C203.822 101.932 202.438 102.6 200.882 102.934C200.108 103.145 199.3 103.229 198.456 103.185C197.621 103.149 196.839 103.035 196.109 102.842C195.38 102.657 194.716 102.314 194.119 101.813C193.521 101.321 193.077 100.719 192.787 100.007C192.172 98.5044 192.216 97.0146 192.919 95.5381C193.631 94.0703 194.826 92.9937 196.505 92.3081C196.9 92.1499 197.116 92.0664 197.151 92.0576C197.186 92.04 197.116 91.9214 196.94 91.7017C196.773 91.4731 196.593 91.1875 196.399 90.8447C196.206 90.4932 196.061 90.124 195.964 89.7373C195.789 88.876 195.828 87.9751 196.083 87.0347C196.338 86.0854 196.87 85.2856 197.678 84.6353C198.496 83.9761 199.651 83.6685 201.146 83.7124C202.13 83.8091 202.921 84.2617 203.519 85.0703C204.116 85.8789 204.301 86.7974 204.072 87.8257C203.879 88.52 203.606 89.0781 203.255 89.5C202.912 89.9219 202.556 90.2427 202.187 90.4624C201.827 90.6821 201.392 90.8623 200.882 91.0029L206.92 97.8452C207.746 96.8521 208.062 96.1006 207.869 95.5908C207.676 95.0723 207.236 94.8394 206.551 94.8921C206.12 94.9097 205.839 94.7295 205.707 94.3516C205.575 93.9648 205.575 93.5254 205.707 93.0332C205.839 92.5322 206.076 92.1235 206.419 91.8071C206.762 91.4907 207.192 91.4116 207.711 91.5698C208.361 91.8159 208.783 92.2334 208.977 92.8223C209.179 93.4111 209.214 94.0659 209.082 94.7866C208.95 95.5073 208.717 96.1885 208.383 96.8301C208.058 97.4629 207.698 97.9507 207.302 98.2935ZM198.693 85.3604C197.735 86.4678 198.346 88.2212 200.526 90.6206L200.948 90.436C201.572 90.1724 202.077 89.8076 202.464 89.3418C202.851 88.8848 203.097 88.4585 203.202 88.063C203.316 87.6763 203.36 87.3071 203.334 86.9556C203.255 86.2261 202.996 85.646 202.556 85.2153C202.125 84.7847 201.589 84.5474 200.948 84.5034H200.724C199.854 84.5034 199.177 84.7891 198.693 85.3604ZM201.08 101.629C202.653 101.559 203.826 101.185 204.6 100.508L197.705 92.5981C197.617 92.6509 197.56 92.686 197.533 92.7036C196.821 93.1694 196.303 93.8154 195.978 94.6416C195.661 95.4678 195.516 96.2368 195.542 96.9487C195.569 97.6606 195.701 98.2715 195.938 98.7812C196.377 99.7568 197.067 100.482 198.008 100.957C198.957 101.431 199.981 101.655 201.08 101.629ZM230.769 83.8179H234.144V103H230.769V93.2837H224.56V103H221.185V83.8179H224.56V92.7036H230.769V83.8179ZM245.864 89.7109H249.239V103H245.864V101.51C244.845 102.697 243.544 103.29 241.962 103.29C240.617 103.325 239.541 102.947 238.732 102.156C238.336 101.778 238.002 101.334 237.73 100.825C237.458 100.315 237.321 99.6382 237.321 98.7944V89.7109H240.696V99.2295C240.688 100.029 240.925 100.719 241.408 101.299C241.883 101.888 242.52 102.178 243.32 102.169C244.032 102.169 244.638 101.875 245.139 101.286C245.623 100.706 245.864 100.021 245.864 99.2295V89.7109ZM242.555 84.4243C243.074 84.4243 243.518 84.6089 243.887 84.978C244.247 85.3384 244.427 85.7778 244.427 86.2964C244.427 86.8237 244.247 87.272 243.887 87.6411C243.518 88.0015 243.074 88.1816 242.555 88.1816C242.028 88.1816 241.584 88.0015 241.224 87.6411C240.854 87.272 240.67 86.8237 240.67 86.2964C240.67 85.7778 240.854 85.3384 241.224 84.978C241.584 84.6089 242.028 84.4243 242.555 84.4243ZM248.475 84.4243C248.993 84.4243 249.437 84.6089 249.806 84.978C250.175 85.3384 250.36 85.7778 250.36 86.2964C250.36 86.8237 250.175 87.272 249.806 87.6411C249.437 88.0015 248.993 88.1816 248.475 88.1816C247.956 88.1816 247.517 88.0015 247.156 87.6411C246.787 87.272 246.603 86.8237 246.603 86.2964C246.603 85.7778 246.787 85.3384 247.156 84.978C247.517 84.6089 247.956 84.4243 248.475 84.4243ZM259.496 95.3403C260.876 96.1753 261.526 97.3882 261.447 98.979C261.351 100.209 260.995 101.137 260.379 101.761C259.773 102.385 259.065 102.798 258.257 103C257.448 103.193 256.706 103.268 256.029 103.224C254.631 103.11 253.612 102.741 252.97 102.117C252.337 101.493 252.017 100.829 252.008 100.126C252.008 99.4229 252.258 98.8999 252.759 98.5571C253.392 98.2056 253.911 98.2144 254.315 98.5835C254.719 98.9526 254.957 99.4229 255.027 99.9941C255.097 100.557 254.952 100.957 254.592 101.194C254.416 101.299 254.368 101.453 254.447 101.655C254.535 101.857 254.741 102.042 255.066 102.209C255.4 102.376 255.849 102.459 256.411 102.459C257.589 102.416 258.419 102.174 258.903 101.734C259.386 101.295 259.632 100.816 259.641 100.297C259.659 99.7788 259.544 99.3789 259.298 99.0977C259.052 98.7988 258.657 98.5308 258.112 98.2935C257.382 97.9771 256.719 97.7266 256.121 97.542C255.356 97.2607 254.794 97.0454 254.434 96.896C252.843 96.105 252.065 94.8745 252.1 93.2046C252.135 92.106 252.513 91.1919 253.234 90.4624C254.007 89.7505 255.058 89.3857 256.385 89.3682C257.888 89.3506 258.995 89.6055 259.707 90.1328C260.428 90.6514 260.801 91.2402 260.828 91.8994C260.863 92.5586 260.604 93.0815 260.05 93.4683C259.514 93.7759 259.03 93.7539 258.6 93.4023C258.178 93.042 257.918 92.6069 257.822 92.0972C257.725 91.5786 257.892 91.2314 258.323 91.0557C258.622 90.9414 258.595 90.7568 258.244 90.502C257.892 90.2383 257.281 90.0889 256.411 90.0537C255.743 90.0449 255.176 90.2383 254.71 90.6338C254.341 90.9326 254.13 91.3369 254.078 91.8467C254.042 92.3213 254.201 92.7432 254.552 93.1123C254.851 93.4023 255.646 93.7935 256.938 94.2856C258.143 94.6899 258.995 95.0415 259.496 95.3403ZM274.13 100.68C274.895 99.9062 275.466 98.8867 275.844 97.6211H276.266C275.905 99.3877 275.145 100.772 273.985 101.774C272.833 102.767 271.462 103.264 269.872 103.264C268.114 103.264 266.615 102.604 265.376 101.286C264.163 99.9854 263.557 98.3682 263.557 96.4346C263.557 94.4307 264.163 92.7563 265.376 91.4116C266.606 90.0317 268.188 89.3418 270.122 89.3418C272.047 89.3418 273.554 89.9263 274.644 91.0952C275.751 92.2642 276.349 93.8242 276.437 95.7754H266.905C266.861 96.2148 266.875 96.7773 266.945 97.4629C267.015 98.1396 267.191 98.8208 267.472 99.5063C267.753 100.183 268.197 100.75 268.804 101.207C269.41 101.664 270.241 101.888 271.295 101.879C272.42 101.853 273.365 101.453 274.13 100.68ZM270.056 89.9351C269.362 89.9351 268.689 90.4229 268.039 91.3984C267.389 92.374 267.015 93.6177 266.918 95.1294H273.049C273.031 93.3804 272.746 92.0796 272.192 91.2271C271.647 90.3657 270.935 89.9351 270.056 89.9351ZM288.922 89.7109H289.581L282.699 105.808C282.066 107.232 281.39 108.199 280.669 108.708C279.948 109.227 279.271 109.438 278.639 109.341C278.006 109.245 277.505 108.985 277.136 108.563C276.767 108.15 276.617 107.724 276.688 107.285C276.846 106.582 277.105 106.129 277.465 105.927C277.834 105.733 278.212 105.703 278.599 105.834C278.986 105.975 279.293 106.195 279.522 106.494C279.75 106.792 279.803 107.083 279.68 107.364C279.566 107.654 279.61 107.856 279.812 107.97C280.014 108.084 280.317 107.975 280.722 107.641C281.135 107.315 281.596 106.63 282.106 105.584L283.227 103L277.716 89.7109H281.144L284.927 98.9131L288.922 89.7109ZM292.152 103V89.7109H295.527V103H292.152ZM293.839 87.5488C293.321 87.5488 292.877 87.3643 292.508 86.9951C292.139 86.626 291.954 86.1821 291.954 85.6636C291.954 85.145 292.139 84.7056 292.508 84.3452C292.877 83.9761 293.321 83.7915 293.839 83.7915C294.358 83.7915 294.797 83.9761 295.158 84.3452C295.527 84.7056 295.711 85.145 295.711 85.6636C295.711 86.1821 295.527 86.626 295.158 86.9951C294.797 87.3643 294.358 87.5488 293.839 87.5488ZM309.396 90.5547C309.792 90.9326 310.125 91.3765 310.398 91.8862C310.67 92.396 310.807 93.0728 310.807 93.9165V103H307.432V93.4814C307.44 92.6816 307.203 91.9917 306.72 91.4116C306.245 90.8228 305.608 90.5327 304.808 90.5415C304.096 90.5415 303.49 90.8359 302.989 91.4248C302.505 92.0049 302.264 92.6904 302.264 93.4814V103H298.889V89.7109H302.264V91.2007C303.283 90.0142 304.584 89.4209 306.166 89.4209C307.511 89.3857 308.587 89.7637 309.396 90.5547ZM335.631 83.8179L335.645 97.0806C335.645 99.0581 334.959 100.592 333.588 101.682C332.234 102.763 330.415 103.303 328.13 103.303C325.774 103.303 323.924 102.763 322.58 101.682C321.314 100.645 320.681 99.1108 320.681 97.0806L320.668 83.8179H324.083V97.0806C324.1 98.7241 324.588 99.9634 325.546 100.798C326.504 101.642 327.849 102.064 329.58 102.064C331.32 102.064 332.656 101.655 333.588 100.838C334.537 100.029 335.012 98.7769 335.012 97.0806L334.999 83.8179H335.631ZM328.96 84.4243C329.479 84.4243 329.923 84.6089 330.292 84.978C330.652 85.3384 330.833 85.7778 330.833 86.2964C330.833 86.8237 330.652 87.272 330.292 87.6411C329.923 88.0015 329.479 88.1816 328.96 88.1816C328.433 88.1816 327.989 88.0015 327.629 87.6411C327.26 87.272 327.075 86.8237 327.075 86.2964C327.075 85.7778 327.26 85.3384 327.629 84.978C327.989 84.6089 328.433 84.4243 328.96 84.4243ZM334.88 84.4243C335.398 84.4243 335.842 84.6089 336.211 84.978C336.581 85.3384 336.765 85.7778 336.765 86.2964C336.765 86.8237 336.581 87.272 336.211 87.6411C335.842 88.0015 335.398 88.1816 334.88 88.1816C334.361 88.1816 333.922 88.0015 333.562 87.6411C333.192 87.272 333.008 86.8237 333.008 86.2964C333.008 85.7778 333.192 85.3384 333.562 84.978C333.922 84.6089 334.361 84.4243 334.88 84.4243ZM349.316 90.5547C349.711 90.9326 350.045 91.3765 350.318 91.8862C350.59 92.396 350.727 93.0728 350.727 93.9165V103H347.352V93.4814C347.36 92.6816 347.123 91.9917 346.64 91.4116C346.165 90.8228 345.528 90.5327 344.728 90.5415C344.016 90.5415 343.41 90.8359 342.909 91.4248C342.425 92.0049 342.184 92.6904 342.184 93.4814V103H338.809V89.7109H342.184V91.2007C343.203 90.0142 344.504 89.4209 346.086 89.4209C347.431 89.3857 348.507 89.7637 349.316 90.5547ZM353.891 83.8179H357.266V103H353.891V83.8179ZM368.973 89.7109H372.348V103H368.973V101.51C367.953 102.697 366.652 103.29 365.07 103.29C363.726 103.325 362.649 102.947 361.84 102.156C361.445 101.778 361.111 101.334 360.838 100.825C360.566 100.315 360.43 99.6382 360.43 98.7944V89.7109H363.805V99.2295C363.796 100.029 364.033 100.719 364.517 101.299C364.991 101.888 365.628 102.178 366.428 102.169C367.14 102.169 367.747 101.875 368.248 101.286C368.731 100.706 368.973 100.021 368.973 99.2295V89.7109ZM365.664 84.4243C366.182 84.4243 366.626 84.6089 366.995 84.978C367.355 85.3384 367.536 85.7778 367.536 86.2964C367.536 86.8237 367.355 87.272 366.995 87.6411C366.626 88.0015 366.182 88.1816 365.664 88.1816C365.136 88.1816 364.692 88.0015 364.332 87.6411C363.963 87.272 363.778 86.8237 363.778 86.2964C363.778 85.7778 363.963 85.3384 364.332 84.978C364.692 84.6089 365.136 84.4243 365.664 84.4243ZM371.583 84.4243C372.102 84.4243 372.545 84.6089 372.915 84.978C373.284 85.3384 373.468 85.7778 373.468 86.2964C373.468 86.8237 373.284 87.272 372.915 87.6411C372.545 88.0015 372.102 88.1816 371.583 88.1816C371.064 88.1816 370.625 88.0015 370.265 87.6411C369.896 87.272 369.711 86.8237 369.711 86.2964C369.711 85.7778 369.896 85.3384 370.265 84.978C370.625 84.6089 371.064 84.4243 371.583 84.4243Z" fill="#121212"/>
</svg>
